<svg id="_3" data-name="3" xmlns="http://www.w3.org/2000/svg" viewBox="0 0 780 698.01"><defs><style>.cls-1{fill:#fff;}</style></defs><title>5</title><path class="cls-1" d="M4027,2182.5h-25a4.62,4.62,0,1,0,0,9.23h25a17.28,17.28,0,0,1,17.26,17.27v25a4.62,4.62,0,1,0,9.24,0v-25A26.53,26.53,0,0,0,4027,2182.5Z" transform="translate(-3580 -2182.5)"/><path class="cls-1" d="M3938.07,2182.5h-25a26.53,26.53,0,0,0-26.5,26.5v25a4.62,4.62,0,1,0,9.23,0v-25a17.29,17.29,0,0,1,17.27-17.27h25a4.62,4.62,0,1,0,0-9.23Z" transform="translate(-3580 -2182.5)"/><path class="cls-1" d="M4048.83,2422.86a4.62,4.62,0,0,0-4.62,4.62v25a17.28,17.28,0,0,1-17.26,17.26h-25a4.62,4.62,0,1,0,0,9.24h25a26.53,26.53,0,0,0,26.5-26.5v-25A4.62,4.62,0,0,0,4048.83,2422.86Z" transform="translate(-3580 -2182.5)"/><path class="cls-1" d="M3938.07,2469.76h-25a17.28,17.28,0,0,1-17.26-17.26v-25a4.62,4.62,0,1,0-9.24,0v25a26.53,26.53,0,0,0,26.5,26.5h25a4.62,4.62,0,1,0,0-9.24Z" transform="translate(-3580 -2182.5)"/><path class="cls-1" d="M4019.29,2286.69a30.36,30.36,0,0,0-3.1-4.68,30.78,30.78,0,0,0-24-11.5h-44.36a30.83,30.83,0,0,0-30.8,30.8v57.59a7.56,7.56,0,0,0,7.55,7.55h13.11v4.4a4.62,4.62,0,1,0,9.23,0v-9a5.44,5.44,0,0,0-.07-.82v-52.27a4.62,4.62,0,0,0-9.24,0v48.47h-11.35v-55.91a21.59,21.59,0,0,1,21.57-21.56h44.36a21.53,21.53,0,0,1,21.56,21.56,4.62,4.62,0,1,0,9.24,0A30.75,30.75,0,0,0,4019.29,2286.69Z" transform="translate(-3580 -2182.5)"/><path class="cls-1" d="M4018.36,2313.82a4.61,4.61,0,0,0-4.61,4.62v38.78h-11.5v-48.47a4.62,4.62,0,0,0-9.24,0v53.09a4.26,4.26,0,0,0,.08.8v74.28h-46.18v-48a4.62,4.62,0,1,0-9.23,0v52.57a4.61,4.61,0,0,0,4.61,4.62h55.42a4.61,4.61,0,0,0,4.61-4.62v-75.09h13.11a7.56,7.56,0,0,0,7.55-7.55v-40.46A4.62,4.62,0,0,0,4018.36,2313.82Z" transform="translate(-3580 -2182.5)"/><path class="cls-1" d="M3971,2215.34a26.54,26.54,0,1,0,26.54,26.54A26.57,26.57,0,0,0,3971,2215.34Zm0,43.84a17.3,17.3,0,1,1,17.3-17.3A17.32,17.32,0,0,1,3971,2259.18Z" transform="translate(-3580 -2182.5)"/><path class="cls-1" d="M4171.57,2722.78a67.09,67.09,0,1,0,67.08-67.08A67.08,67.08,0,0,0,4171.57,2722.78Zm67.08-57.83a57.83,57.83,0,1,1-57.83,57.83A57.83,57.83,0,0,1,4238.65,2665Z" transform="translate(-3580 -2182.5)"/><path class="cls-1" d="M4328.54,2801.27l-36.24,17.12a29.51,29.51,0,0,0-25.16-15.53l-33.45-.92a35.36,35.36,0,0,1-15.21-3.92l-3.4-1.77a60.07,60.07,0,0,0-55.62.06l.22-7.71a4.63,4.63,0,0,0-4.5-4.75l-36.68-1a4.62,4.62,0,0,0-4.75,4.5l-2.22,80.5a4.63,4.63,0,0,0,4.5,4.75l36.68,1h.13a4.63,4.63,0,0,0,4.62-4.5l.11-3.85,9.53-5.1a16.29,16.29,0,0,1,12.2-1.34l56.91,16,.3.08a61,61,0,0,0,12.5,1.29,61.88,61.88,0,0,0,25.79-5.63,4,4,0,0,0,.57-.32l82.52-53.37a4.63,4.63,0,0,0,1.51-6.16A23.37,23.37,0,0,0,4328.54,2801.27Zm-207.63,62.2,2-71.25,27.43.75-2,71.25Zm149.72-1.21a52.53,52.53,0,0,1-32.07,3.58l-56.76-15.93a25.57,25.57,0,0,0-19.07,2.08l-4.87,2.61,1.31-47.37a50.83,50.83,0,0,1,51.65-2.76l3.41,1.76a44.5,44.5,0,0,0,19.2,5l33.46.92a20.3,20.3,0,0,1,19.28,16.17l-49.83-1.37a4.63,4.63,0,1,0-.25,9.25l55,1.51h.13a4.63,4.63,0,0,0,4.62-4.5,28.74,28.74,0,0,0-.45-6l37.17-17.56.11-.06a14.15,14.15,0,0,1,16,2.24Z" transform="translate(-3580 -2182.5)"/><path class="cls-1" d="M4243.28,2642.69v-43.94a4.63,4.63,0,1,0-9.25,0v43.94a4.63,4.63,0,1,0,9.25,0Z" transform="translate(-3580 -2182.5)"/><path class="cls-1" d="M4278,2642.69v-20.81a4.63,4.63,0,1,0-9.26,0v20.81a4.63,4.63,0,0,0,9.26,0Z" transform="translate(-3580 -2182.5)"/><path class="cls-1" d="M4208.58,2642.69v-20.81a4.63,4.63,0,1,0-9.25,0v20.81a4.63,4.63,0,1,0,9.25,0Z" transform="translate(-3580 -2182.5)"/><path class="cls-1" d="M4231.91,2741.43a.41.41,0,0,1-.43-.14,3.32,3.32,0,0,0-.63-.21,4.9,4.9,0,0,1-.64-.22,2,2,0,0,0-.74-.14,3.51,3.51,0,0,1-.74-.07,2.37,2.37,0,0,0-.5-.18l-.56-.1h-2.9c-.24,0-.47,0-.71,0a5.63,5.63,0,0,1-.71,0h-.49a.28.28,0,0,1-.28-.14.07.07,0,0,1-.07.07v.07a1.94,1.94,0,0,0-.68.11,1.89,1.89,0,0,1-.6.1,5,5,0,0,1-1,.07H4220l-.07-.07c-.05,0-.07,0-.07,0s0,0-.07,0a.55.55,0,0,1-.28-.07c-.05.14-.19.17-.43.07a.73.73,0,0,1-.35.07.86.86,0,0,0-.28,0,1.43,1.43,0,0,1-.29,0H4218a.26.26,0,0,1-.21,0c-.05,0-.12,0-.21,0a3.51,3.51,0,0,1-.71.08,4.42,4.42,0,0,0-.78.07c-.23.09-.31,0-.21-.22a.28.28,0,0,0,.21-.07.15.15,0,0,0-.21.07.06.06,0,0,0-.07.07.31.31,0,0,1-.18.18.34.34,0,0,0-.17.11h-.5a.27.27,0,0,0-.21.07.33.33,0,0,1-.21.07h-.22a4.08,4.08,0,0,1-.84.14c-.38.09-.81.19-1.28.28a2.82,2.82,0,0,1-.46.11,1.21,1.21,0,0,0-.39.11,1.54,1.54,0,0,1-.42.07.73.73,0,0,0-.35.07,2.28,2.28,0,0,0-.53.14,5.32,5.32,0,0,1-.53.14l-.57.14-.56.14-.08.07a2.39,2.39,0,0,1-.67.29,3.4,3.4,0,0,0-.67.21c-.14,0-.45.16-.92.35a2.27,2.27,0,0,1-.56.21,4.9,4.9,0,0,0-.64.22,4.1,4.1,0,0,0-.85.35,6.59,6.59,0,0,0-1.06.35,7.75,7.75,0,0,1-1.06.36c.05-.1.08-.13.11-.11s0,0,0,0a.21.21,0,0,0-.07-.14.58.58,0,0,1-.28.07.68.68,0,0,0-.28.07.57.57,0,0,0,.28.08v.28a.18.18,0,0,0-.11,0,.12.12,0,0,1-.1,0h-.07a.5.5,0,0,1-.57.07l-.14-.14v.28l.14-.14a.19.19,0,0,0,.07.14,2.41,2.41,0,0,1-.25.11.88.88,0,0,1-.24,0v-.07c-.1-.05-.16,0-.18.07a.16.16,0,0,1-.18.14s-.21,0-.49.07a.58.58,0,0,0-.43.15v.14a.33.33,0,0,1-.21-.07c-.05-.05-.09,0-.14.07v.07a1.33,1.33,0,0,1-.32,0,2.38,2.38,0,0,0-.39,0,.26.26,0,0,1-.07-.14l-.71-.71a4.56,4.56,0,0,1-.56-.64c-.05-.05-.07-.16-.07-.35s-.31-.5-.5-.78a.42.42,0,0,1-.14-.28.36.36,0,0,0-.14-.28.66.66,0,0,1,.07-.85,1,1,0,0,1,.46-.53,2.51,2.51,0,0,0,.53-.39l1.13-.74a9.67,9.67,0,0,1,1.13-.68,6.85,6.85,0,0,0,.67-.31,4.6,4.6,0,0,1,.67-.32,2,2,0,0,1,.53-.25,2,2,0,0,0,.53-.25,1.17,1.17,0,0,0,.35-.35l.56-1c.19-.3.38-.6.57-.88l.85-1.27.74-.89c.25-.3.5-.62.74-.95s.37-.47.56-.71a8.13,8.13,0,0,1,.64-.7c.23-.29.47-.58.7-.89s.47-.6.71-.88.47-.58.7-.89a11.26,11.26,0,0,0,.71-1c.33-.38.66-.74,1-1.1s.65-.71,1-1.09a4.14,4.14,0,0,1,.57-.6c.18-.17.37-.34.56-.53a5,5,0,0,0,.49-.57l.5-.64c.28-.28.58-.56.88-.84s.6-.55.88-.78a3.12,3.12,0,0,1,.5-.53,4.05,4.05,0,0,0,.49-.53,3.09,3.09,0,0,0,.49-.46,2.25,2.25,0,0,1,.57-.46c.33-.28.65-.58.95-.88l.88-.89a4,4,0,0,0,.46-.39l.32-.32a4,4,0,0,1,.35-.31l.35-.32a7.91,7.91,0,0,1,1.35-1.2,4.28,4.28,0,0,1,.56-.5,2.28,2.28,0,0,0,.49-.49,7,7,0,0,0,.6-.53,3.17,3.17,0,0,1,.6-.46c.19-.15.37-.29.53-.43a2.69,2.69,0,0,0,.46-.49,7.1,7.1,0,0,0,.64-.43,3.69,3.69,0,0,0,.56-.56l.67-.53.67-.53.6-.5.6-.56a3.58,3.58,0,0,1,.56-.43l.08-.07c-.1-.09-.18-.13-.25-.1a.33.33,0,0,1-.25,0h-.56c0-.14-.05-.19-.15-.14l-.14.14h-.32a.64.64,0,0,1-.31-.07h-.22a.91.91,0,0,1-.42-.07.39.39,0,0,0-.28-.07c-.24.14-.4.12-.5-.07-.09.09-.17.13-.25.1a.88.88,0,0,0-.24,0,.43.43,0,0,1-.22,0,.51.51,0,0,0-.21,0,.33.33,0,0,1-.21-.07,1.37,1.37,0,0,1-.85,0h-.7a4.22,4.22,0,0,0-.85-.07,1.51,1.51,0,0,0-.5-.07,1.35,1.35,0,0,1-.28,0,1.45,1.45,0,0,0-.28,0,.63.63,0,0,0-.29.08h-.14a.51.51,0,0,0-.39-.11l-.31,0a.41.41,0,0,1-.29-.07.71.71,0,0,1-.7-.07c-.24.14-.38.17-.43.07H4218a.36.36,0,0,1-.18,0,.27.27,0,0,0-.17,0c-.1-.09-.17-.07-.22.07l-.14-.14c-.09.14-.19.18-.28.11a2.2,2.2,0,0,0-.28-.18v.14h-.43a.13.13,0,0,1-.21-.07.47.47,0,0,1-.56.07h-.07a.5.5,0,0,1-.32,0,.56.56,0,0,0-.32,0H4214a.36.36,0,0,1-.18,0,.15.15,0,0,0-.1,0,.62.62,0,0,1-.18.07l-.18.07-.14-.14a.47.47,0,0,1-.7-.07.33.33,0,0,1,.07.21h-.36s0-.07,0-.07,0,0,0-.07v-.14c-.09,0-.13,0-.1.07a.25.25,0,0,1,0,.21.37.37,0,0,0-.14,0,.56.56,0,0,1-.21,0,.91.91,0,0,1-.35.07l-.15-.15a.54.54,0,0,1-.42.15,3.55,3.55,0,0,0-.85.14,2.2,2.2,0,0,0-.71.14.73.73,0,0,0-.35.07,1.12,1.12,0,0,0-.49.07,4.73,4.73,0,0,1-.57.21,3.37,3.37,0,0,0-1.13.71,1.31,1.31,0,0,0-.25.32l-.25.46-.14.28a.18.18,0,0,0,0-.11.11.11,0,0,1,0-.1c-.05-.05-.07-.19-.07-.43a.29.29,0,0,0-.07.22,5.54,5.54,0,0,0-.49-.43,4.27,4.27,0,0,1-.46-.53,1.24,1.24,0,0,1-.25-.81v-.71a.33.33,0,0,0,0-.25.88.88,0,0,1,0-.24,3.16,3.16,0,0,1-.07-2,2.23,2.23,0,0,1,.39-.89,2,2,0,0,1,.6-.53,11.5,11.5,0,0,1,1.13-.63l1.13-.57c.24-.09.5-.19.78-.28l.85-.29a7.8,7.8,0,0,0,1.62-.35,5.92,5.92,0,0,1,.78-.1c.28,0,.57-.06.85-.11h.42a1.51,1.51,0,0,1,.5-.07,1.92,1.92,0,0,1,.49-.07,2.59,2.59,0,0,0,.5-.07h.63a4,4,0,0,0,.64-.07,2.71,2.71,0,0,0,.42,0,.8.8,0,0,1,.43,0,1.61,1.61,0,0,0,.39,0l.32,0h4.1c.23,0,.46,0,.67,0a4.73,4.73,0,0,0,.67,0,5.44,5.44,0,0,1,.57,0,3.43,3.43,0,0,0,.56,0h.14a2.83,2.83,0,0,1,.71.07h.92a4.53,4.53,0,0,0,1,.07q.42,0,.81,0a6.46,6.46,0,0,0,.74,0,2.09,2.09,0,0,0,.53.07h.46a.5.5,0,0,0,.32,0,.44.44,0,0,1,.32,0,5.65,5.65,0,0,1,1.06.07h.67a4,4,0,0,1,.67.07,2.91,2.91,0,0,1,.57,0,3.58,3.58,0,0,0,.49,0,3.67,3.67,0,0,0,.75.07h.74a3.18,3.18,0,0,0,.67.07,4,4,0,0,1,.67.07h.14c.1.24.17.43.22.57a1.83,1.83,0,0,1,.07.5.31.31,0,0,0,0,.28l.15.28a8.35,8.35,0,0,1,.42,1.06,1,1,0,0,1,.21.28v.07a.29.29,0,0,0,0,.18.18.18,0,0,1,0,.11c-.28,0-.44.09-.49.28.14,0,.21,0,.21.07a.91.91,0,0,0,.18-.21.61.61,0,0,1,.1-.14.62.62,0,0,1,.29.07s.11.12.21.35a1.08,1.08,0,0,0-.32.32.29.29,0,0,1-.25.18l-.07.14a1.52,1.52,0,0,0-.42.28c0,.05-.07.14-.21.28a1.6,1.6,0,0,0-.3.36,1.16,1.16,0,0,0-.37.14.5.5,0,0,1-.22.21,1.37,1.37,0,0,0-.3.21l-.29.29c-.05,0-.08.07-.08.21s.07,0,.22-.14a1.27,1.27,0,0,1,.4-.36,1.64,1.64,0,0,0,.4-.28.12.12,0,0,1,.07-.11.37.37,0,0,0,.15-.17h.07a.94.94,0,0,0,.43-.43.26.26,0,0,1,.15.07v-.14a.68.68,0,0,0,.18-.24c0-.08.08-.13.18-.18a.21.21,0,0,0,.15-.07c0-.1.16-.19.36-.29v.15a1.89,1.89,0,0,1-.46.53,3.46,3.46,0,0,0-.53.46,1.42,1.42,0,0,1-.39.38l-.53.39-1.06.85a8.2,8.2,0,0,1-.71.64c-.23.19-.47.4-.7.63a.61.61,0,0,1-.32.18.61.61,0,0,0-.32.18c0,.05-.1.16-.28.35l-.75.57a7.26,7.26,0,0,0-.74.63c-.28.24-.56.48-.85.71l-.85.71a1.51,1.51,0,0,0-.49.39,4.35,4.35,0,0,1-.57.53s-.07,0-.07,0,0,0-.07,0l-.14.14h-.07a2.74,2.74,0,0,0-.46.42,1.37,1.37,0,0,1-.53.36v-.29h.21v-.07a.29.29,0,0,0,.22-.07c-.05,0-.08,0-.08,0s0,0-.07,0l.22-.21q-.29,0-.15.21c-.23,0-.35.07-.35.21a.33.33,0,0,0-.21.07h-.07v.15s.07,0,.07-.15l.14.15c-.05,0-.07,0-.07,0s0,0-.07,0v.21s0,.07,0,.07,0,0,0,.07a1.26,1.26,0,0,1-.36.28.17.17,0,0,1-.14.07.07.07,0,0,0-.07.07,1.68,1.68,0,0,0-.28.36l-.07.07a.69.69,0,0,0-.32.21,1.13,1.13,0,0,1-.32.28l-.56.57-.25.21-.25.21a.43.43,0,0,0-.28.29.26.26,0,0,1-.14.07c-.05,0-.07,0-.07.07a1.61,1.61,0,0,1-.57.56,5.86,5.86,0,0,1-.71.64,2.06,2.06,0,0,1-.38.42,5.42,5.42,0,0,1-.46.36,3.51,3.51,0,0,1-.71.63,7.76,7.76,0,0,1-.78.85,2.21,2.21,0,0,1-.32.28c-.11.1-.22.19-.31.29l-.57.56-.35.36a2.69,2.69,0,0,0-.36.42l-.17.18a.35.35,0,0,1-.25.1l-.07.08a2.09,2.09,0,0,1-.78.78,2.18,2.18,0,0,1-.71.79,1.42,1.42,0,0,1-.56.65,1.06,1.06,0,0,0-.21.25,1.83,1.83,0,0,0-.15.25,1.83,1.83,0,0,1-.31.36,3,3,0,0,0-.32.28l-.14.15a3.33,3.33,0,0,0-.43.57,4.42,4.42,0,0,0-.42.5l-.43.58a.18.18,0,0,1-.1.06s-.06,0-.11.06-.08.12-.1.12-.06.05-.11.13,0,.06,0,.06,0,0,0,.06l-.28.28-.29.29a1.83,1.83,0,0,1-.42.63,2.37,2.37,0,0,0-.43.57,3.56,3.56,0,0,0-.56.71,3.51,3.51,0,0,1-.57.7,3.89,3.89,0,0,1-.42.6,6.76,6.76,0,0,0-.43.6q-.21.29-.45.57a3.88,3.88,0,0,0-.46.64l-.07.14h.14l.84-.21s.08,0,.08,0,0,0,.07,0,.1-.15.17-.15a.36.36,0,0,0,.25-.14h.07a.62.62,0,0,0,.32-.1.77.77,0,0,1,.39-.11h.07v.35a1,1,0,0,0,.07-.35,1.15,1.15,0,0,1,.49-.07c0,.05-.07.08-.07.11a.16.16,0,0,1-.07.1c.14,0,.22,0,.22-.07v-.21a.45.45,0,0,1,.35-.14.87.87,0,0,0,.35-.07h.07v.21c0-.05.08-.07.11-.07a.3.3,0,0,0,.11-.07.29.29,0,0,0-.22-.07l.29-.13a.58.58,0,0,0,.21,0,.23.23,0,0,1,.14,0l.6-.09.6-.1s0,0,.07,0l-.14.26a.72.72,0,0,1,.28-.07l.07-.06-.14-.13q.15-.2.57-.06a.2.2,0,0,0-.14.06h-.07s0,.07,0,.07,0,0,0,.06l.07.06s.07,0,.21-.12,0,0,.07,0v-.2s.05-.06.14-.06.36-.08.53-.1a5.21,5.21,0,0,1,.6,0,2.58,2.58,0,0,1,.78-.14l.56-.16a1.63,1.63,0,0,1,.43,0l.35.07v.21a.12.12,0,0,0,.14-.14h-.14c0-.11,0-.16.07-.16a1.71,1.71,0,0,0,.36,0,1.7,1.7,0,0,1,.35,0c.33-.06.64-.1.92-.13s.61-.07,1-.13h.53a3,3,0,0,0,.6-.07q.49,0,1,0c.3,0,.64,0,1,0h1.41a3.41,3.41,0,0,1,.89,0l.74,0a3,3,0,0,0,.6.07h.6c0,.06,0,.08.07.08s.07,0,.07,0,0,0,.07,0a.87.87,0,0,1,.71,0,6.37,6.37,0,0,0,.67.12l.67.12a2.42,2.42,0,0,0,.85.24.75.75,0,0,0,.22.07.69.69,0,0,1,.21.06,2.91,2.91,0,0,1,.63.2l.57.27a3.29,3.29,0,0,1,.92.47l.14.13c.19,0,.33.12.42.35s.15.13.15.11a1.63,1.63,0,0,1,.07.25.38.38,0,0,1,.28.42c.05.19.14.29.28.29a.49.49,0,0,1,.07.24.68.68,0,0,0,.07.25,1.78,1.78,0,0,1,.14.42c0,.05,0,.08,0,.08s0,0,0,.07a.39.39,0,0,0,0,.14.48.48,0,0,1,0,.21,4.51,4.51,0,0,0,.17.46,1.32,1.32,0,0,1,.11.53v2.47a1.32,1.32,0,0,1-.21.29.68.68,0,0,1,.07.28.58.58,0,0,0,.07.28,1.2,1.2,0,0,0,.14.57,3.62,3.62,0,0,1,.07.85,1.2,1.2,0,0,1,0,.31,2,2,0,0,0,0,.32q0,.28-.15.36c-.09-.05-.13-.1-.1-.15a.12.12,0,0,0,0-.14,1.51,1.51,0,0,0-.11.32c0,.12-.13.18-.32.18a.67.67,0,0,0-.36-.43,1.8,1.8,0,0,0-.29-.35c-.1-.05-.17-.05-.22,0s-.13-.11-.11-.18,0-.1-.1-.1a.73.73,0,0,0,.07.35h-.07a1.3,1.3,0,0,1-.15-.35,3.3,3.3,0,0,0-.29-.5c-.09,0-.16-.19-.21-.42a1.65,1.65,0,0,0-.25-.6,4.55,4.55,0,0,0-.4-.46l-.15-.14v-.07h.15a1.56,1.56,0,0,1-.36-.29.29.29,0,0,0,.07.22.18.18,0,0,1-.11,0,.16.16,0,0,0-.11,0v-.21l-.24-.14C4232.07,2741.43,4232,2741.38,4231.91,2741.43Zm-33.94,2a.12.12,0,0,1-.14.14l-.14-.14v.35h.35l.14-.07c.1.1.18.12.25.07l.25-.14c0-.09.07-.14.21-.14a.12.12,0,0,0-.14-.14c.24-.1.4-.12.49-.07a.16.16,0,0,1,0-.11.15.15,0,0,0,0-.1c0-.24,0-.26-.15-.08a.07.07,0,0,0-.07.08h-.21l-.14.14a.2.2,0,0,1-.07-.11.2.2,0,0,0-.07-.11l-.14.08-.22.1-.21.11S4198,2743.31,4198,2743.41Zm.71-.92c.19-.09.19-.14,0-.14Zm0,3h.07l-.07-.07Zm.42.07a.34.34,0,0,1,0-.18s0-.08,0-.17Zm.5-.21a.13.13,0,0,0,.14-.14v-.07c-.05,0-.08.07-.11.07s-.06,0-.1.14Zm.56-2.76a.42.42,0,0,1-.14-.28.31.31,0,0,0-.07.21l-.07.14q-.21.07-.21.21a.63.63,0,0,1,.21-.07.17.17,0,0,0,.14-.07Zm.07,2.26a.21.21,0,0,1-.07-.14l-.14.14h-.14a.49.49,0,0,0,.07.29.33.33,0,0,0,.14,0,.24.24,0,0,0,.32-.21.72.72,0,0,0,.11-.18.17.17,0,0,1-.14-.07A.4.4,0,0,0,4200.23,2744.82Zm1.14-2.54c0-.1.07-.19.21-.28h.21a.27.27,0,0,0,.21-.08.33.33,0,0,1,.21-.07.43.43,0,0,0-.28-.07.26.26,0,0,1,.07-.14.17.17,0,0,0-.14-.07.54.54,0,0,0-.11.18.28.28,0,0,1-.17.17c-.14-.09-.24-.11-.29-.07a.07.07,0,0,1,.08.07l-.08.08-.14.14a.46.46,0,0,0-.21-.07.63.63,0,0,1-.21-.07v.07l.07.07c-.05.09-.08.14-.11.14s0,0-.1.07a1.39,1.39,0,0,0-.28.21.55.55,0,0,0,.35-.07c0-.14.14-.17.42-.07,0-.05.05-.12.14-.21s.07,0,.07,0S4201.32,2742.28,4201.37,2742.28Zm-.43,2.12a1.57,1.57,0,0,0,.28.21c.05,0,.12-.05.22-.14v-.14a.31.31,0,0,1,.17.14c0,.05.09,0,.18-.07a.34.34,0,0,1,0-.25c0-.07,0-.13-.1-.18a.23.23,0,0,1-.14.08.17.17,0,0,0-.14.07c0,.09-.08.14-.22.14s-.21,0-.21.14a.19.19,0,0,1-.14.07c-.05,0-.07,0-.07,0s0,0-.07,0v.28a.17.17,0,0,0,.07.14.38.38,0,0,0,.28-.14.13.13,0,0,0,0-.1A.26.26,0,0,1,4200.94,2744.4Zm.21.92c0-.1,0-.14,0-.14s0,0,0-.07V2745l-.14.14Zm1-1.35a.21.21,0,0,0-.07-.14.31.31,0,0,1,0,.18.12.12,0,0,0,0,.11C4202.1,2744.16,4202.14,2744.12,4202.14,2744Zm.85-.07c0-.09-.09-.11-.14-.07s.07,0,.07,0S4203,2743.9,4203,2743.9Zm.21-.35a.17.17,0,0,0-.14-.07l.14.28a.16.16,0,0,0,.07-.1s0-.06.08-.11h.07a.19.19,0,0,1-.07-.14C4203.25,2743.41,4203.2,2743.46,4203.2,2743.55Zm.36-.28c0,.14.09.19.14.14Zm.42-.14c-.09.09-.14.16-.14.21l.14.14A.42.42,0,0,0,4204,2743.13Zm.5-.15a.6.6,0,0,1-.14.11.85.85,0,0,0-.22.18.43.43,0,0,0,.22,0,.51.51,0,0,1,.21,0A.34.34,0,0,0,4204.48,2743Zm1.55-3.11a.37.37,0,0,0-.14,0,.35.35,0,0,1-.14,0,.62.62,0,0,0-.07.18,1.32,1.32,0,0,1-.07.18,1.23,1.23,0,0,1,.42-.07,1.54,1.54,0,0,1,.57-.29.65.65,0,0,0-.36-.07.22.22,0,0,0-.1-.07s-.06,0-.11-.07Zm.21-30.54a.31.31,0,0,0,.18,0s.08,0,.18,0v-.21a1.44,1.44,0,0,1,.63-.43c.1,0,.15-.09.15-.14s0-.07.14-.07a.18.18,0,0,0,0,.11.12.12,0,0,1,0,.1.54.54,0,0,0,.07-.42c-.05,0-.07,0-.07,0s0,0-.07,0a.17.17,0,0,1,.14-.07V2708h-.21a.32.32,0,0,1-.22.35.38.38,0,0,1-.28.14.19.19,0,0,1-.14-.07.68.68,0,0,0-.5.5c-.14,0-.27.21-.38.49a1.86,1.86,0,0,0-.11,1q.14-.34.21-.6a.73.73,0,0,1,.28-.39Zm-.14,33.3a.58.58,0,0,0,.07-.28.3.3,0,0,0-.35.07l.21.14v.07Zm12.72-20.43c0,.09.05.14.15.14v-.28a1.51,1.51,0,0,0,.21-.14h.21l.08-.3.07.12a.21.21,0,0,1,.07-.18c.18,0,.28-.15.28-.46l.14.15c.09,0,.12,0,.07-.07a.1.1,0,0,1,0-.16h.21a.26.26,0,0,1-.07-.15.39.39,0,0,0,.14-.23.12.12,0,0,0,.22-.07.21.21,0,0,1,.07-.14v.21q.21-.06.21-.42a.08.08,0,0,1,.14,0,.08.08,0,0,0,.14,0s-.05-.07-.14-.07a.43.43,0,0,1,.21-.21.22.22,0,0,0,.14-.22h-.14s0-.07,0-.07,0,0,0-.07a.28.28,0,0,0-.07.21.27.27,0,0,0-.28.15l.07.07-.21.21s-.05-.07-.14-.07-.17.14-.22.14h-.07a.5.5,0,0,0-.07.3v.15a1.08,1.08,0,0,0-.28.22h-.14q.14-.15.21-.15c.05,0,.07,0,.07-.15s-.14,0-.14,0,0,.11-.07.11-.12.1-.21.3h-.07c-.05,0-.12,0-.22.15s-.11,0-.21.14a.21.21,0,0,1,.07.15s0,.08-.07.08,0-.08-.07-.08-.21,0-.21.15-.05.12,0,.22l.07-.08s.05-.07.14-.07l-.21.43s-.05-.07-.14-.07c-.1.19-.21.28-.36.28l-.07-.14a.63.63,0,0,0-.07.21.46.46,0,0,1-.07.21h-.21v.14h-.07c-.19.1-.28.19-.28.29s0,.14-.07.14-.1.19-.29.28c0-.14,0-.19-.14-.14a1,1,0,0,0-.07.42h-.21v.22a.21.21,0,0,1-.14-.07v.14a2,2,0,0,0-.21.21l-.15.14a.21.21,0,0,1-.14-.07v.07a.29.29,0,0,0,.07.21,1.28,1.28,0,0,1-.28.21c-.05,0-.07.07-.07.2a1.84,1.84,0,0,0-.46.31l-.32.31h-.21c-.05,0-.07.05-.07.14h.07l.14.06a2.26,2.26,0,0,0-.42.35v-.35a.58.58,0,0,0-.07.48h-.22a.58.58,0,0,1-.35.21.24.24,0,0,1-.07.2l.14.22a.13.13,0,0,0-.1,0,.14.14,0,0,1-.11,0l-.07-.07v.17s-.06.1-.16.18-.35,0-.41.14v.28a.15.15,0,0,0-.1,0,.18.18,0,0,1-.11,0l-.07-.14v.22c-.1,0-.15,0-.18,0a1.37,1.37,0,0,1-.17.21h-.14c-.1.28-.17.52-.22.7H4212l.07.29a.12.12,0,0,1-.11,0,.18.18,0,0,0-.11,0,.28.28,0,0,0,.07.21.44.44,0,0,0-.3.07v.21q-.15.15-.15.21-.15-.14-.15-.21a.72.72,0,0,1-.08.35.07.07,0,0,1,.08.08h-.23l-.15.07a.42.42,0,0,0-.11.21c0,.19,0,.31-.1.35a.45.45,0,0,0,0-.28v.28a.26.26,0,0,1-.08.21v-.14a4,4,0,0,0-.53.43h.07v.14c0,.05-.1,0-.15,0s-.1,0-.15.11.07,0,.07,0,0,0,.08,0-.09.13-.12.11-.06,0-.11,0l-.12.14.12.14a.24.24,0,0,0-.06.11.24.24,0,0,1-.06.11.24.24,0,0,0-.06-.15l-.17.22v.28l-.15-.14a.82.82,0,0,0-.14.56.43.43,0,0,0-.21-.21,1,1,0,0,0-.21.36l.14.07h-.21c0,.23-.05.37-.14.42s0,.07-.14.21a.18.18,0,0,1,0,.11.15.15,0,0,0,0,.1.29.29,0,0,0-.08-.21,1.66,1.66,0,0,0-.1.29,2,2,0,0,1-.11.28.23.23,0,0,1-.14.07.19.19,0,0,0-.14.07,1.22,1.22,0,0,0-.21.49h-.14v-.21h-.07a.26.26,0,0,1-.08.21.63.63,0,0,1,.08.29.24.24,0,0,0-.22.17.44.44,0,0,1-.21.25.41.41,0,0,1-.07.25,1.86,1.86,0,0,0-.14.25l-.28-.15a1.32,1.32,0,0,1,.07.18.62.62,0,0,0,.07.18.21.21,0,0,0-.14-.07.17.17,0,0,0-.07.14.51.51,0,0,1-.08.21.25.25,0,0,0-.21-.07.42.42,0,0,0,.14.28.85.85,0,0,0,.43-.42.26.26,0,0,0,.07-.14.17.17,0,0,1,.07-.14,2.29,2.29,0,0,1,.57-.64c0-.1,0-.14.14-.14a1.43,1.43,0,0,1,.28-.57,3,3,0,0,0,.28-.32c.1-.11.19-.22.29-.31l.14-.07v-.15a1.14,1.14,0,0,0,.28-.42c.05,0,.07,0,.07.07s.05.09.14.14q-.08-.49.21-.63a.12.12,0,0,1,0-.11.16.16,0,0,0,0-.11h.15v-.21a1.13,1.13,0,0,0,.35-.14v-.07a1,1,0,0,0,.21-.14.18.18,0,0,0,0-.11.11.11,0,0,1,0-.1l.14-.14.07.14a1.92,1.92,0,0,1,.14-.31l.15-.24c.18-.09.28-.12.28-.07v-.28a1.53,1.53,0,0,1,.6-.69c.05,0,.07,0,.07.07v-.21s.07-.14.2-.27a2.16,2.16,0,0,0,.4-.56.27.27,0,0,0,0,.17.18.18,0,0,1,0,.11l.07-.28c0-.27.1-.41.29-.41.09-.25.19-.38.28-.38,0,.15,0,.23-.07.23s.07,0,.07.07a3.5,3.5,0,0,0,.22-.37.66.66,0,0,0,.07-.3,1.83,1.83,0,0,1,.21-.37.84.84,0,0,0,.18-.11.53.53,0,0,1,.18-.12l.07.07a.13.13,0,0,1,.14-.14c.1,0,.12-.07.08-.21h-.15l.15-.14h.14a.39.39,0,0,0,.07-.28,7.81,7.81,0,0,1,.71-.78l.5-.5.15-.14a.17.17,0,0,0,.07.14v-.21h.07a.15.15,0,0,1,0-.1.14.14,0,0,0,0-.11,1.55,1.55,0,0,1,.32-.35,3.09,3.09,0,0,0,.32-.29,1.32,1.32,0,0,1,.29-.21v-.07a2,2,0,0,0,.21-.25,1.5,1.5,0,0,1,.22-.24c.09,0,.14,0,.14.07a.29.29,0,0,1,.07-.22.51.51,0,0,0,.14-.21c.1,0,.17,0,.22,0a.27.27,0,0,0,.07-.21.13.13,0,0,1,.14-.14l.36.07a.19.19,0,0,1-.07-.14V2723a2.1,2.1,0,0,1,.28-.25,1.32,1.32,0,0,0,.29-.32s.05-.07.14-.07,0-.07,0-.07S4218.82,2722.25,4218.82,2722.2ZM4207,2709.54c-.09.05-.14.09-.14.11a.2.2,0,0,1-.07.11l-.35.35-.15.28a.32.32,0,0,1,0,.14.41.41,0,0,0,0,.21.46.46,0,0,0,.07-.21,3.82,3.82,0,0,0,.5-.63,1.1,1.1,0,0,0,.11-.14.44.44,0,0,1,.1-.15c.09-.09.12-.16.07-.21s0,.07,0,.07S4207,2709.5,4207,2709.54Zm-.35,32.74a.12.12,0,0,1-.11,0,.31.31,0,0,0-.18,0,1.3,1.3,0,0,0,.15.35.17.17,0,0,1,.14-.07s.07,0,.07,0,0,0,.07,0l-.14-.14a.12.12,0,0,0,.1,0,.18.18,0,0,1,.11,0v.21c0-.05,0-.07.07-.07a.55.55,0,0,1,.07-.28A1.21,1.21,0,0,0,4206.6,2742.28Zm.35-8c.09,0,.14,0,.14,0s0,0,.07,0A.31.31,0,0,1,4207,2734.29Zm.07,5.3a.4.4,0,0,0,.57-.07c0-.05,0-.07,0-.07s0,0,0-.07C4207.33,2739.47,4207.16,2739.54,4207,2739.59Zm.5-5.37c-.1-.14-.17-.14-.22,0Zm.07-25c-.05-.05-.12,0-.21.07S4207.49,2709.28,4207.59,2709.19Zm.07,32.66a.43.43,0,0,0-.28.07c.09.1.14.17.14.22a.26.26,0,0,0,.14-.07Zm-.07-8.27c-.05,0-.07,0-.07.07S4207.59,2733.68,4207.59,2733.58Zm.78-25.59c-.1-.1-.18-.12-.25-.07a.52.52,0,0,1-.25.07c-.09.09-.14.16-.14.21l.64-.21h.28l-.14.14s.07,0,.07,0,0,0,.07,0h.07v-.28C4208.53,2707.78,4208.41,2707.85,4208.37,2708Zm0,27.57a.74.74,0,0,0-.29.64,2.37,2.37,0,0,0,.14-.32C4208.27,2735.76,4208.32,2735.66,4208.37,2735.56Zm-.29,6.36c.1,0,.14-.07.14-.21C4208.13,2741.81,4208.08,2741.88,4208.08,2741.92Zm.07-9.05.07.08c.1-.1.12-.17.07-.22Zm.14,9.55c.05,0,.08.08.08.11s0,0,.07.1v-.21Zm.5-33.65a.46.46,0,0,0-.42.07.61.61,0,0,0,.07.28l.14-.28A.33.33,0,0,0,4208.79,2708.77Zm-.35,26.72c.32-.24.49-.47.49-.71a1.32,1.32,0,0,1-.21.29,1.57,1.57,0,0,1-.28.21Zm.07,6.15a.25.25,0,0,0,.07.21l.14-.14a.18.18,0,0,1-.11,0A.12.12,0,0,0,4208.51,2741.64Zm.28-34.08c0-.09,0-.15.07-.17s.05-.09,0-.18a1.28,1.28,0,0,1-.21.28v.14A.21.21,0,0,1,4208.79,2707.56Zm.64-.21a.23.23,0,0,0-.08.14.17.17,0,0,1-.14.07h-.07a.28.28,0,0,0-.28.22.21.21,0,0,0,.25,0,.34.34,0,0,1,.24-.11A.37.37,0,0,0,4209.43,2707.35Zm-.29,31.68-.07-.08-.14.15C4209,2739.19,4209.1,2739.17,4209.14,2739Zm0-5.31c.1,0,.14,0,.14-.14Zm.14.71a.21.21,0,0,0-.14.07v.21l.43-.56c-.1,0-.14,0-.14-.07s-.05.11-.15.21Zm.29,4.52a.26.26,0,0,0-.14-.07l-.29.15q.15.06.21,0A.29.29,0,0,1,4209.57,2739Zm-.22,2.69s0-.07.08-.07.07-.05.07-.14h-.22a.13.13,0,0,0-.14.14.14.14,0,0,1,.11,0A.15.15,0,0,0,4209.35,2741.64Zm0,.5a1.41,1.41,0,0,0,.36-.07A.32.32,0,0,0,4209.35,2742.14Zm.43-3.47c-.05-.09-.08-.14-.11-.14a.51.51,0,0,1-.17-.07C4209.5,2738.6,4209.59,2738.67,4209.78,2738.67Zm.21-31.25a.87.87,0,0,0-.35.07A.3.3,0,0,0,4210,2707.42Zm.5,25.38a.21.21,0,0,0,.14-.07,3.91,3.91,0,0,1,.49-.56,2.15,2.15,0,0,0,.29-.5c.09-.09.14-.16.14-.21v-.14a2.16,2.16,0,0,0-.29.35l-.28.43h-.07a.17.17,0,0,0-.07.14c-.1.09-.14.16-.14.21a.42.42,0,0,0-.21.35.12.12,0,0,0-.11,0,.16.16,0,0,1-.11,0,1,1,0,0,0-.17.22l-.18.21-.07.07a.25.25,0,0,1-.11.21c-.07.05-.06.12,0,.21a.71.71,0,0,0,.28-.35.59.59,0,0,1,.14-.18.31.31,0,0,0,.14-.17A.41.41,0,0,0,4210.49,2732.8Zm-.57,6.08a.21.21,0,0,0-.07-.14.17.17,0,0,1-.07.14Zm0,2.48c.09,0,.17,0,.21-.14C4210,2741.31,4210,2741.36,4209.92,2741.36Zm.14-2.76q-.14.15,0,.21h.36a.22.22,0,0,1,.1-.07.2.2,0,0,0,.11-.07v-.07a.12.12,0,0,0-.11,0,.15.15,0,0,1-.1,0c0-.09,0-.14-.08-.14l-.07.07Zm0-31.11.14-.07C4210.11,2707.38,4210.06,2707.4,4210.06,2707.49Zm.36,24.68c-.19,0-.29.14-.29.28Zm0-24.11c-.19,0-.19.05,0,.14Zm-.08,33.79c.1.1.17.07.22-.07a.12.12,0,0,0-.11,0A.16.16,0,0,1,4210.34,2741.85Zm.29-3.53c0-.14,0-.21-.14-.21S4210.49,2738.18,4210.63,2738.32Zm.07-.28c0,.14,0,.16.07.07S4210.74,2738,4210.7,2738Zm.14-30.83a.28.28,0,0,0,.21-.07A.14.14,0,0,0,4210.84,2707.21Zm.64,34.36s-.26,0-.64.14a.46.46,0,0,0,.21.07h.14c.05,0,.08,0,.11,0s.06,0,.11,0v-.07A.19.19,0,0,1,4211.48,2741.57Zm-.43-3.18a.24.24,0,0,0,.14.21A.22.22,0,0,0,4211.05,2738.39Zm.07-9c.05.05.08.07.11.07s.06.05.1.14l.08-.28h-.29Zm.07,8.48c.1.1.11.17,0,.22s-.08.11,0,.21a.31.31,0,0,0,.18-.21,1.45,1.45,0,0,0,0-.29C4211.36,2737.78,4211.29,2737.8,4211.19,2737.89Zm0,3.19a.26.26,0,0,0,.29-.07C4211.43,2741,4211.33,2741,4211.19,2741.08Zm.29-34-.15.14C4211.38,2707.12,4211.43,2707.07,4211.48,2707.07Zm-.07,31.39v-.14A.1.1,0,0,1,4211.41,2738.46Zm.07-31.11c0,.1.11.12.21.07a.18.18,0,0,1-.11,0A.12.12,0,0,0,4211.48,2707.35Zm.35-.28a.19.19,0,0,1,.07.14C4212,2707.12,4212,2707.07,4211.83,2707.07Zm.85,30.54a.21.21,0,0,1-.07.14.33.33,0,0,1-.25-.1c-.07-.07-.15-.06-.25,0a.12.12,0,0,1-.14,0c-.05,0-.09,0-.14.1s.16.36.21.5h.07l.07-.35q0-.15.06-.15a.68.68,0,0,1,.31.07c.05,0,.08-.06.1,0s.07,0,.17-.11l-.14-.14h.21a.29.29,0,0,0-.14-.28.11.11,0,0,1,0,.1.18.18,0,0,0,0,.11Zm-.64-6.93a.62.62,0,0,0,.07.29Zm.14-22.48c0,.05.14.05.29,0C4212.28,2708.11,4212.18,2708.11,4212.18,2708.2Zm.14,22.27a.8.8,0,0,0,.36-.28c-.14,0-.24,0-.28.07l-.22.21v.21h.07l.15-.07Zm.08,7.5a.27.27,0,0,0-.15.28C4212.35,2738.25,4212.4,2738.15,4212.4,2738Zm.07-8.84c-.1,0-.12,0-.07.14,0-.05,0-.07,0-.07S4212.47,2729.17,4212.47,2729.13Zm.21,8a.2.2,0,0,0,.21,0c-.14-.14-.28-.12-.42.07.09,0,.14,0,.14,0S4212.63,2737.12,4212.68,2737.12Zm-.14-30.55a.32.32,0,0,0,.07.36c.09.09.14.09.14,0A.57.57,0,0,0,4212.54,2706.57Zm.14,28.64a.21.21,0,0,1,.07.14.33.33,0,0,0,.07-.21s-.07,0-.07,0S4212.72,2735.21,4212.68,2735.21Zm.07-5.09h.07l.14-.29a.1.1,0,0,1,.07-.1q.07,0,0-.18a.63.63,0,0,1-.14.21.64.64,0,0,0-.14.22Zm.35,7.77a.15.15,0,0,0,0-.1.14.14,0,0,1,0-.11.62.62,0,0,0-.07.29Zm.07-29.76c-.09,0-.14,0-.14.07v.07Zm-.07,21.42c.14-.19.24-.3.28-.35a.39.39,0,0,0-.28.07Zm.21-22.76c-.14,0-.18.07-.14.21,0-.05,0-.07,0-.07s0,0,0-.07Zm-.14,28.35a1.27,1.27,0,0,1,.32,0c.07,0,.15,0,.25-.1A.48.48,0,0,0,4213.17,2735.14Zm.57,2.4c.14,0,.26.09.35.28v-.21l.14-.07a.18.18,0,0,0,0-.11.11.11,0,0,1,0-.1l-.07.07c0-.14,0-.24-.07-.28a.25.25,0,0,0-.07.21.75.75,0,0,1-.71.07.33.33,0,0,0-.07.21.38.38,0,0,1,.36,0,1.17,1.17,0,0,0,.28.17C4213.76,2737.78,4213.74,2737.68,4213.74,2737.54Zm-.28.28.07-.07a.21.21,0,0,1-.15-.07.16.16,0,0,1-.1.07s-.06,0-.11.07a.2.2,0,0,1,.07.11.3.3,0,0,0,.07.11.34.34,0,0,1,.07-.22Zm0-8.69c.14-.1.18-.19.14-.29a.21.21,0,0,0-.07.15A.26.26,0,0,1,4213.46,2729.13Zm.21,7.92c0-.1-.05-.15-.14-.15S4213.57,2737.05,4213.67,2737.05Zm-.07,4a.22.22,0,0,1,.14.21v-.21Zm.21-12.38s.07-.11.21-.21a.27.27,0,0,0-.28.21Zm.14,12.38a.28.28,0,0,0,.07.21.17.17,0,0,1,.07-.14V2741A.23.23,0,0,1,4214,2741.08Zm.14-12.8c.05-.05.08-.07.11-.07a.22.22,0,0,0,.1-.07.41.41,0,0,0,.18-.14.48.48,0,0,1,.11-.15.21.21,0,0,1,.07-.14h-.14l-.5.5Zm1.2,8.84a.15.15,0,0,0-.1,0,.14.14,0,0,1-.11,0,2.77,2.77,0,0,1-.56.07.4.4,0,0,0-.29.14l.14.28a.51.51,0,0,0,.08-.21.25.25,0,0,0,.21.07l-.14.28a1.54,1.54,0,0,1,.42-.07v-.28a.26.26,0,0,1,.35,0v-.07h.5a.16.16,0,0,0,.28.14H4216c-.05,0-.07,0-.07,0s0,0-.07,0a1,1,0,0,0,.32-.21.58.58,0,0,0,0-.21,7.41,7.41,0,0,1-.67.1A.33.33,0,0,1,4215.29,2737.12Zm-1.06,3.89a.64.64,0,0,1,.22.14.34.34,0,0,0,.07-.22.16.16,0,0,0-.11,0A.29.29,0,0,1,4214.23,2741Zm.29-34.22s0,.07.14.07C4214.56,2706.76,4214.52,2706.74,4214.52,2706.79Zm.42,34.14v-.07a.73.73,0,0,1-.35.07.21.21,0,0,0,.07.15Zm0-4.24c.05,0,.12-.05.21-.14v-.14a.32.32,0,0,0-.35.21c.05,0,.07,0,.07,0s0,0,.07,0a.21.21,0,0,0-.07.14l-.14-.14q-.15.07,0,.21h.14C4215,2736.81,4215,2736.74,4214.94,2736.69Zm-.14-10.32a1.06,1.06,0,0,0-.07.28A.43.43,0,0,0,4214.8,2726.37Zm.49.57a.28.28,0,0,0-.17.21.37.37,0,0,1-.18.21s-.07,0-.07-.07l-.07.07c.14.14.21.17.21.07a.76.76,0,0,0,.28-.49l.15.14C4215.44,2726.89,4215.39,2726.84,4215.29,2726.94Zm0-20.37s0,.07-.14.07l.14.15Zm.15,28.35c0-.09,0-.14,0-.14s.06,0,.11-.14h-.22C4215.27,2734.74,4215.29,2734.83,4215.44,2734.92Zm-.08-9.82a.07.07,0,0,0,.08.07v-.07Zm.29,15.83a.24.24,0,0,0-.21-.14C4215.44,2740.89,4215.51,2740.93,4215.65,2740.93Zm-.14-33.93c.09.09.14.07.14-.07A.26.26,0,0,1,4215.51,2707Zm.28,19.58a.83.83,0,0,0-.21.14C4215.58,2726.63,4215.65,2726.58,4215.79,2726.58Zm.14-1.27a.13.13,0,0,0,.14-.14l-.07-.07A.27.27,0,0,0,4215.93,2725.31Zm.21-17.32s.07.09.21.14a.34.34,0,0,0-.14-.18S4216.14,2707.94,4216.14,2708Zm.64,29.27a.28.28,0,0,0-.14-.28.74.74,0,0,0-.36.28.31.31,0,0,1,.18,0,.12.12,0,0,0,.11,0,.28.28,0,0,0,.07.21c0-.05,0-.07.07-.07a.72.72,0,0,0-.07-.28A.21.21,0,0,1,4216.78,2737.26Zm0,3.39s0,.07.07.07h.21v.14h.07v-.21c-.23-.23-.35-.23-.35,0h-.21s-.07,0-.07,0,0,0-.07,0A.55.55,0,0,0,4216.78,2740.65Zm.14-15.34c-.09-.09-.14-.09-.14,0s-.19.26-.14.35.14-.08.14-.1.05-.06.14-.11v-.14l.14-.14c.1-.1.12-.17.07-.21S4216.92,2725.07,4216.92,2725.31Zm0-18.38a.44.44,0,0,1-.14-.29v.29Zm.57,30.12a.22.22,0,0,0,.1.07.2.2,0,0,1,.11.07.77.77,0,0,0,.07-.29.44.44,0,0,0-.32,0,.39.39,0,0,1-.39-.07c-.05,0-.07.07-.07.22h-.21a.25.25,0,0,1,.07.21h.42v.21a.29.29,0,0,1,.22-.07.29.29,0,0,1-.08-.21C4217.46,2737.19,4217.49,2737.14,4217.49,2737.05Zm-.29-.64a.21.21,0,0,1-.14-.07.28.28,0,0,0-.07.21A.43.43,0,0,1,4217.2,2736.41Zm.71.07c-.05-.05-.08-.07-.11-.07a.16.16,0,0,1-.1-.07c-.05,0-.07,0-.07,0s0,0-.07,0a.64.64,0,0,0-.22-.14.15.15,0,0,1,0,.1.26.26,0,0,0,0,.18l.29-.14a.39.39,0,0,0,.07.28.28.28,0,0,1,.07-.21h.21a.28.28,0,0,1,.21-.07.21.21,0,0,1-.07-.14C4218,2736.36,4217.91,2736.43,4217.91,2736.48Zm-.42-11.62c.28-.41.42-.58.42-.53s-.07,0-.07-.08a1.12,1.12,0,0,0-.35.46Zm0,15.58v.35a.78.78,0,0,0,.07-.42Zm.07-34.15c0,.14,0,.21.14.21S4217.7,2706.29,4217.56,2706.29Zm3.6,30.61c.05,0,.07,0,.07,0s.05,0,.14,0a.3.3,0,0,0-.07.11.2.2,0,0,1-.07.11.39.39,0,0,0,.36.07v-.22c.09,0,.14.1.14.15s0,0,.14,0l-.14-.07c.09-.1.15-.12.17-.08a.72.72,0,0,0,.11.15l.14-.22.07.29h.14a.21.21,0,0,0,.07-.14.56.56,0,0,0,.77.07c-.1-.15-.19-.19-.28-.15v-.07l.14-.14a.87.87,0,0,1,.28.36l.59,0a1.43,1.43,0,0,0,.52,0,.88.88,0,0,1,.21-.29s.11,0,.2.14a.25.25,0,0,0-.2.08.28.28,0,0,0,.27.1l.28,0c.09-.19.16-.3.21-.32s.14,0,.28.1.05,0,.14.22a.41.41,0,0,1,.07-.29s0,.07.07.07v-.14h.21a.18.18,0,0,0,0,.11s0,.08,0,.18v-.15q-.15.15-.21.15c.09.14.25.16.48.07l.08-.15.28.15a.21.21,0,0,1-.07-.15s0-.07,0-.07,0,0,0-.07a.17.17,0,0,0,.14.07.63.63,0,0,1,.21.07v.15a.25.25,0,0,1,.21.07v-.22h.15a.39.39,0,0,1,.07-.28v-.07l-.15.14a.44.44,0,0,1-.28-.14.19.19,0,0,1-.14.07l-.21-.1a.41.41,0,0,0-.21,0v-.21a.16.16,0,0,0-.11,0,.12.12,0,0,1-.11,0,.42.42,0,0,1,0,.35c0-.23-.16-.3-.35-.21a.46.46,0,0,0-.21.07c-.05,0-.12-.05-.21-.14a.8.8,0,0,1,.1-.18.61.61,0,0,0,.11-.17c-.1-.1-.19-.12-.28-.07a.29.29,0,0,1,.07.21.16.16,0,0,0-.07.1s0,.06-.08.11l-.28.07a1,1,0,0,0-.28-.21.17.17,0,0,0-.07.14l-.07-.07a.23.23,0,0,1-.07.14h-.43l-.14-.07H4224a2.86,2.86,0,0,0-.46,0,2,2,0,0,1-.46,0l-.21-.14-.14.14a.23.23,0,0,0-.07-.14v.14c-.1.14-.19.16-.29.07h-.21a.54.54,0,0,0-.27.07.23.23,0,0,1-.28-.07h-.07l-.07.07s0-.07,0-.07,0,0,0-.07v.2a.46.46,0,0,0-.28-.06.36.36,0,0,0-.21.13.24.24,0,0,1-.07-.13.19.19,0,0,0-.13.06c-.05,0-.07,0-.07-.06v-.14a.28.28,0,0,0-.21-.07c0,.14,0,.21-.07.21s-.07,0-.07,0,0,0-.07,0l-.06.07-.07-.07a.63.63,0,0,0-.11.13.38.38,0,0,1-.1.13.43.43,0,0,0-.21-.19.29.29,0,0,1-.13-.28.16.16,0,0,1,.1-.07.22.22,0,0,0,.1-.07h-.2a.39.39,0,0,0,0,.28.42.42,0,0,1,0,.27.49.49,0,0,0-.25.06.21.21,0,0,1-.25-.06.18.18,0,0,0-.11,0,.15.15,0,0,1-.1,0c-.19-.09-.33-.09-.43,0h-.14a1.22,1.22,0,0,1-.28.2c.09.08.14.15.14.19a.46.46,0,0,1-.21.07c-.05,0-.07,0-.07.13h.21c.09-.05.13-.1.11-.14s0-.07.1-.07l.14.14h.43a1.08,1.08,0,0,0-.21-.28c.09-.1.16-.11.21,0s.12.08.21,0,.16-.12.21-.07a.39.39,0,0,1-.07.28c.24,0,.38-.05.43-.14s0-.12.14-.22l.14.15s-.08,0-.11,0,0,0,0,.11a.6.6,0,0,0,.56-.14s-.07-.07-.07-.22a.41.41,0,0,0,.29.07v.22a2,2,0,0,0,.7,0Zm-3.25-30.47a.28.28,0,0,0-.07.21h.14a.15.15,0,0,0,0-.1A.14.14,0,0,1,4217.91,2706.43Zm.42,17.39a.07.07,0,0,1,.07-.07.06.06,0,0,1-.07-.07,3.83,3.83,0,0,0-.42.5.19.19,0,0,1,.14.07.48.48,0,0,0,.18-.14.45.45,0,0,1,.1-.14Zm-.35,10.4c0,.14.05.19.14.14Zm.28-27.22c0-.1-.11-.12-.21-.07a.18.18,0,0,1,.11,0A.12.12,0,0,0,4218.26,2707Zm.07-.5a.22.22,0,0,1-.07-.1s0-.06-.07-.11v.07a.21.21,0,0,0,.07.14Zm0,.21a.21.21,0,0,0-.07-.14A.21.21,0,0,1,4218.33,2706.71Zm.36,33.94c0-.19.11-.28.21-.28v-.07a1.8,1.8,0,0,0-.57.07.44.44,0,0,0,.15.1Zm-.14-17.14q-.15,0-.15.12l.15.12c.09-.08.11-.14.07-.18a.78.78,0,0,0,.24-.16c.07-.06.16-.13.25-.22l-.14-.07c-.09.09-.14.16-.14.2l-.07-.06-.14.12Zm.07,12.76c-.1-.1-.17-.1-.22,0Zm-.07-2.05a.54.54,0,0,0,.42.07.19.19,0,0,0-.14-.07.14.14,0,0,1-.11,0S4218.64,2734.17,4218.55,2734.22Zm.56-27.58a.55.55,0,0,0,.21.07.22.22,0,0,1,.15.08.25.25,0,0,0-.08-.29c0,.05,0,.07-.14.07l-.07-.14a.18.18,0,0,1,0,.11A.12.12,0,0,0,4219.11,2706.64Zm0,16.19a.29.29,0,0,1,.07.22.66.66,0,0,1,.25-.18c.07,0,.11-.08.11-.18A1.15,1.15,0,0,0,4219.11,2722.83Zm0,11.53a.28.28,0,0,0,.07-.21h-.07Zm.28,5.94a.23.23,0,0,0,.08.14v-.21Zm.22-17.82c0,.05,0,.07,0,.07s0,0,0,.07a.85.85,0,0,0,.28-.21A.32.32,0,0,0,4219.61,2722.48Zm.07,11.74v-.14h-.07v.14Zm.14-27.36a.06.06,0,0,0,.07-.07c.09.09.14.16.14.21a.44.44,0,0,0,.14-.29c.14,0,.21,0,.21-.07h-.56v.22s-.07,0-.07,0,0,0-.07,0,0,.16.14.07Zm.14,33.37v.07l.14.14c0-.05.07-.08.07-.11a.22.22,0,0,1,.07-.1Zm.64-4c-.1-.14-.19-.17-.29-.07A.62.62,0,0,1,4220.6,2736.27Zm.21-29.63c-.1,0-.14,0-.14,0s-.05,0-.14,0A.17.17,0,0,0,4220.81,2706.64Zm-.14,33.8a.28.28,0,0,0-.14-.28C4220.53,2740.34,4220.57,2740.44,4220.67,2740.44Zm0-19v.07c0,.05,0,.06,0,0s0-.08,0-.18Zm.64-14.7a2.83,2.83,0,0,1-.12-.57c-.17,0-.27.05-.31.14l.37.43Zm-.36-.08a.29.29,0,0,0-.07.22A.29.29,0,0,0,4221,2706.71Zm.07,14.43a.24.24,0,0,0-.14.21S4220.93,2721.23,4221,2721.14Zm.35-.43a1.58,1.58,0,0,0-.35.5,1,1,0,0,0,.18-.11.66.66,0,0,1,.17-.1Zm-.35,19.52a.31.31,0,0,0,.21-.07A.28.28,0,0,0,4221,2740.23Zm.71-21a1.28,1.28,0,0,0-.21-.28l.07.35a.5.5,0,0,0-.07.21.51.51,0,0,1-.08.21v.07a.07.07,0,0,1,.08-.07h.07c0,.05,0,.07.14.07.23-.37.37-.62.44-.74a.3.3,0,0,1,.24-.17l-.07.07c.09,0,.14,0,.14,0s0,0,.07,0a1.84,1.84,0,0,0,.27-.57c.09-.09.16-.12.2-.07a.53.53,0,0,1,.07.25.38.38,0,0,0,.14.24,1.2,1.2,0,0,0,0-.31,2,2,0,0,1,0-.32,1,1,0,0,1,.24-.21c.07,0,.15,0,.24.07a.44.44,0,0,1,.14-.29h-.07a.45.45,0,0,0,.1-.14,1.1,1.1,0,0,1,.11-.14.47.47,0,0,1,.14-.18s.09-.08.14-.17a.7.7,0,0,0-.21-.14.27.27,0,0,1,0,.14.55.55,0,0,0,0,.21.28.28,0,0,0-.21-.07c0,.24-.09.33-.27.28a1,1,0,0,1-.24.21c-.07,0-.08.12,0,.22a1.87,1.87,0,0,0-.31.24,2.18,2.18,0,0,1-.3.25v.14a2.28,2.28,0,0,0-.48.5l-.07-.29A.93.93,0,0,0,4221.73,2719.23Zm-.21-11.1a.14.14,0,0,0,.21-.07.16.16,0,0,0-.11,0A.12.12,0,0,1,4221.52,2708.13Zm.35,12.51a.28.28,0,0,1,.07-.21c.19,0,.21-.07.07-.21a.82.82,0,0,0-.49.49v.15a.07.07,0,0,0,.07-.08s0-.09.14-.14Zm-.07-13.93-.07.15a1.18,1.18,0,0,1,.35-.15.25.25,0,0,1-.07-.21c.09,0,.09-.09,0-.14v.14Zm-.07,33.45a.22.22,0,0,1,.07.1s0,.06.07.11.12-.19.07-.28a.18.18,0,0,0-.11,0A.15.15,0,0,1,4221.73,2740.16Zm.35.21h.14s-.07-.08-.07-.11a.16.16,0,0,0-.07-.1Zm.39-20.29a2.15,2.15,0,0,1,.25-.29c.09-.09.11-.16.07-.21a.84.84,0,0,0-.18.11.61.61,0,0,1-.18.1c0,.1-.07.17-.21.22v.21A.31.31,0,0,0,4222.47,2720.08Zm.25-11.88-.29-.14a.29.29,0,0,0,.08.21.12.12,0,0,0,.1,0A.16.16,0,0,1,4222.72,2708.2Zm.14-1.63a.25.25,0,0,1,0-.21c0-.05,0-.07-.1-.07l-.21.21a.3.3,0,0,1,.07.11.16.16,0,0,0,.07.1c.09,0,.14,0,.14.11s0,.08.07,0Zm0,29.34s-.07,0-.07-.07-.07,0-.07,0,0,0-.07,0a.34.34,0,0,1-.07.22.39.39,0,0,1,.28.07Zm-.07-27.14.07-.08c0-.14,0-.21-.07-.21l-.14.14Zm0,9.19c.09,0,.14,0,.14-.14Zm.35,1.34c-.14-.14-.23-.12-.28.07a.55.55,0,0,1,.07.21.49.49,0,0,0,.11-.14A.41.41,0,0,1,4223.14,2719.3Zm.07-12.3a.19.19,0,0,0,.21-.21.21.21,0,0,0-.07-.15.15.15,0,0,0-.1,0,.18.18,0,0,1-.11,0Zm0,29.13a.12.12,0,0,1,0-.11.16.16,0,0,0,0-.11.23.23,0,0,0-.14.08A.26.26,0,0,0,4223.21,2736.13Zm.29,4a.29.29,0,0,0-.22-.07.21.21,0,0,0-.07.14.31.31,0,0,0,.18,0A.16.16,0,0,1,4223.5,2740.09Zm-.22-22a.17.17,0,0,1,.14.07V2718Zm.14-9.76c.1,0,.15-.05.15-.14s0,.07-.15.07Zm.08,27.86s0-.12.14-.21c-.1-.1-.17,0-.22.14A.07.07,0,0,0,4223.5,2736.2Zm.07-29.06c0,.05.07.05.07,0s-.05-.07-.14-.07Zm0,11.74q.14,0,0-.15Zm.56-12.31a.12.12,0,0,1-.14.14.19.19,0,0,1-.14-.07c-.05.05-.08.07-.11.07s-.06,0-.1.08l.07.14a.16.16,0,0,1,.1-.07s.06,0,.11-.07,0,.14.07.14a.41.41,0,0,0,.21,0l.21-.1A1.27,1.27,0,0,1,4224.13,2706.57Zm-.42,29.7v.07l.14-.14A.17.17,0,0,0,4223.71,2736.27Zm.14-17.47.14-.14C4223.8,2718.57,4223.75,2718.62,4223.85,2718.8Zm.07,15c.14.1.23.12.28.07S4224.11,2733.79,4223.92,2733.79Zm.07-16.26q.14,0,.21-.21Zm.21-.78v-.21Q4224.27,2716.62,4224.2,2716.75Zm.07,19.16s-.07.05-.07.15l.14-.15Zm0,4.32c0-.05.08-.07.11-.07a.3.3,0,0,0,.11-.07h-.29C4224.25,2740.09,4224.27,2740.13,4224.27,2740.23Zm0-22.13.07.07c0-.05.05-.07.15-.07v-.21Zm4.88-5.23c-.09,0-.15,0-.18.07a.43.43,0,0,1-.17.14.17.17,0,0,0-.14.07c0-.1,0-.15.07-.18s0-.06-.07-.1a.37.37,0,0,0-.23.31.43.43,0,0,1-.16.32.31.31,0,0,0-.16-.07.23.23,0,0,1-.16-.07l.07.35a.33.33,0,0,0-.21-.07l-.14.14v.15c-.05,0-.07,0-.07-.11s0-.06-.07,0a.29.29,0,0,1,.07.21h-.07a.45.45,0,0,0-.36,0v.21c-.09-.09-.16-.08-.21,0s-.1.15-.14.1a.83.83,0,0,1-.14.21l-.22.22a.19.19,0,0,1-.21.21c0,.05-.07.08-.07.1s0,.06-.07.11-.07,0-.07-.07a.58.58,0,0,1-.07.28c0-.09,0-.14,0-.14s0,0,0-.07a.28.28,0,0,1-.21.07.88.88,0,0,1-.29.21.17.17,0,0,0,0,.18c0,.07,0,.11-.11.11l-.07-.08-.07.08c-.05,0-.07,0-.07.07v.07a3,3,0,0,1-.28.24,2.18,2.18,0,0,0-.28.25l.14.07a1.56,1.56,0,0,0-.29.36h.07c.05-.05.08-.09.08-.11a.2.2,0,0,1,.07-.11h.28v-.14h.14v-.14a.19.19,0,0,0,.14.07c.1,0,.14,0,.14-.14a.24.24,0,0,1,.14-.21c0,.05,0,.07,0,.07s0,0,0,.07l.08-.07-.08-.28q0-.15.15,0s.14,0,.28,0a.2.2,0,0,1-.07-.11.3.3,0,0,0-.07-.11.16.16,0,0,0,.11,0,.16.16,0,0,1,.11,0c.1,0,.23-.11.37-.35,0-.09,0-.12.15-.07v.14a1.37,1.37,0,0,0,.3-.21.21.21,0,0,1-.15-.07c.15-.14.23-.19.23-.14a.54.54,0,0,0,.11-.18,1.6,1.6,0,0,1,.11-.25h.12a.06.06,0,0,1,.07.07l.24-.14a.15.15,0,0,1-.12-.07l.12-.28h.14a.28.28,0,0,0-.07.21c.15,0,.22-.07.22-.21a.26.26,0,0,1,.08-.21l.15.14a.71.71,0,0,0,.19-.25l.12-.25c.05,0,.12.05.23.14v-.28a.83.83,0,0,1,.24-.18.33.33,0,0,0,.18-.17v.07c.05,0,.07-.08.07-.11a.16.16,0,0,1,.07-.1c.05,0,.12-.07.21-.22a.21.21,0,0,1-.14-.07A.41.41,0,0,0,4229.15,2712.87Zm-4.45,27.29q-.15-.21-.21,0Zm-.14-4.17s.07,0,.21-.29C4224.67,2735.89,4224.6,2736,4224.56,2736Zm.14-27.72a.18.18,0,0,0,0,.11.12.12,0,0,1,0,.1c.09,0,.14-.07.14-.21Zm.28-1.34q-.07-.15-.21,0Zm.07,10.6-.14-.14a.14.14,0,0,1,0,.11.15.15,0,0,0,0,.1h.07Zm.21-10.67c-.14,0-.16.07-.07.21a.39.39,0,0,0,.07-.28.83.83,0,0,0,.29.42.35.35,0,0,0-.15-.42C4225.31,2706.79,4225.26,2706.81,4225.26,2706.86Zm.29,33.23c-.15-.05-.24-.05-.29,0Zm-.22-31.75.07.14.15-.14a.21.21,0,0,1-.15-.07Zm.07,28.56a.25.25,0,0,0,.29.08l-.14-.15-.08.07Zm.36-30v.14h.28l.07.07c.1,0,.14,0,.14,0s0,0,.07,0a.31.31,0,0,0,.29-.14Zm.07,9.89c-.05.05-.05.12,0,.22C4225.87,2716.83,4225.87,2716.75,4225.83,2716.75Zm.07-.21a.21.21,0,0,1,.07.14c.14,0,.21-.09.21-.28a.32.32,0,0,0,.14,0,.43.43,0,0,1,.22,0s0-.12.14-.21c-.1-.1-.17-.14-.22-.14Zm.28-1.62v.07a.22.22,0,0,0,.14-.22Zm.64,21.07a.23.23,0,0,0-.14-.08.07.07,0,0,0-.07-.07v.07c0,.1,0,.15.14.15Zm.28-2c-.09-.15-.19-.17-.28-.08a.15.15,0,0,1,.1,0A.34.34,0,0,0,4227.1,2733.94Zm-.14,2c-.05.05,0,.12.07.22l.07-.07Zm.07-29a.17.17,0,0,1,.07.14h.28l.15-.14Zm.57.14.28,0a.35.35,0,0,0,.28,0C4227.93,2706.83,4227.74,2706.83,4227.6,2707.07Zm.77,7.07a.13.13,0,0,0-.14.14Zm-.14,23.05a.25.25,0,0,0,0-.36Zm.07-28.5c.14.15.26.17.36.08s0-.08,0-.08,0,0,0-.07l-.15-.14a.16.16,0,0,1,0,.11.12.12,0,0,0,0,.1Zm0,5.87c.05.1.12.1.22,0s.11-.07.07-.21A1.32,1.32,0,0,0,4228.3,2714.56Zm.29-7.7c0-.05,0-.07.07-.07s.07-.05.07-.15l-.29.15a.26.26,0,0,0,.15.07.25.25,0,0,0-.07.21.49.49,0,0,0,.24.07.53.53,0,0,1,.25.07q.08-.08,0-.21h-.28A.12.12,0,0,1,4228.59,2706.86Zm-.07,30.19a.47.47,0,0,0,.35-.15.43.43,0,0,0-.28-.28l-.15.14a.18.18,0,0,0,0,.11A.29.29,0,0,1,4228.52,2737.05Zm.42-28.36-.14-.07-.07.29.21-.14Zm.14,27.65a.32.32,0,0,0-.35.28.58.58,0,0,1,.28-.07.14.14,0,0,1,0-.11A.13.13,0,0,0,4229.08,2736.34Zm-.14-22.41a.21.21,0,0,1-.07.14l.07.07Zm.42,22.83a.87.87,0,0,0-.35.07c-.05.15,0,.23,0,.25s.1.08.1.18a.56.56,0,0,1,.11-.18.61.61,0,0,0,.1-.18h.22a.3.3,0,0,0-.11-.07A.2.2,0,0,1,4229.36,2736.76Zm-.07-29.34c0,.1,0,.17.07.21a.15.15,0,0,0,0-.1A.14.14,0,0,1,4229.29,2707.42Zm0,1.42c.14,0,.21,0,.21-.07S4229.34,2708.69,4229.29,2708.84Zm.57,3.67v-.14a.84.84,0,0,0,.42-.49v.07l.14-.14h.22a.26.26,0,0,0,.07-.15.21.21,0,0,1,.07-.14.33.33,0,0,0-.21-.07v.14s0,.12-.15.22a.23.23,0,0,1-.14-.08c-.09,0-.14,0-.14.08a.58.58,0,0,1-.21.35.44.44,0,0,0-.35.35h-.08c0,.1,0,.14-.07.14l.07.07a.26.26,0,0,0,.08-.21Zm-.28,1.13v-.14h-.08a.26.26,0,0,0,.08.21Zm.14-6.5a.67.67,0,0,0,0,.18.61.61,0,0,1,0,.24h.14a.18.18,0,0,0,.11,0,.11.11,0,0,1,.1,0v-.28c0-.05,0-.07.14-.07a.23.23,0,0,0-.21-.14.46.46,0,0,1-.18.07A.51.51,0,0,0,4229.72,2707.14Zm.14,6.08a.33.33,0,0,1,.07.21c0-.09,0-.14.07-.14A.21.21,0,0,0,4229.86,2713.22Zm.71-6.08a.19.19,0,0,0-.22-.21.15.15,0,0,1,0,.1.14.14,0,0,0,0,.11Zm0,5.73c-.15,0-.22,0-.22.14C4230.45,2712.91,4230.52,2712.87,4230.57,2712.87Zm.14-5.66c.09-.05.15-.06.17,0s.06,0,.11-.1h-.28Zm.07,5.44v-.07s0,0-.07,0v.07Zm1-2.12a.2.2,0,0,1-.11.07.22.22,0,0,0-.1.07h-.15v.22a.62.62,0,0,0-.63.56h.07a.27.27,0,0,1,.28-.21c.05,0,.07,0,.07,0s0,0,.07,0l.36-.35c.14-.15.21-.24.21-.29l.07.07a.21.21,0,0,1,.07.14c.09,0,.14-.09.14-.14a.21.21,0,0,1,.07-.14.43.43,0,0,1,.14-.21h.22c0-.24.05-.35.17-.35s.18-.05.18-.14a.19.19,0,0,1,.14.07.29.29,0,0,0,.07-.22h.14q.28-.27.36-.21l.07-.14c-.1-.05-.16-.06-.18,0s-.08,0-.18,0a.5.5,0,0,0-.49.35.43.43,0,0,1-.28.29l-.15-.07v.14c-.09.09-.15.14-.17.14s-.06,0-.11.07l-.07.14-.28.14Zm-.85,2c.05,0,.07,0,.07-.14h-.07Zm.42-5.37a2.09,2.09,0,0,1,.64-.07c.14.09.26.05.35-.14a.82.82,0,0,0-.7,0,.77.77,0,0,1-.29-.07l-.14.14A.13.13,0,0,0,4231.34,2707.21Zm.14,4.74v.14a.19.19,0,0,1,.08-.14Zm1.21-1.06v.21h.07a.21.21,0,0,0,.14-.07l-.14-.14Zm.28,27.92v.22a.29.29,0,0,0,.07-.22Zm.28-28.28c.24,0,.36-.11.36-.35a.39.39,0,0,1-.18.18A.33.33,0,0,0,4233.25,2710.53Zm.21,29a.21.21,0,0,0,.15.07A.21.21,0,0,1,4233.46,2739.52Zm.29-29.55c0,.14.11.19.21.14a.4.4,0,0,0-.14-.28s0,.07,0,.07S4233.75,2709.92,4233.75,2710Zm.42-.21.14.14a.56.56,0,0,1,.11-.18.61.61,0,0,0,.1-.18c-.09,0-.15,0-.17.07S4234.27,2709.76,4234.17,2709.76Zm.5,33c-.1-.23-.22-.35-.36-.35A1.2,1.2,0,0,0,4234.67,2742.77Zm-.15.5a.49.49,0,0,0-.21-.43A1,1,0,0,0,4234.52,2743.27Zm.15-33.73c0-.09,0-.14-.07-.14A.17.17,0,0,0,4234.67,2709.54Zm.42-.21c-.05,0-.07-.08-.07-.11s0,0-.07-.1h-.07C4234.92,2709.26,4235,2709.33,4235.09,2709.33Zm.71-2.33a.41.41,0,0,0-.14.32.42.42,0,0,1-.15.31h.29a.45.45,0,0,0,.1-.14,1.1,1.1,0,0,1,.11-.14h.14a.46.46,0,0,0,.07-.21.46.46,0,0,1,.07-.21c-.05,0-.16,0-.35.21Zm1.06.07c0-.05,0-.12.14-.21a.55.55,0,0,0-.28.07A.12.12,0,0,1,4236.86,2707.07Z" transform="translate(-3580 -2182.5)"/><path class="cls-1" d="M4240.89,2729.83a.65.65,0,0,0-.14.32.68.68,0,0,1-.07.25l-.25.6c-.07.17-.16.37-.25.6-.14.38-.29.74-.46,1.1s-.32.72-.46,1.09a5,5,0,0,1-.49,1c-.1.24-.2.49-.32.75s-.23.5-.32.74a5.64,5.64,0,0,0-.35.85,4.2,4.2,0,0,1-.36.77,1.51,1.51,0,0,1-.28.57c0,.05,0,.07-.07.07s0-.24-.07-.28-.14.16-.14.21v.21s.11-.05.21-.14a1,1,0,0,0-.14.42l-.14.29a.16.16,0,0,0-.07.1s0,.06-.07.11a1.51,1.51,0,0,0-.5.07c0,.05,0,0-.14-.07v-.14a1.92,1.92,0,0,0,.21-.46,1.75,1.75,0,0,1,.21-.46.33.33,0,0,1-.21-.07,1,1,0,0,0,.21-.28,1.51,1.51,0,0,1,.5-.78v-.07l-.07-.14.14-.15a.55.55,0,0,1,.07-.35s0,.07.07.07.11-.1,0-.18-.06-.13,0-.17v.07a1.34,1.34,0,0,0,.28-.64q.15,0,.15-.21l-.15-.14.15-.28q.13-.15.21-.15a.21.21,0,0,1,.07-.14.81.81,0,0,1,0-.49l.14-.28a.54.54,0,0,0-.25.35.61.61,0,0,1-.17.35h-.08c-.09.05-.11.1-.07.14s.05.12,0,.22l-.07.14h-.07c-.09.09-.14.15-.14.17s0,.06-.07.11a4.72,4.72,0,0,0-.21.64,6.61,6.61,0,0,1-.21.63,1.12,1.12,0,0,0-.15.64.33.33,0,0,0-.07.21.51.51,0,0,0-.14.36.46.46,0,0,1-.14.35.15.15,0,0,1,0,.1.14.14,0,0,0,0,.11,1,1,0,0,0-.07.32.56.56,0,0,1-.07.25v.21a.34.34,0,0,0-.18.14.61.61,0,0,1-.1.14s-.06.08,0,.11,0,.06,0,.1a.21.21,0,0,1-.15-.07c-.09,0-.16-.06-.21,0a.58.58,0,0,1-.21,0c0,.05,0,.07-.07.07a2.41,2.41,0,0,0-.64-.07.38.38,0,0,1-.42-.28,1.46,1.46,0,0,0-.35.28l-.15-.14h-.28c-.09.1-.14.12-.14.07a.62.62,0,0,0-.25,0,.9.9,0,0,1-.25,0h-.14a1.33,1.33,0,0,1-.28,0,.39.39,0,0,0-.28,0,.51.51,0,0,1-.21,0c-.05,0-.12,0-.22,0h-.84v-.28a.53.53,0,0,0-.22.07,1.76,1.76,0,0,0,.07-.57l.43-2.12a3.93,3.93,0,0,1,.07-.74c.05-.26.09-.51.14-.74l.14-.28a.41.41,0,0,0-.07-.29,2.58,2.58,0,0,0,.18-.67c0-.21.06-.43.1-.67a2.36,2.36,0,0,0,.18-.74,4.25,4.25,0,0,1,.18-.89c.09-.37.18-.77.28-1.2s.19-.85.28-1.27c.14-.57.27-1.12.39-1.66s.25-1.1.39-1.66c.09-.33.18-.68.25-1s.15-.69.25-1,.17-.83.24-1.21.16-.75.25-1.13a12.52,12.52,0,0,0,.28-1.34,38,38,0,0,0,.85-4.53c.1-.51.19-1,.28-1.59s.19-1.09.29-1.66a11.59,11.59,0,0,0,.17-1.48,11.73,11.73,0,0,1,.18-1.42,12.34,12.34,0,0,0,.14-1.8c0-.59,0-1.19.07-1.8a4.27,4.27,0,0,1-.07-.85V2705a3.27,3.27,0,0,1,.82,0,1.46,1.46,0,0,1,.74.32c.14-.09.26-.12.35-.07a2.53,2.53,0,0,0,.35.14.36.36,0,0,1,.36-.18,1.31,1.31,0,0,1,.35.11.72.72,0,0,0,.11.18.66.66,0,0,1,.1.17.26.26,0,0,1,.14-.07,2.06,2.06,0,0,0,.36.5.35.35,0,0,0,0,.14.41.41,0,0,1,0,.21,9.76,9.76,0,0,1,.28,1.13,11.58,11.58,0,0,1,.21,1.42c.05.47.1,1,.15,1.48a3.54,3.54,0,0,1,0,.92,2.84,2.84,0,0,0,0,.92v.92a.33.33,0,0,0,0,.25.31.31,0,0,1,0,.24v.29a1.06,1.06,0,0,1,0,.56,4.13,4.13,0,0,0-.07.67v.68a1.12,1.12,0,0,0-.14.42v.21a9,9,0,0,0-.14,1.52,7.67,7.67,0,0,1-.14,1.45c-.1.52-.18,1-.25,1.59s-.15,1.1-.25,1.66a1.92,1.92,0,0,0-.14.68,1.71,1.71,0,0,1-.14.67c-.09.66-.19,1.18-.28,1.55a.17.17,0,0,0,.07.14.21.21,0,0,1,.07-.14,6.64,6.64,0,0,1,.35-.85c.15-.28.29-.59.43-.92l1.27-2.75a2.69,2.69,0,0,1,.35-.71,1.12,1.12,0,0,0,.36-.78l1.06-2.33a.43.43,0,0,0,.14-.21.06.06,0,0,0,.07-.07,9.19,9.19,0,0,1,.5-1,12.33,12.33,0,0,1,1.06-2l.92-1.84c.14-.24.27-.46.38-.67s.25-.44.39-.67c.24-.38.46-.77.67-1.17l.68-1.24c.14-.23.28-.46.42-.67a2.66,2.66,0,0,1,.57-.6l.14-.07.07-.14c.14,0,.21,0,.21-.14a1.38,1.38,0,0,1,.64,0,4.59,4.59,0,0,1,1.34.49.39.39,0,0,0,.28.07v.14h.07a1.68,1.68,0,0,1,.43-.07,1.61,1.61,0,0,1,.78.14,1.22,1.22,0,0,0,.24.11,1.28,1.28,0,0,1,.25.11.91.91,0,0,0-.07.42.17.17,0,0,0-.14.07.34.34,0,0,0-.36.21v.22c0,.43-.09.84-.15,1.22s-.12.76-.16,1.14-.07.58-.09.86a4.33,4.33,0,0,1-.16.86,3.12,3.12,0,0,1,0,.54,5.28,5.28,0,0,0,0,.61.44.44,0,0,0-.07.24.55.55,0,0,1-.07.25v.21l-.07.29c-.05.37-.09.73-.11,1.06a5.47,5.47,0,0,1-.18,1.06c0,.42,0,.86,0,1.31s-.06.9-.11,1.37-.08.85-.1,1.28,0,.84,0,1.27a10.54,10.54,0,0,0-.07,1.24v1.23a.12.12,0,0,1,0,.11.16.16,0,0,0,0,.11v3a.61.61,0,0,0,0,.24,1,1,0,0,1,0,.25.56.56,0,0,0,.18-.28,2.33,2.33,0,0,1,.11-.28,1.15,1.15,0,0,0,.11-.29,1.38,1.38,0,0,1,.19-.35,1.25,1.25,0,0,1,.21-.57,3.54,3.54,0,0,0,.22-.56,1.83,1.83,0,0,1,.15-.25,1.17,1.17,0,0,0,.14-.25.72.72,0,0,1,.08-.35c0-.09.09-.19.14-.28l.15-.29a1,1,0,0,1,.25-.56.61.61,0,0,1,.19-.28s0,0,.07,0,.07,0,.07-.08a.23.23,0,0,1-.07-.28,3.09,3.09,0,0,0,.25-.42,2.63,2.63,0,0,0,.18-.5l.28-.6a3,3,0,0,1,.35-.6c.28-.71.61-1.44,1-2.19a2.67,2.67,0,0,0,.25-.43,3.79,3.79,0,0,0,.18-.42l.24-.39a2.32,2.32,0,0,0,.18-.39,13.78,13.78,0,0,0,.92-1.91c.23-.37.45-.76.66-1.16s.44-.79.67-1.17.36-.62.5-.88a5.08,5.08,0,0,1,.49-.75l.56-.95q.28-.47.57-1a5.3,5.3,0,0,0,.39-.61,4.67,4.67,0,0,1,.38-.6l1.13-1.69a19.55,19.55,0,0,1,1.2-1.63,8,8,0,0,0,.67-.81c.21-.31.43-.6.67-.89s.35-.36.49-.53.3-.34.49-.53a3.82,3.82,0,0,0,.35-.39l.36-.39.56-.53a6.92,6.92,0,0,0,.56-.53,3,3,0,0,1,.67-.6,3.75,3.75,0,0,0,.74-.6,2.55,2.55,0,0,0,.32-.17l.32-.18a.92.92,0,0,1,.63-.35.67.67,0,0,1,.42-.36,3.92,3.92,0,0,1,.92-.35h.07a.33.33,0,0,1,.32-.11.46.46,0,0,0,.31,0c0-.05,0-.07,0-.07s0,0,0-.07l.14.14.26-.14.13.14a.66.66,0,0,1,.06-.22.24.24,0,0,1,.19.08l-.07.14c.09-.1.18-.12.25-.07s.13,0,.17-.07a2.15,2.15,0,0,0,.57.07c.09,0,.16.06.21,0s.12,0,.21.11a.24.24,0,0,0,.18.07.24.24,0,0,1,.18.07,3.68,3.68,0,0,1,.88.53,9.51,9.51,0,0,1,.74.67l.22.21a1.07,1.07,0,0,0,.7.57,1.8,1.8,0,0,1,.29.35.63.63,0,0,0,.42.36,2,2,0,0,1,.5.35,4.26,4.26,0,0,0,.49.42,1.75,1.75,0,0,1,.18.22.43.43,0,0,0,.17.14,1.85,1.85,0,0,1,.43.77,1.61,1.61,0,0,1-.21,1.21c-.1.09-.17.14-.22.14a.38.38,0,0,1-.14.28v-.49a.23.23,0,0,0-.07-.29l-.42.43c0-.05-.05-.12-.14-.21a1.7,1.7,0,0,0,.07-.57.2.2,0,0,0-.11-.07.2.2,0,0,1-.11-.07c0,.09-.06.15,0,.18s0,.05,0,.1h-.14c-.09-.09-.12-.16-.07-.21a.28.28,0,0,0,.07-.21,1.15,1.15,0,0,1,.14-.43l-.21-.14a.69.69,0,0,0-.06.25c0,.07-.06.15-.19.25a1.82,1.82,0,0,0-.24-.43v.14a.3.3,0,0,0-.11-.07.2.2,0,0,1-.11-.07h-.14a.63.63,0,0,0-.46-.1,2.85,2.85,0,0,0-.46.1.17.17,0,0,1-.07-.14c0-.05,0-.07-.15-.07v.28a1.92,1.92,0,0,0-.78.43,2.94,2.94,0,0,0-.43.17,4.64,4.64,0,0,0-.42.25,1.77,1.77,0,0,1-.78.5,1.68,1.68,0,0,1-.36.28.47.47,0,0,0-.18.14.71.71,0,0,1-.18.21l-.28.14a.6.6,0,0,1-.14.11.3.3,0,0,0-.14.18,4.48,4.48,0,0,1-.57.49c-.15.1-.28.19-.39.28a3.09,3.09,0,0,0-.32.29,3.52,3.52,0,0,0-.54.49c-.16.19-.32.38-.46.57a.39.39,0,0,1-.28.07v.07a1.17,1.17,0,0,1-.4.53,4.31,4.31,0,0,0-.46.39l-.07.07a2.2,2.2,0,0,1-.18.28,2.09,2.09,0,0,1-.24.28,2.83,2.83,0,0,1-.36.43,2.21,2.21,0,0,0-.36.49l-.42.43-.54.67a7.92,7.92,0,0,0-.46.67,4.53,4.53,0,0,0-.57.67,8.28,8.28,0,0,1-.5.67c0,.05,0,.08-.07.08a1.24,1.24,0,0,0-.24.38,1.19,1.19,0,0,1-.25.39.41.41,0,0,1-.14.18.71.71,0,0,0-.21.18c.14.14.07.21-.22.21,0,.14,0,.21-.07.21a.73.73,0,0,1-.28.5,1,1,0,0,0-.35.42v.07a5.22,5.22,0,0,1-.36.64.45.45,0,0,0-.1.14.67.67,0,0,1-.11.14l-.14.14-.28.57-.14.14a1.24,1.24,0,0,1-.1.17,1.43,1.43,0,0,0-.09.18l-.12.07v.07a4.34,4.34,0,0,1-.4.57l-.07-.14a1.32,1.32,0,0,0,.07-.18.62.62,0,0,1,.07-.18h.14a.52.52,0,0,0,0-.35.28.28,0,0,0,.21.07l-.14-.28h.28a1.26,1.26,0,0,1,.41-.85v-.14a1.68,1.68,0,0,1,.28-.36.06.06,0,0,0,.07-.07v-.14a1.89,1.89,0,0,0,.23-.28,1.24,1.24,0,0,1,.31-.28s0-.07-.07-.07a1.36,1.36,0,0,1,.14-.36.27.27,0,0,0,.21.07c-.05-.23.06-.42.34-.56a.28.28,0,0,1-.07-.21h.2a.29.29,0,0,1,0-.18.31.31,0,0,0,0-.18.16.16,0,0,0,.11,0,.12.12,0,0,1,.11,0,1,1,0,0,1,.56-.92v-.14l.14-.07a1.51,1.51,0,0,1-.14-.35.21.21,0,0,1-.14.07.38.38,0,0,0-.14.24.5.5,0,0,1-.07.25l-.14.14v.22a.2.2,0,0,0-.11-.07s-.06,0-.1-.08a.45.45,0,0,0-.15.32.67.67,0,0,1-.14.39,1.11,1.11,0,0,0-.56,1h-.21l-.07.14h-.14a.62.62,0,0,1,.07.29,3,3,0,0,1-.17.28.79.79,0,0,1-.24.21c-.1,0-.13.1-.11.14a.11.11,0,0,1,0,.14.12.12,0,0,0,0,.14s0,.12-.1.22l-.14-.07a.22.22,0,0,0-.07.1s0,.06-.07.11l-.13.14a.38.38,0,0,0-.14.28.77.77,0,0,1-.07.29c-.05,0-.07,0-.07.07a.06.06,0,0,1-.07.07l-.21.39a.49.49,0,0,1-.14.19,2,2,0,0,1-.2.19.24.24,0,0,0-.21.11v.11a.19.19,0,0,0,.07.14l-.21.21c.09.05.12.08.07.08s-.07,0-.07.07a1.28,1.28,0,0,0-.21.28l-.13-.07a1.33,1.33,0,0,1-.29.36h.22q.06.15,0,.21a.83.83,0,0,0-.15.22,1.47,1.47,0,0,1-.49.21l.21.22a1,1,0,0,0-.07.43h-.14a.85.85,0,0,0-.21.28.8.8,0,0,0-.07.36,1.46,1.46,0,0,1-.5.43v.43l-.35.36.14.14a1.28,1.28,0,0,0-.28.21.29.29,0,0,0,.07.22,1.15,1.15,0,0,0-.57.79h-.14a.17.17,0,0,1,.07.14,1.86,1.86,0,0,1-.14.25,1.86,1.86,0,0,0-.14.25.38.38,0,0,0-.14.28.33.33,0,0,1-.29.35c.05.05.08.09.08.11a.2.2,0,0,0,.07.11.13.13,0,0,0,.14-.14.73.73,0,0,0,.17-.25c0-.07.06-.15.11-.25a.48.48,0,0,1,.14-.35l.14.14s.07-.08.07-.11a1,1,0,0,1,.07-.17l-.14-.13.14-.12h.22l-.14-.25h.21v-.28l.35-.46a2.64,2.64,0,0,0,.28-.46,1.7,1.7,0,0,1,.22-.43l.07-.07a1.06,1.06,0,0,0,.07-.42.16.16,0,0,1,.1-.07s.06,0,.11-.07.06,0,0-.11,0-.1.11-.1a.61.61,0,0,1,.21-.43.17.17,0,0,0,.14-.07s0-.07,0-.07,0,0,0-.07v-.07a.84.84,0,0,0,.22.14,3.09,3.09,0,0,0-.25.42,1.21,1.21,0,0,1-.25.36.19.19,0,0,1-.07.14.46.46,0,0,1-.21.28l-.21.43s0,.07,0,.07,0,0,0,.07v.07a.71.71,0,0,1-.29.35.73.73,0,0,0-.07.25.38.38,0,0,1-.14.25h-.07a1.43,1.43,0,0,1-.28.55.28.28,0,0,1-.07.2l-.14.24a1.53,1.53,0,0,0-.15.23c0,.09-.07.2-.21.34l-.07.06a1.42,1.42,0,0,1-.18.46,1.71,1.71,0,0,0-.17.39,5.11,5.11,0,0,0-.28.46,5.65,5.65,0,0,0-.29.6q0,.15-.21.21a.77.77,0,0,1-.07.32l-.14.32a.81.81,0,0,0-.28.57,3.25,3.25,0,0,1-.36.63c-.09.14-.17.29-.25.43l-.24.49a2.37,2.37,0,0,0-.14.32q-.07.18-.15.39l-.42.85a2.53,2.53,0,0,1-.14.35,1.08,1.08,0,0,1-.21.28.33.33,0,0,1,0,.14.4.4,0,0,0,0,.15c-.1.23-.19.46-.29.67s-.19.41-.28.6-.05.12-.14.21a.25.25,0,0,1-.28.28.5.5,0,0,1,0,.5,2.85,2.85,0,0,0-.22.53,1.37,1.37,0,0,1-.21.46,2.44,2.44,0,0,1-.21.53,3.39,3.39,0,0,0-.28.6,1.06,1.06,0,0,1-.07.42c-.1.29-.22.58-.36.89a6,6,0,0,0-.35,1,.34.34,0,0,1-.21.36.09.09,0,0,1,0-.15c.05,0,0-.07-.07-.07s-.07,0-.07,0,0,0-.07,0v.15a.21.21,0,0,1-.07-.15.45.45,0,0,0-.28-.07c0,.1-.08.14-.1.14s0,.05,0,.15a.53.53,0,0,1-.07-.22.29.29,0,0,0-.21-.07.73.73,0,0,1-.35.07.26.26,0,0,0-.14.07,1.25,1.25,0,0,1-.42.08,1.18,1.18,0,0,0-.41.07h-1.4a.28.28,0,0,0-.21-.07.39.39,0,0,1-.07.28,1.13,1.13,0,0,1-.42-.64,5.31,5.31,0,0,1-.28-1.09,6.71,6.71,0,0,0-.21-1l-.14-1.27a9.09,9.09,0,0,0-.21-1.27c0-.52-.08-1-.1-1.45s0-.91,0-1.38a1.79,1.79,0,0,0-.07-.53,2.26,2.26,0,0,1-.07-.53c0-.43,0-.85.07-1.28a10.69,10.69,0,0,0,.07-1.27c0-.37,0-.76,0-1.16s0-.79,0-1.17.1-1,.15-1.52.07-1,.07-1.52.15-1.24.21-1.88.13-1.28.21-1.94a2.93,2.93,0,0,1,.07-.67c.05-.21.1-.44.14-.67v-.29a.29.29,0,0,0-.21.08.61.61,0,0,1-.07.28c-.05.09-.09.19-.14.28s-.19.38-.28.57a4.39,4.39,0,0,1-.36.56,2.82,2.82,0,0,1-.28.43,2.65,2.65,0,0,0-.21.49c-.05.14-.12.31-.21.5s-.18.35-.25.49-.16.28-.25.43a3.25,3.25,0,0,0-.25.45c-.07.17-.15.35-.24.53a4.43,4.43,0,0,1-.29.5l-.14.32a2.54,2.54,0,0,1-.21.39,1.92,1.92,0,0,0-.14.32l-.14.31a4.11,4.11,0,0,1-.39.82,3.35,3.35,0,0,0-.39.81,1.78,1.78,0,0,1-.28.42,2.9,2.9,0,0,1-.43.92,1.23,1.23,0,0,1-.14.5l-.28.56c-.1.19-.21.4-.36.64s-.17.46-.24.67-.16.44-.25.67-.14.17-.14.21a.45.45,0,0,1,.14-.56v-.21a.44.44,0,0,1,.14-.29v-.21l-.35.36a1.14,1.14,0,0,0-.07.38,1.46,1.46,0,0,1-.07.39h-.08C4240.7,2729.9,4240.79,2729.93,4240.89,2729.83Zm-6.93,4.67a.23.23,0,0,0,.07-.28A.58.58,0,0,0,4234,2734.5Zm0,4.45c.19,0,.23-.18.14-.42A1.17,1.17,0,0,0,4234,2739Zm.21-2c.19,0,.28,0,.28.07a1.33,1.33,0,0,1-.14.63.53.53,0,0,0-.07.18.62.62,0,0,1-.07.18h-.07a.17.17,0,0,1,.07.14.55.55,0,0,0,.07.21.71.71,0,0,0,.18-.39,1.46,1.46,0,0,1,.1-.39,1.13,1.13,0,0,0,.15-.53,1.14,1.14,0,0,1,.14-.53,1.12,1.12,0,0,1,.07-.49.62.62,0,0,1,.07-.29.58.58,0,0,0,.07-.28,1.19,1.19,0,0,0,.14-.49,1.24,1.24,0,0,0,.07-.39.66.66,0,0,1,.07-.32c.05-.19.08-.37.11-.53a1.51,1.51,0,0,1,.18-.53.07.07,0,0,0,.07-.07,1.45,1.45,0,0,1,.14-.85l-.07-.07a.41.41,0,0,0-.29-.07.11.11,0,0,0,0,.1.18.18,0,0,1,0,.11s0,.07,0,.07,0,0,0,.07v.28a1.43,1.43,0,0,1,0,.29.86.86,0,0,0,0,.28.18.18,0,0,1,0,.11.11.11,0,0,0,0,.1h-.21a.72.72,0,0,1,.14.57,1.68,1.68,0,0,0-.21.7.53.53,0,0,1-.07.22,1,1,0,0,0,0-.29,1.33,1.33,0,0,1,0-.28l-.07-.14c-.1.09-.12.16-.07.21a.33.33,0,0,1,.1.32.34.34,0,0,0,.11.32.17.17,0,0,0-.07.14.23.23,0,0,1-.07.14.25.25,0,0,1,0,.14.39.39,0,0,0,0,.14c-.1.1-.13.18-.11.25a.87.87,0,0,1,0,.25c0,.19-.05.37-.29.56a.21.21,0,0,1-.14-.07A.29.29,0,0,0,4234.17,2737Zm.35-3.19.08-.14-.15.14Zm.5-.92c.19.05.31,0,.35-.14a.27.27,0,0,1-.1-.28.4.4,0,0,0,0-.28c-.19.33-.23.54-.14.63S4235.07,2732.87,4235,2732.87Zm.42-1.9c.19.09.26.14.22.14s0-.22-.15-.36A.29.29,0,0,1,4235.44,2731Zm.22.28h-.22l.15.14Zm0,.78a.65.65,0,0,0,.21-.85s0,.05-.07.14A4.9,4.9,0,0,1,4235.66,2732Zm.14-1.21q0,.15,0,.15s.06,0,.11.14a.26.26,0,0,0,.07-.14.53.53,0,0,0,.07-.22s.05-.11.14-.21v-.07a1.45,1.45,0,0,1,.07-.49,1.55,1.55,0,0,0,.07-.5.28.28,0,0,0-.07-.21.39.39,0,0,0-.07.28v.07c-.05.1-.09.19-.14.28s-.1.19-.14.29,0,.07.07.07a1.06,1.06,0,0,1-.07.42Zm.7-2.12a1,1,0,0,0,.15-.42.9.9,0,0,1,0-.25.87.87,0,0,0,0-.25l-.07-.14c-.15,0-.17.07-.08.21a5.11,5.11,0,0,0-.07.85.3.3,0,0,0-.07.11.2.2,0,0,1-.07.11.1.1,0,0,0,.14,0Zm.15-6.08c.09-.09.11-.15.07-.17s-.07-.09-.07-.18l-.15.28A.26.26,0,0,1,4236.65,2722.62Zm.07,16.26a.62.62,0,0,0-.22.43Zm1.91-24.25-.15.29a.33.33,0,0,0,.07.21h.22v.28h-.07v-.14h-.15c0-.05,0-.06,0,0s0,0,0,0a.33.33,0,0,0-.07.21c0,.19.05.28.14.28a1.23,1.23,0,0,0-.14.5c.1.09.17.12.22.07a1.13,1.13,0,0,0-.08.35,1.08,1.08,0,0,1-.21-.28c0,.24,0,.38-.07.42a.77.77,0,0,0,.36.08,1.07,1.07,0,0,0-.08.35.38.38,0,0,1-.14.28.23.23,0,0,0,0,.14.39.39,0,0,1,0,.14l-.17.11-.18.11a.23.23,0,0,0,.14.07h.14a.53.53,0,0,0-.07.46.45.45,0,0,1-.14.46.4.4,0,0,1,0,.28.9.9,0,0,0,0,.28.31.31,0,0,1-.11-.28.28.28,0,0,0-.1-.28.26.26,0,0,1-.14.07l.14.14a.25.25,0,0,0,0,.21.27.27,0,0,1,0,.14l.14.28-.14.15a.29.29,0,0,0,0,.17.26.26,0,0,1,0,.18.85.85,0,0,0-.21.28v.07a.28.28,0,0,1-.21.07v.29a.39.39,0,0,1,.28.14c-.19.09-.28.16-.28.21a.25.25,0,0,0,.21.07v.07a.29.29,0,0,0-.21.07h-.22a.27.27,0,0,0,0,.36l.14.14a.15.15,0,0,1,0,.1.18.18,0,0,0,0,.11h.15a.37.37,0,0,1-.08.28c-.09,0-.14,0-.14,0s0,0-.14,0-.05.12-.14.21h.07c.1,0,.14,0,.14-.14a.45.45,0,0,1,.29.28.34.34,0,0,0-.22-.07c0,.1-.08.18-.1.25a.85.85,0,0,1-.18.25c.09-.05.15-.06.18,0s.08,0,.17,0c-.14.14-.18.21-.14.21a1,1,0,0,1-.14.35h.21c.05.1,0,.22-.14.36v.28a.91.91,0,0,1-.21.18.45.45,0,0,0-.14.1.31.31,0,0,0,0,.18s0,.08,0,.18h-.14v.07h.14c.14.14.19.23.14.28s-.09.27-.14.39a1,1,0,0,0-.07.39v.14a1.62,1.62,0,0,0-.11.28,1.66,1.66,0,0,1-.1.29.18.18,0,0,1,0,.28,1.18,1.18,0,0,1-.15.35c.19-.09.29-.2.29-.32a.64.64,0,0,1,.07-.31c0-.29.09-.57.14-.85s.12-.59.21-.92h.07v-.28a1,1,0,0,0,.07-.64c.05,0,.07,0,.07,0s0,0,.07,0,0,.12.15.21v-.21h-.15a.07.07,0,0,1-.07-.07l.07-.07a1,1,0,0,1,.15-.43.61.61,0,0,1,0-.42.62.62,0,0,1,.1-.32.48.48,0,0,0,0-.39v-.07a.88.88,0,0,0,.07-.57.67.67,0,0,1,0-.17.45.45,0,0,0,0-.18h.21c.09-.09.12-.15.07-.18s-.09-.08-.14-.17a.25.25,0,0,0-.07-.21.44.44,0,0,0,.14-.29.61.61,0,0,1,0-.24,1,1,0,0,0,0-.25.62.62,0,0,1,0-.25.9.9,0,0,0,0-.25,1,1,0,0,1,0-.28,1.33,1.33,0,0,0,0-.28c.05,0,.08.07.11.07a.2.2,0,0,1,.11.07l.07-.14c-.05,0-.12-.05-.22-.14a1.48,1.48,0,0,1,.29-1.06c-.1-.1-.11-.17,0-.22s.08-.11,0-.21a.5.5,0,0,1,.21-.63,1,1,0,0,1-.14-.57.55.55,0,0,1,0-.21.41.41,0,0,0,0-.21c0-.05,0-.09.1-.11s.09-.08,0-.18-.05.07-.14.07a2.75,2.75,0,0,0,.14-.85,3.67,3.67,0,0,1,.07-.77,1.32,1.32,0,0,0,.21-.29c0-.14-.05-.18-.14-.14a.62.62,0,0,1-.07.29.85.85,0,0,0,0-.5.63.63,0,0,1,.07-.49v-.07a.5.5,0,0,0,0-.32,1.33,1.33,0,0,1,0-.32,1,1,0,0,0,0-.43.8.8,0,0,1,0-.42,1.33,1.33,0,0,1,0-.32.5.5,0,0,0,0-.32v-.28a2.41,2.41,0,0,0,0-.71,5.48,5.48,0,0,1,0-.7v-.14l.43-.22c-.1-.09-.17-.1-.22,0s-.11.08-.21,0a1.23,1.23,0,0,0-.07-.42.46.46,0,0,1,.07-.42.16.16,0,0,0,0-.11.12.12,0,0,1,0-.11c0-.14-.09-.27-.14-.39a.58.58,0,0,1,.07-.46.13.13,0,0,0-.14-.14.33.33,0,0,0-.07-.21,1.24,1.24,0,0,0-.14-.64l-.14-.14v.29a.12.12,0,0,0-.08-.11.12.12,0,0,1-.07-.11.23.23,0,0,0,.15.22.64.64,0,0,1,.07.24.53.53,0,0,0,.07.25h-.14c-.1.24-.08.35.07.35a.21.21,0,0,0,.07-.14.26.26,0,0,1,.07.14.23.23,0,0,0-.07.29v.21c-.05.09,0,.21.14.35a.27.27,0,0,1,0,.43v-.14a.36.36,0,0,0-.28.14.39.39,0,0,1,.21.32v.38l.14-.28v.14a1.23,1.23,0,0,1-.14.5c0,.23.07.38.21.42v.43c-.1-.05-.14-.1-.14-.14s-.05-.05-.14,0a.28.28,0,0,0,.07.21.58.58,0,0,1,.28.07.18.18,0,0,0-.11,0,.12.12,0,0,1-.1,0,2.07,2.07,0,0,1-.07.56h.21v.22a.17.17,0,0,0-.14.07.72.72,0,0,1,.07.28.58.58,0,0,0,.07.28q-.15-.06-.21,0a.16.16,0,0,0,.1.07s.06,0,.11.07c0,.19,0,.29-.07.29a.12.12,0,0,0,0-.11.16.16,0,0,1,0-.11.31.31,0,0,0,.07.36.34.34,0,0,1-.21.42.82.82,0,0,1,.07.21.53.53,0,0,0,.07.22q.14.14,0,.42a.26.26,0,0,0,0-.18.13.13,0,0,1,0-.1.45.45,0,0,0-.14.35c0,.05.07.08.07.11a.16.16,0,0,0,.07.1.12.12,0,0,1,0,.11.16.16,0,0,0,0,.11.19.19,0,0,1-.14-.08c-.05,0-.1,0-.15.08a.26.26,0,0,0,.15.07.15.15,0,0,1,0,.1s0,.09,0,.18c-.15.14-.15.24,0,.28v-.28h.07s.05,0,0,0,0,0,0,0,.11.15.07.18a.1.1,0,0,0-.07.1v.21Zm-1.84,7a1.38,1.38,0,0,1,.14-.24.55.55,0,0,0,.07-.25C4236.81,2721.19,4236.74,2721.35,4236.79,2721.63Zm.07-.77a.28.28,0,0,0,.07.21.18.18,0,0,1,0-.11.12.12,0,0,0,0-.1Zm.28.84a.84.84,0,0,1-.14.22h.21A.29.29,0,0,1,4237.14,2721.7Zm-.14,16.41a.24.24,0,0,0,.28-.07A.22.22,0,0,0,4237,2738.11Zm.14-14.64a.39.39,0,0,0-.07.28A.23.23,0,0,0,4237.14,2723.47Zm.35,13.72a3.2,3.2,0,0,0-.21.28C4237.47,2737.42,4237.54,2737.33,4237.49,2737.19Zm-.14-18.88c.14,0,.17,0,.07-.14h-.07Zm.07,1.84a.53.53,0,0,0,.22.07,1,1,0,0,1-.15-.21c0-.1-.09-.12-.14-.07v.21Zm.07,1.2q.15-.21,0-.21Zm.15-4.6a.43.43,0,0,0,.07-.28A.39.39,0,0,0,4237.64,2716.75Zm.14-1.34c0,.05,0,.07,0,.07s0,0,0,.07l.07-.07c-.05,0-.07,0-.07-.07Zm.49,20c-.19.09-.28.21-.28.35a.81.81,0,0,1-.14.43h.21A1.79,1.79,0,0,0,4238.27,2735.42Zm-.28-13.15a.72.72,0,0,1-.07.28C4238,2722.51,4238,2722.41,4238,2722.27Zm1,9.33.07-.07c.09-.19.18-.36.25-.53l.24-.53a1.3,1.3,0,0,0,.15-.35.83.83,0,0,0,.21.14,2.4,2.4,0,0,0,.14-.64.38.38,0,0,0,.14-.25.38.38,0,0,1,.14-.24,1,1,0,0,0,.14-.43.81.81,0,0,1,.07-.42c.05,0,.07,0,.07-.07s.11-.28.18-.43a.82.82,0,0,0,.11-.35h.21c-.1-.09-.17-.14-.21-.14a4.47,4.47,0,0,0,.28-.5h.07a.41.41,0,0,1,0-.21.55.55,0,0,0,0-.21c.1.05.17,0,.21,0a1.29,1.29,0,0,1,.15-.17.47.47,0,0,0,.14-.32.67.67,0,0,1,.14-.39v-.07l-.07-.14s.07,0,.07,0,0,0,.07,0l.07.07a1.2,1.2,0,0,0,.07-.5h-.07c.33-.09.45-.25.35-.49v-.14a.14.14,0,0,1,0-.11.15.15,0,0,0,0-.1q.15,0,.15-.36a.17.17,0,0,0,.14.07.9.9,0,0,0,.21-.39,1,1,0,0,1,.21-.39c-.05-.09-.09-.14-.14-.14a.46.46,0,0,0,.07-.21h.28v-.07a.21.21,0,0,1-.14-.07.93.93,0,0,1,.43-.71v-.35h.21a1.17,1.17,0,0,0,.14-.42H4244a.23.23,0,0,1,.07-.29l.14.14a2.17,2.17,0,0,1,.21-.35c.1-.09.13-.14.11-.14s-.06,0-.11-.07,0-.14.07-.14a.21.21,0,0,0,.14-.07q0-.15,0-.15a.2.2,0,0,1-.11-.07.51.51,0,0,0,.14-.21s0,.07.08.07.14-.16.14-.21h.21a.7.7,0,0,0-.14-.49c.19,0,.28-.07.28-.19s-.05-.33.14-.52a1.35,1.35,0,0,1,.07-.35,1.19,1.19,0,0,1,.36-.15.15.15,0,0,1,0-.1.18.18,0,0,0,0-.11.17.17,0,0,1-.07-.14v-.14a.28.28,0,0,1,.21.07,2,2,0,0,1-.14-.57.16.16,0,0,1-.11,0,.16.16,0,0,0-.11,0,.31.31,0,0,1,0,.18.29.29,0,0,0,0,.18.39.39,0,0,0,.15.28l-.25.25a.85.85,0,0,1-.25.17v.36c-.14,0-.21.16-.21.35s-.1.21-.28.21v.22a.25.25,0,0,0-.08.18.21.21,0,0,1-.14.19h-.07a.4.4,0,0,1-.14.29c.05,0,.07,0,.07,0s0,0,.07,0a.19.19,0,0,1-.14.08v.14h-.14a.2.2,0,0,0-.07.11s0,.06-.07.11a2.52,2.52,0,0,0-.14.33l-.14.33c0,.05,0,.07.14.07v.22a.41.41,0,0,0-.29-.15c0,.1-.06.17,0,.22a.51.51,0,0,1,0,.21.13.13,0,0,0-.14.14.06.06,0,0,0,.07.07.25.25,0,0,1-.21.07l.14.28a.22.22,0,0,0-.1-.07s-.06,0-.11-.07l-.11.21s0,.12-.1.22l-.07-.07a.41.41,0,0,1,0,.21.58.58,0,0,0,0,.21l.07.07c-.1,0-.13,0-.11,0s0,.08-.1.17a.21.21,0,0,0-.07.14.22.22,0,0,1-.08.15c-.09,0-.14.09-.14.14a.19.19,0,0,1-.07.14.28.28,0,0,1-.07.21c0,.05,0,.07,0,.07s0,0,0,.07v.07l-.21.64s-.05.12-.14.21-.07,0-.07.14a.2.2,0,0,1-.11.07.3.3,0,0,0-.11.07.73.73,0,0,0-.07.25.53.53,0,0,1-.07.25l-.14.28h-.14a.57.57,0,0,1-.07.36s0,.07,0,.07,0,0,0,.07a.06.06,0,0,0,.07.07,1.37,1.37,0,0,1-.21.42.21.21,0,0,1-.14.07v.07a.17.17,0,0,0,.14.07,6.38,6.38,0,0,0-.35.64l-.08-.07h-.14l.14.28a1.06,1.06,0,0,1-.14.36h-.14a.59.59,0,0,1-.14.42v-.28l-.14.28c-.05,0-.06.08,0,.11s0,.06,0,.1a.56.56,0,0,0-.07.25.43.43,0,0,1-.14.25.44.44,0,0,0,0,.49.8.8,0,0,1-.29.5s-.07,0-.07,0,0,0-.07,0a.27.27,0,0,0,0,.14.35.35,0,0,1,0,.14c.05,0,.06-.08,0-.11s0-.06,0-.1v.07a1.53,1.53,0,0,1-.14.42s-.05.12-.14.21l-.14.07c.05.24.05.38,0,.43a.26.26,0,0,1,0,.18.15.15,0,0,0,0,.1h-.14a.36.36,0,0,1-.07.36l-.22.63a.82.82,0,0,0-.07.21s0,.12-.14.22l-.14.14a.66.66,0,0,1-.21.63h.35a.42.42,0,0,1,0-.35,4.41,4.41,0,0,0,.21-.6,1.5,1.5,0,0,1,.22-.46.42.42,0,0,0,.14-.28.62.62,0,0,1,.07-.29Zm-.92-8.62c.09,0,.14-.07.14-.22C4238.11,2722.86,4238.06,2722.93,4238.06,2723Zm.14-15.7c0-.09,0-.14-.07-.14S4238.25,2707.19,4238.2,2707.28Zm.14,10.39c-.14,0-.21,0-.21.15Q4238.27,2717.67,4238.34,2717.67Zm-.14-.28a.19.19,0,0,0,.14-.07c.1,0,.1-.05,0-.14C4238.25,2717.27,4238.2,2717.34,4238.2,2717.39Zm.21,9.69c0-.1-.07-.17-.21-.22a.2.2,0,0,1,.07.11s0,.06.07.11Zm-.14.35v-.21a.13.13,0,0,1,0,.1.14.14,0,0,0,0,.11Zm.21-5.66c-.14,0-.19,0-.14.07S4238.48,2721.92,4238.48,2721.77Zm0,13.51a.62.62,0,0,1,0-.25.9.9,0,0,0,0-.25C4238.32,2734.88,4238.29,2735,4238.48,2735.28Zm.22-25.24c-.19-.05-.29,0-.29.14Zm0,15.41.07-.14s0,0-.07-.14h-.15l.08.07a.28.28,0,0,0,.07.21h-.15l-.07.07c.05,0,.07,0,.07,0s0,0,.08,0A.21.21,0,0,1,4238.7,2725.45Zm.07,9.12c-.05-.05,0-.16.07-.35-.05,0-.07,0-.07,0s0,0-.07,0A.3.3,0,0,0,4238.77,2734.57Zm.07-10.25a.88.88,0,0,0,.07-.57.3.3,0,0,0-.11.29.9.9,0,0,1,0,.28c-.1.09-.12.17-.07.21h.14A.33.33,0,0,0,4238.84,2724.32Zm.42-2.9a.06.06,0,0,0-.07.07v.21a1.2,1.2,0,0,1-.07.5.42.42,0,0,0-.14.28.25.25,0,0,0,.07.21h-.14c-.05.14,0,.22,0,.22s.11,0,.11.14a.13.13,0,0,0,.14-.14,2.13,2.13,0,0,0,.07-.64,1.17,1.17,0,0,0,.07-.5c-.05,0-.07,0-.07,0s0,0-.07,0,.14-.16.14-.21.13-.09.11-.14a.25.25,0,0,1,0-.14l.14-.28v-.43h-.21v.64A.39.39,0,0,0,4239.26,2721.42Zm-.28,12.44a.73.73,0,0,0,.07-.35A.3.3,0,0,0,4239,2733.86Zm.21-27.43c.05-.14,0-.23-.07-.28C4239.12,2706.34,4239.14,2706.43,4239.19,2706.43Zm.07,26.87a.73.73,0,0,1,.07-.35C4239.19,2733.09,4239.17,2733.2,4239.26,2733.3Zm.14-16.9a.12.12,0,0,0-.1,0s0,.06.1.1Zm0-9.47a.31.31,0,0,0,0-.18.12.12,0,0,1,0-.11C4239.28,2706.79,4239.31,2706.88,4239.4,2706.93Zm.14.49a.25.25,0,0,1-.21.07q.15.36.21.36Zm-.14,8.7a2.29,2.29,0,0,0,.14-.5s0-.11-.14-.21a.51.51,0,0,1,0,.21.43.43,0,0,0,0,.22A.77.77,0,0,0,4239.4,2716.12Zm.07,16.4c-.09,0-.11.05-.07.14S4239.47,2732.61,4239.47,2732.52Zm.14-12.8c-.18.15-.21.29-.07.43,0,0-.07,0-.07,0s0,0-.07,0c.14.09.21.12.21.07a.4.4,0,0,0,0-.28,1.45,1.45,0,0,1,0-.29.23.23,0,0,1,.08-.14.52.52,0,0,0,0-.35,1.3,1.3,0,0,0-.15.35c0,.05,0,.07,0,.07S4239.61,2719.68,4239.61,2719.72Zm.22-1.41a.21.21,0,0,1-.14.07,1.26,1.26,0,0,1,0,.28,1.45,1.45,0,0,0,0,.29.39.39,0,0,0,.15.28,1.64,1.64,0,0,0,.07-.46v-.46a.35.35,0,0,1,0-.14.41.41,0,0,0,0-.21v-.14l.07-.15a3.48,3.48,0,0,1,.14-.84.3.3,0,0,1,0-.29.42.42,0,0,0,0-.35.76.76,0,0,0,.11-.5,1.72,1.72,0,0,1,0-.63v-.36a.41.41,0,0,1,0-.21.55.55,0,0,0,0-.21,2.53,2.53,0,0,1,0-.5,3.48,3.48,0,0,0,0-.49,2,2,0,0,1,0-.42.82.82,0,0,0-.11-.5v-.07a2,2,0,0,0,.07-.92V2711a2,2,0,0,1,0-.64,2.06,2.06,0,0,0,0-.64v-.56a.61.61,0,0,1-.07-.28,1,1,0,0,0,0-.53,1.88,1.88,0,0,1-.07-.53.77.77,0,0,0-.07-.36c-.1-.09-.13-.15-.11-.17a.26.26,0,0,0,0-.18,2,2,0,0,1-.11-.28.63.63,0,0,0-.17-.29.77.77,0,0,1,.07.29,1.74,1.74,0,0,0,.07.56c0,.14.09.33.14.57a.27.27,0,0,1,0,.14.25.25,0,0,0,0,.21.55.55,0,0,1,.07.35,3.64,3.64,0,0,0,0,.57,5.44,5.44,0,0,1,0,.57.41.41,0,0,0,0,.21s0,.12-.11.21l.14.14v.42a1,1,0,0,0,0,.54,1,1,0,0,1,0,.53c-.05,0-.05,0,0,.07a1.15,1.15,0,0,0-.07.49l.07.14a3.11,3.11,0,0,1,0,.43,2,2,0,0,0,0,.42l-.14.14c.09,0,.14,0,.14.07s-.08.14-.11.14a.22.22,0,0,0-.1.07,1.09,1.09,0,0,1,.14.57.88.88,0,0,0,0,.71.48.48,0,0,1-.14.35v.35a.79.79,0,0,1,0,.43.56.56,0,0,0-.11.42,2.09,2.09,0,0,1,0,.43l-.07.14a1,1,0,0,0,.07.64s-.07,0-.07.07-.07.16-.07.35S4239.78,2718.31,4239.83,2718.31Zm-.07-7.35a.18.18,0,0,1,0-.11.16.16,0,0,0,0-.11.17.17,0,0,1-.14-.07q.06.15,0,.18a.18.18,0,0,0,0,.11Zm.56,19.79-.07-.07c-.05.05-.08.07-.1.07s-.06.05-.11.14l.14.15A.44.44,0,0,1,4240.32,2730.75Zm.14-.28a.46.46,0,0,0,.07-.21.63.63,0,0,1,.07-.21c-.18,0-.28.14-.28.28Zm.78-2,.14-.28A.28.28,0,0,0,4241.24,2728.42Zm.14-.42a.29.29,0,0,0,.21-.07h-.21Zm.29-.43a.15.15,0,0,1,0-.1.18.18,0,0,0,0-.11c.09-.09.14-.16.14-.21V2727A.57.57,0,0,0,4241.67,2727.57Zm1.13-2.54c-.05,0-.07,0-.07,0s0,0-.07,0a.39.39,0,0,1-.08.28h-.07a2.47,2.47,0,0,1-.17.42,1.15,1.15,0,0,0-.11.5c.05-.05.08-.07.11-.07a.16.16,0,0,0,.1-.07,1,1,0,0,0,.18-.43,1,1,0,0,1,.18-.42c0,.05.07,0,.21-.14-.1-.1-.17-.14-.21-.14a.31.31,0,0,0,.14-.36.21.21,0,0,0-.07.14l-.14.15A.06.06,0,0,1,4242.8,2725Zm.35-.71c-.09,0-.13.09-.11.14a.1.1,0,0,1,0,.14A.19.19,0,0,0,4243.15,2724.32Zm.28-.42a.62.62,0,0,0-.07-.29l-.14.29s0,.07,0,.07,0,0,0,.07Zm-.07-1.1a.62.62,0,0,1-.07.18h.07l.21-.22-.14-.14A1.32,1.32,0,0,0,4243.36,2722.8Zm.36.46c-.1-.19-.15-.17-.15.07,0,0-.07.05-.07.14a.24.24,0,0,0,.07.28A2.69,2.69,0,0,0,4243.72,2723.26Zm.49-.71-.28-.14a1.33,1.33,0,0,1-.14.57l.28-.15A.44.44,0,0,1,4244.21,2722.55Zm.07-.35a.55.55,0,0,1,.07-.28.21.21,0,0,1-.14-.08.53.53,0,0,0-.07.22.21.21,0,0,1-.07.14Zm.43-1.27a.29.29,0,0,1-.08.21c0,.05,0,.07.08.07a1.57,1.57,0,0,0,.21-.28Zm.21-.43a.28.28,0,0,0-.07.21s.07-.07.21-.07Zm.42-.56-.21.21a.18.18,0,0,1,.11,0,.11.11,0,0,0,.1,0Zm.36-.78a2.48,2.48,0,0,0-.22.28l.14.14a.56.56,0,0,1,0-.21.56.56,0,0,0,0-.21.12.12,0,0,0,.1,0,.16.16,0,0,1,.11,0,.14.14,0,0,0,0-.11.15.15,0,0,1,0-.1C4245.74,2718.92,4245.7,2719,4245.7,2719.16Zm.36-2.78c-.1,0-.15,0-.15.07a.56.56,0,0,1-.07.19.55.55,0,0,1,.07.33.32.32,0,0,1,.23.07c0-.05,0-.07.07-.07l-.15-.13c0-.09.09-.15.11-.2l.12-.19a.24.24,0,0,1,.08.19c.1-.08.07-.15-.08-.19l.46-.2a.37.37,0,0,0-.23-.06.39.39,0,0,0,.31-.43c-.11.1-.16.17-.16.22h-.07a.8.8,0,0,0,.07-.36.63.63,0,0,0,.44-.21s-.07,0-.07-.07a.28.28,0,0,1,.28-.21.25.25,0,0,1,.07-.21c-.09.09-.17.13-.25.1a.88.88,0,0,0-.24,0q-.15.14-.15.21c0,.05,0,.07,0,.07s0,0,0,.07-.11.14-.16.14-.05.05,0,.14,0,.07-.07.07-.08-.08-.08-.1,0-.06-.08-.11v.21h-.23v.15a.26.26,0,0,1-.15.07H4246c.11.18.18.28.23.28a.17.17,0,0,0-.07.13S4246.11,2716.38,4246.06,2716.38Zm.25,1.58-.1.21a3.88,3.88,0,0,0-.37.63l.28-.14v-.28a.59.59,0,0,0,.28-.14.2.2,0,0,0,0-.14.27.27,0,0,1,0-.14c.11,0,.14-.07.09-.22,0,.1,0,.15,0,.15S4246.31,2717.91,4246.31,2718Zm1.29-3.54.15-.28c-.24-.1-.41-.1-.5,0v.28c-.19.1-.24.21-.14.35a.28.28,0,0,0,.14-.35Zm-.42,1.91a.5.5,0,0,0,0,.5Zm1.63,9.62a1.32,1.32,0,0,0,.21-.29,1.15,1.15,0,0,0-.43.14A.83.83,0,0,1,4248.81,2726Zm-.22,2.12a.26.26,0,0,0,.07.14h.08l-.08-.14Zm.15-3.33q.14-.13,0-.21Q4248.59,2724.68,4248.74,2724.74Zm.63.78a.18.18,0,0,0,0,.28v.29a.64.64,0,0,0-.07.49.06.06,0,0,0-.07.07.62.62,0,0,0,0,.25.34.34,0,0,1,0,.25.33.33,0,0,1,0,.25.61.61,0,0,0,0,.24.24.24,0,0,1,.28-.07l.07.43a.25.25,0,0,1-.16,0,.21.21,0,0,0-.12,0v.14c.05,0,0,0-.07.14l.25.21a1.37,1.37,0,0,1,.1.78.22.22,0,0,0-.1-.21.25.25,0,0,1-.11-.22c0-.18-.05-.3-.14-.35a.55.55,0,0,1-.07.28v.22c.05.09.08.14.11.14s0,0,.1.07l-.14.14a.19.19,0,0,1,.14.07,1.19,1.19,0,0,0-.14.49.26.26,0,0,1,.35,0h-.14a.61.61,0,0,1,0,.22.23.23,0,0,0,0,.14.42.42,0,0,0,.14.28v.21l-.14-.14a.68.68,0,0,0,.07.28.18.18,0,0,1,.11,0,.15.15,0,0,0,.1,0l.08.57a1,1,0,0,0-.15.21.6.6,0,0,1,.11.14.48.48,0,0,0,.11.15.26.26,0,0,1-.15.07.22.22,0,0,0-.14-.22c-.09.1-.11.16-.07.18s.07.08.07.18l.14-.14a.45.45,0,0,0,.15.35.21.21,0,0,1-.15.07l.15.28a1,1,0,0,0,.14-.56,1,1,0,0,0,0-.29.4.4,0,0,1,0-.28,1.69,1.69,0,0,1-.11-1v-.07a4.58,4.58,0,0,1-.1-.95v-.89a.28.28,0,0,1,.07-.21c-.05,0-.07-.16-.07-.35a1.5,1.5,0,0,0-.08-.5l.08-.14a.56.56,0,0,0,0-.21.25.25,0,0,1,0-.21.29.29,0,0,1,.14-.29.59.59,0,0,0-.14-.42l.07-.28a3.39,3.39,0,0,0-.07-.71,2.78,2.78,0,0,0,.07-.57,2.2,2.2,0,0,1,.07-.56l-.07-.57a1.15,1.15,0,0,1,.1-.7c0-.05,0-.07,0-.07s0,0,0-.15.06-.11.18-.21a1.2,1.2,0,0,1-.23-.35c0-.1,0-.21.16-.36l-.07-.42a1,1,0,0,0,.14-.71v-.07l-.07-.49a1.71,1.71,0,0,0,.09-.5,1.42,1.42,0,0,1,.1-.49.44.44,0,0,0-.1-.28c-.06-.1,0-.19.1-.29s0-.07.09-.07l-.07-.92a.63.63,0,0,0,.09-.35.63.63,0,0,1,.1-.35.49.49,0,0,1,.05-.25.62.62,0,0,0,0-.25,2.88,2.88,0,0,1,0-.64v-.07a1.09,1.09,0,0,0,0-.84s0-.08,0-.08,0,0,0-.07,0-.07,0-.07,0,0,0-.07a.44.44,0,0,1,0-.49,1.69,1.69,0,0,1,.07-.74.41.41,0,0,1,.14-.32c-.14-.19-.1-.33.14-.43a1.54,1.54,0,0,1,0-.88l.18-.81.14-.15s-.05-.11-.14-.21l-.14.29a1.22,1.22,0,0,0-.21.49.36.36,0,0,0,.14.28.29.29,0,0,0-.18,0,.15.15,0,0,1-.1,0c0,.1,0,.15.07.15a.58.58,0,0,0-.22.42,4.57,4.57,0,0,1,0,.49h.25l-.22.15a.26.26,0,0,0,.15.07.25.25,0,0,0,0,.21s0,.12-.11.21v-.28l-.18.42a.49.49,0,0,0,.06.25.49.49,0,0,1,.06.25l-.12.14a1.16,1.16,0,0,0-.06.63,2.11,2.11,0,0,0-.07.54,2.61,2.61,0,0,1-.06.53l-.12.07a.42.42,0,0,1,.09.14.8.8,0,0,0,.09.14v.21h-.12a.69.69,0,0,0-.06.21.21.21,0,0,1-.07.14c.13.15.17.26.13.36a.13.13,0,0,1-.1,0,.15.15,0,0,0-.1,0,.3.3,0,0,1,0,.24.33.33,0,0,0,0,.25.65.65,0,0,1,.07.36c-.1,0-.14,0-.14.07l.21.21a2,2,0,0,0-.07.63.35.35,0,0,1-.28.36.16.16,0,0,0,.1.07s.06,0,.11.07l-.07.57a.61.61,0,0,0-.18.1.56.56,0,0,1-.18.11q.15.14.15.21a.21.21,0,0,0-.08.14v.07l.15.28c-.1,0-.15,0-.15-.07l.08.36a.12.12,0,0,1,0,.1.14.14,0,0,0,0,.11.59.59,0,0,0,.16.18.18.18,0,0,1,.07.17h-.23a1.1,1.1,0,0,1,.12.25c0,.07,0,.15-.12.25s0,.07.09.07l.14.07a1,1,0,0,0-.14.42,2.47,2.47,0,0,1-.43.29l.2.35c0,.05,0,.12-.13.21a.93.93,0,0,1,.18.43.34.34,0,0,0-.25.07v.21c.11.09.16.16.16.21h-.16c0,.05.08.14.25.28a1.08,1.08,0,0,1-.18.36.17.17,0,0,1,.09.14l-.16.28Zm.07,7.43a.16.16,0,0,1,.07.1.3.3,0,0,0,.07.11C4249.63,2733,4249.58,2733,4249.44,2733Zm.36-14.15s0,0-.07-.14v.14Zm.07,6.86s.07-.07.07-.21h-.07Q4249.72,2725.6,4249.87,2725.66Zm0-12.23a.87.87,0,0,0,.07-.35A.33.33,0,0,1,4249.87,2713.43Zm.35,11.24.07-.14a.13.13,0,0,0-.14-.14Zm.14-1.41c0-.14,0-.24-.07-.28s-.06,0,0,0,0,0,0,0a.27.27,0,0,1,.07.21Zm.36.64v.35h-.08a1.17,1.17,0,0,0-.14.42.57.57,0,0,1,.22.5c-.1,0-.1,0,0,.14a1.33,1.33,0,0,0,0,.28.3.3,0,0,1-.11.29l.15.14-.15.14a.29.29,0,0,0,.08.21.33.33,0,0,1,.07.21,2.33,2.33,0,0,0-.11.39.77.77,0,0,0,0,.39.29.29,0,0,0-.08.21.39.39,0,0,1,.11.36,2.47,2.47,0,0,0,0,.35v.14a4.22,4.22,0,0,0,.07.85l-.07.07s0,.12.14.21a.15.15,0,0,1,0-.1.14.14,0,0,0,0-.11,1.06,1.06,0,0,0-.07-.42,1.91,1.91,0,0,1,0-.32,1.33,1.33,0,0,0,0-.32c0-.05,0-.12-.07-.21v-.92a2.2,2.2,0,0,0,0-.67,2.26,2.26,0,0,1,0-.68,2.78,2.78,0,0,1,0-.91V2723c0-.05,0-.07,0-.07s0,0,0-.08-.07,0-.07.08v.7a.06.06,0,0,0-.07.07Zm.14-1.35q-.15.15,0,.21Zm-.07-.49a.13.13,0,0,0,.14-.14,1.89,1.89,0,0,0,.07-.5c0-.23,0-.46,0-.67a4.83,4.83,0,0,0,0-.67.31.31,0,0,1,0-.18s0-.08,0-.18l-.14.29v.35a.86.86,0,0,1,0,.28,1.43,1.43,0,0,0,0,.29v.21a2.14,2.14,0,0,1,0,.32.32.32,0,0,0,.11.31Zm.14.14c-.1.09-.1.21,0,.35a.58.58,0,0,1,0-.21.25.25,0,0,0,0-.14Zm.07-6.79a.58.58,0,0,1-.07-.28C4250.83,2715.22,4250.86,2715.32,4251,2715.41Zm.07,4a.53.53,0,0,0,.07-.25.49.49,0,0,1,.07-.24,5,5,0,0,1,.07-1,4.78,4.78,0,0,0,.07-.82,4.59,4.59,0,0,1,.07-.81,1.61,1.61,0,0,1,0-.39,2.38,2.38,0,0,0,0-.39,1.94,1.94,0,0,1,.14-.7,1.85,1.85,0,0,0,.15-.71,5,5,0,0,1,0-.6,3.86,3.86,0,0,1,.11-.53,3.11,3.11,0,0,1,0-.43c0-.14.06-.3.11-.49a2.09,2.09,0,0,1,.07-.64.15.15,0,0,1,0-.1s0-.09-.1-.18a.41.41,0,0,1,0,.21.58.58,0,0,0,0,.21.53.53,0,0,0-.07.22,4.08,4.08,0,0,1-.14.84c-.05,0-.05,0,0,.07v.39a.42.42,0,0,1-.15.32,3.9,3.9,0,0,0-.08.81,4,4,0,0,1-.09.82.35.35,0,0,1-.09.28c.06,0,.06.1,0,.14a2.34,2.34,0,0,1,0,.39,1.89,1.89,0,0,0-.05.46l-.07.14c0,.1,0,.14.07.14a2.09,2.09,0,0,0-.07.64,1.92,1.92,0,0,0-.07.85,5,5,0,0,0-.07,1s-.07.08-.07.1,0,.06-.07.11v.07C4251,2719.37,4251.07,2719.39,4251.07,2719.44Zm0-5.3c0,.05-.07.08-.07.1s0,.06-.07.11a.12.12,0,0,1,.1,0,.18.18,0,0,0,.11,0A.23.23,0,0,0,4251.07,2714.14Zm.56,19.51c.15-.09.17-.19.08-.28Zm.28,1.35c-.05,0-.11,0-.2.14v.07a1.33,1.33,0,0,1,.07.49.57.57,0,0,0,.07.36,3.8,3.8,0,0,1,.29-1.1,6.74,6.74,0,0,0,.36-1.1c.13.1.19.17.19.22v-.36a.39.39,0,0,1-.32.14v.22a.21.21,0,0,1-.07-.14c0-.05,0-.1-.13-.15a.41.41,0,0,0,.07.25.49.49,0,0,1,.06.25,3,3,0,0,0-.33.42v-.21a.41.41,0,0,0-.26.28c.09,0,.13.09.13.11A.2.2,0,0,0,4251.91,2735Zm.15-23.9c.09-.38.16-.73.21-1.06s.09-.68.14-1.06v-.07a1,1,0,0,1-.14.21.28.28,0,0,0-.07.21.63.63,0,0,1,0,.43c-.05.14-.1.28-.14.42a.52.52,0,0,1,0,.35A1.1,1.1,0,0,0,4252.06,2711.1Zm.56,22.06a.29.29,0,0,1-.07-.18c0-.07,0-.08-.14,0a.25.25,0,0,1,0,.21.37.37,0,0,0,0,.21l.07.07a1.28,1.28,0,0,0-.28.21.28.28,0,0,0,.21-.07.21.21,0,0,0,.14.07l.29-.42.14-.07-.14-.14a.29.29,0,0,1,.07-.22.67.67,0,0,0,.21-.49l.14-.14.14.14v-.07l-.07-.07c-.05-.05,0-.19.14-.43a.12.12,0,0,1,0-.1.18.18,0,0,0,0-.11,5.73,5.73,0,0,1,.29-.71.61.61,0,0,0,.17-.35,1.09,1.09,0,0,1,.18-.42v-.15a3,3,0,0,1-.28.25,3.23,3.23,0,0,0-.29.25.84.84,0,0,1,.22.14c0,.05,0,.08-.11.11s-.06,0,0,0-.05.12-.15.21-.07.08-.21.08l-.07-.08a.16.16,0,0,1,0,.11.14.14,0,0,0,0,.11l.14.14a.13.13,0,0,0-.1,0,.26.26,0,0,1-.18,0,.76.76,0,0,1,.28.35.72.72,0,0,0-.28.07.26.26,0,0,0-.14-.07h-.07a.44.44,0,0,1,.14.29.18.18,0,0,1-.11,0,.15.15,0,0,0-.1,0s0,.08,0,.08,0,0,0,.07a.17.17,0,0,0-.14.07c-.05.19-.12.42-.22.7a.21.21,0,0,0,.14.07A.41.41,0,0,1,4252.62,2733.16Zm-.14,3.39a4.56,4.56,0,0,0-.21.5c-.09.09-.07.14.07.14l.14-.14v-.5a.42.42,0,0,1,.29.07.29.29,0,0,0-.08-.21.26.26,0,0,1-.07-.14A.42.42,0,0,0,4252.48,2736.55Zm.36-.42a.41.41,0,0,0-.15-.29.21.21,0,0,1-.07.15.16.16,0,0,1,.07.1s0,.06.08.11Zm.14-.92a.06.06,0,0,0-.07-.07.86.86,0,0,1,0,.24,1,1,0,0,0,0,.25h.07s0,0,.07,0a.2.2,0,0,0,0-.21Zm.35-.85c-.14.23-.19.38-.14.42s.14.1.28,0a.21.21,0,0,1-.07-.14c0-.09-.06-.15,0-.17a.18.18,0,0,0,0-.11h.21a.33.33,0,0,1-.07-.21l.07-.07V2734a.22.22,0,0,1-.1.07s-.06,0-.11.07a.33.33,0,0,0,.07.21Zm.14-.5.14.08.07-.15a.15.15,0,0,1,0-.1s0-.09,0-.18a1.15,1.15,0,0,1-.1.18A.61.61,0,0,0,4253.47,2733.86Zm.36-1a.27.27,0,0,1,.17,0,.18.18,0,0,0,.11,0,.29.29,0,0,0,.07-.22c-.1,0-.15,0-.18,0a.29.29,0,0,1-.17,0Zm0,.5a.31.31,0,0,0,.07-.42.56.56,0,0,1,0,.21A.51.51,0,0,0,4253.83,2733.37Zm.56-4.1a.47.47,0,0,0-.21.42.42.42,0,0,0,.11-.17A1.18,1.18,0,0,1,4254.39,2729.27Zm-.14,3.11a.28.28,0,0,0,.21-.07.28.28,0,0,1,0-.28.62.62,0,0,0,.07-.29h-.07a2.54,2.54,0,0,0-.1.36A1.62,1.62,0,0,1,4254.25,2732.38Zm9.9-20,.07,0c0-.1-.05-.15-.14-.15v.08a.19.19,0,0,1-.14-.08c.09-.09.16-.14.21-.14a.37.37,0,0,0,.07-.23.23.23,0,0,1,.14.19c0,.07.05.09.14,0a.61.61,0,0,0,.14-.45.87.87,0,0,1,.07-.55.93.93,0,0,1,.41-.48.19.19,0,0,0,.13.08.21.21,0,0,0-.07-.15s0-.09.07-.14.05,0,.14.21a.24.24,0,0,1,.06-.14.21.21,0,0,0,.07.14s.07,0,.07,0l-.2-.37a.19.19,0,0,1,.13-.06V2710l.27-.43a.9.9,0,0,1,0,.25.62.62,0,0,0,0,.25,2.89,2.89,0,0,0,.21-.28,1.38,1.38,0,0,1,.2-.29v-.14a.77.77,0,0,1,.15-.56c.09-.1.14-.17.14-.22l.08-.07.15.14q0,.15-.12.15t0,.21a.57.57,0,0,0,.44-.54h-.22c.05-.1.1-.16.15-.16s.1-.05.15-.15l.07-.14h.22l-.22-.21a.47.47,0,0,0,.22-.22c0-.09.15-.11.3-.07s.06,0,0,.11,0,.13.11.18v-.57a1,1,0,0,1,.15-.21,2,2,0,0,1,.21-.21h.07l.14-.08v-.21a.85.85,0,0,0,.28-.21c0-.19.07-.31.21-.35a.43.43,0,0,0-.07.28c.05,0,.12.05.22.14a.33.33,0,0,1,0-.25.86.86,0,0,0,0-.24.43.43,0,0,1,.07.28c.18-.05.29-.13.32-.25a.63.63,0,0,1,.17-.32v-.28s.12,0,.21.14v-.14c0-.05-.07-.08-.07-.11s0-.05-.07-.1l.14-.14.15.14a1.91,1.91,0,0,0,.17-.46c0-.12.13-.2.32-.25a1.28,1.28,0,0,1,.21-.28.72.72,0,0,0,.18-.11.61.61,0,0,1,.18-.1,1.11,1.11,0,0,1,.35-.43.27.27,0,0,0,.21-.28.17.17,0,0,1,.14.07.71.71,0,0,0,.18-.21.3.3,0,0,1,.18-.14,2.16,2.16,0,0,1,.35-.29.4.4,0,0,0,.28-.28.44.44,0,0,0,.29-.14,1.08,1.08,0,0,1,.28-.21l.14-.14a.4.4,0,0,0,.35-.22h.07a.65.65,0,0,1,.15-.1.6.6,0,0,0,.14-.11c.09.1.16.11.21,0s.09-.08.14,0l-.07-.28c.14,0,.23,0,.28,0l.21-.21a.43.43,0,0,1-.17-.14q0-.08-.18,0a.12.12,0,0,0,0,.1.18.18,0,0,1,0,.11h-.21c0-.14-.05-.21-.14-.21s-.13.15-.1.17,0,.06-.11.11c.14,0,.21,0,.21.07a.41.41,0,0,0-.1.14.49.49,0,0,1-.11.14l-.28-.14a1,1,0,0,0-.07.18.51.51,0,0,1-.07.17l-.14-.28c-.09.1-.11.16-.07.18s0,.08,0,.17l-.07.15a.28.28,0,0,0-.21.07l-.14.07a.61.61,0,0,0-.34.35.17.17,0,0,1-.14-.07,1.31,1.31,0,0,0-.21.25c-.05.07-.17.06-.35,0a.27.27,0,0,1,0,.25,1.86,1.86,0,0,0-.14.25.26.26,0,0,1-.18,0,.13.13,0,0,0-.1,0s0,.07,0,.07,0,0,0,.07a.19.19,0,0,1,.07.14.28.28,0,0,0-.21.07h-.21l-.28.28a.21.21,0,0,1,.07.14.45.45,0,0,0-.14-.1.6.6,0,0,1-.14-.11c0,.1,0,.16,0,.18s.08.06,0,.11a.28.28,0,0,0-.28.21,1.57,1.57,0,0,1-.27.35.16.16,0,0,1-.11,0,.12.12,0,0,0-.1,0,.33.33,0,0,0-.07-.21.17.17,0,0,1-.18-.14.16.16,0,0,0-.17-.14.29.29,0,0,0,0,.17s0,.08,0,.18.11.05.21.14l.28.14c-.1,0-.14.1-.14.14s-.05.1-.14.14a.13.13,0,0,0-.14-.14.06.06,0,0,0-.07.07s-.05.1-.14.15a1,1,0,0,0,.07-.36h-.07a.64.64,0,0,1-.21.43v-.07l-.43.21a.58.58,0,0,1,0,.21c0,.05,0,.12,0,.21a.33.33,0,0,0-.21.07s.05.07.14.07a.3.3,0,0,0-.07.11.16.16,0,0,1-.07.1.29.29,0,0,1-.21.08.42.42,0,0,1-.07-.29c-.1.1-.13.18-.11.25a.35.35,0,0,1,0,.26.14.14,0,0,1-.11,0,.15.15,0,0,0-.1,0v.07l.14.15a.06.06,0,0,1-.07.07v.44a.3.3,0,0,0-.23.08.24.24,0,0,0,0-.26.45.45,0,0,1-.08-.26.12.12,0,0,1,0,.11.18.18,0,0,0,0,.11v.22s0-.07-.07-.07a.42.42,0,0,0-.08.29.36.36,0,0,1-.19,0s-.09,0-.19,0v.29a.22.22,0,0,1,.1-.07s.06,0,.11-.07.05.12.14.22-.14.12-.28.07l-.21-.22-.15.15a.42.42,0,0,1,.08.29.33.33,0,0,1,.21.07c-.1.09-.18.12-.25.07a.27.27,0,0,0-.25,0c-.05.09,0,.14,0,.14s.1.05.1.14-.1.12-.17.1a.17.17,0,0,0-.18,0,.37.37,0,0,0-.07.27,1,1,0,0,0-.21.28.77.77,0,0,0-.07-.28.21.21,0,0,1-.14.07.89.89,0,0,0,.14.24c0,.07,0,.16-.07.25a.33.33,0,0,0-.07-.21q0-.27-.15,0l.07.14h-.21c0,.09,0,.15-.1.17s-.06.08,0,.17h-.21a1.23,1.23,0,0,1-.07.42c0-.09,0-.14,0-.14s0,0,0-.07-.13.11-.11.18a.15.15,0,0,1,0,.17c-.1,0-.14,0-.14-.07a.35.35,0,0,0,0,.14.33.33,0,0,1,0,.14s.11,0,.21.13a.6.6,0,0,1-.14.11.45.45,0,0,0-.14.1v.14a1.22,1.22,0,0,1-.11-.24c0-.07-.08-.11-.18-.11a.51.51,0,0,1,0,.21.41.41,0,0,0,0,.21.42.42,0,0,1-.28.14.22.22,0,0,1,.14.21.43.43,0,0,1-.21.14h-.21a.17.17,0,0,0,.07.24c.09.08.09.16,0,.25l-.14-.14-.27.14a1.09,1.09,0,0,1-.13.43l-.27.14a.39.39,0,0,0,0,.14.35.35,0,0,1,0,.14h-.2a.29.29,0,0,1-.06.21,1.56,1.56,0,0,0-.21.29h.21a.5.5,0,0,0-.48.56.28.28,0,0,1-.21.07.16.16,0,0,1-.07-.1s0-.06-.07-.11c-.1.14-.11.26,0,.35a.21.21,0,0,1,0,.29H4262v.28h.14l-.18.1a.61.61,0,0,1-.17.11l.21.21v-.14a.33.33,0,0,1-.07.35.25.25,0,0,1,0-.21s0-.07-.1-.07-.11.17,0,.21.08.12,0,.22c0-.05,0-.07-.15-.07s-.07,0-.07.14l.14.14-.07.14a1.15,1.15,0,0,0-.1-.18.61.61,0,0,1-.11-.17,1.21,1.21,0,0,0-.21.35.85.85,0,0,0-.21.28l-.07.14s0,.07,0,.07,0,0,0,.08l-.15.14h-.07a1.61,1.61,0,0,1-.21.63q-.07-.14,0-.21a.25.25,0,0,0,0-.21.61.61,0,0,0-.28.49c.09-.09.14-.16.14-.21s.08.07.11.07.05,0,.1.07h-.21a.57.57,0,0,1,.21.36l-.28-.14v.14a1,1,0,0,0-.42-.07,2.93,2.93,0,0,1,.14-.39,1.51,1.51,0,0,1,.21-.39h.14v-.43h-.07v.22a.21.21,0,0,1-.14-.07H4260s-.07,0-.07.07a.29.29,0,0,1,0,.31.87.87,0,0,0-.18.32c-.09.14-.2.29-.31.43a3.9,3.9,0,0,0-.32.42v.07l.14.14-.21.22.14.07a.25.25,0,0,0-.21.07l-.22-.22-.07.08a.16.16,0,0,1,.07.1s0,.06.08.11a.8.8,0,0,0-.08.56l.08.07a.31.31,0,0,1-.18,0s-.08,0-.18,0a.25.25,0,0,0,.07.21.29.29,0,0,1,.07.22h.14a.21.21,0,0,1-.07.14.1.1,0,0,0,0,.14c.1,0,.15,0,.15-.07s0-.07.14-.07a.57.57,0,0,0-.18.35.62.62,0,0,1-.18.36s-.07,0-.07.14-.06.08,0,.1,0,.09,0,.18a.93.93,0,0,0-.21.35,1.07,1.07,0,0,1-.21.36h-.07a.2.2,0,0,1-.07-.11.3.3,0,0,0-.07-.11c-.05.15,0,.22.14.22a.31.31,0,0,0,.14.17s0,.09,0,.18h-.21a.41.41,0,0,1-.15.18l-.14.1v.36a.22.22,0,0,1-.1.07s-.06,0-.11.14a.58.58,0,0,0-.07.28h-.21a.54.54,0,0,1-.07.46,1.44,1.44,0,0,0-.21.32v.28c-.1,0-.15,0-.15.07s0,.1-.14.14l-.21-.14v.29c.05-.05.08-.08.11-.08a.16.16,0,0,0,.1-.07l.07.07a.88.88,0,0,1-.21.29c-.05-.05-.08-.07-.1-.07s-.06,0-.11-.07a.29.29,0,0,0,.14.28c.05,0,.12.12.21.35,0,.05,0,.07-.07.07h-.07v-.14a.18.18,0,0,0-.18.11.4.4,0,0,1-.1.17c-.05,0-.07,0-.07.08s.07,0,.07,0,0,0,.07,0a.33.33,0,0,1-.21.07,1,1,0,0,0-.14.42.33.33,0,0,1,.21.07.57.57,0,0,1-.43.14.34.34,0,0,0-.07.22.18.18,0,0,1,.11,0,.16.16,0,0,0,.11,0,.61.61,0,0,0,.07.28.58.58,0,0,1-.22-.18q-.06-.11-.21,0l.14.28c-.19-.05-.28,0-.28.21.14,0,.21,0,.21.14l-.14.07.07.14v.08h-.28c-.1.18-.14.26-.14.21l.14.14s.07,0,.07-.07a.17.17,0,0,1,.07-.14,1.9,1.9,0,0,1-.18.53,1.53,1.53,0,0,0-.17.39.2.2,0,0,0-.11-.07s-.06,0-.11-.08,0,0,0,.08v.56l-.14-.14h-.07a1.45,1.45,0,0,1-.14.85h.21v-.14a.58.58,0,0,0,.18-.32,1,1,0,0,1,.18-.39c0-.09.09-.21.14-.35s.09-.29.14-.43a.42.42,0,0,1,.28-.14s0-.07,0-.07,0,0,0-.07a.36.36,0,0,0,.14-.21c0-.14,0-.29.22-.45a.55.55,0,0,0,.21-.07c-.14,0-.14-.06,0-.19a.12.12,0,0,1,.1,0,.18.18,0,0,0,.11,0,.19.19,0,0,1-.07-.14c0-.05-.05-.1-.14-.15a.83.83,0,0,1,.21-.43c.09.1.14.17.14.22l.07-.08a.17.17,0,0,1-.07-.14.21.21,0,0,0-.07-.15.38.38,0,0,0,.14-.25.56.56,0,0,1,.07-.25.79.79,0,0,0,.18-.25.68.68,0,0,1,.18-.26q.14.15.21.15a.44.44,0,0,0,.14-.29.25.25,0,0,1-.21-.07.26.26,0,0,0,.07-.15.21.21,0,0,1,.07-.14v-.22a.23.23,0,0,1,.14.08v.21q.21-.21,0-.21v-.36a.29.29,0,0,0,.21-.08.21.21,0,0,1,.14-.07c.05,0,.07-.08.07-.11a.3.3,0,0,1,.07-.11c-.09-.09-.14-.16-.14-.21a.33.33,0,0,1,.22-.36.77.77,0,0,1,.07.29h.14c0,.14,0,.21.14.21a.28.28,0,0,0,.07-.21H4258a.34.34,0,0,0-.07-.22h.21a1.08,1.08,0,0,1,.28.22.28.28,0,0,0,0-.22s0-.11,0-.21h-.21c-.05.05-.12,0-.21-.14a.36.36,0,0,0-.14.21.21.21,0,0,0-.14.07,1.13,1.13,0,0,1,.14-.35h.28a1,1,0,0,0,.21-.57.29.29,0,0,0,.18-.21.31.31,0,0,1,.18-.21l-.08-.07.08-.07V2721c.18-.05.25-.19.21-.43l.28-.14a.31.31,0,0,0,.11-.28,1,1,0,0,1,0-.28c.05-.15.12-.23.21-.25a.66.66,0,0,0,.29-.18.33.33,0,0,0-.07-.21c.18,0,.3-.12.35-.35a.28.28,0,0,0,0-.15.51.51,0,0,1,0-.21l.14.14c.19-.09.26-.14.21-.14v-.07c.05,0,.06-.08,0-.1s0-.06,0-.11h.07a.91.91,0,0,1-.07.42c-.05.1-.09.16-.14.18s-.05.08,0,.18h.21l.07.14a1.83,1.83,0,0,0,.07-.45.39.39,0,0,1,.22-.32v-.2c-.1-.1-.17-.14-.22-.14a.46.46,0,0,0,.07-.21.21.21,0,0,1,.08-.14.4.4,0,0,0,.14-.28.24.24,0,0,1,.07-.2,1.51,1.51,0,0,0,.14-.21l.14-.14a.27.27,0,0,0,.07-.21.4.4,0,0,1,.14-.27.12.12,0,0,0,0,.1.15.15,0,0,1,0,.1l.14-.41a.29.29,0,0,1,.22-.07.37.37,0,0,0,0-.14.35.35,0,0,1,0-.14s0,0,0,0,0,0,0,0a.44.44,0,0,0-.14-.28s.07,0,.07,0,0,0,.07,0,0,.12.14.21v-.35a.21.21,0,0,0,.14-.07.66.66,0,0,1-.07-.32c0-.12.05-.15.14-.11l.07.15h.28l-.14-.07a.8.8,0,0,0,.29-.36c.09-.09.14-.16.14-.21a.65.65,0,0,1,.1-.32,2,2,0,0,1,.25-.32h.14s0-.07,0-.07,0,0,0-.07a1,1,0,0,0,0-.25.61.61,0,0,1,0-.24l.14-.07v-.22a1.06,1.06,0,0,0,.36-.14v-.07C4264.08,2712.51,4264.15,2712.46,4264.15,2712.35Zm-9.62,19c.05.09.1.12.14.07Zm.29-.14c-.1,0-.15,0-.15.07S4254.82,2731.3,4254.82,2731.25Zm.07-3.89a.22.22,0,0,0-.07.28A.24.24,0,0,0,4254.89,2727.36Zm.28.78c-.1.14-.1.23,0,.28Zm0-2.62c.05-.14,0-.21-.07-.21A.27.27,0,0,0,4255.17,2725.52Zm.21,4.67q-.07-.15-.21,0Zm0-.64a.32.32,0,0,0,.36-.35Zm.07.35a.26.26,0,0,1,.07-.14C4255.38,2729.76,4255.36,2729.81,4255.45,2729.9Zm.14-5.86c-.09.19-.14.26-.14.21l.14.14Zm.57,4.1a.3.3,0,0,0-.18.17c0,.07,0,.11,0,.11s.11.1.21,0A.58.58,0,0,0,4256.16,2728.14Zm0-4.6a.13.13,0,0,1,.14-.14H4256Zm.21-.35c0-.14,0-.24-.07-.28a.25.25,0,0,0-.07.21A.19.19,0,0,0,4256.37,2723.19Zm.28-.57c0-.14,0-.16-.14-.07s-.14.24,0,.28a.07.07,0,0,0,.07.08v-.22h.07Zm-.21,2.83v.14a.18.18,0,0,0,.11,0,.12.12,0,0,1,.1,0,1.06,1.06,0,0,1,.07-.42.18.18,0,0,1,0-.11s0-.08,0-.18a1.09,1.09,0,0,1-.17.36.26.26,0,0,0,0,.28Zm.21.43c.05-.05.09-.08.11-.08s.06,0,.11-.14v-.14l-.15.14-.14.14Zm0-4a.82.82,0,0,0,.29.43C4256.94,2722.13,4256.84,2722,4256.65,2721.84Zm0,5.31c0,.09.05.12.15.07S4256.75,2727.15,4256.65,2727.15Zm.15-.43c0,.14,0,.22.07.22S4256.94,2726.77,4256.8,2726.72Zm.07-9.75c.09,0,.09-.12,0-.22Zm.07,9.68a.82.82,0,0,0,.35-.28c0-.09,0-.15.07-.18s.05-.06,0-.1a.21.21,0,0,0,.07-.14,1.29,1.29,0,0,1,.36-.57.37.37,0,0,0,0-.14.56.56,0,0,1,0-.21l-.21.21a.73.73,0,0,1-.07.35c-.23-.09-.35-.07-.35.07h.21a2.55,2.55,0,0,0-.14.57c0,.05,0,.12-.14.21S4256.84,2726.51,4256.94,2726.65Zm.21-1.76c.09.14.19.16.28.07A.58.58,0,0,0,4257.15,2724.89Zm.49-4.11a.34.34,0,0,1,.07-.35.39.39,0,0,0,.15-.28h-.15a.28.28,0,0,1-.07.21,1.51,1.51,0,0,0-.14.21S4257.5,2720.69,4257.64,2720.78Zm.29,2.62a.24.24,0,0,0-.22.14l.29.14A.55.55,0,0,1,4257.93,2723.4Zm.28-3.82c0-.14,0-.21-.07-.21S4258.11,2719.58,4258.21,2719.58Zm.07-.49v.21h.21Zm.85,2.4a.27.27,0,0,0-.25,0,1.17,1.17,0,0,1-.25.14c.1,0,.13.1.11.14s0,.12.11.22a.17.17,0,0,0,.1-.22C4258.93,2721.68,4259,2721.59,4259.13,2721.49Zm.07-9c.05,0,.07,0,.07,0s0,0,.07,0S4259.34,2712.35,4259.2,2712.44Zm.14,8.34c-.09.1-.07.17.07.22A.29.29,0,0,0,4259.34,2720.78Zm.92-6.22a.61.61,0,0,0-.42.21h.28a.22.22,0,0,0,.07-.1A.2.2,0,0,1,4260.26,2714.56Zm.28.29a.59.59,0,0,1-.1.31.68.68,0,0,0-.11.32h.28a.72.72,0,0,1,.07-.28.31.31,0,0,1,.07-.21.16.16,0,0,0-.1-.07S4260.59,2714.89,4260.54,2714.85Zm.29.07c0-.1,0-.15-.15-.15a.21.21,0,0,1,.07.15Zm-.08,3a.55.55,0,0,0,.57-.36h-.07l-.21.14A1.11,1.11,0,0,1,4260.75,2718Zm.15-3.33a.22.22,0,0,0,.21-.14C4260.92,2714.59,4260.85,2714.63,4260.9,2714.63Zm.42-.35c-.09-.09-.15-.11-.18,0s-.08.09-.17,0a.27.27,0,0,0,.28.21.12.12,0,0,1,0-.1A.18.18,0,0,0,4261.32,2714.28Zm-.07,3.18c.09.05.14,0,.14-.07A.19.19,0,0,1,4261.25,2717.46Zm.64-.71c-.19,0-.36.12-.5.5l.07-.07.21-.21c.05-.1.09-.14.11-.14S4261.84,2716.8,4261.89,2716.75Zm-.15-3.6c-.09,0-.09.14,0,.28,0-.09,0-.14,0-.14S4261.79,2713.24,4261.74,2713.15Zm.22,3.11h.21a1.52,1.52,0,0,1,.28-.42h-.14a.63.63,0,0,1-.18.21.45.45,0,0,0-.17.21.28.28,0,0,0,0,.28Zm.56-3.75a.58.58,0,0,0-.07-.28h-.28A.63.63,0,0,0,4262.52,2712.51Zm.07-.78c0,.15.05.19.14.15S4262.69,2711.78,4262.59,2711.73Zm.22-.28c0,.05,0,.07.07.07h.07a.18.18,0,0,0,0-.28l-.14.14Zm.14,3.18q.06.15.21,0Zm.42-.42c-.24,0-.35.09-.35.28,0,0,.07,0,.07,0s0,0,.07,0a1.24,1.24,0,0,1,.1-.17A1,1,0,0,0,4263.37,2714.21Zm-.14-3.39.28-.15q-.21-.06-.21,0l-.07.15a.17.17,0,0,0-.07.14.23.23,0,0,0,.14.07A.25.25,0,0,0,4263.23,2710.82Zm.78-.43a.21.21,0,0,1-.07.14C4264.08,2710.53,4264.1,2710.49,4264,2710.39Zm.49-1.06c-.05.05-.08.07-.1.07s-.06,0-.11.07a.28.28,0,0,0,.21.07Zm.21-.35-.21-.14a.17.17,0,0,1,.07.14Zm.22,3c-.15,0-.22,0-.22.14a.2.2,0,0,1,.11-.07A.3.3,0,0,0,4264.93,2712Zm.35-1.06c-.14-.05-.21,0-.21.07a.12.12,0,0,0,.1,0A.18.18,0,0,1,4265.28,2711Zm0,.35c0,.05,0,.07,0,.07s0,0,.11.14v-.21Zm.49-3.75-.14-.14A.12.12,0,0,0,4265.77,2707.56Zm.5,3.68a.28.28,0,0,1-.21.07v.21a.29.29,0,0,1-.07.21.63.63,0,0,1,.21-.07c.05,0,.09,0,.14-.14a.58.58,0,0,0-.07-.28s.14-.07.28-.21a.58.58,0,0,0-.28-.07s0,.07,0,.07,0,0,0,.07v.07S4266.22,2711.24,4266.27,2711.24Zm-.21-4.24c0,.09.07.14.21.14V2707Zm.21-1.28-.14.15a.22.22,0,0,0,.1.07s.06,0,.11.07c0-.1,0-.15,0-.18A.16.16,0,0,1,4266.27,2705.72Zm-.07,4.53a.58.58,0,0,0,.07-.28C4266.17,2710.11,4266.15,2710.2,4266.2,2710.25Zm.42.28a.77.77,0,0,0-.07.29c.14.09.21.07.21-.08a.26.26,0,0,0,.08-.21l.14-.14a.19.19,0,0,1,.07-.14h-.21v.28Zm.43-4.88s0,.07,0,.07,0,0,0,.08h.21Zm.14,4.39a.18.18,0,0,0-.11,0,.12.12,0,0,1-.1,0,.42.42,0,0,0,.42-.07l.35-.36s0-.08.08-.1.11-.08.07-.18a.21.21,0,0,1-.15.07.6.6,0,0,1-.49-.07v.14a.28.28,0,0,0,.21.07c0,.1,0,.15-.07.15a.21.21,0,0,1-.14-.08A.77.77,0,0,1,4267.19,2710Zm1.06-1.13a.38.38,0,0,1,.28-.14.24.24,0,0,1-.14-.22c-.19.1-.26.17-.21.22-.19,0-.24.07-.14.21-.05,0-.12,0-.21.14a.15.15,0,0,1,.1,0,.12.12,0,0,0,.11,0C4268.18,2709.1,4268.25,2709,4268.25,2708.91Zm.14-2.12c.09,0,.17,0,.21-.15a.16.16,0,0,1-.1.07S4268.44,2706.74,4268.39,2706.79Zm.5.28c-.19-.1-.26-.14-.22-.14a.26.26,0,0,0,.07.14h.15Zm-.22,1.13v.07h.07v-.07Zm.22-.07.24-.11c.07,0,.11-.1.11-.24a.18.18,0,0,1-.11,0,.15.15,0,0,0-.1,0v.22C4268.93,2707.92,4268.89,2708,4268.89,2708.13Zm.7-1.06a1.28,1.28,0,0,0-.21.28c-.05.1-.09.19-.14.28a.58.58,0,0,0,.21,0,.43.43,0,0,1,.14,0c.1-.09.14-.15.14-.17s0-.06.07-.11v-.21Zm0-1.2a.72.72,0,0,0-.07.28h.28Zm.64,1a1.5,1.5,0,0,1,.32-.46l.32-.32a.39.39,0,0,1-.08-.28c-.14.14-.21.18-.21.14a3.29,3.29,0,0,1-.56.56s.07,0,.07,0,0,0,.07,0a.6.6,0,0,1-.28.18.31.31,0,0,0-.22.18,1.41,1.41,0,0,0,.36.07v-.14Zm-.28-2.76c.09,0,.14-.07.14-.21A.2.2,0,0,0,4270,2704.1Zm0,1.62v.15c0-.1,0-.15.07-.15Zm.14-.91a.15.15,0,0,0,.1,0,.18.18,0,0,1,.11,0s0-.08,0-.08,0,0,0-.07A1.21,1.21,0,0,1,4270.09,2704.81Zm1,1.06c.33-.24.54-.38.63-.43l.07.07a.15.15,0,0,1,0-.1.18.18,0,0,0,0-.11l-.08-.07a.06.06,0,0,1-.07-.07c-.09.05-.14.08-.14.11s0,0-.14,0v.21a.87.87,0,0,0-.35.07Zm1.13-1a.6.6,0,0,0-.14-.11.36.36,0,0,1-.14-.11q-.08.15,0,.18a.2.2,0,0,1,.07.18C4272.09,2704.92,4272.16,2704.88,4272.21,2704.88Zm0-2.62c0-.05,0-.12.14-.21-.14-.05-.24,0-.28.07a.23.23,0,0,1,.07.14Zm.42,2,.14-.28A.29.29,0,0,0,4272.63,2704.31Zm1-.64a.46.46,0,0,0,.07-.21.82.82,0,0,1,.07-.21l-.21.14a.19.19,0,0,1-.14.07Zm.5-.7a1.78,1.78,0,0,0-.21.28.16.16,0,0,0,.1.07.3.3,0,0,1,.11.07.28.28,0,0,1,.07-.21S4274.21,2703.06,4274.12,2703Zm.78-.43c-.24,0-.34.05-.29.14S4274.75,2702.68,4274.9,2702.54Zm.63-1.41a1,1,0,0,0-.28-.21.73.73,0,0,1,.07.35c.05-.05.08-.07.11-.07S4275.48,2701.18,4275.53,2701.13Zm.78.78s.12,0,.21-.14a.61.61,0,0,0-.42,0C4276.19,2701.86,4276.26,2701.91,4276.31,2701.91Zm2.19.63a.16.16,0,0,1-.07-.1s0-.06-.07-.11C4278.36,2702.47,4278.41,2702.54,4278.5,2702.54Zm.35-1c-.14-.14-.23-.18-.28-.14S4278.67,2701.55,4278.85,2701.55Zm.29,1.06a.29.29,0,0,0-.07.22C4279.16,2702.83,4279.18,2702.76,4279.14,2702.61Zm.85.22c0-.15,0-.24-.07-.29A.62.62,0,0,0,4280,2702.83Z" transform="translate(-3580 -2182.5)"/><path class="cls-1" d="M3797.15,2695.19H3653.33l68.33-68.33a4.62,4.62,0,0,0,0-6.55l-13.1-13.1a14.22,14.22,0,0,0-19.66,0l-10.58,10.58,6.55,6.55,10.59-10.58a4.74,4.74,0,0,1,6.55,0l9.83,9.82L3600.45,2735l-9.82-9.83a4.62,4.62,0,0,1,0-6.55l85-85-6.55-6.55-6.36,6.36-6.55-6.55a13.92,13.92,0,0,0-19.66,0l-32.76,32.76a13.92,13.92,0,0,0,0,19.66l6.55,6.55L3584.07,2712a13.91,13.91,0,0,0,0,19.66l13.1,13.1a4.69,4.69,0,0,0,3.28,1.35,4.64,4.64,0,0,0,3.28-1.36l24.64-24.63,19.51,148.26a13.92,13.92,0,0,0,13.77,12.08h104.21a13.93,13.93,0,0,0,13.78-12.08l16-121.67-9.19-1.21-16,121.66a4.64,4.64,0,0,1-4.59,4H3661.65a4.64,4.64,0,0,1-4.59-4l-20.43-155.31,7.44-7.45h147.8l-3,22.57,9.18,1.21,3.66-27.8a4.59,4.59,0,0,0-1.1-3.66,4.65,4.65,0,0,0-3.49-1.58Zm-186.87-22.47a4.65,4.65,0,0,1,0-6.55l32.76-32.76a4.65,4.65,0,0,1,6.56,0l6.55,6.55-39.31,39.31Z" transform="translate(-3580 -2182.5)"/><path class="cls-1" d="M3699.86,2736.89v101.92a13.9,13.9,0,1,0,27.79,0V2736.89a13.9,13.9,0,1,0-27.79,0Zm18.53,0v101.92a4.64,4.64,0,0,1-9.27,0V2736.89a4.64,4.64,0,1,1,9.27,0Z" transform="translate(-3580 -2182.5)"/><path class="cls-1" d="M3662.79,2736.89v101.92a13.9,13.9,0,0,0,27.8,0V2736.89a13.9,13.9,0,0,0-27.8,0Zm18.54,0v101.92a4.64,4.64,0,0,1-9.27,0V2736.89a4.64,4.64,0,1,1,9.27,0Z" transform="translate(-3580 -2182.5)"/><path class="cls-1" d="M3736.92,2736.89v101.92a13.9,13.9,0,1,0,27.8,0V2736.89a13.9,13.9,0,1,0-27.8,0Zm18.53,0v101.92a4.63,4.63,0,0,1-9.26,0V2736.89a4.63,4.63,0,1,1,9.26,0Z" transform="translate(-3580 -2182.5)"/><path class="cls-1" d="M3738.05,2653.63l-18.54-4.63a4.63,4.63,0,0,0-4.82,1.71l-13.9,18.53a4.65,4.65,0,0,0,1.63,6.93l18.54,9.27a4.55,4.55,0,0,0,2.06.48h23.17a4.63,4.63,0,0,0,4.3-6.35l-9.27-23.16a4.63,4.63,0,0,0-3.17-2.78Zm-13.94,23-12.58-6.29,8.72-11.63,13.25,3.31,5.84,14.61Z" transform="translate(-3580 -2182.5)"/><path class="cls-1" d="M3796.47,2646.41l-4.44-8.89a4.65,4.65,0,0,0-5.06-2.47l-23.16,4.64a4.63,4.63,0,0,0-3.73,4.54v9.26a4.79,4.79,0,0,0,.14,1.13l4.64,18.53a4.63,4.63,0,0,0,4.49,3.51,3.64,3.64,0,0,0,.57,0L3807,2672a4.63,4.63,0,0,0,3.13-7.38Zm-23.62,20.51-3.5-14V2648l16-3.2,3,6.11a3.92,3.92,0,0,0,.44.7l9.11,12.15Z" transform="translate(-3580 -2182.5)"/><path class="cls-1" d="M3769.35,2602.53h9.27v9.27h-9.27Z" transform="translate(-3580 -2182.5)"/><path class="cls-1" d="M3810.14,2631.29l5.65,7.35a44.75,44.75,0,0,1,36-8.4l1.82-9.09A54,54,0,0,0,3810.14,2631.29Z" transform="translate(-3580 -2182.5)"/><path class="cls-1" d="M3829.58,2648.86h9.26v9.27h-9.26Z" transform="translate(-3580 -2182.5)"/><path class="cls-1" d="M3787.88,2625.7h9.27a13.91,13.91,0,0,1,13.9-13.9v-9.27A23.19,23.19,0,0,0,3787.88,2625.7Z" transform="translate(-3580 -2182.5)"/><polygon class="cls-1" points="411.81 556.86 407.51 561.17 426.66 580.32 341.68 580.32 341.68 586.41 426.66 586.41 407.51 605.57 411.81 609.87 438.32 583.37 411.81 556.86"/><polygon class="cls-1" points="203.39 354.19 203.39 348.11 176.31 348.11 236.4 288.02 232.09 283.71 172 343.8 172 316.71 165.91 316.71 165.91 354.2 203.39 354.19"/><polygon class="cls-1" points="583.24 285.87 583.24 291.95 556.15 291.95 616.24 352.04 611.93 356.35 551.84 296.26 551.84 323.35 545.76 323.35 545.76 285.87 583.24 285.87"/></svg>