<svg id="Слой_9" data-name="Слой 9" xmlns="http://www.w3.org/2000/svg" viewBox="0 0 782.85 452.56"><defs><style>.cls-1{fill:#fff;}</style></defs><title>6 (окно для текста персонажа)</title><path class="cls-1" d="M1433.67,508.18a32.79,32.79,0,0,1-32.79-32.79V301.24a32.79,32.79,0,0,1,32.79-32.79h489.38a32.79,32.79,0,0,1,32.79,32.79V475.39a32.79,32.79,0,0,1-32.79,32.79Z" transform="translate(-1288.38 -178.94)"/><path d="M2032.76,520.4a6,6,0,1,0-2.33-8.2A6,6,0,0,0,2032.76,520.4Z" transform="translate(-1288.38 -178.94)"/><path class="cls-1" d="M1361.9,257.41a4.19,4.19,0,0,1-2.56-.87l-61-47.14a4.19,4.19,0,1,1,5.13-6.63l61,47.13a4.19,4.19,0,0,1-2.57,7.51Z" transform="translate(-1288.38 -178.94)"/><path class="cls-1" d="M2025.81,631.5a4.17,4.17,0,0,1-2.56-.87l-61-47.14a4.19,4.19,0,1,1,5.13-6.63l61,47.13a4.19,4.19,0,0,1-2.57,7.51Z" transform="translate(-1288.38 -178.94)"/><path class="cls-1" d="M1999.52,241.73a4.19,4.19,0,0,1-2.47-7.57l67.52-49.2a4.19,4.19,0,1,1,4.93,6.77L2002,240.93A4.18,4.18,0,0,1,1999.52,241.73Z" transform="translate(-1288.38 -178.94)"/><path class="cls-1" d="M1292.58,592.8a4.19,4.19,0,0,1-2.48-7.58l67.52-49.2a4.19,4.19,0,0,1,4.93,6.77L1295,592A4.12,4.12,0,0,1,1292.58,592.8Z" transform="translate(-1288.38 -178.94)"/><path d="M1772.59,203.37a6,6,0,1,0,7.56-3.94A6,6,0,0,0,1772.59,203.37Z" transform="translate(-1288.38 -178.94)"/><path d="M1526.19,183.17a6,6,0,1,0,7.56-3.95A6,6,0,0,0,1526.19,183.17Z" transform="translate(-1288.38 -178.94)"/><path d="M1475.19,601.93a6,6,0,1,0,7.56-3.94A6,6,0,0,0,1475.19,601.93Z" transform="translate(-1288.38 -178.94)"/><path d="M1294.79,382.33a6,6,0,1,0,7.56-3.94A6,6,0,0,0,1294.79,382.33Z" transform="translate(-1288.38 -178.94)"/><path d="M2048.2,344.16a6,6,0,1,0,7.56-4A6,6,0,0,0,2048.2,344.16Z" transform="translate(-1288.38 -178.94)"/><path d="M1805.25,600.8a2.61,2.61,0,0,1-1.26-.33,2.54,2.54,0,0,1-1.16-2.9l24.61-83.7-23.59,23a2.55,2.55,0,0,1-1.76.72H1460.52a35.35,35.35,0,0,1-35.31-35.31V328.09a35.35,35.35,0,0,1,35.31-35.31h489.37a35.34,35.34,0,0,1,35.31,35.31V502.24a35.34,35.34,0,0,1-35.31,35.31h-83L1807.07,600A2.51,2.51,0,0,1,1805.25,600.8Zm27.31-97.95a2.59,2.59,0,0,1,1.31.36,2.54,2.54,0,0,1,1.11,2.87l-24.4,83L1864,533.29a2.5,2.5,0,0,1,1.82-.78h84.07a30.31,30.31,0,0,0,30.28-30.27V328.09a30.31,30.31,0,0,0-30.28-30.27H1460.52a30.31,30.31,0,0,0-30.27,30.27V502.24a30.31,30.31,0,0,0,30.27,30.27h340.54l29.74-28.95A2.55,2.55,0,0,1,1832.56,502.85Z" transform="translate(-1288.38 -178.94)"/></svg>