<svg id="_6" data-name="6" xmlns="http://www.w3.org/2000/svg" xmlns:xlink="http://www.w3.org/1999/xlink" viewBox="0 0 1228.72 1228.66"><defs><style>.cls-1{fill:none;}.cls-2{clip-path:url(#clip-path);}.cls-3{opacity:0.1;}.cls-4{fill:#fff;}</style><clipPath id="clip-path" transform="translate(-4513.64 -1979.34)"><rect class="cls-1" x="4588" y="1976" width="1080" height="1300"/></clipPath></defs><title>5</title><g class="cls-2"><g class="cls-3"><path class="cls-4" d="M5004,3159.24v-97.91h-97.44v-296.5c-17.58,0-33.51,0-49.46,0,0-15.7,0-31.41,0-48.62h-47.79V2668.5h-49.94v47.37c17.42,0,33.84,0,50.23,0,0,16.24,0,32.46,0,48.53h48v49.28h-98.52v-47.46h-49.14v-48.62h-49.13V2814h-49.71v-96.6h-49v96.33H4514V2520h46.62v-49.74h-46.94v-97.12h47.61v48.44h99.94v48.74h-49v47.25c12.28.7,24.57,1.42,36.86,2.07,2.66.14,5.34,0,8,0h51.37V2422h-47.61v-49h343.24v47.7h48.78v49.72h-47.49v97.85h97.9V2372.36h48.92v-50.11l-.38.39h48.81V2274h-48.8l.35.35q0-25.7,0-51.39l-.34.33h49.44V2273h48.8v49.35h-47.55v49.4h97.2v97.67H5349v-96.28h49.74v97l.38-.33h-50.2v99.55h-48v48h98.22v50.18h47.66c0,17.28,0,33.17,0,49.08-15.82,0-31.65,0-47.2,0v48.09h46.77v-48.56l52,1-.42-.41v48.64h48.64l-.35-.39v246.24h-98v48.46c-17.19,0-33,0-48.78,0,0-15.45,0-30.92,0-46.65h-98.75v46.31h99.16v50.94H5251.2v48.6H5202V3111.1h-48.72V3061h47.38v-98.71q-25,1.41-49.85,2.8c0-16.81,0-33.6,0-52H5299v-97.36h-97.73v49H5103.2v48.69h-48.42V2963c19.73,0,38.84-.24,57.94.09,12.77.21,25.52,1.23,38.28,1.89v46.48h-47v98.92h-49.88v48.45h-50.51Zm-147.44-541.87h48.85v-47.78h-48.85V2521h-98.22c0,22.2.22,43.14-.1,64.06-.16,10.51-1.31,21-2,31.51h-47.44v-46.28h-98.27v47.92h-47.95v48.08h196.68c-1.08-17.36-2.09-33.6-3.09-49.83l52.7.93v48.9h47.7Zm247.81,147.14c2.62.38,5.23,1.09,7.84,1.09q89.58.09,179.16,0a61,61,0,0,0,7.33-.82c0-16.74,0-32.61,0-48.45h49.61v-48.19h-49.24v48.51H5251v-147.6h-49.84v-48.18H5152v97.26H5005.42V2814h99.34v-49.85Zm245.69,196.71c2.05.69,3.29,1.48,4.54,1.48,44.7.12,89.41.05,134.12.34,8.94.06,8.64-5.33,8.63-11.46q-.1-50.29,0-100.6v-35H5350.08Zm-492.75-441.67c15,0,28.78.3,42.5-.29,2.26-.09,6.21-4,6.24-6.19.41-30.17.28-60.34.28-90.81H4809v48.39h48.3Zm50.12,148.69v96.47H4955v-96.47Zm146,196.88h-96.93v47.25h96.93Zm99.9-492.39v47.41h47.07v-47.41Zm-100.17,638.39v-47.37h-47.71v47.37Z" transform="translate(-4513.64 -1979.34)"/><path class="cls-4" d="M4856.15,2322.16H4513.86V1979.48h342.29Zm-51.49-51.29V2030.71H4565.34v240.16Z" transform="translate(-4513.64 -1979.34)"/><path class="cls-4" d="M5399.12,2321.89v-342.3h343.24v342.3Zm291.26-51V2030.72H5451.09v240.15Z" transform="translate(-4513.64 -1979.34)"/><path class="cls-4" d="M4856.27,2865.15V3208h-342.6V2865.15ZM4804.5,3156.6v-240H4565.44v240Z" transform="translate(-4513.64 -1979.34)"/><path class="cls-4" d="M5693.27,2469.13h48.84v148.26h-48.28l.39.41v-49.05H5546v-97.7h-49.18v98.56h-50v-50.33h-47.75v-49.44l-.38.33H5447V2421.7h50.17v-48.79h49.22v47.59h48.49v-47.14H5742v47.21h-48.35c0,17.25,0,33.13,0,49-32.39,0-64.8,0-97.64,0v49.27h97.24Z" transform="translate(-4513.64 -1979.34)"/><path class="cls-4" d="M5004.14,2175v-97.52h-47.8v47.46h-48.68v-145.6h47.91v47.31h98v-47.13h49v47.6H5054.7v48.93h48.11v49.74h-47.72v48.33h96.12l-.35-.3,1,49.48.34-.33h-48.62v51.41l.37-.37h-49.42v47.73H5005v-46.63h-47.92l.25.23c-.86-16.35-1.71-32.71-2.66-50.73h-47.06v-50h96.9V2223H5053v-48Z" transform="translate(-4513.64 -1979.34)"/><path class="cls-4" d="M5695.1,2764.1q-.54,42-1.1,83.94c-.09,5.75-.54,11.5-.83,17.25l.45-.4h-97.89V2765h-49.45l.35.39v-48.64H5498l.42.41V2618.8h48.17v47.52h98.35V2617.8h49.29l-.39-.41v49.46h48.23v97.57q-23.61,0-47.34,0c0-15.46,0-30.94,0-46.62h-48.6v48.51Z" transform="translate(-4513.64 -1979.34)"/><path class="cls-4" d="M5546.68,3159.42h-98.27v-48.89c13.38,0,26.19-.3,39,.12,7.58.25,10.31-2.6,10-10.12-.42-12.45-.11-24.93-.11-39.23h147.46v-48.68H5742v195.31H5694.3v-48.52h-99.86l.47.43V3111.3h-48.64v48.54Z" transform="translate(-4513.64 -1979.34)"/><path class="cls-4" d="M5151.21,2174.12v-97.39h49.35v-49.18h-47.69v-47.81h48.69v47.33h48.63c.77,16.5,1.48,31.86,2.19,47.24l.13-.11-50.61,3.56v96.09h-51Z" transform="translate(-4513.64 -1979.34)"/><path class="cls-4" d="M5298.41,2127.79l50-2.3v196.44H5300V2307q0-82.52-.06-165c0-4.83-.86-9.66-1.32-14.49Z" transform="translate(-4513.64 -1979.34)"/><path class="cls-4" d="M5693.17,2865.29h48.91v96.56h-96.27v-48h47.85c0-17.24,0-33.13,0-49Z" transform="translate(-4513.64 -1979.34)"/><path class="cls-4" d="M5003.62,3158.79v49h-96.36v-48.47c32.67,0,64.74,0,96.78,0Z" transform="translate(-4513.64 -1979.34)"/><path class="cls-4" d="M5300.81,3207.94v-47.61H5398v47.61Z" transform="translate(-4513.64 -1979.34)"/><path class="cls-4" d="M5298.85,2074.79V2028.4h49.21v48.76c-16.86-.93-33.19-1.83-49.5-2.71Z" transform="translate(-4513.64 -1979.34)"/><path class="cls-4" d="M5298.65,2127.53l-46.16-2.25c0-17.47,0-34.26,0-51.07l-.12.1q23.27.24,46.5.5s-.3-.34-.32-.36q-.07,26.63-.13,53.32Z" transform="translate(-4513.64 -1979.34)"/><path class="cls-4" d="M4957.08,2275.11c-.75,15.33-1.49,30.66-2.27,46.76h-47.43v-46.55h49.93Z" transform="translate(-4513.64 -1979.34)"/><path class="cls-4" d="M5152.19,2322.25h-48.28V2274l-.37.37,48.63,0-.35-.35v48.63Z" transform="translate(-4513.64 -1979.34)"/><path class="cls-4" d="M5151.62,3160.44v47.42h-47.34v-47.42Z" transform="translate(-4513.64 -1979.34)"/><path class="cls-4" d="M5594.44,3159.41V3208h-47.76v-48.57l-.41.42h48.64Z" transform="translate(-4513.64 -1979.34)"/><path class="cls-4" d="M5104.76,2764.19h-49.92v-95.73h145.94v47.62h-96.43c0,16.85,0,32.66,0,48.45Z" transform="translate(-4513.64 -1979.34)"/><path class="cls-4" d="M5398.69,2617.8v-48.65h48.64v48.65Z" transform="translate(-4513.64 -1979.34)"/><path class="cls-4" d="M5399.14,2912.27v-47.05h47.51v47.05Z" transform="translate(-4513.64 -1979.34)"/><path class="cls-4" d="M4757.59,2076.44V2223.2h-146.8v-26.81q0-54.3,0-108.62c0-6.13-.29-11.49,8.64-11.45C4664.92,2076.57,4710.45,2076.44,4757.59,2076.44Z" transform="translate(-4513.64 -1979.34)"/><path class="cls-4" d="M5498.19,2076.45c47.29,0,93.26-.11,139.21.3,2.51,0,7.12,4.39,7.14,6.77.43,46.35.32,92.71.32,139.76H5498.19Z" transform="translate(-4513.64 -1979.34)"/><path class="cls-4" d="M4610.81,2963.75h146.78v146.79h-32.25q-51.63,0-103.25,0c-6.19,0-11.44.18-11.39-8.7C4611,3056.34,4610.81,3010.82,4610.81,2963.75Z" transform="translate(-4513.64 -1979.34)"/></g></g></svg>