<svg width="245" height="288" viewBox="0 0 245 288" fill="none" xmlns="http://www.w3.org/2000/svg">
<path d="M116 274.5L118 111.325L33.5 23.5L31.5 236.077" stroke="white" stroke-width="5"/>
<path d="M77 255V198H170.5V252.5" stroke="white" stroke-width="5"/>
<path d="M154.933 260.5L156 4.49997L210.5 4.5L210.5 235.002" stroke="white" stroke-width="5"/>
<path d="M21.2385 63.3206C18.6541 64.2935 17.3478 67.1772 18.3207 69.7616C19.2935 72.3459 22.1773 73.6523 24.7616 72.6794L21.2385 63.3206ZM114.5 33.5545L116.127 28.8267L114.424 28.2405L112.739 28.8751L114.5 33.5545ZM24.7616 72.6794L116.262 38.2339L112.739 28.8751L21.2385 63.3206L24.7616 72.6794ZM112.873 38.2823L220.373 75.2823L223.627 65.8267L116.127 28.8267L112.873 38.2823Z" fill="white"/>
<path d="M103.872 275.025C106.371 276.2 109.349 275.127 110.525 272.628C111.7 270.129 110.627 267.151 108.128 265.975L103.872 275.025ZM5 223L-2.0763e-06 223L-2.0763e-06 226.174L2.87209 227.525L5 223ZM10 82.0001L10 77.0001L-2.07629e-06 77.0001L-2.07629e-06 82.0001L10 82.0001ZM108.128 265.975L7.12791 218.475L2.87209 227.525L103.872 275.025L108.128 265.975ZM10 223L10 82.0001L-2.07629e-06 82.0001L-2.0763e-06 223L10 223Z" fill="white"/>
<path d="M238.5 89C238.5 86.2386 236.261 84 233.5 84C230.739 84 228.5 86.2386 228.5 89H238.5ZM233.5 223L235.736 227.472L238.5 226.09V223H233.5ZM129.264 269.528L124.792 271.764L129.264 280.708L133.736 278.472L129.264 269.528ZM228.5 89L228.5 223H238.5L238.5 89H228.5ZM231.264 218.528L129.264 269.528L133.736 278.472L235.736 227.472L231.264 218.528Z" fill="white"/>
<path d="M9.03412 72.0096L27.0287 55.7327L33.15 74.6874L9.03412 72.0096Z" fill="white"/>
<path d="M232.999 74.1555L243.256 96.1448L223.34 96.414L232.999 74.1555Z" fill="white"/>
<path d="M122.163 276.522L97.9262 277.669L105.234 259.139L122.163 276.522Z" fill="white"/>
</svg>
