<svg id="_7" data-name="7" xmlns="http://www.w3.org/2000/svg" viewBox="0 0 208 208"><defs><style>.cls-1{fill:#fff;}</style></defs><title>5</title><path class="cls-1" d="M472.61,3539.53a6.34,6.34,0,0,0,3-.78,13.15,13.15,0,0,0,5.56-5.84h.17a6.35,6.35,0,0,0,3-.77,13.09,13.09,0,0,0,5.26-5.25,6.24,6.24,0,0,0,2.43-.74,13.18,13.18,0,0,0,5.3-17.87l-7.72-14.23a82.92,82.92,0,0,0,9.54-20.55,93,93,0,0,0,3.14-15.6,18.82,18.82,0,0,0-5.43-15.6l-34.56-34.57a3,3,0,0,0-4.31,4.31l34.57,34.57a12.77,12.77,0,0,1,3.68,10.58,86.88,86.88,0,0,1-2.93,14.58,75.33,75.33,0,0,1-6.75,15.56l-3.65-6.73c5.79-3.61,9.07-12.87,9.22-19.79a3,3,0,0,0-3-3.11h-.07a3,3,0,0,0-3,3c-.13,6-3.05,12.72-6.38,14.76-.35.22-1.55.86-2.29,1.24a3.06,3.06,0,0,0-1.27,4.16l6.39,11.77a8.31,8.31,0,0,1-3.33,11.25.69.69,0,0,1-.92-.25l-12.6-20.19-.66-14.55a8.59,8.59,0,0,1,2.18-6.16l6.4-7.16,5.24-2.85a3,3,0,1,0-2.9-5.35l-5.72,3.1a3.41,3.41,0,0,0-.82.65l-1.11,1.24L441,3428.76a3,3,0,1,0-4,4.61l27.21,23.53-1.57,1.77a14.63,14.63,0,0,0-3.73,10.48l.36,7.94-3.4,11.44a3,3,0,0,0,2.05,3.78,2.91,2.91,0,0,0,.87.13,3.05,3.05,0,0,0,2.92-2.18l.33-1.11,6.47,10.36-1.82,6.1a3.07,3.07,0,0,0,.25,2.32l8.6,15.85a7.11,7.11,0,0,1,.57,5.4,7,7,0,0,1-3.42,4.21.25.25,0,0,1-.33-.09l-15.47-26.77.74-2.49a3,3,0,1,0-5.84-1.73l-1.11,3.74a3,3,0,0,0,.28,2.39l16.12,27.91A6.32,6.32,0,0,0,472.61,3539.53Zm20-22.94a7,7,0,0,1-1.39,2.57,12.9,12.9,0,0,0-1.52-4.88l-4.14-7.64a14.31,14.31,0,0,0,2.31-3.13l4.17,7.69a7,7,0,0,1,.57,5.39Zm-18.78-8.82a6.8,6.8,0,0,0,5.08,2.27,6.69,6.69,0,0,0,1.47-.16l4,7.31a7.09,7.09,0,0,1-1.85,8.94,13.09,13.09,0,0,0-1.56-5.25Z" transform="translate(-436 -3389.38)"/><path class="cls-1" d="M621.42,3510.32l8.6-28.87a3,3,0,0,0-.28-2.39l-16.12-27.91a6.32,6.32,0,0,0-8.52-2.4,13.12,13.12,0,0,0-5.58,5.84,6.28,6.28,0,0,0-3.18.76,13.12,13.12,0,0,0-5.27,5.25,6.41,6.41,0,0,0-2.43.74,13.17,13.17,0,0,0-5.29,17.87l7.72,14.23a82.48,82.48,0,0,0-9.55,20.55,94,94,0,0,0-3.14,15.6,18.82,18.82,0,0,0,5.43,15.6L617.63,3579a3,3,0,0,0,2.15.89,3,3,0,0,0,2.16-5.2l-33.82-33.81a12.81,12.81,0,0,1-3.69-10.59,87.07,87.07,0,0,1,2.94-14.58,75.57,75.57,0,0,1,6.75-15.55l3.65,6.72c-5.79,3.61-9.08,12.87-9.22,19.79a3,3,0,0,0,6.09.13c.13-6,3.05-12.72,6.38-14.76.35-.22,1.55-.85,2.28-1.24a3,3,0,0,0,1.27-4.15l-6.39-11.78a8.31,8.31,0,0,1,3.34-11.25.7.7,0,0,1,.92.25l12.6,20.19.66,14.56a8.64,8.64,0,0,1-2.19,6.15l-6.39,7.16-5.25,2.85a3,3,0,0,0,2.91,5.35l5.71-3.1a3.06,3.06,0,0,0,.82-.65l1.13-1.26L639,3558a3,3,0,1,0,4-4.61l-26.44-22.8,1.56-1.75a14.68,14.68,0,0,0,3.73-10.48Zm-33.28-39.41a7,7,0,0,1,1.38-2.56,13.27,13.27,0,0,0,1.52,4.87l4.15,7.64a14.35,14.35,0,0,0-2.32,3.13l-4.17-7.69a7,7,0,0,1-.56-5.39Zm12.22,6.71-4-7.31a7.09,7.09,0,0,1,1.84-8.94,13,13,0,0,0,1.56,5.25l7.12,13.12a6.82,6.82,0,0,0-6.56-2.12ZM612.19,3488l1.81-6.1a3.07,3.07,0,0,0-.24-2.32l-8.6-15.85a7.08,7.08,0,0,1,2.84-9.61.26.26,0,0,1,.34.09L623.81,3481l-5.16,17.38Z" transform="translate(-436 -3389.38)"/><path class="cls-1" d="M523.92,3574.13l28.75,8.52a2.91,2.91,0,0,0,.87.13,3,3,0,0,0,1.52-.41L583,3566.25a6.31,6.31,0,0,0,2.4-8.52,13.1,13.1,0,0,0-5.83-5.57,6.3,6.3,0,0,0-.77-3.19,13,13,0,0,0-5.25-5.26,6.27,6.27,0,0,0-.73-2.44,13.2,13.2,0,0,0-17.88-5.29l-14.23,7.72a84.08,84.08,0,0,0-20.54-9.55,95,95,0,0,0-15.61-3.14,18.86,18.86,0,0,0-15.6,5.43L454.37,3571a3,3,0,0,0,0,4.3,3,3,0,0,0,2.15.9,3,3,0,0,0,2.16-.9l34.56-34.56a12.78,12.78,0,0,1,10.58-3.68,87.2,87.2,0,0,1,14.59,2.93,75.81,75.81,0,0,1,15.55,6.75l-6.73,3.65c-3.6-5.79-12.87-9.08-19.78-9.22h-.07a3.05,3.05,0,0,0-.06,6.1c6,.13,12.72,3.05,14.76,6.38.21.35.85,1.55,1.23,2.28a3,3,0,0,0,4.16,1.27l11.77-6.39a8.3,8.3,0,0,1,11.25,3.34.69.69,0,0,1-.24.92l-20.19,12.6-14.56.66a8.61,8.61,0,0,1-6.15-2.19l-7.16-6.39-2.85-5.25a3,3,0,0,0-5.36,2.91l3.1,5.71a3.06,3.06,0,0,0,.65.82l1.25,1.11-23.59,27.29a3,3,0,1,0,4.6,4l23.54-27.21,1.76,1.58a14.64,14.64,0,0,0,9.8,3.74h.68ZM556.5,3553l7.31-4a7.09,7.09,0,0,1,8.94,1.85,13.07,13.07,0,0,0-5.25,1.55l-13.11,7.12A6.81,6.81,0,0,0,556.5,3553Zm1.32-11.67a7.12,7.12,0,0,1,8,.82,13.32,13.32,0,0,0-4.88,1.52l-7.63,4.15a14.28,14.28,0,0,0-3.13-2.32Zm22.1,19.64-26.77,15.47-17.38-5.15,10.36-6.47,6.11,1.81a3,3,0,0,0,2.32-.24l15.85-8.6a7.08,7.08,0,0,1,9.6,2.84.24.24,0,0,1-.09.34Z" transform="translate(-436 -3389.38)"/><path class="cls-1" d="M576.93,3448.94c-2.52-.29-5-.69-7.46-1.17a3,3,0,0,0-1.19,6c2.59.52,5.26.94,7.94,1.25a18.54,18.54,0,0,0,2.23.14,18.86,18.86,0,0,0,13.37-5.56l33.81-33.82a3,3,0,0,0-4.3-4.31l-33.82,33.82a12.78,12.78,0,0,1-10.58,3.68Z" transform="translate(-436 -3389.38)"/><path class="cls-1" d="M501.22,3433.85A6.28,6.28,0,0,0,502,3437a13.09,13.09,0,0,0,5.25,5.26,6.35,6.35,0,0,0,.74,2.43,13.17,13.17,0,0,0,17.87,5.3l14.23-7.72a86.6,86.6,0,0,0,13.9,7.21,3.13,3.13,0,0,0,1.15.22,3,3,0,0,0,1.14-5.87,80.24,80.24,0,0,1-9.46-4.61l6.72-3.65c3.61,5.79,12.87,9.07,19.79,9.22h.07a3,3,0,0,0,.06-6.09c-6-.13-12.72-3-14.76-6.38-.22-.35-.85-1.55-1.24-2.28a3,3,0,0,0-4.15-1.28l-11.78,6.39a8.27,8.27,0,0,1-11.24-3.33.69.69,0,0,1,.24-.92l20.19-12.6,14.56-.66a8.59,8.59,0,0,1,6.15,2.19l7.16,6.39,2.85,5.25a3,3,0,1,0,5.35-2.91l-3.1-5.71a2.71,2.71,0,0,0-.65-.82l-1.26-1.13,22.87-26.53a3,3,0,0,0-4.62-4l-22.8,26.45-1.74-1.56a14.7,14.7,0,0,0-10.49-3.73l-7.9.36-29-8.6a3.08,3.08,0,0,0-2.39.29l-27.9,16.12a6.3,6.3,0,0,0-2.4,8.52,13.07,13.07,0,0,0,5.84,5.57Zm23-.84-7.3,4a7.1,7.1,0,0,1-9-1.85,13.16,13.16,0,0,0,5.26-1.55l13.11-7.12A6.81,6.81,0,0,0,524.24,3433Zm-1.32,11.66a7,7,0,0,1-7.95-.82,13.06,13.06,0,0,0,4.87-1.51l7.64-4.15a14.46,14.46,0,0,0,3.12,2.32ZM500.83,3425l26.77-15.47,17.38,5.15-10.36,6.47-6.11-1.81a3,3,0,0,0-2.32.24l-15.85,8.6a7.08,7.08,0,0,1-9.61-2.85.25.25,0,0,1,.1-.33Z" transform="translate(-436 -3389.38)"/><path class="cls-1" d="M540.13,3520a.19.19,0,0,1-.26,0l-12-12a3,3,0,0,0-4.31,4.31l12,12a6.3,6.3,0,0,0,8.88,0L566,3502.74a19.91,19.91,0,0,0-26-30,19.91,19.91,0,0,0-26.65,29.33,3,3,0,1,0,4.51-4.1,13.81,13.81,0,0,1,20-19,3,3,0,0,0,4.3,0,13.81,13.81,0,0,1,19.54,19.53Z" transform="translate(-436 -3389.38)"/></svg>