<svg id="_5" data-name="5" xmlns="http://www.w3.org/2000/svg" viewBox="0 0 779.78 779.64"><defs><style>.cls-1{fill:#fff;}</style></defs><title>5</title><rect class="cls-1" x="3921.84" y="6790.18" width="96.32" height="6.09" transform="translate(-6404.53 4628.44) rotate(-90)"/><rect class="cls-1" x="340.54" y="655.4" width="96.32" height="6.09"/><polygon class="cls-1" points="514.46 388.22 520.54 388.22 520.54 361.13 580.63 421.22 584.94 416.92 524.85 356.83 551.94 356.83 551.94 350.74 514.46 350.74 514.46 388.22"/><polygon class="cls-1" points="362.2 363.09 366.5 367.39 385.66 348.24 385.66 433.22 391.74 433.22 391.74 348.24 410.9 367.39 415.2 363.09 388.7 336.59 362.2 363.09"/><polygon class="cls-1" points="262.94 388.22 256.86 388.22 256.86 361.13 196.76 421.22 192.46 416.92 252.55 356.83 225.46 356.83 225.46 350.74 262.94 350.74 262.94 388.22"/><path class="cls-1" d="M3816.25,6787.42a67.74,67.74,0,0,0-27.69-24.51,5.2,5.2,0,1,0-4.51,9.38,57.3,57.3,0,0,1,25.8,78.47,5.2,5.2,0,0,0,2.15,7,5.13,5.13,0,0,0,2.44.61,5.21,5.21,0,0,0,4.6-2.76,67.73,67.73,0,0,0-2.79-68.23Z" transform="translate(-3581.3 -6134.79)"/><path class="cls-1" d="M3767.44,6756.26h-.35a5.21,5.21,0,1,0,0,10.41h.32a5.21,5.21,0,0,0,0-10.41Z" transform="translate(-3581.3 -6134.79)"/><path class="cls-1" d="M3734.51,6875.54a57.3,57.3,0,0,1-25.8-78.47,5.21,5.21,0,1,0-9.19-4.89,67.69,67.69,0,0,0,30.48,92.74,5.2,5.2,0,1,0,4.51-9.38Z" transform="translate(-3581.3 -6134.79)"/><path class="cls-1" d="M3751.47,6881.16h-.3a5.21,5.21,0,0,0,0,10.41h.34a5.21,5.21,0,1,0,0-10.41Z" transform="translate(-3581.3 -6134.79)"/><path class="cls-1" d="M3782.91,6738.66a23.84,23.84,0,0,0-2.31-4.25h13.55a23.94,23.94,0,0,0,0-47.88h-41.68a23.92,23.92,0,0,0-19.73-37.47h-127.5a23.94,23.94,0,0,0,0,47.88h41.67a23.89,23.89,0,0,0,0,27.06h-13.57a286.14,286.14,0,0,1-23.94,61.41,23.88,23.88,0,0,1,0,37.47,23.87,23.87,0,0,1,0,37.46,24,24,0,0,0,23.94,23.94h61.33a88.45,88.45,0,1,0,88.24-145.62Zm11.24-41.72a13.53,13.53,0,0,1,0,27.06h-127.5a13.53,13.53,0,1,1,0-27.06Zm-188.91-10.41a13.53,13.53,0,0,1,0-27.06h127.5a13.53,13.53,0,1,1,0,27.06Zm28.1,47.88h127.5a13.38,13.38,0,0,1,5.9,1.36q-3.69-.32-7.46-.32a88.15,88.15,0,0,0-62.6,26h-63.34a13.53,13.53,0,0,1,0-27.06Zm0,37.47h54.44a88.29,88.29,0,0,0-13.37,27.06h-41.07a13.53,13.53,0,0,1,0-27.06Zm0,37.46H3672a88.28,88.28,0,0,0-.32,27.07h-38.36a13.54,13.54,0,0,1,0-27.07Zm0,64.54a13.54,13.54,0,0,1,0-27.07h40.48a88.18,88.18,0,0,0,12.49,27.07Zm125.94,28.1a78.06,78.06,0,1,1,78.06-78.06A78.15,78.15,0,0,1,3759.28,6902Z" transform="translate(-3581.3 -6134.79)"/><path class="cls-1" d="M3752,6841.83a.39.39,0,0,1-.41-.14,4.28,4.28,0,0,0-.61-.2,5.58,5.58,0,0,1-.61-.21,1.94,1.94,0,0,0-.71-.13,3.38,3.38,0,0,1-.72-.07,1.7,1.7,0,0,0-.47-.17l-.54-.1h-2.78c-.23,0-.46,0-.68,0a5.17,5.17,0,0,1-.68,0h-.48a.28.28,0,0,1-.27-.14c0,.05,0,.07-.06.07v.07a2,2,0,0,0-.65.1,1.71,1.71,0,0,1-.57.1,4.78,4.78,0,0,1-.95.07h-.21l-.07-.07s-.06,0-.06,0,0,0-.07,0a.54.54,0,0,1-.27-.07c0,.14-.18.16-.41.07a.82.82,0,0,1-.34.07,1.24,1.24,0,0,0-.27,0,1.24,1.24,0,0,1-.27,0h-.2c-.1.05-.16.06-.21,0s-.11,0-.2,0a3.14,3.14,0,0,1-.68.07,4.19,4.19,0,0,0-.75.07c-.22.09-.29,0-.2-.21a.28.28,0,0,0,.2-.06.13.13,0,0,0-.2.06.07.07,0,0,0-.07.07.28.28,0,0,1-.17.17.59.59,0,0,0-.17.1h-.47a.28.28,0,0,0-.2.07.28.28,0,0,1-.21.07h-.2a3.68,3.68,0,0,1-.82.13l-1.22.28a4.13,4.13,0,0,1-.44.1,1,1,0,0,0-.37.1,1.47,1.47,0,0,1-.41.07.71.71,0,0,0-.34.07,3.14,3.14,0,0,0-.5.13,3.46,3.46,0,0,1-.51.14l-.55.13-.54.14-.07.07a2.44,2.44,0,0,1-.64.27,3.59,3.59,0,0,0-.64.2c-.14,0-.44.16-.89.34a2.37,2.37,0,0,1-.54.2,6.41,6.41,0,0,0-.61.21,3.62,3.62,0,0,0-.81.34,7.61,7.61,0,0,0-1,.33,6.42,6.42,0,0,1-1,.34c.05-.09.08-.12.1-.1s0,0,0,0a.19.19,0,0,0-.07-.14.54.54,0,0,1-.27.07.54.54,0,0,0-.27.07.68.68,0,0,0,.27.07v.27a.13.13,0,0,0-.1,0,.17.17,0,0,1-.1,0h-.07a.47.47,0,0,1-.55.07l-.13-.13v.27l.13-.14a.23.23,0,0,0,.07.14l-.23.1a.88.88,0,0,1-.24,0v-.06c-.09,0-.15,0-.17.06a.16.16,0,0,1-.17.14c-.05-.05-.2,0-.48.07a.54.54,0,0,0-.4.13v.14a.28.28,0,0,1-.21-.07s-.09,0-.13.07v.07a2,2,0,0,1-.31,0,2.05,2.05,0,0,0-.37,0,.23.23,0,0,1-.07-.14l-.68-.68a4.38,4.38,0,0,1-.54-.61.53.53,0,0,1-.07-.33c-.13-.23-.29-.48-.47-.75a.4.4,0,0,1-.14-.27.38.38,0,0,0-.13-.27.63.63,0,0,1,.07-.82,1,1,0,0,1,.44-.51,2,2,0,0,0,.5-.37c.36-.23.73-.46,1.09-.71a8.84,8.84,0,0,1,1.08-.65,5.4,5.4,0,0,0,.64-.3c.21-.11.42-.22.64-.31a2,2,0,0,1,.51-.23,2,2,0,0,0,.51-.24,1.1,1.1,0,0,0,.34-.34c.18-.32.36-.62.54-.91s.36-.58.54-.85l.81-1.22.71-.85c.25-.3.49-.6.72-.92l.54-.68c.18-.22.38-.45.6-.67s.46-.56.68-.85.45-.58.68-.85.45-.55.68-.85.45-.62.67-1,.63-.71,1-1.05.63-.69.95-1a4.39,4.39,0,0,1,.54-.58q.27-.24.54-.51a4.53,4.53,0,0,0,.47-.54l.48-.61.84-.81c.3-.28.58-.52.85-.75a3.19,3.19,0,0,1,.47-.51,3.82,3.82,0,0,0,.48-.51,2.82,2.82,0,0,0,.47-.44,2.45,2.45,0,0,1,.54-.44,12.2,12.2,0,0,0,.91-.85l.85-.84a3.66,3.66,0,0,0,.44-.38l.31-.3c.09-.09.2-.2.33-.31a3.77,3.77,0,0,0,.34-.3,8.15,8.15,0,0,1,1.29-1.16,4.53,4.53,0,0,1,.54-.47,2.14,2.14,0,0,0,.47-.48c.23-.18.42-.35.58-.5a3.33,3.33,0,0,1,.57-.45c.18-.13.35-.27.51-.4a3.39,3.39,0,0,0,.44-.48,6.46,6.46,0,0,0,.61-.4,3.14,3.14,0,0,0,.54-.55l.64-.51c.21-.15.42-.32.65-.5l.57-.48c.16-.13.35-.31.58-.54a3.93,3.93,0,0,1,.54-.41l.07-.07c-.09-.09-.17-.12-.24-.1a.3.3,0,0,1-.24,0h-.54c0-.14,0-.18-.14-.14l-.13.14h-.31a.6.6,0,0,1-.3-.07h-.2a.86.86,0,0,1-.41-.07.44.44,0,0,0-.27-.07q-.35.21-.48-.06c-.09.09-.17.12-.23.1a.86.86,0,0,0-.24,0,.58.58,0,0,1-.21,0,.49.49,0,0,0-.2,0,.28.28,0,0,1-.2-.07,1.28,1.28,0,0,1-.82,0H3744a3.92,3.92,0,0,0-.82-.07,1.61,1.61,0,0,0-.47-.07,1.24,1.24,0,0,1-.27,0l-.28,0a.66.66,0,0,0-.27.06h-.13a.52.52,0,0,0-.38-.1,1.13,1.13,0,0,1-.3,0,.4.4,0,0,1-.27-.07.7.7,0,0,1-.68-.07c-.23.14-.36.16-.41.07h-1c-.1,0-.15,0-.17,0a.32.32,0,0,0-.17,0c-.09-.09-.16-.07-.21.07l-.13-.14c-.09.14-.18.17-.27.1l-.28-.17v.14h-.4a.14.14,0,0,1-.21-.07.45.45,0,0,1-.54.07h-.07a.39.39,0,0,1-.3,0,.47.47,0,0,0-.31,0h-.81c-.09,0-.15,0-.17,0a.15.15,0,0,0-.1,0,.51.51,0,0,1-.17.07.51.51,0,0,0-.17.07l-.14-.14a.45.45,0,0,1-.67-.07.33.33,0,0,1,.06.21h-.34c0-.05,0-.07,0-.07s0,0,0-.07v-.14c-.09,0-.12,0-.1.07a.28.28,0,0,1,0,.21.32.32,0,0,0-.14,0,.53.53,0,0,1-.2,0,.71.71,0,0,1-.34.07l-.14-.13a.54.54,0,0,1-.4.13,3.75,3.75,0,0,0-.82.14,2.22,2.22,0,0,0-.68.13.86.86,0,0,0-.34.07,1.07,1.07,0,0,0-.47.07l-.54.2a3.13,3.13,0,0,0-1.09.68,1.5,1.5,0,0,0-.24.31l-.23.44-.14.27a.13.13,0,0,0,0-.1.14.14,0,0,1,0-.11.75.75,0,0,1-.06-.4.24.24,0,0,0-.07.2,5.68,5.68,0,0,0-.48-.41,5.08,5.08,0,0,1-.44-.51,1.21,1.21,0,0,1-.24-.78v-.67a.31.31,0,0,0,0-.24.86.86,0,0,1,0-.24,3.11,3.11,0,0,1-.06-1.9,2.19,2.19,0,0,1,.37-.84,1.89,1.89,0,0,1,.58-.51,11.79,11.79,0,0,1,1.08-.61l1.09-.55.74-.27.82-.27a7.91,7.91,0,0,0,1.56-.34,7,7,0,0,1,.74-.1c.27,0,.55-.06.82-.1h.4a1.43,1.43,0,0,1,.48-.07,2.33,2.33,0,0,1,.47-.07,1.79,1.79,0,0,0,.48-.07h.61a3.58,3.58,0,0,0,.61-.06,2.71,2.71,0,0,0,.41,0,.68.68,0,0,1,.4,0,1.53,1.53,0,0,0,.38,0l.3,0h3.93c.23,0,.45,0,.65,0a4.4,4.4,0,0,0,.64,0l.55,0a4.89,4.89,0,0,0,.54,0h.13a3.16,3.16,0,0,1,.68.07h.88a4.16,4.16,0,0,0,.95.07q.41,0,.78,0a6,6,0,0,0,.71,0,2.49,2.49,0,0,0,.51.07h.44a.54.54,0,0,0,.31,0,.5.5,0,0,1,.3,0,6,6,0,0,1,1,.07h.65a11.08,11.08,0,0,0,1.18.1,2.33,2.33,0,0,0,.48,0,4,4,0,0,0,.71.07h.71a3.74,3.74,0,0,0,.65.06,3.79,3.79,0,0,1,.64.07h.14c.09.23.15.41.2.54a1.73,1.73,0,0,1,.07.48.26.26,0,0,0,0,.27l.13.27a7.66,7.66,0,0,1,.41,1,.94.94,0,0,1,.2.27v.07c0,.09,0,.14,0,.17a.13.13,0,0,1,0,.1c-.27,0-.43.09-.47.27.13,0,.2,0,.2.07a.8.8,0,0,0,.17-.21.57.57,0,0,1,.1-.13.54.54,0,0,1,.27.07c.05,0,.12.11.21.34a1,1,0,0,0-.31.3.3.3,0,0,1-.24.17l-.06.14a1.45,1.45,0,0,0-.41.27s-.07.13-.2.27a1.54,1.54,0,0,0-.29.34,1.28,1.28,0,0,0-.35.13.5.5,0,0,1-.22.21,1,1,0,0,0-.28.2l-.29.27s-.07.07-.07.2.07,0,.21-.13a1,1,0,0,1,.38-.34,1.64,1.64,0,0,0,.39-.27.1.1,0,0,1,.07-.1.52.52,0,0,0,.14-.17h.07a.9.9,0,0,0,.41-.41.17.17,0,0,1,.14.07v-.14a.76.76,0,0,0,.18-.23.28.28,0,0,1,.17-.17.23.23,0,0,0,.14-.07.75.75,0,0,1,.35-.27v.13a1.62,1.62,0,0,1-.44.51,3.78,3.78,0,0,0-.51.44,1.44,1.44,0,0,1-.37.37l-.51.38-1,.81a7.48,7.48,0,0,1-.68.61c-.22.18-.45.39-.68.61a.57.57,0,0,1-.3.17.68.68,0,0,0-.31.17c0,.05-.09.16-.27.34s-.46.36-.71.54a5.86,5.86,0,0,0-.71.61c-.27.23-.54.46-.82.68l-.81.68a1.54,1.54,0,0,0-.47.37,4,4,0,0,1-.55.51s-.07,0-.07,0,0,0-.06,0l-.14.14h-.07a2.92,2.92,0,0,0-.44.4,1.17,1.17,0,0,1-.51.34v-.27h.21v-.07a.24.24,0,0,0,.2-.07s-.07,0-.07,0,0,0-.06,0l.2-.21c-.18,0-.23.07-.14.21-.22,0-.34.06-.34.2a.26.26,0,0,0-.2.07h-.07v.13c.05.05.07,0,.07-.13l.14.13s-.07,0-.07,0,0,0-.07,0v.2c0,.05,0,.07,0,.07s0,0,0,.07a1.16,1.16,0,0,1-.34.27.17.17,0,0,1-.13.07c-.05,0-.07,0-.07.07a1.16,1.16,0,0,0-.27.34l-.07.06a.62.62,0,0,0-.3.21,1.22,1.22,0,0,1-.31.27l-.54.54a2,2,0,0,1-.24.21,1.26,1.26,0,0,0-.24.2.41.41,0,0,0-.27.27.17.17,0,0,1-.13.07c-.05,0-.07,0-.07.07a1.74,1.74,0,0,1-.54.54,9.12,9.12,0,0,1-.68.61,2.68,2.68,0,0,1-.37.41,5.07,5.07,0,0,1-.45.33,3,3,0,0,1-.67.61,8.36,8.36,0,0,1-.75.82,2.86,2.86,0,0,1-.31.27l-.3.27-.54.54-.34.34a2.46,2.46,0,0,0-.34.41l-.17.17a.33.33,0,0,1-.24.1l-.07.07a2.07,2.07,0,0,1-.74.76,2.15,2.15,0,0,1-.68.75,1.36,1.36,0,0,1-.54.62,2,2,0,0,0-.21.24,2.6,2.6,0,0,0-.13.24,1.32,1.32,0,0,1-.31.35l-.3.27-.14.14a3.76,3.76,0,0,0-.4.55,4,4,0,0,0-.41.48l-.41.55a.18.18,0,0,1-.1.06.18.18,0,0,0-.1.06c-.05.08-.08.12-.1.12s-.06,0-.11.12,0,.06,0,.06,0,0,0,.05l-.27.28-.28.27a1.84,1.84,0,0,1-.4.61,2.14,2.14,0,0,0-.41.54,3.21,3.21,0,0,0-.54.68,4,4,0,0,1-.55.68,4.68,4.68,0,0,1-.4.57,4.15,4.15,0,0,0-.41.58,7,7,0,0,1-.44.54,4.76,4.76,0,0,0-.44.61l-.07.14h.14l.81-.21c.05,0,.07,0,.07,0s0,0,.07,0a.19.19,0,0,1,.17-.13.39.39,0,0,0,.23-.14h.07a.62.62,0,0,0,.31-.1.66.66,0,0,1,.37-.1h.07v.34a1.37,1.37,0,0,0,.07-.34,1,1,0,0,1,.47-.07.16.16,0,0,0-.07.1.16.16,0,0,1-.07.1q.21,0,.21-.06v-.21a.45.45,0,0,1,.34-.13.89.89,0,0,0,.34-.07h.06v.2c.05,0,.08-.07.11-.07s.05,0,.1-.06a.28.28,0,0,0-.21-.07l.28-.12a.37.37,0,0,0,.2,0,.31.31,0,0,1,.13,0l.58-.09.58-.09s0,0,.07,0l-.14.25a.54.54,0,0,1,.27-.07l.07-.06-.14-.12c.09-.13.27-.15.55-.06a.2.2,0,0,0-.14.06h-.07s0,.06,0,.06,0,0,0,.06l.07.06s.07,0,.21-.12,0,0,.06,0v-.18c0-.05,0-.07.14-.07l.51-.09a4.67,4.67,0,0,1,.57,0,2.45,2.45,0,0,1,.75-.14l.54-.15a1.92,1.92,0,0,1,.41-.05l.34.07v.2c.09,0,.13,0,.13-.13h-.13c0-.1,0-.15.07-.15a2.75,2.75,0,0,0,.34,0,1.47,1.47,0,0,1,.33,0,8.15,8.15,0,0,1,.89-.12l.95-.13h.5a2.74,2.74,0,0,0,.58-.07c.32,0,.62,0,.92,0s.62,0,1,0h1.36a3.54,3.54,0,0,1,.84,0c.25,0,.49,0,.72,0a3.25,3.25,0,0,0,.57.06h.58c0,.06,0,.08.07.08s.06,0,.06,0,0,0,.07,0a.8.8,0,0,1,.68,0,5.52,5.52,0,0,0,.65.11l.64.12a2.43,2.43,0,0,0,.81.22.46.46,0,0,0,.21.07.58.58,0,0,1,.2.06,3.13,3.13,0,0,1,.61.19l.54.26a3.51,3.51,0,0,1,.89.45l.13.13c.18,0,.32.11.41.34s.13.12.13.1,0,0,.07.24a.36.36,0,0,1,.27.4q.07.27.27.27a.49.49,0,0,1,.07.24.49.49,0,0,0,.07.24,1.61,1.61,0,0,1,.13.41s0,.06,0,.06,0,0,0,.07a.25.25,0,0,0,0,.14.49.49,0,0,1,0,.2c.05.14.1.28.17.44a1.25,1.25,0,0,1,.1.51v2.37a1.13,1.13,0,0,1-.2.28.68.68,0,0,1,.07.27.66.66,0,0,0,.06.27,1.21,1.21,0,0,0,.14.54,3.89,3.89,0,0,1,.07.81,1.2,1.2,0,0,1,0,.31,1.69,1.69,0,0,0,0,.3c0,.18-.05.3-.14.34s-.13-.09-.1-.13a.12.12,0,0,0,0-.14,1.25,1.25,0,0,0-.1.31c0,.11-.13.17-.31.17a.62.62,0,0,0-.35-.41,1.56,1.56,0,0,0-.27-.34q-.15-.06-.21,0c-.1,0-.13-.1-.11-.17s0-.1-.1-.1a.69.69,0,0,0,.07.34h-.07a1.35,1.35,0,0,1-.14-.34,3.57,3.57,0,0,0-.28-.48c-.09,0-.16-.18-.2-.4a1.61,1.61,0,0,0-.24-.58,5.46,5.46,0,0,0-.38-.44l-.14-.13v-.07h.14a1.65,1.65,0,0,1-.35-.27.26.26,0,0,0,.07.2.18.18,0,0,1-.11,0,.11.11,0,0,0-.1,0v-.2l-.24-.14C3752.18,6841.83,3752.1,6841.78,3752,6841.83Zm-32.56,1.9c0,.09,0,.13-.13.13l-.14-.13v.33h.34l.14-.06c.09.09.16.11.23.06l.24-.13c0-.09.07-.14.2-.14s0-.13-.13-.13c.22-.09.38-.12.47-.07a.11.11,0,0,1,0-.1.15.15,0,0,0,0-.1c0-.23,0-.25-.14-.07,0,0-.06,0-.06.07h-.21l-.13.13a.16.16,0,0,1-.07-.1.16.16,0,0,0-.07-.1l-.13.07-.21.1-.2.1S3719.47,6843.63,3719.47,6843.73Zm.68-.89c.18-.09.18-.13,0-.13Zm0,2.85h.07l-.07-.07Zm.41.07a.29.29,0,0,1,0-.17s0-.08,0-.17Zm.47-.2a.13.13,0,0,0,.14-.14v-.07c-.05,0-.08.07-.1.07s-.06.05-.11.14Zm.54-2.65a.38.38,0,0,1-.13-.27.26.26,0,0,0-.07.2l-.07.14c-.13,0-.2.11-.2.2a.58.58,0,0,1,.2-.06.23.23,0,0,0,.14-.07Zm.07,2.17a.21.21,0,0,1-.07-.13l-.13.13h-.14a.4.4,0,0,0,.07.27.35.35,0,0,0,.14,0,.49.49,0,0,1,.2,0,.79.79,0,0,1,.1-.17.57.57,0,0,0,.1-.17.21.21,0,0,1-.13-.07C3721.69,6845,3721.64,6845,3721.64,6845.08Zm1.09-2.44c0-.09.07-.18.2-.27h.2a.27.27,0,0,0,.21-.07.28.28,0,0,1,.2-.07.41.41,0,0,0-.27-.06.17.17,0,0,1,.07-.14.19.19,0,0,0-.14-.07.48.48,0,0,0-.1.17.28.28,0,0,1-.17.17c-.13-.09-.22-.11-.27-.07a.06.06,0,0,1,.07.07l-.07.07-.14.14a.43.43,0,0,0-.2-.07.68.68,0,0,1-.2-.07v.07l.06.07c0,.09-.07.13-.1.13s0,0-.1.07l-.27.2a.52.52,0,0,0,.34-.07c0-.13.13-.15.41-.06a.36.36,0,0,1,.13-.21s.07,0,.07,0S3722.68,6842.64,3722.73,6842.64Zm-.41,2a1.17,1.17,0,0,0,.27.2s.12-.05.21-.14v-.13a.32.32,0,0,1,.16.13c0,.05.08,0,.17-.06a.36.36,0,0,1,0-.24c0-.07,0-.13-.1-.17a.23.23,0,0,1-.14.07.19.19,0,0,0-.13.06c0,.09-.07.14-.21.14s-.2,0-.2.14a.2.2,0,0,1-.14.06s-.06,0-.06,0,0,0-.07,0v.27a.17.17,0,0,0,.07.13.38.38,0,0,0,.27-.13.14.14,0,0,0,0-.11S3722.32,6844.77,3722.32,6844.68Zm.2.88c0-.09,0-.14,0-.14s0,0,0-.07v-.06l-.13.13Zm.95-1.29a.22.22,0,0,0-.06-.14.27.27,0,0,1,0,.17.15.15,0,0,0,0,.1C3723.43,6844.45,3723.47,6844.4,3723.47,6844.27Zm.82-.07c-.05-.09-.09-.11-.14-.07s.07,0,.07,0S3724.24,6844.2,3724.29,6844.2Zm.2-.34a.21.21,0,0,0-.13-.07l.13.27c.05,0,.07-.07.07-.1s0-.05.07-.1h.06a.19.19,0,0,1-.06-.13C3724.54,6843.73,3724.49,6843.77,3724.49,6843.86Zm.34-.27c.05.14.09.18.14.14Zm.41-.14c-.09.09-.14.16-.14.21l.14.13A.49.49,0,0,0,3725.24,6843.45Zm.47-.13a.57.57,0,0,1-.13.1.8.8,0,0,0-.21.17.58.58,0,0,0,.21,0,.35.35,0,0,1,.2,0A.24.24,0,0,0,3725.71,6843.32Zm1.49-3a.33.33,0,0,0-.13,0,.35.35,0,0,1-.14,0,1,1,0,0,0-.07.17.67.67,0,0,1-.06.17,1.4,1.4,0,0,1,.4-.07,1.45,1.45,0,0,1,.55-.27.59.59,0,0,0-.34-.07s-.08-.06-.1-.06-.06,0-.11-.07Zm.21-29.29c.09,0,.14,0,.17,0s.07,0,.17,0v-.21a1.38,1.38,0,0,1,.61-.4c.09,0,.13-.09.13-.14s.05-.07.14-.07a.18.18,0,0,0,0,.11.13.13,0,0,1,0,.1.46.46,0,0,0,.06-.41s-.06,0-.06,0,0,0-.07,0a.19.19,0,0,1,.13-.06v-.07h-.2a.32.32,0,0,1-.2.34.38.38,0,0,1-.27.13.17.17,0,0,1-.14-.07.66.66,0,0,0-.48.48c-.13,0-.26.2-.37.47a1.84,1.84,0,0,0-.1.95,4.42,4.42,0,0,0,.2-.57.7.7,0,0,1,.27-.38Zm-.14,31.94a.54.54,0,0,0,.07-.27.3.3,0,0,0-.34.07l.2.13v.07Zm12.2-19.6a.13.13,0,0,0,.14.14v-.28a1,1,0,0,0,.21-.13h.2l.07-.28.07.11a.19.19,0,0,1,.07-.17c.18,0,.27-.15.27-.44l.13.14c.09,0,.11,0,.07-.07a.09.09,0,0,1,0-.15h.2a.24.24,0,0,1-.06-.15.39.39,0,0,0,.13-.21.23.23,0,0,0,.14.07.22.22,0,0,0,.06-.14.26.26,0,0,1,.07-.14v.21c.14-.05.21-.18.21-.41a.09.09,0,0,1,.13,0,.08.08,0,0,0,.14,0s0-.07-.14-.07a.41.41,0,0,1,.21-.2.21.21,0,0,0,.13-.2h-.13c0-.05,0-.07,0-.07s0,0,0-.07a.26.26,0,0,0-.07.2.27.27,0,0,0-.27.14l.07.07-.21.2s0-.07-.13-.07-.16.14-.21.14h-.06a.41.41,0,0,0-.07.29v.14a1.24,1.24,0,0,0-.27.21h-.14c.09-.09.16-.14.2-.14s.07-.05.07-.14-.13,0-.13,0,0,.11-.07.11-.11.09-.2.28h-.07s-.12.05-.21.15-.11,0-.2.14a.23.23,0,0,1,.07.14.06.06,0,0,1-.07.07c0-.05,0-.07-.07-.07s-.2.05-.2.14-.05.12,0,.21l.07-.07s0-.07.13-.07l-.2.41s-.05-.07-.14-.07c-.09.18-.2.27-.34.27l-.06-.13a.47.47,0,0,0-.07.2.43.43,0,0,1-.07.2h-.2v.14h-.07q-.27.14-.27.27c0,.09,0,.14-.07.14s-.09.18-.27.27c0-.14-.05-.18-.14-.14a1.07,1.07,0,0,0-.06.41h-.21v.2a.19.19,0,0,1-.13-.06v.13l-.21.2-.13.14a.19.19,0,0,1-.14-.07v.07a.24.24,0,0,0,.07.2.94.94,0,0,1-.27.2s-.07.07-.07.2a1.46,1.46,0,0,0-.44.29l-.31.3h-.2s-.07,0-.07.13h.07l.14.06a2.39,2.39,0,0,0-.41.33v-.33a.61.61,0,0,0-.07.46h-.2a.54.54,0,0,1-.34.2.26.26,0,0,1-.07.2l.14.2a.11.11,0,0,0-.1,0,.18.18,0,0,1-.11,0l-.06-.07v.17s-.06.09-.16.17-.34.05-.39.14v.27a.15.15,0,0,0-.1,0,.15.15,0,0,1-.1,0l-.07-.14v.2c-.09,0-.15,0-.17,0a.8.8,0,0,1-.17.21h-.13c-.09.27-.16.49-.21.67H3733l.07.28a.12.12,0,0,1-.11,0,.18.18,0,0,0-.11,0,.24.24,0,0,0,.07.2.42.42,0,0,0-.29.07v.2c-.09.09-.14.16-.14.21s-.15-.16-.15-.21a.69.69,0,0,1-.07.34.06.06,0,0,1,.07.07h-.21l-.15.07a.4.4,0,0,0-.1.2c0,.18,0,.3-.1.34a.42.42,0,0,0,0-.27v.27a.25.25,0,0,1-.08.2v-.13a4.09,4.09,0,0,0-.51.4h.07v.14c-.05,0-.1,0-.14,0s-.1,0-.15.1.07,0,.07,0,0,0,.08,0-.09.12-.11.1-.07,0-.11,0l-.12.14.12.13s-.06.08-.06.1,0,.06-.06.11a.27.27,0,0,0-.05-.14l-.17.2v.28l-.14-.14a.79.79,0,0,0-.13.54.45.45,0,0,0-.21-.2.77.77,0,0,0-.2.34l.13.07h-.2c0,.22,0,.36-.13.4s0,.07-.14.21a.15.15,0,0,1,0,.1.11.11,0,0,0,0,.1.24.24,0,0,0-.07-.2,1.48,1.48,0,0,0-.1.27,1.48,1.48,0,0,1-.1.27.23.23,0,0,1-.14.07.19.19,0,0,0-.13.06,1.13,1.13,0,0,0-.2.48h-.14v-.2h-.07a.26.26,0,0,1-.07.2.54.54,0,0,1,.07.27.22.22,0,0,0-.2.17.69.69,0,0,0-.27.48,1.54,1.54,0,0,0-.14.23l-.27-.13a.73.73,0,0,1,.07.17.62.62,0,0,0,.07.17.21.21,0,0,0-.14-.07.17.17,0,0,0-.07.13.46.46,0,0,1-.07.21.24.24,0,0,0-.2-.07.4.4,0,0,0,.14.27.82.82,0,0,0,.4-.41.17.17,0,0,0,.07-.13.19.19,0,0,1,.07-.14,2.58,2.58,0,0,1,.54-.61c0-.09.05-.13.14-.13a1.47,1.47,0,0,1,.27-.55l.27-.3c.09-.11.18-.22.27-.31l.14-.06v-.14a1.21,1.21,0,0,0,.27-.41.07.07,0,0,1,.07.07c0,.05,0,.09.13.14,0-.32,0-.52.21-.61a.18.18,0,0,1,0-.11.13.13,0,0,0,0-.1h.14v-.2a1.35,1.35,0,0,0,.34-.14v-.06a.69.69,0,0,0,.2-.14.15.15,0,0,0,0-.1.11.11,0,0,1,0-.1l.14-.13.07.13a1.47,1.47,0,0,1,.13-.3,1.54,1.54,0,0,0,.14-.23c.18-.09.27-.11.27-.07V6832a1.52,1.52,0,0,1,.58-.67s.06,0,.06.07v-.2s.07-.13.2-.26a2.11,2.11,0,0,0,.38-.53c0,.09,0,.14,0,.16a.15.15,0,0,1,0,.1l.07-.26c0-.27.09-.4.27-.4q.14-.36.27-.36c0,.14,0,.22-.06.22s.06,0,.06.07c.1-.15.16-.27.21-.36a.62.62,0,0,0,.07-.29,2.17,2.17,0,0,1,.2-.36.66.66,0,0,0,.17-.1.72.72,0,0,1,.18-.11l.06.07a.13.13,0,0,1,.14-.14c.09,0,.12-.07.07-.2h-.14l.14-.14h.14a.4.4,0,0,0,.07-.27,6.31,6.31,0,0,1,.68-.74l.48-.48.14-.14a.2.2,0,0,0,.06.14v-.2h.07a.11.11,0,0,1,0-.1.18.18,0,0,0,0-.11,2,2,0,0,1,.31-.34c.11-.09.22-.18.31-.27a1.17,1.17,0,0,1,.27-.2v-.07a2,2,0,0,0,.21-.24,1.69,1.69,0,0,1,.2-.23c.09,0,.14,0,.14.07a.27.27,0,0,1,.07-.21,1,1,0,0,0,.14-.2c.09-.05.15-.05.2,0a.27.27,0,0,0,.07-.21c0-.09,0-.13.14-.13l.34.07a.19.19,0,0,1-.07-.14v-.13a2.91,2.91,0,0,1,.27-.24,1.24,1.24,0,0,0,.28-.31s0-.06.13-.06,0-.07,0-.07S3739.47,6823.43,3739.47,6823.38Zm-11.38-12.14c-.1.05-.14.08-.14.1a.16.16,0,0,1-.07.1l-.34.34-.13.27a.25.25,0,0,1,0,.14.49.49,0,0,0,0,.2.68.68,0,0,0,.07-.2,4.9,4.9,0,0,0,.47-.61.41.41,0,0,0,.1-.14.63.63,0,0,1,.11-.13q.13-.14.06-.21s0,.07,0,.07S3728.09,6811.19,3728.09,6811.24Zm-.34,31.4a.18.18,0,0,1-.11,0s-.08,0-.17,0a1.21,1.21,0,0,0,.14.34.21.21,0,0,1,.14-.07s.06,0,.06,0,0,0,.07,0l-.13-.14a.17.17,0,0,0,.1,0,.11.11,0,0,1,.1,0v.21c0-.05,0-.07.07-.07a.54.54,0,0,1,.07-.27A1.45,1.45,0,0,0,3727.75,6842.64Zm.34-7.66c.09,0,.13,0,.13,0s0,0,.07,0A.3.3,0,0,1,3728.09,6835Zm.06,5.08a.38.38,0,0,0,.55-.06c0-.05,0-.07,0-.07s0,0,0-.07A2.92,2.92,0,0,1,3728.15,6840.06Zm.48-5.15q-.14-.21-.21,0Zm.07-24s-.12,0-.21.07S3728.6,6811,3728.7,6810.9Zm.06,31.33a.44.44,0,0,0-.27.07c.09.09.14.16.14.21a.21.21,0,0,0,.13-.07Zm-.06-7.93s-.07,0-.07.07S3728.7,6834.39,3728.7,6834.3Zm.74-24.55c-.09-.09-.17-.11-.24-.07a.35.35,0,0,1-.23.07c-.09.09-.14.16-.14.2l.61-.2h.27l-.13.13s.07,0,.07,0,0,0,.06,0h.07v-.28A.32.32,0,0,0,3729.44,6809.75Zm0,26.45a.71.71,0,0,0-.27.61l.14-.31C3729.35,6836.39,3729.4,6836.29,3729.44,6836.2Zm-.27,6.1c.09,0,.14-.07.14-.2C3729.21,6842.19,3729.17,6842.26,3729.17,6842.3Zm.07-8.68.07.07q.14-.13.06-.21Zm.13,9.16c.05,0,.07.07.07.1s0,.05.07.1v-.2Zm.48-32.29a.51.51,0,0,0-.41.07.54.54,0,0,0,.07.27l.14-.27A.26.26,0,0,0,3729.85,6810.49Zm-.34,25.64c.32-.23.47-.45.47-.68a.94.94,0,0,1-.2.27,1.24,1.24,0,0,1-.27.21Zm.07,5.9a.24.24,0,0,0,.07.2l.13-.13a.12.12,0,0,1-.1,0A.15.15,0,0,0,3729.58,6842Zm.27-32.69c0-.09,0-.15.07-.17s0-.08,0-.17a1.24,1.24,0,0,1-.21.27v.14A.19.19,0,0,1,3729.85,6809.34Zm.61-.2a.17.17,0,0,0-.07.13.17.17,0,0,1-.13.07h-.07a.26.26,0,0,0-.27.2.17.17,0,0,0,.23,0,.33.33,0,0,1,.24-.1A.38.38,0,0,0,3730.46,6809.14Zm-.27,30.38-.07-.07-.14.14C3730.07,6839.68,3730.14,6839.66,3730.19,6839.52Zm0-5.09c.09,0,.13,0,.13-.13Zm.13.68a.17.17,0,0,0-.13.07v.2l.4-.54c-.09,0-.13,0-.13-.07s-.05.12-.14.21Zm.27,4.34a.19.19,0,0,0-.13-.06l-.27.13c.09,0,.16,0,.2,0A.3.3,0,0,1,3730.59,6839.45Zm-.2,2.58c0-.05,0-.07.07-.07s.07,0,.07-.13h-.21c-.09,0-.13,0-.13.13a.12.12,0,0,1,.1,0A.15.15,0,0,0,3730.39,6842Zm0,.48a1.37,1.37,0,0,0,.34-.07A.28.28,0,0,0,3730.39,6842.51Zm.41-3.33c-.05-.09-.08-.13-.1-.13a.73.73,0,0,1-.17-.07C3730.53,6839.11,3730.62,6839.18,3730.8,6839.18Zm.2-30a.86.86,0,0,0-.34.07A.28.28,0,0,0,3731,6809.2Zm.48,24.35a.17.17,0,0,0,.13-.07,4.42,4.42,0,0,1,.48-.54,2,2,0,0,0,.27-.47.36.36,0,0,0,.13-.21v-.13a2,2,0,0,0-.27.34l-.27.4h-.07a.24.24,0,0,0-.06.14c-.1.09-.14.16-.14.2a.39.39,0,0,0-.2.34.14.14,0,0,0-.11,0,.13.13,0,0,1-.1,0,1.64,1.64,0,0,0-.17.2.8.8,0,0,1-.17.21l-.06.07a.23.23,0,0,1-.11.2c-.06,0-.05.11,0,.2a.71.71,0,0,0,.27-.34.41.41,0,0,1,.13-.17c.05,0,.09-.08.14-.17A.4.4,0,0,0,3731.48,6833.55Zm-.55,5.84a.2.2,0,0,0-.06-.14.26.26,0,0,1-.07.14Zm0,2.37c.09,0,.16,0,.21-.14C3731.05,6841.71,3731,6841.76,3730.93,6841.76Zm.14-2.65q-.14.14,0,.21h.34a.16.16,0,0,1,.1-.07.16.16,0,0,0,.1-.07v-.07a.12.12,0,0,0-.1,0,.15.15,0,0,1-.1,0c0-.09,0-.13-.07-.13l-.07.06Zm0-29.84.13-.07C3731.11,6809.16,3731.07,6809.18,3731.07,6809.27Zm.34,23.67q-.27.07-.27.27Zm0-23.12c-.18,0-.18,0,0,.13Zm-.07,32.41c.09.09.16.07.2-.06a.15.15,0,0,0-.1,0A.13.13,0,0,1,3731.34,6842.23Zm.27-3.39c0-.13,0-.2-.13-.2S3731.48,6838.71,3731.61,6838.84Zm.07-.27c0,.14,0,.16.07.07S3731.72,6838.53,3731.68,6838.57Zm.14-29.57a.26.26,0,0,0,.2-.07A.13.13,0,0,0,3731.82,6809Zm.61,33a6.05,6.05,0,0,0-.61.14.59.59,0,0,0,.2.07h.13s.08,0,.11,0,0-.05.1,0v-.07A.19.19,0,0,1,3732.43,6842Zm-.41-3.05a.2.2,0,0,0,.13.2A.21.21,0,0,0,3732,6838.91Zm.07-8.61a.22.22,0,0,0,.1.07s0,0,.1.13l.07-.27h-.27Zm.06,8.14c.09.09.11.15,0,.2s-.08.11,0,.2a.28.28,0,0,0,.17-.2.84.84,0,0,0,0-.27C3732.31,6838.32,3732.24,6838.34,3732.15,6838.44Zm0,3.05a.25.25,0,0,0,.28-.07C3732.38,6841.37,3732.29,6841.4,3732.15,6841.49Zm.28-32.62-.14.13C3732.33,6808.91,3732.38,6808.87,3732.43,6808.87Zm-.07,30.11v-.14A.1.1,0,0,1,3732.36,6839Zm.07-29.84a.13.13,0,0,0,.2.06.13.13,0,0,1-.1,0A.17.17,0,0,0,3732.43,6809.14Zm.33-.27a.17.17,0,0,1,.07.13C3732.92,6808.91,3732.9,6808.87,3732.76,6808.87Zm.82,29.29a.19.19,0,0,1-.07.14.33.33,0,0,1-.24-.1c-.06-.07-.14-.06-.23,0a.12.12,0,0,1-.14,0c-.05,0-.09,0-.14.1s.16.34.21.47h.07l.06-.34c0-.09,0-.13.06-.13a.56.56,0,0,1,.3.07s.07-.06.09,0,.07,0,.16-.1l-.13-.14h.2a.28.28,0,0,0-.13-.27.18.18,0,0,1,0,.11.13.13,0,0,0,0,.1Zm-.61-6.64a.54.54,0,0,0,.07.27Zm.13-21.57c.05.05.14.05.28,0C3733.19,6809.86,3733.1,6809.86,3733.1,6810Zm.14,21.36a.77.77,0,0,0,.34-.27.4.4,0,0,0-.27.07l-.21.2v.21h.07l.14-.07Zm.07,7.19a.28.28,0,0,0-.14.27C3733.26,6838.77,3733.31,6838.68,3733.31,6838.5Zm.07-8.47c-.1,0-.12,0-.07.13s0-.07,0-.07S3733.38,6830.07,3733.38,6830Zm.2,7.66c.09,0,.16,0,.2,0-.13-.14-.27-.11-.4.07.09,0,.13,0,.13,0S3733.53,6837.69,3733.58,6837.69Zm-.14-29.3a.32.32,0,0,0,.07.34c.09.09.14.09.14,0S3733.58,6808.53,3733.44,6808.39Zm.14,27.47a.21.21,0,0,1,.07.13.28.28,0,0,0,.06-.2s-.06,0-.06,0S3733.62,6835.86,3733.58,6835.86Zm.07-4.88h.06l.14-.28s0-.07.07-.1,0-.08,0-.17a1,1,0,0,1-.14.21.69.69,0,0,0-.13.2Zm.34,7.46a.18.18,0,0,0,0-.11.13.13,0,0,1,0-.1.54.54,0,0,0-.07.27Zm.06-28.56c-.09,0-.13,0-.13.07v.07Zm-.06,20.55a3.22,3.22,0,0,1,.27-.34.4.4,0,0,0-.27.07Zm.2-21.84c-.14,0-.18.07-.14.21,0-.05,0-.07,0-.07s0,0,0-.07Zm-.14,27.2a1.19,1.19,0,0,1,.31,0c.07,0,.14,0,.24-.1A.49.49,0,0,0,3734.05,6835.79Zm.55,2.31c.13,0,.24.09.34.27v-.21l.13-.06a.13.13,0,0,0,0-.1.14.14,0,0,1,0-.11l-.06.07a.42.42,0,0,0-.07-.27.24.24,0,0,0-.07.2.7.7,0,0,1-.68.07.3.3,0,0,0-.07.2.36.36,0,0,1,.34,0,2,2,0,0,0,.27.17A.45.45,0,0,1,3734.6,6838.1Zm-.28.27.07-.07a.17.17,0,0,1-.13-.07c-.05.05-.08.07-.1.07s-.06,0-.11.07a.16.16,0,0,1,.07.1.16.16,0,0,0,.07.1.24.24,0,0,1,.07-.2Zm0-8.34c.14-.09.18-.18.14-.28a.21.21,0,0,0-.07.14A.19.19,0,0,1,3734.32,6830Zm.21,7.59c0-.09-.05-.13-.14-.13S3734.44,6837.62,3734.53,6837.62Zm-.07,3.87a.21.21,0,0,1,.14.2v-.2Zm.2-11.87c0-.05.07-.11.21-.2a.25.25,0,0,0-.27.2Zm.14,11.87a.24.24,0,0,0,.07.2.17.17,0,0,1,.07-.13v-.14A.26.26,0,0,1,3734.8,6841.49Zm.14-12.28s.07-.07.1-.07.05,0,.1-.06a.42.42,0,0,0,.17-.14.38.38,0,0,1,.1-.13.19.19,0,0,1,.07-.14h-.14l-.47.47Zm1.15,8.48a.13.13,0,0,0-.1,0,.14.14,0,0,1-.11,0,2.5,2.5,0,0,1-.54.07.38.38,0,0,0-.27.13l.14.27a.58.58,0,0,0,.06-.2.33.33,0,0,0,.21.07l-.14.27a1.18,1.18,0,0,1,.41-.07V6838c.09-.09.2-.09.34,0V6838h.47a.15.15,0,0,0,.27.14h-.06c-.05,0-.07,0-.07,0s0,0-.07,0a1.05,1.05,0,0,0,.31-.2.58.58,0,0,0,0-.21.89.89,0,0,0-.41.07.75.75,0,0,0-.23,0A.3.3,0,0,1,3736.09,6837.69Zm-1,3.73a.54.54,0,0,1,.2.14.28.28,0,0,0,.07-.21.12.12,0,0,0-.1,0A.29.29,0,0,1,3735.07,6841.42Zm.27-32.83c0,.05,0,.07.14.07C3735.39,6808.57,3735.34,6808.55,3735.34,6808.59Zm.41,32.76v-.07a.69.69,0,0,1-.34.07.19.19,0,0,0,.07.14Zm0-4.07s.11,0,.2-.13V6837a.32.32,0,0,0-.34.21s.07,0,.07,0,0,0,.07,0a.19.19,0,0,0-.07.14l-.13-.14q-.15.07,0,.21h.13C3735.77,6837.4,3735.79,6837.33,3735.75,6837.28Zm-.14-9.9a1.35,1.35,0,0,0-.06.27A.41.41,0,0,0,3735.61,6827.38Zm.48.54a.32.32,0,0,0-.17.21.28.28,0,0,1-.17.2c-.05,0-.07,0-.07-.07l-.07.07c.14.14.21.16.21.07a.74.74,0,0,0,.27-.48l.13.14C3736.22,6827.88,3736.18,6827.83,3736.09,6827.92Zm0-19.53s-.05.07-.14.07l.14.13Zm.13,27.2c0-.09,0-.14,0-.14s0,0,.1-.13h-.2C3736.06,6835.41,3736.09,6835.5,3736.22,6835.59Zm-.06-9.43c0,.05,0,.07.06.07v-.07Zm.27,15.19a.23.23,0,0,0-.21-.13C3736.22,6841.31,3736.29,6841.35,3736.43,6841.35Zm-.14-32.55c.09.09.14.07.14-.07A.19.19,0,0,1,3736.29,6808.8Zm.27,18.78a1,1,0,0,0-.2.14C3736.36,6827.63,3736.43,6827.58,3736.56,6827.58Zm.14-1.22c.09,0,.13,0,.13-.13l-.06-.07A.26.26,0,0,0,3736.7,6826.36Zm.2-16.61s.07.09.21.13a.52.52,0,0,0-.14-.17S3736.9,6809.7,3736.9,6809.75Zm.61,28.08a.29.29,0,0,0-.13-.28.67.67,0,0,0-.34.28.32.32,0,0,1,.17,0,.13.13,0,0,0,.1,0,.28.28,0,0,0,.07.21c0-.05,0-.07.06-.07a.66.66,0,0,0-.06-.27A.17.17,0,0,1,3737.51,6837.83Zm0,3.25c0,.05,0,.07.07.07h.2v.13h.07v-.2c-.23-.23-.34-.23-.34,0h-.2s-.07,0-.07,0,0,0-.07,0C3737.35,6841.15,3737.47,6841.13,3737.51,6841.08Zm.14-14.72c-.09-.09-.14-.09-.14,0s-.18.25-.13.34.13-.08.13-.1,0-.06.14-.1v-.14l.13-.13c.09-.09.12-.16.07-.21S3737.65,6826.14,3737.65,6826.36Zm0-17.63a.4.4,0,0,1-.14-.27v.27Zm.54,28.89c0,.05.08.07.1.07a.16.16,0,0,1,.1.07.54.54,0,0,0,.07-.27.32.32,0,0,0-.3,0,.42.42,0,0,1-.38-.07s-.06.07-.06.2h-.21a.27.27,0,0,1,.07.21h.41v.2a.15.15,0,0,0,.13-.27C3738.17,6837.76,3738.19,6837.71,3738.19,6837.62Zm-.27-.61a.19.19,0,0,1-.14-.07.33.33,0,0,0-.06.21C3737.81,6837.06,3737.87,6837,3737.92,6837Zm.68.07c0-.05-.08-.07-.1-.07s-.06,0-.11-.07-.06,0-.06,0,0,0-.07,0a1,1,0,0,0-.21-.13.17.17,0,0,1,0,.1.29.29,0,0,0,0,.17l.27-.14c0,.14,0,.23.07.27a.28.28,0,0,1,.06-.2h.21a.24.24,0,0,1,.2-.07.21.21,0,0,1-.07-.13C3738.64,6837,3738.6,6837,3738.6,6837.08Zm-.41-11.14c.27-.4.41-.57.41-.52s-.07,0-.07-.07a1,1,0,0,0-.34.44Zm0,14.94v.34c0-.05.07-.18.07-.41Zm.07-32.76c0,.14,0,.2.13.2S3738.39,6808.12,3738.26,6808.12Zm3.46,29.37s.07,0,.07,0,0,0,.13,0a.22.22,0,0,0-.07.1.18.18,0,0,1-.06.1.34.34,0,0,0,.33.07v-.2c.09,0,.14.09.14.13s0,.05.14,0l-.14-.07c.09-.09.15-.11.17-.06a.57.57,0,0,0,.1.13l.14-.2.06.27h.14a.22.22,0,0,0,.06-.14.52.52,0,0,0,.74.07c-.09-.13-.18-.18-.27-.13v-.07l.13-.14a.77.77,0,0,1,.27.34,3.82,3.82,0,0,1,.57,0,1.12,1.12,0,0,0,.5,0,.94.94,0,0,1,.2-.27s.11,0,.2.14a.28.28,0,0,0-.2.06.29.29,0,0,0,.27.11.75.75,0,0,1,.26,0,.83.83,0,0,1,.2-.3s.14,0,.27.1,0,0,.13.2a.38.38,0,0,1,.07-.27s0,.07.07.07v-.14h.2a.13.13,0,0,0,0,.1s0,.08,0,.17v-.13c-.09.09-.16.13-.2.13s.24.16.46.07l.07-.13.27.13a.19.19,0,0,1-.06-.13c0-.05,0-.07,0-.07s0,0,0-.07a.19.19,0,0,0,.14.07.47.47,0,0,1,.2.07v.13a.28.28,0,0,1,.21.07v-.2h.13c0-.14,0-.23.07-.27v-.07l-.14.13a.38.38,0,0,1-.27-.13.21.21,0,0,1-.13.07l-.21-.11a.49.49,0,0,0-.2,0v-.2a.13.13,0,0,0-.1,0,.17.17,0,0,1-.1,0,.49.49,0,0,1,0,.34c0-.22-.16-.29-.34-.2a.46.46,0,0,0-.21.07s-.11,0-.2-.14a.66.66,0,0,1,.1-.17.66.66,0,0,0,.1-.17.23.23,0,0,0-.27-.07.28.28,0,0,1,.07.21.16.16,0,0,0-.07.1.16.16,0,0,1-.07.1l-.27.07a.94.94,0,0,0-.27-.2.21.21,0,0,0-.07.13l-.06-.07a.23.23,0,0,1-.07.14h-.41l-.13-.07h-.14a1.78,1.78,0,0,0-.44,0,2.59,2.59,0,0,1-.44,0l-.21-.14-.13.14a.19.19,0,0,0-.07-.14v.14c-.09.14-.18.16-.27.07h-.2a.54.54,0,0,0-.27.07.21.21,0,0,1-.26-.07h-.07l-.06.06s0-.06,0-.06,0,0,0-.07v.19a.39.39,0,0,0-.26-.06s-.11,0-.2.12a.15.15,0,0,1-.07-.12.19.19,0,0,0-.13.06s-.07,0-.07-.06v-.13a.24.24,0,0,0-.19-.07c0,.13,0,.2-.07.2s-.07,0-.07,0,0,0-.06,0l-.07.06-.06-.06a.35.35,0,0,0-.1.12l-.1.13a.41.41,0,0,0-.2-.19c-.09,0-.13-.13-.13-.27s.07-.06.1-.06,0,0,.1-.07h-.2a.37.37,0,0,0,0,.27.31.31,0,0,1,0,.25.4.4,0,0,0-.24.07c-.07,0-.15,0-.24-.07a.13.13,0,0,0-.1,0,.13.13,0,0,1-.1,0c-.18-.09-.32-.09-.41,0h-.13a1.48,1.48,0,0,1-.27.19c.09.08.13.14.13.18a.68.68,0,0,1-.2.07c-.05,0-.07,0-.07.12h.21c.09,0,.12-.09.1-.13s0-.07.1-.07l.13.13h.41a.94.94,0,0,0-.2-.27c.09-.09.16-.1.2,0s.11.08.2,0,.16-.11.21-.07a.45.45,0,0,1-.07.28c.23,0,.36-.05.41-.14s0-.11.13-.2l.14.13c0,.05-.08.06-.1,0s0,0,0,.1a.58.58,0,0,0,.55-.14c-.05,0-.07-.07-.07-.2a.4.4,0,0,0,.27.07v.2a1.92,1.92,0,0,0,.68,0Zm-3.12-29.23a.24.24,0,0,0-.07.2h.14a.13.13,0,0,0,0-.1A.17.17,0,0,1,3738.6,6808.26Zm.4,16.68a.07.07,0,0,0,0-.14,3,3,0,0,0-.4.48.17.17,0,0,1,.13.07c.09-.05.15-.09.17-.14a.57.57,0,0,1,.1-.13Zm-.33,10c0,.13,0,.18.13.13Zm.27-26.11a.15.15,0,0,0-.21-.07.13.13,0,0,1,.1,0A.14.14,0,0,0,3738.94,6808.8Zm.06-.48a.18.18,0,0,1-.06-.1s0-.05-.07-.1v.07a.17.17,0,0,0,.07.13Zm0,.21a.22.22,0,0,0-.06-.14A.22.22,0,0,1,3739,6808.53Zm.34,32.55q.07-.27.21-.27v-.07a1.67,1.67,0,0,0-.55.07.61.61,0,0,0,.14.1A1,1,0,0,1,3739.34,6841.08Zm-.13-16.45c-.09,0-.14,0-.14.12l.14.12c.09-.08.11-.14.07-.18a1,1,0,0,0,.23-.14l.24-.22-.14-.07c-.09.09-.13.16-.13.2l-.07-.06-.13.12Zm.07,12.25c-.1-.1-.16-.1-.21,0Zm-.07-2a.49.49,0,0,0,.4.07.17.17,0,0,0-.13-.07.13.13,0,0,1-.1,0S3739.3,6834.86,3739.21,6834.91Zm.54-26.45a.68.68,0,0,0,.2.07.22.22,0,0,1,.14.06.23.23,0,0,0-.07-.27c0,.05,0,.07-.13.07l-.07-.13a.13.13,0,0,1,0,.1A.13.13,0,0,0,3739.75,6808.46Zm0,15.53a.3.3,0,0,1,.07.2.77.77,0,0,1,.24-.17c.06,0,.1-.07.1-.17A1.08,1.08,0,0,0,3739.75,6824Zm0,11.05a.28.28,0,0,0,.07-.2h-.07Zm.27,5.7a.19.19,0,0,0,.07.14v-.21Zm.21-17.09c0,.05,0,.07,0,.07s0,0,0,.07a1.24,1.24,0,0,0,.27-.21A.31.31,0,0,0,3740.23,6823.65Zm.06,11.26v-.14h-.06v.14Zm.14-26.25a.06.06,0,0,0,.07-.07c.09.1.13.16.13.21a.4.4,0,0,0,.14-.27c.13,0,.2,0,.2-.07h-.54v.2s-.07,0-.07,0,0,0-.07,0,.05.16.14.07Zm.13,32v.07l.14.14c0-.05.07-.08.07-.1s0-.06.07-.11Zm.61-3.79c-.09-.14-.18-.16-.27-.07A.54.54,0,0,1,3741.17,6836.88Zm.21-28.42c-.09,0-.14,0-.14,0s0,0-.13,0A.17.17,0,0,0,3741.38,6808.46Zm-.14,32.42c0-.14,0-.23-.13-.27C3741.11,6840.79,3741.15,6840.88,3741.24,6840.88Zm0-18.18v.07s0,.06,0,0a.29.29,0,0,0,0-.17Zm.62-14.11a2.44,2.44,0,0,1-.12-.54c-.16,0-.25.05-.29.14l.35.4Zm-.35-.06a.28.28,0,0,0-.06.2A.28.28,0,0,0,3741.51,6808.53Zm.07,13.83a.23.23,0,0,0-.13.21A.36.36,0,0,1,3741.58,6822.36Zm.34-.4a1.36,1.36,0,0,0-.34.47.66.66,0,0,0,.17-.1.66.66,0,0,1,.17-.1Zm-.34,18.71a.33.33,0,0,0,.21-.06A.31.31,0,0,0,3741.58,6840.67Zm.68-20.14a1.17,1.17,0,0,0-.2-.27l.06.34a.58.58,0,0,0-.06.2.63.63,0,0,1-.07.21v.06s0-.06.07-.06h.06s.05.06.14.06c.22-.36.36-.6.42-.71a.3.3,0,0,1,.23-.17l-.06.07c.09,0,.13,0,.13,0s0,0,.07,0a1.67,1.67,0,0,0,.26-.54c.08-.09.15-.11.19-.07a.49.49,0,0,1,.07.24.36.36,0,0,0,.13.24,1.8,1.8,0,0,0,0-.31,1.69,1.69,0,0,1,0-.3,2,2,0,0,1,.22-.21c.07,0,.15,0,.23.07a.4.4,0,0,1,.14-.27h-.07a.61.61,0,0,0,.1-.14.57.57,0,0,1,.1-.13c0-.09.09-.15.14-.17a.35.35,0,0,0,.13-.17.69.69,0,0,0-.2-.14.35.35,0,0,1,0,.14.35.35,0,0,0,0,.2.28.28,0,0,0-.2-.07c0,.23-.09.32-.26.28a1.8,1.8,0,0,1-.23.2c-.06,0-.07.11,0,.2a1.59,1.59,0,0,0-.29.24,2.22,2.22,0,0,1-.3.24v.13a2.56,2.56,0,0,0-.45.48l-.07-.27C3742.44,6820.1,3742.35,6820.26,3742.26,6820.53Zm-.2-10.65a.13.13,0,0,0,.2-.06.13.13,0,0,0-.1,0A.17.17,0,0,1,3742.06,6809.88Zm.34,12a.33.33,0,0,1,.06-.21c.18,0,.21-.06.07-.2a.8.8,0,0,0-.47.48v.13s.06,0,.06-.07.05-.09.14-.13Zm-.07-13.36-.07.13a1.06,1.06,0,0,1,.34-.13.28.28,0,0,1-.07-.21c.09,0,.09-.09,0-.13v.13Zm-.07,32.08s.07.07.07.1,0,.05.07.1a.21.21,0,0,0,.06-.27.15.15,0,0,0-.1,0A.15.15,0,0,1,3742.26,6840.61Zm.34.2h.13c0-.05-.06-.08-.06-.1s0-.06-.07-.1Zm.37-19.47a2.91,2.91,0,0,1,.24-.27c.09-.09.11-.15.07-.2l-.17.1a.57.57,0,0,1-.17.1q0,.14-.21.21v.2A.28.28,0,0,0,3743,6821.34Zm.24-11.39-.27-.13a.26.26,0,0,0,.07.2.13.13,0,0,0,.1,0A.13.13,0,0,1,3743.21,6810Zm.13-1.56a.26.26,0,0,1,0-.2s0-.07-.1-.07l-.2.2c0,.05.06.08.06.1s0,.06.07.11.14,0,.14.1,0,.08.06,0Zm0,28.15s-.06,0-.06-.07-.07,0-.07,0,0,0-.07,0a.24.24,0,0,1-.07.2.4.4,0,0,1,.27.07Zm-.06-26.05.06-.06q0-.21-.06-.21l-.14.14Zm0,8.82c.09,0,.13,0,.13-.14Zm.34,1.29c-.14-.14-.23-.11-.28.07a.47.47,0,0,1,.07.2.33.33,0,0,0,.1-.14A.63.63,0,0,1,3743.62,6820.6Zm.06-11.8a.19.19,0,0,0,.21-.21.21.21,0,0,0-.07-.13.13.13,0,0,0-.1,0,.13.13,0,0,1-.1,0Zm0,27.94a.11.11,0,0,1,0-.1.15.15,0,0,0,0-.1.19.19,0,0,0-.13.06A.22.22,0,0,0,3743.68,6836.74Zm.28,3.8a.28.28,0,0,0-.21-.07.21.21,0,0,0-.07.14.27.27,0,0,0,.17,0A.18.18,0,0,1,3744,6840.54Zm-.21-21.09a.22.22,0,0,1,.14.06v-.2Zm.14-9.36c.09,0,.13-.05.13-.14s0,.07-.13.07Zm.07,26.72a.36.36,0,0,1,.13-.21c-.09-.09-.16,0-.2.14A.06.06,0,0,0,3744,6836.81Zm.06-27.88c.05,0,.07,0,.07,0s0-.06-.13-.06Zm0,11.26c.09,0,.09,0,0-.13Zm.55-11.8a.13.13,0,0,1-.14.14.23.23,0,0,1-.14-.07.22.22,0,0,1-.1.07s-.05,0-.1.06l.07.14a.22.22,0,0,1,.1-.07.16.16,0,0,0,.1-.07c0,.1,0,.14.07.14a.49.49,0,0,0,.2,0l.21-.11A.94.94,0,0,1,3744.57,6808.39Zm-.41,28.49v.06l.13-.13A.17.17,0,0,0,3744.16,6836.88Zm.13-16.76.14-.13C3744.25,6819.9,3744.2,6819.94,3744.29,6820.12Zm.07,14.38c.14.09.23.11.27.07S3744.54,6834.5,3744.36,6834.5Zm.07-15.6c.09,0,.16-.06.2-.2Zm.2-.74V6818Q3744.71,6818,3744.63,6818.16Zm.07,18.38s-.07,0-.07.13l.14-.13Zm0,4.13c.05,0,.08-.06.1-.06s.06,0,.1-.07h-.27S3744.7,6840.58,3744.7,6840.67Zm0-21.22.07.06s0-.06.13-.06v-.21Zm4.68-5c-.09,0-.15,0-.17.06a.31.31,0,0,1-.17.14.17.17,0,0,0-.13.07c0-.09,0-.15.06-.17s0-.06-.06-.1-.22.19-.22.3a.41.41,0,0,1-.16.31.21.21,0,0,0-.15-.07.21.21,0,0,1-.15-.07l.07.34a.33.33,0,0,0-.21-.07l-.13.14v.13c-.05,0-.07,0-.07-.1s0-.05-.07,0a.24.24,0,0,1,.07.2h-.07a.49.49,0,0,0-.34,0v.2c-.09-.09-.16-.07-.2,0s-.09.14-.14.1a.69.69,0,0,1-.13.2l-.21.21a.18.18,0,0,1-.2.2c0,.05-.07.08-.07.1a.16.16,0,0,1-.07.1.05.05,0,0,1-.06-.06.68.68,0,0,1-.07.27c0-.09,0-.14,0-.14s0,0,0-.07a.24.24,0,0,1-.2.07.94.94,0,0,1-.27.2.16.16,0,0,0,0,.17c0,.07,0,.11-.1.11l-.07-.07-.06.07c-.05,0-.07,0-.07.06v.07a2.91,2.91,0,0,1-.27.24,2.09,2.09,0,0,0-.28.24l.14.06a1.3,1.3,0,0,0-.27.34h.07a.18.18,0,0,0,.06-.1s0,0,.07-.1h.27V6818h.14v-.13a.21.21,0,0,0,.14.07c.09,0,.13-.05.13-.14a.21.21,0,0,1,.14-.2s0,.06,0,.06,0,0,0,.07l.07-.07-.07-.27c0-.09.05-.09.14,0s.14.05.27,0c0,0-.07-.07-.07-.1s0-.05-.06-.1a.15.15,0,0,0,.1,0,.14.14,0,0,1,.11,0c.1,0,.21-.11.36-.34s.05-.11.14-.06v.13a1,1,0,0,0,.29-.2.21.21,0,0,1-.15-.07c.15-.14.22-.18.22-.14a.42.42,0,0,0,.11-.17c0-.06.06-.14.1-.23h.12a.05.05,0,0,1,.06.06l.24-.13a.15.15,0,0,1-.12-.07l.12-.27h.13a.26.26,0,0,0-.07.2c.15,0,.22-.06.22-.2a.24.24,0,0,1,.07-.2l.15.13a.83.83,0,0,0,.18-.24,1.52,1.52,0,0,1,.11-.23c.05,0,.12,0,.22.13v-.27a.77.77,0,0,1,.24-.17.35.35,0,0,0,.17-.17v.07a.18.18,0,0,0,.06-.1.22.22,0,0,1,.07-.1s.11-.07.2-.21a.19.19,0,0,1-.13-.06S3749.38,6814.29,3749.38,6814.43Zm-4.27,26.18q-.14-.21-.21,0Zm-.14-4s.07,0,.21-.27C3745.08,6836.51,3745,6836.6,3745,6836.6Zm.14-26.58a.15.15,0,0,0,0,.1.15.15,0,0,1,0,.1c.09,0,.13-.07.13-.2Zm.27-1.29c-.05-.09-.11-.09-.2,0Zm.07,10.17-.14-.13a.15.15,0,0,1,0,.1.12.12,0,0,0,0,.1h.07Zm.2-10.24c-.13,0-.16.07-.07.21a.39.39,0,0,0,.07-.28c.09.23.18.37.27.41a.35.35,0,0,0-.13-.41C3745.7,6808.59,3745.65,6808.62,3745.65,6808.66Zm.27,31.88q-.2-.07-.27,0Zm-.2-30.45.07.13.13-.13a.21.21,0,0,1-.13-.07Zm.07,27.4a.21.21,0,0,0,.27.06l-.14-.13-.07.07Zm.34-28.83v.14h.27l.06.07c.09,0,.14,0,.14,0s0,0,.07,0a.28.28,0,0,0,.27-.14Zm.06,9.5s0,.11,0,.2C3746.24,6818.23,3746.24,6818.16,3746.19,6818.16Zm.07-.21a.19.19,0,0,1,.07.14c.13,0,.2-.09.2-.27a.25.25,0,0,0,.14,0,.49.49,0,0,1,.2,0s.05-.11.14-.2c-.09-.09-.16-.14-.21-.14Zm.27-1.56v.07a.21.21,0,0,0,.14-.2Zm.61,20.21a.19.19,0,0,0-.13-.06.06.06,0,0,0-.07-.07v.07c0,.09,0,.13.14.13Zm.27-2c-.09-.14-.18-.16-.27-.07a.13.13,0,0,1,.1,0S3747.32,6834.64,3747.41,6834.64Zm-.13,1.9c-.05,0,0,.11.07.2l.06-.07Zm.07-27.81a.22.22,0,0,1,.06.14h.28l.13-.14Zm.54.14a1.24,1.24,0,0,1,.27,0,.42.42,0,0,0,.27,0Q3748.09,6808.53,3747.89,6808.87Zm.74,6.78c-.09,0-.13,0-.13.13Zm-.13,22.11c.09-.14.09-.25,0-.34Zm.07-27.33c.13.13.25.15.34.06s0-.06,0-.06,0,0,0-.07l-.14-.14a.13.13,0,0,1,0,.1.18.18,0,0,0,0,.11Zm0,5.62c0,.1.11.1.2,0s.11-.06.07-.2A1.17,1.17,0,0,0,3748.57,6816.05Zm.27-7.39a.06.06,0,0,1,.07-.07s.06,0,.06-.13l-.27.13a.19.19,0,0,0,.14.07.28.28,0,0,0-.07.21.6.6,0,0,0,.24.06.69.69,0,0,1,.24.07s0-.11,0-.2H3749C3748.88,6808.8,3748.84,6808.75,3748.84,6808.66Zm-.07,29a.45.45,0,0,0,.34-.13.41.41,0,0,0-.27-.27l-.14.13a.11.11,0,0,0,0,.1A.29.29,0,0,1,3748.77,6837.62Zm.41-27.19-.14-.07-.07.27.21-.14Zm.13,26.51a.32.32,0,0,0-.34.28.55.55,0,0,1,.28-.07.13.13,0,0,1,0-.1A.18.18,0,0,0,3749.31,6836.94Zm-.13-21.5a.21.21,0,0,1-.07.14l.07.07Zm.4,21.91a.67.67,0,0,0-.33.07q-.08.19,0,.24c.07,0,.1.07.1.17a.79.79,0,0,1,.1-.17.93.93,0,0,0,.1-.17h.21c-.05-.05-.08-.07-.1-.07S3749.63,6837.4,3749.58,6837.35Zm-.06-28.15a.13.13,0,0,0,.06.21.13.13,0,0,0,0-.1A.18.18,0,0,1,3749.52,6809.2Zm0,1.36c.13,0,.2,0,.2-.07S3749.56,6810.43,3749.52,6810.56Zm.54,3.53V6814a.83.83,0,0,0,.41-.47v.07l.13-.14h.21a.2.2,0,0,0,.06-.14.21.21,0,0,1,.07-.13.24.24,0,0,0-.2-.07v.14s0,.11-.14.2a.17.17,0,0,1-.13-.07c-.09,0-.14,0-.14.07a.59.59,0,0,1-.2.34.43.43,0,0,0-.34.34h-.07c0,.09,0,.13-.07.13l.07.07a.28.28,0,0,0,.07-.2Zm-.27,1.08V6815h-.07a.24.24,0,0,0,.07.2Zm.13-6.24a.38.38,0,0,0,0,.17.88.88,0,0,1,0,.24h.14a.15.15,0,0,0,.1,0,.11.11,0,0,1,.1,0V6809s.05-.07.14-.07a.23.23,0,0,0-.21-.13.73.73,0,0,1-.17.07Zm.14,5.84a.28.28,0,0,1,.07.2c0-.09,0-.14.06-.14A.19.19,0,0,0,3750.06,6814.77Zm.68-5.84a.18.18,0,0,0-.21-.2.13.13,0,0,1,0,.1.17.17,0,0,0,0,.1Zm0,5.5c-.14-.05-.21,0-.21.13A.36.36,0,0,1,3750.74,6814.43Zm.13-5.43c.09,0,.15-.05.17,0s.06,0,.1-.1h-.27Zm.07,5.22v-.06c0-.05,0-.05-.07,0v.06Zm.95-2s-.08.07-.1.07a.18.18,0,0,0-.1.06h-.14v.21a.6.6,0,0,0-.61.54h.07a.26.26,0,0,1,.27-.2s.07,0,.07,0,0,0,.07,0l.33-.34q.21-.21.21-.27l.07.07a.19.19,0,0,1,.06.13c.09,0,.14-.09.14-.13a.19.19,0,0,1,.07-.14s0-.11.13-.2h.21c0-.23.05-.34.17-.34s.17-.05.17-.14a.21.21,0,0,1,.13.07.24.24,0,0,0,.07-.2h.13c.18-.18.3-.25.34-.21l.07-.13c-.09-.05-.15-.06-.17,0s-.08,0-.17,0a.48.48,0,0,0-.47.34.45.45,0,0,1-.27.27l-.14-.07v.14c-.09.09-.15.13-.17.13a.22.22,0,0,0-.1.07l-.07.14-.27.13Zm-.81,2s.06-.05.06-.14h-.06Zm.4-5.16a2.26,2.26,0,0,1,.61-.07c.14.09.25,0,.34-.13a.86.86,0,0,0-.68,0,.54.54,0,0,1-.27-.07l-.13.14C3751.35,6809,3751.39,6809,3751.48,6809Zm.14,4.55v.13a.17.17,0,0,1,.07-.13Zm1.15-1v.2h.07a.21.21,0,0,0,.14-.07l-.14-.13Zm.27,26.79v.2a.24.24,0,0,0,.07-.2Zm.27-27.13a.3.3,0,0,0,.34-.34.28.28,0,0,1-.17.17A.35.35,0,0,0,3753.31,6812.19Zm.21,27.81a.19.19,0,0,0,.13.06A.19.19,0,0,1,3753.52,6840Zm.27-28.35c0,.13.11.18.2.13a.38.38,0,0,0-.13-.27c0,.05,0,.07,0,.07S3753.79,6811.6,3753.79,6811.65Zm.41-.21.13.14a1.24,1.24,0,0,1,.1-.17.61.61,0,0,0,.11-.17c-.1-.05-.15,0-.17.07A.16.16,0,0,1,3754.2,6811.44Zm.47,31.68c-.09-.23-.2-.34-.34-.34A1.57,1.57,0,0,0,3754.67,6843.12Zm-.13.47a.46.46,0,0,0-.21-.41A.84.84,0,0,0,3754.54,6843.59Zm.13-32.35c0-.09,0-.14-.07-.14A.23.23,0,0,0,3754.67,6811.24Zm.41-.2c0-.05-.07-.08-.07-.11s0-.05-.07-.1h-.07Q3754.95,6811,3755.08,6811Zm.68-2.24a.42.42,0,0,0-.14.3.39.39,0,0,1-.14.31h.28l.1-.14a.38.38,0,0,1,.1-.13h.14a.57.57,0,0,0,.06-.21.68.68,0,0,1,.07-.2s-.16,0-.34.2Zm1,.07c0-.05.05-.12.14-.21a.68.68,0,0,0-.27.07C3756.73,6808.73,3756.77,6808.78,3756.77,6808.87Z" transform="translate(-3581.3 -6134.79)"/><path class="cls-1" d="M3760.64,6830.7a.7.7,0,0,0-.14.31.6.6,0,0,1-.06.24c-.1.22-.17.42-.24.57s-.15.35-.24.58-.28.71-.44,1.05-.31.69-.44,1.05a4.26,4.26,0,0,1-.48.95c-.09.23-.19.46-.3.71s-.22.49-.31.72-.24.54-.34.81a4.25,4.25,0,0,1-.33.75,1.55,1.55,0,0,1-.28.54s0,.07-.06.07a.45.45,0,0,0-.07-.28c-.09.09-.14.16-.14.21v.2a.36.36,0,0,0,.21-.13,1.05,1.05,0,0,0-.14.4l-.13.27c-.05.05-.07.08-.07.11s0,.05-.07.1a1.33,1.33,0,0,0-.47.07s0,0-.14-.07v-.14a1.35,1.35,0,0,0,.2-.44,1.78,1.78,0,0,1,.21-.44.28.28,0,0,1-.21-.07,1.24,1.24,0,0,0,.21-.27,1.36,1.36,0,0,1,.47-.74v-.07l-.07-.14.14-.13c0-.18,0-.3.07-.34s0,.07.06.07.11-.11,0-.17-.06-.13,0-.17v.06a1.29,1.29,0,0,0,.27-.61c.09,0,.14-.06.14-.2l-.14-.14.14-.27c.09-.09.16-.13.2-.13a.23.23,0,0,1,.07-.14.93.93,0,0,1,0-.47l.14-.27a.48.48,0,0,0-.24.33.58.58,0,0,1-.17.34h-.07c-.09.05-.11.09-.07.14s0,.11,0,.2l-.06.14h-.07c-.09.09-.14.14-.14.17s0,.05-.07.1a6.1,6.1,0,0,0-.2.61,4.28,4.28,0,0,1-.2.61,1.12,1.12,0,0,0-.14.61.3.3,0,0,0-.07.2.47.47,0,0,0-.13.34.46.46,0,0,1-.14.34.13.13,0,0,1,0,.1.18.18,0,0,0,0,.11.88.88,0,0,0-.07.3.64.64,0,0,1-.07.24v.2c-.09.05-.15.09-.17.14a.57.57,0,0,1-.1.13c-.05,0-.06.08,0,.11s0,.05,0,.1a.23.23,0,0,1-.14-.07c-.09-.05-.15-.06-.2,0a.49.49,0,0,1-.2,0,.07.07,0,0,1-.07.07,1.92,1.92,0,0,0-.61-.07.37.37,0,0,1-.41-.27,1.3,1.3,0,0,0-.34.27l-.13-.14h-.27c-.09.09-.14.12-.14.07a.61.61,0,0,0-.24,0,.75.75,0,0,1-.23,0h-.14a1.24,1.24,0,0,1-.27,0,.32.32,0,0,0-.27,0,.58.58,0,0,1-.21,0s-.11,0-.2,0h-.81v-.27a.46.46,0,0,0-.21.07,1.67,1.67,0,0,0,.07-.55l.41-2a3.49,3.49,0,0,1,.07-.71c0-.25.09-.49.13-.72l.14-.27a.38.38,0,0,0-.07-.27,2.44,2.44,0,0,0,.17-.64c0-.21.06-.42.1-.65a2.38,2.38,0,0,0,.17-.71,4.55,4.55,0,0,1,.17-.85c.09-.36.18-.74.27-1.15l.27-1.22c.14-.54.26-1.07.38-1.59s.23-1.06.37-1.6c.09-.31.17-.64.24-1a9.37,9.37,0,0,1,.23-1c.09-.41.17-.8.24-1.16s.15-.72.24-1.08a12.66,12.66,0,0,0,.27-1.29,36.75,36.75,0,0,0,.81-4.34q.14-.75.27-1.53c.09-.52.18-1.05.28-1.59a12.6,12.6,0,0,0,.17-1.43,7.79,7.79,0,0,1,.17-1.35,11.48,11.48,0,0,0,.13-1.73c0-.57,0-1.14.07-1.73a3.34,3.34,0,0,1-.07-.82v-.2a3,3,0,0,1,.78,0,1.27,1.27,0,0,1,.71.3.36.36,0,0,1,.34-.07,1.84,1.84,0,0,0,.34.14.32.32,0,0,1,.34-.17,1.25,1.25,0,0,1,.34.1.66.66,0,0,0,.1.17.93.93,0,0,1,.1.17.23.23,0,0,1,.14-.07,1.82,1.82,0,0,0,.34.48.31.31,0,0,0,0,.13.56.56,0,0,1,0,.21,9.34,9.34,0,0,1,.27,1.08c.09.46.15.91.2,1.36s.09.93.14,1.42a3.31,3.31,0,0,1,0,.89,2.6,2.6,0,0,0,0,.88v.88a.31.31,0,0,0,0,.24.33.33,0,0,1,0,.23v.27a1.28,1.28,0,0,1,0,.55,2.91,2.91,0,0,0-.07.64v.65a1.05,1.05,0,0,0-.14.4v.21a8.06,8.06,0,0,0-.13,1.45,7,7,0,0,1-.14,1.39c-.09.5-.17,1-.23,1.53s-.15,1.05-.24,1.59a1.81,1.81,0,0,0-.14.65,1.7,1.7,0,0,1-.13.64,15,15,0,0,1-.27,1.49.2.2,0,0,0,.06.14.26.26,0,0,1,.07-.14,5.59,5.59,0,0,1,.34-.81c.14-.27.27-.56.41-.88l1.22-2.65a2.21,2.21,0,0,1,.34-.67,1.13,1.13,0,0,1,.2-.28,1.11,1.11,0,0,1,.14-.47l1-2.24c.09-.09.14-.16.14-.2a.06.06,0,0,0,.07-.07,8.36,8.36,0,0,1,.47-.95,14.8,14.8,0,0,1,1-1.9l.88-1.76c.14-.23.26-.44.37-.65l.38-.64c.22-.36.44-.73.64-1.12s.42-.78.65-1.19c.13-.22.27-.44.4-.64a2.7,2.7,0,0,1,.55-.58l.13-.06.07-.14c.13,0,.2,0,.2-.14a1.56,1.56,0,0,1,.61,0,4.68,4.68,0,0,1,1.29.48.44.44,0,0,0,.27.07v.13h.07a1.47,1.47,0,0,1,.41-.07,1.41,1.41,0,0,1,.74.14,1.12,1.12,0,0,0,.24.1l.24.1a.92.92,0,0,0-.07.41.19.19,0,0,0-.14.07.3.3,0,0,0-.33.2v.21c0,.41-.1.8-.16,1.17s-.11.73-.15,1.1-.07.55-.09.82a4,4,0,0,1-.15.83,4.12,4.12,0,0,1,0,.51,4.66,4.66,0,0,0,0,.58.53.53,0,0,0-.06.24.55.55,0,0,1-.07.24v.2l-.07.27c0,.37-.08.71-.1,1a5.71,5.71,0,0,1-.17,1c0,.41,0,.82,0,1.25s-.06.87-.11,1.33-.08.81-.1,1.22,0,.81,0,1.22a9.57,9.57,0,0,0-.07,1.18v1.19a.13.13,0,0,1,0,.1.13.13,0,0,0,0,.1v2.92a.61.61,0,0,0,0,.24.88.88,0,0,1,0,.24.58.58,0,0,0,.18-.28,1.48,1.48,0,0,1,.1-.27,1.53,1.53,0,0,0,.11-.27,1.18,1.18,0,0,1,.17-.34,1.17,1.17,0,0,1,.21-.54,3.79,3.79,0,0,0,.21-.54l.14-.24a1.38,1.38,0,0,0,.14-.24.86.86,0,0,1,.07-.34c.05-.09.1-.18.14-.27s.1-.18.14-.27a.54.54,0,0,0,.07-.27.71.71,0,0,0,.18-.27.58.58,0,0,1,.17-.27s0,0,.07,0a.06.06,0,0,0,.07-.07.23.23,0,0,1-.07-.27,4.36,4.36,0,0,0,.24-.41,2.32,2.32,0,0,0,.17-.47c.09-.18.18-.38.27-.58a2.84,2.84,0,0,1,.34-.58c.27-.67.58-1.38.94-2.1a3.38,3.38,0,0,0,.24-.41,3.42,3.42,0,0,0,.17-.4,4.29,4.29,0,0,0,.23-.38,1.4,1.4,0,0,0,.17-.37,12.63,12.63,0,0,0,.88-1.83c.23-.36.44-.73.64-1.12s.42-.76.65-1.12.33-.6.47-.85a5.13,5.13,0,0,1,.47-.71c.18-.31.36-.62.54-.91s.36-.62.54-1a5.65,5.65,0,0,0,.38-.57,3.82,3.82,0,0,1,.37-.58l1.08-1.63c.36-.54.74-1.06,1.15-1.56a5.13,5.13,0,0,0,.64-.78c.2-.29.42-.57.64-.85s.34-.35.47-.5.3-.33.48-.51a4.93,4.93,0,0,0,.33-.38c.09-.11.21-.23.34-.37s.36-.35.54-.51.36-.32.54-.51a2.75,2.75,0,0,1,.65-.57,4.64,4.64,0,0,0,.71-.58l.3-.17.3-.17a1,1,0,0,1,.61-.34.66.66,0,0,1,.41-.34,3.93,3.93,0,0,1,.88-.34h.06a.33.33,0,0,1,.31-.1.44.44,0,0,0,.3,0c0-.05,0-.07,0-.07s0,0,0-.07l.13.14.25-.14.12.14a.53.53,0,0,1,.06-.2.24.24,0,0,1,.18.06l-.06.14c.09-.09.17-.11.23-.07s.13,0,.17-.07a1.67,1.67,0,0,0,.55.07.23.23,0,0,0,.2,0s.11,0,.2.1a.25.25,0,0,0,.17.06.24.24,0,0,1,.17.07,3.76,3.76,0,0,1,.85.51,7.3,7.3,0,0,1,.71.65l.21.2a1,1,0,0,0,.67.54,1.68,1.68,0,0,1,.28.34.59.59,0,0,0,.4.34,1.82,1.82,0,0,1,.48.34,5.11,5.11,0,0,0,.47.41.8.8,0,0,1,.17.2.35.35,0,0,0,.17.13,1.8,1.8,0,0,1,.41.75,1.47,1.47,0,0,1-.21,1.15c-.09.09-.15.14-.2.14a.38.38,0,0,1-.13.27v-.47a.25.25,0,0,0-.07-.28l-.41.41s0-.11-.14-.2a1.3,1.3,0,0,0,.07-.54.16.16,0,0,0-.1-.07.16.16,0,0,1-.1-.07c0,.09-.06.15,0,.17s0,.06,0,.1h-.13c-.1-.09-.12-.16-.07-.2a.31.31,0,0,0,.07-.21,1,1,0,0,1,.13-.4l-.2-.14a.6.6,0,0,0-.06.24q0,.1-.18.24a1.64,1.64,0,0,0-.24-.41v.14a.16.16,0,0,0-.1-.07.16.16,0,0,1-.1-.07H3796a.62.62,0,0,0-.44-.1,3,3,0,0,0-.45.1.2.2,0,0,1-.06-.14s-.05-.06-.14-.06v.27a1.73,1.73,0,0,0-.75.4l-.41.17a4.36,4.36,0,0,0-.41.24,1.62,1.62,0,0,1-.75.48,2,2,0,0,1-.34.27.35.35,0,0,0-.17.13.8.8,0,0,1-.17.21l-.27.13a.53.53,0,0,1-.14.1.42.42,0,0,0-.14.17,3.78,3.78,0,0,1-.54.48l-.38.27-.3.27a3.37,3.37,0,0,0-.52.48c-.16.18-.3.36-.44.54a.44.44,0,0,1-.27.07v.06a1.07,1.07,0,0,1-.38.51,3.25,3.25,0,0,0-.44.38l-.07.06a2,2,0,0,1-.17.27,2.09,2.09,0,0,1-.24.28,2.41,2.41,0,0,1-.34.4,1.82,1.82,0,0,0-.34.48l-.41.4-.51.65a5.58,5.58,0,0,0-.44.64,4.32,4.32,0,0,0-.55.65c-.14.2-.3.42-.48.64,0,.05,0,.07-.07.07a1,1,0,0,0-.23.37,1.24,1.24,0,0,1-.24.38c0,.09-.09.14-.14.16a1.64,1.64,0,0,0-.2.17c.14.14.07.21-.2.21,0,.13,0,.2-.07.2a.75.75,0,0,1-.27.48,1,1,0,0,0-.34.4v.07a6.48,6.48,0,0,1-.34.61.41.41,0,0,0-.1.14,1.13,1.13,0,0,1-.1.13l-.14.14-.27.54-.14.14a1.12,1.12,0,0,1-.09.17.53.53,0,0,0-.08.17l-.12.06v.07a3.63,3.63,0,0,1-.38.54l-.07-.13a1,1,0,0,0,.07-.17.67.67,0,0,1,.06-.17h.14a.49.49,0,0,0,0-.34.24.24,0,0,0,.2.07l-.13-.27h.27a1.21,1.21,0,0,1,.39-.82v-.13a1.27,1.27,0,0,1,.26-.34c.05,0,.07,0,.07-.07V6817a2.76,2.76,0,0,0,.23-.27,1.1,1.1,0,0,1,.29-.27s0-.07-.06-.07a1.27,1.27,0,0,1,.13-.34.24.24,0,0,0,.2.07c-.05-.22.06-.4.32-.54a.28.28,0,0,1-.06-.2h.19a.27.27,0,0,1,0-.17.32.32,0,0,0,0-.17.11.11,0,0,0,.1,0,.18.18,0,0,1,.11,0,1,1,0,0,1,.54-.88V6814l.13-.07a1.15,1.15,0,0,1-.13-.33.22.22,0,0,1-.14.06.36.36,0,0,0-.13.24.64.64,0,0,1-.07.24l-.14.13v.21a.16.16,0,0,0-.1-.07.16.16,0,0,1-.1-.07.43.43,0,0,0-.14.31.69.69,0,0,1-.13.37,1.07,1.07,0,0,0-.54.95h-.2l-.07.13h-.13a.74.74,0,0,1,.06.28,1.28,1.28,0,0,1-.16.27.62.62,0,0,1-.23.2c-.09.05-.13.09-.1.14a.1.1,0,0,1,0,.13.13.13,0,0,0,0,.14s0,.11-.1.2l-.13-.07c-.05.05-.07.08-.07.11s0,.05-.06.1l-.14.13a.43.43,0,0,0-.13.27.58.58,0,0,1-.07.28.05.05,0,0,0-.06.06c0,.05,0,.07-.07.07l-.2.38a.52.52,0,0,1-.13.18l-.2.19a.22.22,0,0,0-.2.1v.1a.19.19,0,0,0,.07.14l-.2.2c.09.05.11.07.07.07a.06.06,0,0,0-.07.07,1.17,1.17,0,0,0-.2.27l-.13-.06a2,2,0,0,1-.27.34h.2q.08.14,0,.21a.69.69,0,0,0-.13.2,1.62,1.62,0,0,1-.48.21l.21.2a.89.89,0,0,0-.07.41h-.14a1.13,1.13,0,0,0-.2.28.69.69,0,0,0-.07.34,1.22,1.22,0,0,1-.47.41v.42l-.34.34.13.14a.94.94,0,0,0-.27.2.28.28,0,0,0,.07.21,1.08,1.08,0,0,0-.54.75h-.14a.19.19,0,0,1,.07.14,2.55,2.55,0,0,1-.14.24,2.6,2.6,0,0,0-.13.24.4.4,0,0,0-.14.27.32.32,0,0,1-.27.34.22.22,0,0,1,.07.1.16.16,0,0,0,.07.1c.09,0,.13,0,.13-.13a.63.63,0,0,0,.17-.24,2.08,2.08,0,0,1,.1-.24.48.48,0,0,1,.14-.34l.13.14c0-.05.07-.08.07-.1a.44.44,0,0,1,.07-.17l-.14-.12.14-.12h.2l-.13-.24h.2v-.27l.34-.44a2.42,2.42,0,0,0,.27-.44,1.4,1.4,0,0,1,.21-.41l.06-.07a.84.84,0,0,0,.07-.4c.05-.05.08-.07.1-.07a.16.16,0,0,0,.1-.07s.06,0,0-.1,0-.1.1-.1a.61.61,0,0,1,.2-.41.19.19,0,0,0,.14-.07s0-.06,0-.06,0,0,0-.07v-.07a.69.69,0,0,0,.2.14,4.23,4.23,0,0,0-.24.4,1.07,1.07,0,0,1-.23.34.23.23,0,0,1-.07.14.5.5,0,0,1-.21.27l-.2.41s0,.06,0,.06,0,0,0,.07v.07a.77.77,0,0,1-.27.34.64.64,0,0,0-.07.24.36.36,0,0,1-.13.23h-.07a1.47,1.47,0,0,1-.27.54.24.24,0,0,1-.07.19,2.14,2.14,0,0,1-.13.22,1.28,1.28,0,0,0-.14.23.56.56,0,0,1-.2.32l-.07.06a1.68,1.68,0,0,1-.17.44,1.63,1.63,0,0,0-.17.38c-.09.13-.18.28-.27.44a5.15,5.15,0,0,0-.27.57c0,.1-.07.16-.21.21a.89.89,0,0,1-.06.3l-.14.31a.78.78,0,0,0-.27.54,3.13,3.13,0,0,1-.34.61,4.36,4.36,0,0,0-.24.41l-.24.47c0,.09-.09.2-.13.31s-.09.24-.14.37l-.4.81a2.35,2.35,0,0,1-.14.34.86.86,0,0,1-.2.28.22.22,0,0,1,0,.13.35.35,0,0,0,0,.14c-.09.22-.18.44-.27.64s-.18.4-.27.58-.05.11-.14.2a.24.24,0,0,1-.27.27.46.46,0,0,1,0,.48,2.55,2.55,0,0,0-.2.51,2,2,0,0,1-.21.44,1.87,1.87,0,0,1-.2.51,3.85,3.85,0,0,0-.27.57.89.89,0,0,1-.07.41,7.91,7.91,0,0,1-.34.85,6.57,6.57,0,0,0-.34.91.32.32,0,0,1-.2.34.09.09,0,0,1,0-.13c.05-.05,0-.07-.07-.07s-.06,0-.06,0,0,0-.07,0v.13a.21.21,0,0,1-.07-.13c0-.05-.13-.07-.26-.07s-.08.13-.1.13,0,.05,0,.14a.68.68,0,0,1-.07-.2.24.24,0,0,0-.2-.07.81.81,0,0,1-.33.07.18.18,0,0,0-.13.06,1.18,1.18,0,0,1-.41.07,1.16,1.16,0,0,0-.4.07h-1.34a.24.24,0,0,0-.2-.07c0,.14,0,.23-.07.27a1.07,1.07,0,0,1-.4-.61,5.41,5.41,0,0,1-.27-1.05,6.07,6.07,0,0,0-.2-1l-.13-1.22a10,10,0,0,0-.2-1.22c0-.5-.08-1-.1-1.39s0-.87,0-1.33a2.1,2.1,0,0,0-.06-.51,1.59,1.59,0,0,1-.07-.5,10.14,10.14,0,0,1,.07-1.23c0-.4.06-.81.06-1.22s0-.73,0-1.12,0-.75,0-1.11.09-1,.14-1.46.07-1,.07-1.46.14-1.19.2-1.8.12-1.23.2-1.86a3.41,3.41,0,0,1,.07-.65c.05-.2.09-.41.14-.64v-.27a.28.28,0,0,0-.21.07.66.66,0,0,1-.06.27c0,.09-.1.18-.14.27l-.27.54a4,4,0,0,1-.34.54,3.43,3.43,0,0,1-.27.41c-.09.18-.16.34-.21.47a2.92,2.92,0,0,1-.2.48l-.24.47a2.38,2.38,0,0,1-.23.41,2.34,2.34,0,0,0-.24.44q-.11.24-.24.51a5.15,5.15,0,0,1-.27.48c-.05.09-.09.19-.14.3a1.71,1.71,0,0,1-.2.37c0,.09-.09.2-.13.31l-.14.3a3.49,3.49,0,0,1-.37.78,3.51,3.51,0,0,0-.38.78,1.61,1.61,0,0,1-.27.41,2.79,2.79,0,0,1-.4.88,1.11,1.11,0,0,1-.14.48l-.27.54c-.09.18-.2.38-.34.61s-.17.44-.24.64-.15.42-.24.65-.13.16-.13.2a.44.44,0,0,1,.13-.54v-.2a.44.44,0,0,1,.14-.28v-.2l-.34.34a1.4,1.4,0,0,0-.07.37,1.36,1.36,0,0,1-.06.38h-.07C3760.46,6830.77,3760.55,6830.8,3760.64,6830.7Zm-6.65,4.48a.23.23,0,0,0,.07-.27A.54.54,0,0,0,3754,6835.18Zm0,4.27c.18,0,.23-.18.14-.4A1.05,1.05,0,0,0,3754,6839.45Zm.21-1.9c.18,0,.27,0,.27.07a1.34,1.34,0,0,1-.14.61,1,1,0,0,0-.07.17.67.67,0,0,1-.06.17h-.07a.23.23,0,0,1,.07.14.58.58,0,0,0,.06.2.61.61,0,0,0,.17-.37,1.34,1.34,0,0,1,.11-.38,1.13,1.13,0,0,0,.13-.5,1.16,1.16,0,0,1,.14-.51,1.32,1.32,0,0,1,.06-.48.68.68,0,0,1,.07-.27.54.54,0,0,0,.07-.27,1.11,1.11,0,0,0,.14-.47,1.42,1.42,0,0,0,.06-.38.73.73,0,0,1,.07-.3,3.52,3.52,0,0,0,.1-.51,1.91,1.91,0,0,1,.17-.51s.07,0,.07-.07a1.33,1.33,0,0,1,.14-.81l-.07-.07a.44.44,0,0,0-.27-.07.13.13,0,0,0,0,.1.18.18,0,0,1,0,.11s0,.06,0,.06,0,0,0,.07v.27a.84.84,0,0,1,0,.27,1.27,1.27,0,0,0,0,.28.17.17,0,0,1,0,.1.11.11,0,0,0,0,.1h-.2a.68.68,0,0,1,.13.54,1.68,1.68,0,0,0-.2.68.47.47,0,0,1-.07.2,1.24,1.24,0,0,0,0-.27.84.84,0,0,1,0-.27l-.06-.14c-.09.09-.12.16-.07.21a.32.32,0,0,1,.1.3.33.33,0,0,0,.1.31.21.21,0,0,0-.07.13.22.22,0,0,1-.06.14.43.43,0,0,1,0,.14.31.31,0,0,0,0,.13c-.09.09-.13.17-.1.24a.83.83,0,0,1,0,.24q.07.27-.27.54a.19.19,0,0,1-.14-.07A.3.3,0,0,0,3754.2,6837.55Zm.34-3.05.06-.13-.13.13Zm.47-.88c.18.05.29,0,.34-.14a.26.26,0,0,1-.1-.27.37.37,0,0,0,0-.27c-.18.32-.22.52-.13.61A.06.06,0,0,1,3755,6833.62Zm.41-1.83c.18.09.24.13.2.13s0-.2-.14-.33A.3.3,0,0,1,3755.42,6831.79Zm.2.27h-.2l.13.14Zm0,.75a.62.62,0,0,0,.2-.82s0,.05-.06.14A4.33,4.33,0,0,1,3755.62,6832.81Zm.14-1.16c0,.09,0,.14,0,.14s.06,0,.1.13a.17.17,0,0,0,.07-.13.68.68,0,0,0,.07-.2.36.36,0,0,1,.13-.21v-.07a1.66,1.66,0,0,1,.07-.47,1.37,1.37,0,0,0,.07-.47.28.28,0,0,0-.07-.21.44.44,0,0,0-.07.27v.07l-.13.27-.14.27c0,.05,0,.07.07.07a.89.89,0,0,1-.07.41Zm.67-2a1.08,1.08,0,0,0,.14-.41.88.88,0,0,1,0-.24.53.53,0,0,0,0-.23l-.07-.14c-.14,0-.16.07-.07.21a4.52,4.52,0,0,0-.07.81.18.18,0,0,0-.06.1.22.22,0,0,1-.07.1.08.08,0,0,0,.13,0Zm.14-5.83c.09-.09.11-.15.07-.17s-.07-.08-.07-.17l-.14.27A.19.19,0,0,1,3756.57,6823.79Zm.07,15.6a.57.57,0,0,0-.21.4Zm1.83-23.27-.14.27a.31.31,0,0,0,.07.21h.2v.27h-.06v-.14h-.14s0,0,0,0,0,0,0,0a.28.28,0,0,0-.06.2c0,.18,0,.27.13.27a1.08,1.08,0,0,0-.13.47c.09.1.15.12.2.07a1,1,0,0,0-.07.34.94.94,0,0,1-.2-.27.76.76,0,0,1-.07.41.82.82,0,0,0,.34.07.93.93,0,0,0-.07.33.38.38,0,0,1-.13.28.31.31,0,0,0,0,.13.35.35,0,0,1,0,.14.93.93,0,0,0-.17.1.66.66,0,0,1-.17.1.19.19,0,0,0,.14.07h.14a.46.46,0,0,0-.07.44.43.43,0,0,1-.14.44.37.37,0,0,1,0,.27.84.84,0,0,0,0,.27.28.28,0,0,1-.1-.27.28.28,0,0,0-.1-.27.19.19,0,0,1-.14.07l.14.13a.25.25,0,0,0,0,.21.22.22,0,0,1,0,.13l.13.27-.13.14a.29.29,0,0,0,0,.17.27.27,0,0,1,0,.17,1.24,1.24,0,0,0-.21.27v.07a.28.28,0,0,1-.2.07v.27a.38.38,0,0,1,.27.13q-.27.14-.27.21a.28.28,0,0,0,.2.06v.07a.24.24,0,0,0-.2.07h-.2c-.1.13-.1.25,0,.34l.13.13a.18.18,0,0,1,0,.11.11.11,0,0,0,0,.1h.14a.38.38,0,0,1-.07.27c-.09,0-.13,0-.13,0s-.05,0-.14,0,0,.11-.14.2h.07c.09,0,.14,0,.14-.13a.41.41,0,0,1,.27.27.3.3,0,0,0-.2-.07,2.35,2.35,0,0,0-.11.24.63.63,0,0,1-.17.24c.09,0,.15-.06.17,0s.08,0,.17,0c-.13.13-.18.2-.13.2a1.21,1.21,0,0,1-.14.34h.21c0,.09,0,.2-.14.34v.27a1,1,0,0,1-.2.17.61.61,0,0,0-.14.1.29.29,0,0,0,0,.17s0,.08,0,.17h-.14v.07h.14c.13.13.18.22.13.27s-.09.26-.13.37a1,1,0,0,0-.07.38v.13a1.48,1.48,0,0,0-.1.27,1.48,1.48,0,0,1-.1.27.17.17,0,0,1,0,.27,1.21,1.21,0,0,1-.14.34q.27-.14.27-.3a.78.78,0,0,1,.07-.31c0-.27.09-.54.14-.81a6.8,6.8,0,0,1,.2-.88h.07V6826a1.09,1.09,0,0,0,.07-.61s.06,0,.06,0,0,0,.07,0,.05.11.14.2v-.2h-.14a.06.06,0,0,1-.07-.07l.07-.07a1.05,1.05,0,0,1,.14-.4.58.58,0,0,1,0-.41.62.62,0,0,1,.1-.31.4.4,0,0,0,0-.37v-.07a.74.74,0,0,0,.07-.54.67.67,0,0,1,0-.17.41.41,0,0,0,0-.17h.2c.09-.09.11-.15.07-.17s-.09-.08-.14-.17a.28.28,0,0,0-.06-.2.38.38,0,0,0,.13-.27.61.61,0,0,1,0-.24.88.88,0,0,0,0-.24.75.75,0,0,1,0-.23.61.61,0,0,0,0-.24,1.24,1.24,0,0,1,0-.27,1.26,1.26,0,0,0,0-.27s.07.06.1.06.05,0,.1.07l.07-.13c-.05,0-.12,0-.21-.14a1.45,1.45,0,0,1,.27-1c-.09-.09-.1-.16,0-.2s.08-.11,0-.2a.49.49,0,0,1,.21-.61,1,1,0,0,1-.14-.55.35.35,0,0,1,0-.2.53.53,0,0,0,0-.2c0-.05,0-.08.1-.11s.08-.07,0-.17c0,.05-.05.07-.14.07a2.56,2.56,0,0,0,.14-.81,4.38,4.38,0,0,1,.06-.75,1.24,1.24,0,0,0,.21-.27c0-.13-.05-.18-.14-.13a.54.54,0,0,1-.07.27.78.78,0,0,0,0-.48.64.64,0,0,1,.07-.47v-.07a.46.46,0,0,0,0-.31,1.13,1.13,0,0,1,0-.3.91.91,0,0,0,0-.41.73.73,0,0,1,0-.4,1.71,1.71,0,0,1,0-.31.47.47,0,0,0,0-.31v-.27a2.16,2.16,0,0,0,0-.67c0-.23,0-.46,0-.68v-.14l.41-.2c-.1-.09-.16-.1-.21,0s-.11.08-.2,0a1.18,1.18,0,0,0-.07-.41.48.48,0,0,1,.07-.41.17.17,0,0,0,0-.1.11.11,0,0,1,0-.1c0-.14-.09-.26-.13-.37a.52.52,0,0,1,.06-.44c0-.09,0-.14-.13-.14a.28.28,0,0,0-.07-.2,1.1,1.1,0,0,0-.14-.61l-.13-.14v.27a.1.1,0,0,0-.07-.1.12.12,0,0,1-.07-.1.21.21,0,0,0,.14.2.64.64,0,0,1,.07.24.6.6,0,0,0,.06.24h-.13c-.09.22-.07.34.07.34a.22.22,0,0,0,.06-.14.19.19,0,0,1,.07.14.23.23,0,0,0-.07.27v.2c0,.09,0,.2.14.34a.25.25,0,0,1,0,.41v-.14a.4.4,0,0,0-.27.14.38.38,0,0,1,.2.3v.38l.14-.28v.14a1.08,1.08,0,0,1-.14.47c0,.23.07.37.21.41v.41c-.1-.05-.14-.09-.14-.14s0,0-.14,0a.33.33,0,0,0,.07.21.66.66,0,0,1,.27.06.15.15,0,0,0-.1,0,.15.15,0,0,1-.1,0,1.57,1.57,0,0,1-.07.54h.21v.21a.17.17,0,0,0-.14.07.68.68,0,0,1,.07.27.54.54,0,0,0,.07.27c-.1-.05-.16-.05-.21,0s.08.07.1.07.06,0,.11.06,0,.28-.07.28a.14.14,0,0,0,0-.11.13.13,0,0,1,0-.1.3.3,0,0,0,.07.34.34.34,0,0,1-.21.41.47.47,0,0,1,.07.2.43.43,0,0,0,.07.2c.09.1.09.23,0,.41a.32.32,0,0,0,0-.17.11.11,0,0,1,0-.1.45.45,0,0,0-.13.34c0,.05.06.08.06.1a.22.22,0,0,0,.07.1.13.13,0,0,1,0,.1.14.14,0,0,0,0,.11.21.21,0,0,1-.13-.07c0-.05-.09,0-.14.07a.22.22,0,0,0,.14.06.14.14,0,0,1,0,.11s0,.08,0,.17q-.21.2,0,.27v-.27h.07s.05,0,0,0,0,0,0,0,.12.15.07.17a.11.11,0,0,0-.07.1v.2Zm-1.76,6.72a2.6,2.6,0,0,1,.13-.24.4.4,0,0,0,.07-.24C3756.73,6822.41,3756.66,6822.57,3756.71,6822.84Zm.06-.75a.28.28,0,0,0,.07.2.17.17,0,0,1,0-.1.11.11,0,0,0,0-.1Zm.27.81a.76.76,0,0,1-.13.21h.2A.31.31,0,0,1,3757,6822.9Zm-.13,15.74a.23.23,0,0,0,.27-.07A.23.23,0,0,0,3756.91,6838.64Zm.13-14a.45.45,0,0,0-.06.27A.21.21,0,0,0,3757,6824.6Zm.34,13.16a1.83,1.83,0,0,0-.2.27C3757.36,6838,3757.43,6837.89,3757.38,6837.76Zm-.13-18.11c.13,0,.16,0,.07-.14h-.07Zm.07,1.76a.43.43,0,0,0,.2.07.69.69,0,0,1-.14-.2c0-.09-.09-.12-.13-.07v.2Zm.06,1.16q.13-.21,0-.21Zm.14-4.41a.44.44,0,0,0,.07-.27C3757.54,6817.93,3757.52,6818,3757.52,6818.16Zm.13-1.29s0,.07,0,.07,0,0,0,.06l.07-.06a.07.07,0,0,1-.07-.07Zm.48,19.19c-.18.09-.27.21-.27.34a.75.75,0,0,1-.14.41h.21A1.76,1.76,0,0,0,3758.13,6836.06Zm-.27-12.61a.54.54,0,0,1-.07.27C3757.88,6823.67,3757.9,6823.58,3757.86,6823.45Zm.95,8.95.07-.07a5.45,5.45,0,0,0,.23-.51l.24-.51a1.35,1.35,0,0,0,.14-.33.69.69,0,0,0,.2.13,2.17,2.17,0,0,0,.14-.61.36.36,0,0,0,.13-.24.39.39,0,0,1,.14-.23,1,1,0,0,0,.13-.41c0-.23,0-.36.07-.41a.06.06,0,0,0,.07-.07,2.28,2.28,0,0,1,.17-.4.78.78,0,0,0,.1-.34h.2c-.09-.09-.16-.14-.2-.14a3.92,3.92,0,0,0,.27-.47h.07a.58.58,0,0,1,0-.21.46.46,0,0,0,0-.2.14.14,0,0,0,.2,0,.61.61,0,0,1,.14-.17.42.42,0,0,0,.13-.31.69.69,0,0,1,.14-.37v-.07l-.07-.13s.07,0,.07,0,0,0,.06,0l.07.07a1.09,1.09,0,0,0,.07-.48h-.07c.32-.09.43-.25.34-.47v-.14a.15.15,0,0,1,0-.1.12.12,0,0,0,0-.1c.09,0,.13-.12.13-.34a.23.23,0,0,0,.14.07.81.81,0,0,0,.2-.38.88.88,0,0,1,.21-.37c-.05-.09-.09-.14-.14-.14a.43.43,0,0,0,.07-.2h.27v-.07a.24.24,0,0,1-.14-.06.9.9,0,0,1,.41-.68v-.34h.21a1,1,0,0,0,.13-.41h-.07a.23.23,0,0,1,.07-.27l.14.14a1.33,1.33,0,0,1,.2-.34c.09-.09.12-.14.1-.14a.16.16,0,0,1-.1-.07c0-.09,0-.13.07-.13a.21.21,0,0,0,.13-.07c0-.09,0-.14,0-.14a.18.18,0,0,1-.1-.06,1,1,0,0,0,.13-.21.06.06,0,0,0,.07.07c.09-.09.14-.16.14-.2h.2a.67.67,0,0,0-.14-.48c.18,0,.28-.06.28-.18s-.05-.32.13-.5a1,1,0,0,1,.07-.34,1.06,1.06,0,0,1,.34-.13.13.13,0,0,1,0-.1.18.18,0,0,0,0-.1.19.19,0,0,1-.07-.14v-.14a.28.28,0,0,1,.2.07,2.12,2.12,0,0,1-.13-.54.18.18,0,0,1-.11,0,.11.11,0,0,0-.1,0,.29.29,0,0,1,0,.17.29.29,0,0,0,0,.17.38.38,0,0,0,.13.27l-.24.24a.81.81,0,0,1-.23.17v.34a.31.31,0,0,0-.21.34c0,.13-.09.2-.27.2v.21a.29.29,0,0,0-.07.18.19.19,0,0,1-.13.17H3764a.4.4,0,0,1-.14.28c.05,0,.07,0,.07,0s0,0,.07,0a.19.19,0,0,1-.14.07v.14h-.13a.2.2,0,0,0-.07.11.16.16,0,0,1-.07.1c0,.1-.09.2-.13.32s-.09.22-.14.32.05.07.14.07v.2a.4.4,0,0,0-.27-.14.25.25,0,0,0,0,.21.46.46,0,0,1,0,.2.13.13,0,0,0-.14.14s0,.06.07.06a.27.27,0,0,1-.21.07l.14.27a.22.22,0,0,0-.1-.07.18.18,0,0,1-.1-.06l-.1.2-.11.2-.06-.06a.46.46,0,0,1,0,.2.53.53,0,0,0,0,.2l.07.07c-.1,0-.13,0-.11,0s0,.08-.1.17a.26.26,0,0,0-.07.14.22.22,0,0,1-.06.14c-.09,0-.14.09-.14.13a.19.19,0,0,1-.07.14.28.28,0,0,1-.06.2s0,.07,0,.07,0,0,0,.07v.06l-.21.61a.36.36,0,0,1-.13.21c-.05,0-.07,0-.07.13a.16.16,0,0,1-.1.07.16.16,0,0,0-.1.07.49.49,0,0,0-.07.24.49.49,0,0,1-.07.23l-.13.27h-.14c0,.19,0,.3-.07.34s0,.07,0,.07,0,0,0,.07,0,.07.07.07a1.3,1.3,0,0,1-.21.4.17.17,0,0,1-.13.07v.07a.17.17,0,0,0,.13.07,5,5,0,0,0-.33.61l-.07-.07h-.14l.14.27a1.21,1.21,0,0,1-.14.34h-.13a.56.56,0,0,1-.14.41v-.27l-.13.27s-.06.08,0,.1,0,.06,0,.1a.49.49,0,0,0-.07.24.38.38,0,0,1-.14.24.44.44,0,0,0,0,.47.74.74,0,0,1-.27.48s-.07,0-.07,0,0,0-.06,0a.31.31,0,0,0,0,.13.35.35,0,0,1,0,.14c.05-.05.06-.08,0-.1s0-.06,0-.1v.06a1.74,1.74,0,0,1-.13.41c0,.05-.05.11-.14.2l-.13.07c0,.23,0,.36,0,.41a.27.27,0,0,1,0,.17.15.15,0,0,0,0,.1h-.14a.3.3,0,0,1-.07.34l-.2.61a.68.68,0,0,0-.07.2.36.36,0,0,1-.13.21l-.14.13a.63.63,0,0,1-.2.61h.34a.4.4,0,0,1,0-.34,5,5,0,0,0,.2-.57,1.6,1.6,0,0,1,.2-.44.4.4,0,0,0,.14-.28.54.54,0,0,1,.07-.27Zm-.88-8.27c.09,0,.13-.07.13-.21A.36.36,0,0,0,3757.93,6824.13Zm.13-15.06c0-.09,0-.14-.07-.14S3758.11,6809,3758.06,6809.07Zm.14,10c-.14-.05-.21,0-.21.13A.36.36,0,0,1,3758.2,6819Zm-.14-.27a.19.19,0,0,0,.14-.07c.09,0,.09,0,0-.14C3758.11,6818.66,3758.06,6818.72,3758.06,6818.77Zm.21,9.29c0-.09-.07-.16-.21-.2a.16.16,0,0,1,.07.1s0,.05.07.1Zm-.14.34v-.21a.18.18,0,0,1,0,.11.11.11,0,0,0,0,.1Zm.2-5.43c-.13,0-.18,0-.13.07S3758.33,6823.11,3758.33,6823Zm0,13a.61.61,0,0,1,0-.24.88.88,0,0,0,0-.24C3758.17,6835.54,3758.15,6835.7,3758.33,6835.93Zm.21-24.22c-.18,0-.27,0-.27.14Zm0,14.79.06-.14c.05,0,0,0-.06-.13h-.14l.07.07a.26.26,0,0,0,.07.2h-.14l-.07.07c.05,0,.07,0,.07,0s0,0,.07,0A.17.17,0,0,1,3758.54,6826.5Zm.06,8.75c0-.05,0-.16.07-.34,0,0-.07,0-.07,0s0,0-.06,0A.3.3,0,0,0,3758.6,6835.25Zm.07-9.84a.79.79,0,0,0,.07-.54.26.26,0,0,0-.1.27,1.24,1.24,0,0,1,0,.27c-.09.1-.11.16-.07.21h.14A.28.28,0,0,0,3758.67,6825.41Zm.41-2.78a.06.06,0,0,0-.07.07v.2a1.09,1.09,0,0,1-.07.48.38.38,0,0,0-.13.27.24.24,0,0,0,.07.2h-.14c0,.14,0,.21,0,.21s.11,0,.11.13.13,0,.13-.13a1.92,1.92,0,0,0,.07-.61,1.27,1.27,0,0,0,.07-.48c-.05,0-.07,0-.07,0s0,0-.07,0,.14-.15.14-.2.12-.09.1-.13a.37.37,0,0,1,0-.14l.14-.27v-.41h-.2v.61A.38.38,0,0,0,3759.08,6822.63Zm-.27,11.94a.82.82,0,0,0,.07-.34A.28.28,0,0,0,3758.81,6834.57Zm.2-26.31c0-.14,0-.23-.07-.28C3758.94,6808.17,3759,6808.26,3759,6808.26Zm.07,25.77a.69.69,0,0,1,.07-.34C3759,6833.82,3759,6833.94,3759.08,6834Zm.13-16.21a.17.17,0,0,0-.1,0s0,.06.1.1Zm0-9.09a.29.29,0,0,0,0-.17.15.15,0,0,1,0-.1C3759.1,6808.59,3759.12,6808.69,3759.21,6808.73Zm.14.47a.26.26,0,0,1-.2.07c.09.23.15.34.2.34Zm-.14,8.35a2.94,2.94,0,0,0,.14-.48s0-.11-.14-.2a.49.49,0,0,1,0,.2.58.58,0,0,0,0,.21A.66.66,0,0,0,3759.21,6817.55Zm.07,15.73c-.09,0-.11.05-.07.14S3759.28,6833.37,3759.28,6833.28Zm.14-12.27c-.18.13-.21.27-.07.4,0,0-.07,0-.07,0s0,0-.07,0c.14.09.21.11.21.07a.42.42,0,0,0,0-.27,1.24,1.24,0,0,1,0-.27.19.19,0,0,1,.07-.14.49.49,0,0,0,0-.34,1,1,0,0,0-.14.34c0,.05,0,.07,0,.07S3759.42,6821,3759.42,6821Zm.2-1.36a.21.21,0,0,1-.13.07,1.26,1.26,0,0,1,0,.27,1.24,1.24,0,0,0,0,.27.38.38,0,0,0,.13.27,1.23,1.23,0,0,0,.07-.44v-.44a.25.25,0,0,1,0-.14.49.49,0,0,0,0-.2v-.14l.07-.13a3.62,3.62,0,0,1,.13-.81.34.34,0,0,1,0-.28.4.4,0,0,0,0-.34.63.63,0,0,0,.1-.47,1.88,1.88,0,0,1,0-.61v-.34a.49.49,0,0,1,0-.2.56.56,0,0,0,0-.21,3.18,3.18,0,0,1,0-.47,3.33,3.33,0,0,0,0-.48,1.81,1.81,0,0,1,0-.4.82.82,0,0,0-.1-.48v-.07a2,2,0,0,0,.06-.88v-.4a2.17,2.17,0,0,1,0-.61,2.15,2.15,0,0,0,0-.61v-.55a.54.54,0,0,1-.07-.27,1.1,1.1,0,0,0,0-.51,1.66,1.66,0,0,1-.07-.51.74.74,0,0,0-.07-.34c-.09-.09-.12-.14-.1-.16a.3.3,0,0,0,0-.17,1.36,1.36,0,0,1-.11-.28.58.58,0,0,0-.17-.27.54.54,0,0,1,.07.27,1.67,1.67,0,0,0,.07.55c0,.13.09.31.14.54a.37.37,0,0,1,0,.14.24.24,0,0,0,0,.2.59.59,0,0,1,.06.34,3.27,3.27,0,0,0,0,.54,4.89,4.89,0,0,1,0,.54.58.58,0,0,0,0,.21s0,.11-.1.2l.14.14v.4a.89.89,0,0,0,0,.51,1.1,1.1,0,0,1,0,.51c-.05,0-.05,0,0,.07a1.07,1.07,0,0,0-.07.47l.07.14a1.81,1.81,0,0,1,0,.4,2.93,2.93,0,0,0,0,.41l-.13.14c.09,0,.13,0,.13.07s-.08.13-.1.13a.16.16,0,0,0-.1.07,1,1,0,0,1,.13.54.89.89,0,0,0,0,.68.45.45,0,0,1-.13.34v.34a.68.68,0,0,1,0,.4.54.54,0,0,0-.1.41,2.83,2.83,0,0,1,0,.41l-.07.13a1.09,1.09,0,0,0,.07.61.06.06,0,0,0-.07.07.59.59,0,0,0-.07.34A.06.06,0,0,0,3759.62,6819.65Zm-.07-7a.14.14,0,0,1,0-.11.13.13,0,0,0,0-.1.17.17,0,0,1-.13-.07c0,.1.05.15,0,.17a.18.18,0,0,0,0,.11Zm.55,19-.07-.07c-.05,0-.08.07-.1.07s-.06,0-.1.13l.13.14A.4.4,0,0,1,3760.1,6831.59Zm.13-.28a.43.43,0,0,0,.07-.2.47.47,0,0,1,.07-.2q-.27.06-.27.27Zm.75-2,.13-.27C3761,6829.12,3761,6829.21,3761,6829.35Zm.13-.41a.28.28,0,0,0,.21-.07h-.21Zm.28-.41a.17.17,0,0,1,0-.1.13.13,0,0,0,0-.1c.09-.09.14-.16.14-.2V6828A.55.55,0,0,0,3761.39,6828.53Zm1.08-2.44s-.07,0-.07,0,0,0-.07,0a.41.41,0,0,1-.06.27h-.07a3.56,3.56,0,0,1-.17.41,1,1,0,0,0-.1.47.18.18,0,0,1,.1-.06.22.22,0,0,0,.1-.07,1,1,0,0,0,.17-.41,1,1,0,0,1,.17-.41c0,.05.07,0,.2-.13-.09-.09-.16-.14-.2-.14a.28.28,0,0,0,.14-.34.19.19,0,0,0-.07.14l-.14.13A.06.06,0,0,1,3762.47,6826.09Zm.34-.68c-.09.05-.13.1-.1.14a.12.12,0,0,1,0,.14A.2.2,0,0,0,3762.81,6825.41Zm.27-.4a.54.54,0,0,0-.07-.27l-.13.27s0,.07,0,.07,0,0,0,.06ZM3763,6824a.51.51,0,0,1-.07.17h.07l.21-.21-.14-.13A.73.73,0,0,0,3763,6824Zm.34.44c-.09-.18-.13-.16-.13.06,0,0-.07.05-.07.14s0,.18.07.27A2.68,2.68,0,0,0,3763.35,6824.4Zm.48-.68-.27-.14a1.25,1.25,0,0,1-.14.55l.27-.14A.4.4,0,0,1,3763.83,6823.72Zm.06-.34a.68.68,0,0,1,.07-.27.17.17,0,0,1-.13-.07.47.47,0,0,0-.07.2.17.17,0,0,1-.07.14Zm.41-1.22a.24.24,0,0,1-.07.2c0,.05,0,.07.07.07a.94.94,0,0,0,.2-.27Zm.2-.41a.33.33,0,0,0-.06.21c0-.05.06-.07.2-.07Zm.41-.54-.2.2a.12.12,0,0,1,.1,0,.15.15,0,0,0,.1,0Zm.34-.75-.2.27.13.14a.35.35,0,0,1,0-.2.58.58,0,0,0,0-.21.13.13,0,0,0,.1,0,.15.15,0,0,1,.1,0,.18.18,0,0,0,0-.11.13.13,0,0,1,0-.1A.28.28,0,0,0,3765.25,6820.46Zm.35-2.66q-.15,0-.15.06a.45.45,0,0,1-.06.19.51.51,0,0,1,.06.31.28.28,0,0,1,.22.07c0-.05,0-.07.08-.07l-.15-.12.11-.19a2,2,0,0,0,.11-.19.26.26,0,0,1,.08.19c.09-.08.07-.14-.08-.19l.44-.18a.34.34,0,0,0-.22-.07.36.36,0,0,0,.3-.4c-.1.09-.15.16-.15.2h-.07a.82.82,0,0,0,.07-.34.63.63,0,0,0,.42-.2c-.05,0-.07,0-.07-.07a.27.27,0,0,1,.27-.2.28.28,0,0,1,.07-.21c-.09.1-.17.13-.24.11a.61.61,0,0,0-.24,0c-.09.09-.14.16-.14.21s0,.06,0,.06,0,0,0,.07-.1.14-.15.14-.05,0,0,.13a.06.06,0,0,1-.07.07s-.08-.08-.08-.1a.16.16,0,0,0-.07-.1v.2h-.22v.14a.24.24,0,0,1-.15.06h-.07c.09.18.17.27.22.27s-.08.09-.08.13S3765.65,6817.8,3765.6,6817.8Zm.24,1.51-.09.2a3.38,3.38,0,0,0-.36.61l.27-.13v-.27a.57.57,0,0,0,.27-.14.24.24,0,0,0,0-.13.25.25,0,0,1,0-.14c.1,0,.13-.07.09-.2,0,.09,0,.13,0,.13S3765.84,6819.27,3765.84,6819.31Zm1.24-3.39.14-.27q-.34-.13-.48,0v.27c-.18.09-.22.2-.13.34a.28.28,0,0,0,.13-.34Zm-.4,1.83a.42.42,0,0,0,0,.48Zm1.56,9.22a1.17,1.17,0,0,0,.2-.27,1.08,1.08,0,0,0-.41.14A1,1,0,0,1,3768.24,6827Zm-.21,2a.17.17,0,0,0,.07.13h.07l-.07-.13Zm.14-3.19c.09-.09.09-.16,0-.2S3768.08,6825.78,3768.17,6825.82Zm.61.75a.17.17,0,0,0,0,.27v.27a.59.59,0,0,0-.07.47.06.06,0,0,0-.07.07.61.61,0,0,0,0,.24.31.31,0,0,1,0,.24.29.29,0,0,1,0,.23.61.61,0,0,0,0,.24.23.23,0,0,1,.27-.07l.07.41a.28.28,0,0,1-.15,0,.19.19,0,0,0-.12,0v.14s0,0-.07.13l.24.21a1.25,1.25,0,0,1,.1.74.22.22,0,0,0-.1-.2.21.21,0,0,1-.1-.2c0-.18-.05-.3-.14-.34a.54.54,0,0,1-.07.27v.2c0,.09.08.14.11.14s.05,0,.1.07l-.14.13a.19.19,0,0,1,.14.07,1.11,1.11,0,0,0-.14.47.25.25,0,0,1,.34,0h-.13a.52.52,0,0,1,0,.21.31.31,0,0,0,0,.13.38.38,0,0,0,.13.27v.21l-.13-.14a.54.54,0,0,0,.07.27.18.18,0,0,1,.1,0,.13.13,0,0,0,.1,0l.07.54a1,1,0,0,0-.14.21.38.38,0,0,1,.1.13l.1.14a.21.21,0,0,1-.13.07.24.24,0,0,0-.14-.21c-.09.09-.11.15-.06.17a.19.19,0,0,1,.06.17l.14-.13a.47.47,0,0,0,.13.34.19.19,0,0,1-.13.06l.13.27a.94.94,0,0,0,.14-.54,1.24,1.24,0,0,0,0-.27.32.32,0,0,1,0-.27,1.55,1.55,0,0,1-.1-.95v-.07a4.16,4.16,0,0,1-.1-.91v-.85a.28.28,0,0,1,.06-.2.61.61,0,0,1-.06-.34,1.73,1.73,0,0,0-.07-.48l.07-.13a.41.41,0,0,0,0-.21.24.24,0,0,1,0-.2c0-.14,0-.23.13-.27a.56.56,0,0,0-.13-.41l.06-.27a3.23,3.23,0,0,0-.06-.68,2.48,2.48,0,0,0,.06-.54,2.5,2.5,0,0,1,.07-.54l-.07-.55a1.16,1.16,0,0,1,.11-.67c0-.05,0-.07-.05-.07s0-.05.05-.14.05-.11.17-.2a1.11,1.11,0,0,1-.22-.34c0-.09,0-.2.15-.34l-.07-.41a1,1,0,0,0,.14-.67v-.07l-.07-.48a1.54,1.54,0,0,0,.09-.47,1.54,1.54,0,0,1,.09-.48.48.48,0,0,0-.09-.27q-.09-.13.09-.27s0-.07.09-.07l-.07-.88a.59.59,0,0,0,.09-.34.62.62,0,0,1,.09-.34.52.52,0,0,1,.05-.23.61.61,0,0,0,0-.24,2.56,2.56,0,0,1,0-.61v-.07a1.11,1.11,0,0,0,0-.81c0-.05,0-.07,0-.07s0,0,0-.07,0-.07,0-.07,0,0,0-.07a.44.44,0,0,1,0-.47.72.72,0,0,0,0-.41.73.73,0,0,0,.06-.3.44.44,0,0,1,.14-.31c-.14-.18-.09-.31.14-.4a1.45,1.45,0,0,1,0-.85c.07-.3.13-.56.17-.78l.14-.14s0-.11-.14-.2l-.13.27a1.14,1.14,0,0,0-.21.48.4.4,0,0,0,.14.27.29.29,0,0,0-.17,0,.17.17,0,0,1-.1,0c0,.1,0,.14.06.14a.61.61,0,0,0-.2.41,4.38,4.38,0,0,1,0,.47h.23l-.2.14a.22.22,0,0,0,.14.06c-.05.1-.06.16,0,.21s0,.11-.1.2v-.27l-.18.41a.41.41,0,0,0,.06.23.48.48,0,0,1,.06.24l-.12.14a1.2,1.2,0,0,0-.06.61,2.35,2.35,0,0,0-.06.51,2.35,2.35,0,0,1-.06.51l-.11.06a.5.5,0,0,1,.08.14.51.51,0,0,0,.09.13v.21h-.11a.42.42,0,0,0-.06.2.23.23,0,0,1-.07.14.36.36,0,0,1,.13.34.11.11,0,0,1-.1,0,.15.15,0,0,0-.1,0,.3.3,0,0,1,0,.24.29.29,0,0,0,0,.23.59.59,0,0,1,.07.34c-.1,0-.14,0-.14.07l.2.2a2.34,2.34,0,0,0-.06.61.32.32,0,0,1-.28.34c.05.05.08.07.11.07s.05,0,.1.07l-.07.54-.17.1a.46.46,0,0,1-.17.1c.09.1.14.16.14.21a.17.17,0,0,0-.07.13v.07l.13.27c-.09,0-.13,0-.13-.06l.07.33a.14.14,0,0,1,0,.11.13.13,0,0,0,0,.1.53.53,0,0,0,.15.17c.05,0,.07.08.07.17H3769a1,1,0,0,1,.12.23q0,.11-.12.24s0,.07.09.07l.13.07a1,1,0,0,0-.13.4,2.3,2.3,0,0,1-.41.28l.19.33q0,.07-.12.21a.9.9,0,0,1,.17.41.35.35,0,0,0-.24.06v.21c.1.09.15.16.15.2h-.15q0,.07.24.27a1.08,1.08,0,0,1-.17.34.21.21,0,0,1,.08.14l-.15.27Zm.07,7.12a.18.18,0,0,1,.06.1.22.22,0,0,0,.07.1C3769,6833.76,3769,6833.69,3768.85,6833.69Zm.33-13.57c.05,0,0,0-.06-.13v.13Zm.07,6.58c.05,0,.07-.07.07-.2h-.07C3769.16,6826.59,3769.16,6826.66,3769.25,6826.7Zm0-11.73a.69.69,0,0,0,.07-.34A.32.32,0,0,1,3769.25,6815Zm.34,10.78.07-.13a.13.13,0,0,0-.14-.14Zm.14-1.35a.4.4,0,0,0-.07-.27s-.06,0,0,0,0,0,0,0a.28.28,0,0,1,.07.21Zm.34.61v.34H3770a1.05,1.05,0,0,0-.14.4.53.53,0,0,1,.21.48c-.09,0-.09,0,0,.13a1.24,1.24,0,0,0,0,.27.29.29,0,0,1-.1.28l.13.13-.13.14a.24.24,0,0,0,.07.2.3.3,0,0,1,.06.2c0,.14-.08.27-.1.38a.7.7,0,0,0,0,.37.26.26,0,0,0-.07.2.39.39,0,0,1,.1.34,2.47,2.47,0,0,0,0,.34v.14a4.7,4.7,0,0,0,.06.81l-.06.07c0,.05,0,.11.13.2a.12.12,0,0,1,0-.1.13.13,0,0,0,0-.1.89.89,0,0,0-.07-.41,1.13,1.13,0,0,1,0-.3,1.89,1.89,0,0,0,0-.31s0-.11-.07-.2v-.88a2.07,2.07,0,0,0,0-.65,1.75,1.75,0,0,1,0-.64,2.6,2.6,0,0,1,0-.88v-1.83c0-.05,0-.07,0-.07s0,0,0-.07a.06.06,0,0,0-.07.07v.68a.05.05,0,0,0-.06.06Zm.13-1.29c-.09.09-.09.16,0,.2Zm-.07-.48c.09,0,.14,0,.14-.13a1.73,1.73,0,0,0,.07-.48c0-.22,0-.44,0-.64a6.48,6.48,0,0,0,0-.65c0-.09,0-.14,0-.16s0-.08,0-.17l-.14.27v.34a1.24,1.24,0,0,1,0,.27.84.84,0,0,0,0,.27v.2a1.89,1.89,0,0,1,0,.31.3.3,0,0,0,.1.3Zm.14.14c-.09.09-.09.2,0,.34a.49.49,0,0,1,0-.2.25.25,0,0,0,0-.14Zm.07-6.51a.54.54,0,0,1-.07-.27C3770.18,6816.69,3770.2,6816.78,3770.34,6816.87Zm.07,3.86a.6.6,0,0,0,.06-.23.64.64,0,0,1,.07-.24,4.71,4.71,0,0,1,.07-.95,5.38,5.38,0,0,0,.07-.78,5.32,5.32,0,0,1,.06-.78,2,2,0,0,1,0-.37,2.17,2.17,0,0,0,0-.38,1.79,1.79,0,0,1,.14-.67,1.86,1.86,0,0,0,.13-.68,3.22,3.22,0,0,1,0-.58,3.52,3.52,0,0,1,.1-.51,2.69,2.69,0,0,1,0-.4c0-.14.06-.3.1-.48a2.26,2.26,0,0,1,.07-.61.12.12,0,0,1,0-.1s0-.08-.11-.17a.49.49,0,0,1,0,.2.58.58,0,0,0,0,.21.47.47,0,0,0-.07.2,3.77,3.77,0,0,1-.14.81s0,0,0,.07v.37a.42.42,0,0,1-.13.31,3.59,3.59,0,0,0-.09.78,4.3,4.3,0,0,1-.08.78q0,.21-.09.27c.06.05.06.09,0,.14a1.45,1.45,0,0,1,0,.37,1.78,1.78,0,0,0,0,.44l-.07.14c0,.09,0,.13.07.13a1.92,1.92,0,0,0-.07.61,1.94,1.94,0,0,0-.07.82,5.7,5.7,0,0,0-.06.95s-.07.07-.07.1,0,.05-.07.1v.07C3770.36,6820.67,3770.41,6820.69,3770.41,6820.73Zm0-5.08a.16.16,0,0,0-.07.1.22.22,0,0,1-.07.1.12.12,0,0,1,.1,0,.15.15,0,0,0,.1,0A.21.21,0,0,0,3770.41,6815.65Zm.54,18.72c.13-.09.16-.18.07-.27Zm.26,1.29a.33.33,0,0,0-.19.13v.07a1.29,1.29,0,0,1,.06.47.56.56,0,0,0,.07.34,3.89,3.89,0,0,1,.28-1.05,6.47,6.47,0,0,0,.35-1.05c.12.09.19.16.19.2v-.34a.43.43,0,0,1-.32.14v.2a.19.19,0,0,1-.06-.13c0-.05-.05-.09-.13-.14a.48.48,0,0,0,.06.24.4.4,0,0,1,.07.24,2.8,2.8,0,0,0-.32.4v-.2a.4.4,0,0,0-.25.27c.08.05.13.08.13.1S3771.17,6835.61,3771.21,6835.66Zm.14-22.93q.14-.54.21-1c0-.31.09-.65.13-1v-.07a.69.69,0,0,1-.13.2.28.28,0,0,0-.07.21.68.68,0,0,1,0,.4l-.14.41a.4.4,0,0,1,0,.34A1.23,1.23,0,0,0,3771.35,6812.73Zm.55,21.16a.21.21,0,0,1-.07-.17c0-.07,0-.08-.14,0a.24.24,0,0,1,0,.2.39.39,0,0,0,0,.21l.07.06a1.24,1.24,0,0,0-.27.21.28.28,0,0,0,.2-.07.23.23,0,0,0,.14.07l.27-.41.14-.07-.14-.13a.28.28,0,0,1,.07-.21.65.65,0,0,0,.2-.47l.14-.14.13.14V6833l-.06-.07s0-.18.13-.4a.14.14,0,0,1,0-.11.13.13,0,0,0,0-.1,5.34,5.34,0,0,1,.27-.68.58.58,0,0,0,.17-.34,1,1,0,0,1,.17-.4v-.14l-.27.24a2.91,2.91,0,0,0-.27.24.86.86,0,0,1,.2.13c0,.05,0,.08-.1.1s-.06,0,0,0,0,.11-.13.2-.07.07-.21.07l-.06-.07a.13.13,0,0,1,0,.1.17.17,0,0,0,0,.1l.13.14a.15.15,0,0,0-.1,0s-.08,0-.17,0a.71.71,0,0,1,.27.34.54.54,0,0,0-.27.07.17.17,0,0,0-.13-.07h-.07a.38.38,0,0,1,.13.27.12.12,0,0,1-.1,0,.13.13,0,0,0-.1,0c0,.05,0,.07,0,.07s0,0,0,.07a.22.22,0,0,0-.14.06,6.54,6.54,0,0,1-.2.68.17.17,0,0,0,.14.07A.4.4,0,0,1,3771.9,6833.89Zm-.14,3.26a3.26,3.26,0,0,0-.2.47c-.09.09-.07.14.07.14l.13-.14v-.47c.14,0,.23,0,.27.07a.31.31,0,0,0-.06-.21.17.17,0,0,1-.07-.13A.4.4,0,0,0,3771.76,6837.15Zm.34-.41a.38.38,0,0,0-.13-.27.21.21,0,0,1-.07.13s.07.08.07.11,0,.05.06.1Zm.14-.88a.06.06,0,0,0-.07-.07.61.61,0,0,1,0,.24.83.83,0,0,0,0,.24h.07s0,0,.07,0a.2.2,0,0,0,0-.21Zm.34-.82c-.14.23-.19.37-.14.41s.14.09.27,0a.21.21,0,0,1-.07-.13c0-.1,0-.15,0-.17a.18.18,0,0,0,0-.11h.21a.24.24,0,0,1-.07-.2l.07-.07v-.06s-.08.06-.1.06-.06,0-.11.07a.28.28,0,0,0,.07.2Zm.13-.47.14.07.06-.14a.15.15,0,0,1,0-.1s0-.08,0-.17a.46.46,0,0,1-.1.17A1.24,1.24,0,0,0,3772.71,6834.57Zm.34-.95a.29.29,0,0,1,.17,0,.12.12,0,0,0,.1,0,.28.28,0,0,0,.07-.21.27.27,0,0,0-.17,0,.29.29,0,0,1-.17,0Zm0,.48a.3.3,0,0,0,.07-.41.35.35,0,0,1,0,.2A.55.55,0,0,0,3773.05,6834.1Zm.54-3.94a.47.47,0,0,0-.2.41.48.48,0,0,0,.1-.17A2.08,2.08,0,0,1,3773.59,6830.16Zm-.13,3a.28.28,0,0,0,.2-.07.32.32,0,0,1,0-.27.54.54,0,0,0,.07-.27h-.07c0,.13-.08.24-.1.33A1.33,1.33,0,0,1,3773.46,6833.15Zm9.49-19.21.07-.06a.13.13,0,0,0-.14-.14v.07a.17.17,0,0,1-.13-.07c.09-.09.16-.14.2-.14a.28.28,0,0,0,.07-.21c.09,0,.14.11.14.18s0,.08.13,0a.57.57,0,0,0,.14-.42.74.74,0,0,1,.06-.53.9.9,0,0,1,.39-.46.17.17,0,0,0,.13.07.22.22,0,0,0-.06-.14s0-.09.06-.13,0,0,.13.2a.22.22,0,0,1,.06-.14.19.19,0,0,0,.07.14q.06.07.06,0l-.19-.36a.18.18,0,0,1,.13-.06v-.12l.26-.41a.88.88,0,0,1,0,.24.53.53,0,0,0,0,.23,1.85,1.85,0,0,0,.2-.27,2,2,0,0,1,.19-.27V6811a.79.79,0,0,1,.14-.55c.1-.09.15-.15.15-.2l.07-.07.14.14c0,.09,0,.13-.11.13s-.08.07,0,.21a.55.55,0,0,0,.42-.52h-.21c0-.1.09-.15.14-.15s.09-.05.14-.15l.07-.13h.22l-.22-.21a.43.43,0,0,0,.22-.2c0-.09.14-.11.28-.07s.06,0,0,.1,0,.13.11.17V6809a.69.69,0,0,1,.14-.2l.2-.21h.07l.13-.06v-.21a.94.94,0,0,0,.27-.2.32.32,0,0,1,.21-.34.38.38,0,0,0-.07.27s.11.05.2.14a.35.35,0,0,1,0-.24.88.88,0,0,0,0-.24.38.38,0,0,1,.07.27c.18,0,.28-.12.31-.23a.56.56,0,0,1,.17-.31v-.27s.11.05.2.14v-.14a.16.16,0,0,1-.07-.1.16.16,0,0,0-.07-.1l.14-.14.14.14a2.37,2.37,0,0,0,.17-.44q0-.18.3-.24a1.17,1.17,0,0,1,.2-.27l.17-.1a.82.82,0,0,1,.17-.11,1.12,1.12,0,0,1,.34-.4.27.27,0,0,0,.21-.27.19.19,0,0,1,.13.06.8.8,0,0,0,.17-.2.43.43,0,0,1,.17-.14,2,2,0,0,1,.34-.27.37.37,0,0,0,.27-.27.38.38,0,0,0,.27-.13,1.24,1.24,0,0,1,.27-.21l.14-.13a.4.4,0,0,0,.34-.21h.07l.13-.1a.41.41,0,0,0,.14-.1c.09.09.16.1.2,0s.09-.07.14,0l-.07-.27q.2.06.27,0l.2-.2a.42.42,0,0,1-.17-.14s-.08,0-.17,0a.11.11,0,0,0,0,.1.15.15,0,0,1,0,.1h-.2c0-.13,0-.2-.14-.2s-.12.15-.1.17,0,.06-.1.1c.14,0,.2,0,.2.07a1.13,1.13,0,0,0-.1.13.33.33,0,0,1-.1.14l-.26-.14a.62.62,0,0,0-.07.17.44.44,0,0,1-.07.17l-.13-.27c-.09.09-.11.15-.07.17s0,.08,0,.17l-.07.14a.32.32,0,0,0-.2.06l-.13.07a.6.6,0,0,0-.33.34.19.19,0,0,1-.14-.07l-.2.24c0,.07-.16.06-.33,0a.23.23,0,0,1,0,.23,2.55,2.55,0,0,0-.14.24c-.09,0-.14,0-.16,0a.18.18,0,0,0-.11,0c0,.05,0,.07,0,.07s0,0,0,.07a.22.22,0,0,1,.06.14.32.32,0,0,0-.2.06h-.2l-.26.27a.24.24,0,0,1,.06.14.57.57,0,0,0-.13-.1.41.41,0,0,1-.13-.1c-.05.09,0,.14,0,.17s.08.05,0,.1a.28.28,0,0,0-.27.2,1.27,1.27,0,0,1-.26.34.13.13,0,0,1-.1,0,.13.13,0,0,0-.1,0,.28.28,0,0,0-.07-.2.16.16,0,0,1-.17-.14.15.15,0,0,0-.16-.13.29.29,0,0,0,0,.17.29.29,0,0,1,0,.17c.05,0,.11,0,.2.13l.27.14c-.09,0-.13.09-.13.13s-.05.1-.14.14,0-.14-.13-.14a.06.06,0,0,0-.07.07c0,.05,0,.09-.13.14a.86.86,0,0,0,.07-.34H3788a.63.63,0,0,1-.2.41v-.07l-.41.2a.49.49,0,0,1,0,.2c0,.05,0,.12,0,.21a.24.24,0,0,0-.2.07s0,.06.13.06-.07.08-.07.11,0,.05-.06.1a.33.33,0,0,1-.21.07.46.46,0,0,1-.06-.28c-.1.09-.13.17-.11.24a.33.33,0,0,1,0,.25.13.13,0,0,1-.1,0,.12.12,0,0,0-.1,0v.07l.13.14c0,.05,0,.07-.07.07v.43a.31.31,0,0,0-.22.07.23.23,0,0,0,0-.25.49.49,0,0,1-.07-.25.14.14,0,0,1,0,.11.15.15,0,0,0,0,.1v.22a.07.07,0,0,0-.08-.08.42.42,0,0,0-.07.29c-.1,0-.16,0-.18,0a.38.38,0,0,0-.19,0v.28c.05-.05.08-.07.1-.07s.06,0,.11-.07a.36.36,0,0,0,.13.21c0,.1-.13.12-.27.07l-.2-.21-.14.14a.39.39,0,0,1,.07.28.24.24,0,0,1,.2.07c-.09.09-.17.11-.23.07a.21.21,0,0,0-.24,0c-.05.08,0,.13,0,.13s.1,0,.1.13-.1.12-.17.1a.17.17,0,0,0-.17,0,.45.45,0,0,0-.06.27,1.24,1.24,0,0,0-.21.27.66.66,0,0,0-.06-.27.26.26,0,0,1-.14.07,1.28,1.28,0,0,0,.14.23c0,.07,0,.14-.07.23a.3.3,0,0,0-.07-.2c0-.17,0-.17-.14,0l.07.13h-.2a.16.16,0,0,1-.1.17c-.07,0-.06.08,0,.17h-.2a1.34,1.34,0,0,1-.07.39c0-.08,0-.13,0-.13s0,0,0-.06-.12.1-.1.16a.17.17,0,0,1,0,.17c-.1,0-.14,0-.14-.07a.28.28,0,0,0,0,.13.25.25,0,0,1,0,.14s.11,0,.2.13a.57.57,0,0,1-.13.1.33.33,0,0,0-.14.1v.13a1.07,1.07,0,0,1-.1-.23c0-.07-.08-.1-.17-.1a.53.53,0,0,1,0,.2.35.35,0,0,0,0,.2.38.38,0,0,1-.27.13.22.22,0,0,1,.14.2c-.1.09-.16.14-.21.14h-.2a.16.16,0,0,0,.07.23q.13.1,0,.24l-.13-.13-.26.13a1.22,1.22,0,0,1-.13.41l-.26.13a.35.35,0,0,0,0,.14.31.31,0,0,1,0,.13h-.19a.31.31,0,0,1-.06.21,1.31,1.31,0,0,0-.2.27h.2a.49.49,0,0,0-.46.54.24.24,0,0,1-.2.07.16.16,0,0,1-.07-.1.16.16,0,0,0-.07-.1.28.28,0,0,0,0,.34.18.18,0,0,1,0,.27h-.07v.27h.13a.93.93,0,0,0-.17.1.66.66,0,0,1-.17.1l.21.2v-.13a.32.32,0,0,1-.07.34q-.07-.14,0-.21s0-.06-.11-.06-.1.16,0,.2.08.11,0,.2,0-.06-.13-.06-.07,0-.07.13l.14.14-.07.13-.1-.17a.48.48,0,0,1-.11-.17,2.12,2.12,0,0,0-.2.34.94.94,0,0,0-.2.27l-.07.14s0,.07,0,.07,0,0,0,.07l-.13.13h-.07a1.61,1.61,0,0,1-.2.61.24.24,0,0,1,0-.2.29.29,0,0,0,0-.21.6.6,0,0,0-.27.48c.09-.09.13-.16.13-.2s.08.06.1.06.06,0,.11.07h-.21c.14.14.21.25.21.34l-.28-.13v.13a1,1,0,0,0-.4-.07c0-.13.09-.26.13-.37a2.42,2.42,0,0,1,.21-.37h.13v-.41h-.07v.2a.19.19,0,0,1-.13-.06H3779s-.07,0-.07.06a.28.28,0,0,1,0,.31.72.72,0,0,0-.17.3,2.94,2.94,0,0,1-.31.41c-.11.14-.21.27-.3.41v.07l.13.13-.2.2.14.07a.33.33,0,0,0-.21.07l-.2-.2-.07.06c.05.05.07.08.07.11s0,.05.07.1a.74.74,0,0,0-.07.54l.07.07c-.09,0-.15,0-.17,0a.29.29,0,0,0-.17,0,.24.24,0,0,0,.07.2.33.33,0,0,1,.06.21h.14a.17.17,0,0,1-.07.13.1.1,0,0,0,0,.14c.09,0,.14,0,.14-.07s0-.07.13-.07a.69.69,0,0,0-.17.34.58.58,0,0,1-.17.34s-.06,0-.06.14-.06.08,0,.1,0,.08,0,.17a.77.77,0,0,0-.2.34,1,1,0,0,1-.21.34H3777s-.06-.08-.06-.11,0-.05-.07-.1c0,.14,0,.21.13.21a.42.42,0,0,0,.14.17s0,.08,0,.17h-.2a.52.52,0,0,1-.14.17.41.41,0,0,0-.14.1v.34s-.07.06-.1.06-.05.05-.1.14a.68.68,0,0,0-.07.27h-.2a.5.5,0,0,1-.07.44,1.45,1.45,0,0,0-.2.31v.27c-.09,0-.14,0-.14.07s0,.09-.13.13l-.21-.13v.27c0-.05.08-.07.11-.07s0,0,.1-.07l.07.07a1.24,1.24,0,0,1-.21.27.22.22,0,0,0-.1-.07.18.18,0,0,1-.1-.06.28.28,0,0,0,.13.27s.12.11.21.34c0,0,0,.06-.07.06h-.07v-.13c-.09,0-.15,0-.17.1a.37.37,0,0,1-.1.17.06.06,0,0,0-.07.07s.07,0,.07,0,0,0,.07,0a.27.27,0,0,1-.21.07,1,1,0,0,0-.13.41.24.24,0,0,1,.2.07.54.54,0,0,1-.4.13.28.28,0,0,0-.07.21.15.15,0,0,1,.1,0,.15.15,0,0,0,.1,0,.55.55,0,0,0,.07.28.58.58,0,0,1-.2-.17.15.15,0,0,0-.21,0l.14.27q-.27-.06-.27.21c.13,0,.2,0,.2.13l-.14.07.07.14v.06h-.27c-.09.18-.13.25-.13.21l.13.13c.05,0,.07,0,.07-.07a.17.17,0,0,1,.07-.13,1.67,1.67,0,0,1-.17.51,1.56,1.56,0,0,0-.17.37c-.05,0-.08-.07-.1-.07s-.06,0-.11-.06,0,0,0,.06v.55l-.13-.14h-.07a1.38,1.38,0,0,1-.13.81h.2V6830a.63.63,0,0,0,.17-.31,1.08,1.08,0,0,1,.17-.37,2.45,2.45,0,0,0,.13-.34c.05-.13.09-.27.14-.41a.38.38,0,0,1,.27-.13s0-.07,0-.07,0,0,0-.07.14-.16.14-.2,0-.27.2-.43a.53.53,0,0,0,.2-.06c-.13,0-.13-.06,0-.19a.18.18,0,0,1,.11,0,.11.11,0,0,0,.1,0,.19.19,0,0,1-.07-.14c0-.05,0-.09-.14-.14a.93.93,0,0,1,.21-.41c.09.09.13.16.13.2l.07-.06a.26.26,0,0,1-.07-.14.2.2,0,0,0-.06-.14.36.36,0,0,0,.13-.24.56.56,0,0,1,.07-.25.63.63,0,0,0,.17-.24.63.63,0,0,1,.17-.24c.09.09.16.14.2.14a.42.42,0,0,0,.14-.28.28.28,0,0,1-.21-.07.17.17,0,0,0,.07-.14.17.17,0,0,1,.07-.13V6825a.21.21,0,0,1,.14.07v.2c.13-.13.13-.2,0-.2v-.35a.26.26,0,0,0,.2-.07.21.21,0,0,1,.13-.07.16.16,0,0,0,.07-.1.2.2,0,0,1,.07-.11c-.09-.09-.14-.16-.14-.2a.31.31,0,0,1,.21-.34.68.68,0,0,1,.07.27h.13c0,.13,0,.2.14.2a.28.28,0,0,0,.07-.2h-.21a.28.28,0,0,0-.07-.21h.21a1.24,1.24,0,0,1,.27.21.28.28,0,0,0,0-.21.24.24,0,0,1,0-.2h-.21c0,.05-.11,0-.2-.13-.09.09-.14.15-.14.2a.17.17,0,0,0-.13.07,1.06,1.06,0,0,1,.13-.34h.28a.93.93,0,0,0,.2-.55.28.28,0,0,0,.17-.2.28.28,0,0,1,.17-.2l-.07-.07.07-.07v-.13c.18,0,.25-.18.2-.41l.27-.14a.26.26,0,0,0,.1-.27,1.24,1.24,0,0,1,0-.27.33.33,0,0,1,.2-.24.57.57,0,0,0,.28-.17.3.3,0,0,0-.07-.2c.18,0,.29-.11.34-.34a.33.33,0,0,0,0-.13.58.58,0,0,1,0-.21l.13.14c.18-.09.25-.14.21-.14v-.06c0-.05,0-.08,0-.11s0-.05,0-.1h.06a1.07,1.07,0,0,1-.06.41.43.43,0,0,1-.14.17c-.05,0-.05.08,0,.17h.2l.07.13a1.58,1.58,0,0,0,.07-.43.38.38,0,0,1,.2-.3v-.2c-.09-.09-.16-.13-.2-.13a.68.68,0,0,0,.07-.2.18.18,0,0,1,.06-.13.4.4,0,0,0,.14-.27.24.24,0,0,1,.07-.2.69.69,0,0,0,.13-.2l.14-.13a.3.3,0,0,0,.07-.2.38.38,0,0,1,.13-.27.11.11,0,0,0,0,.1.17.17,0,0,1,0,.1l.14-.4a.28.28,0,0,1,.2-.06.35.35,0,0,0,0-.14.2.2,0,0,1,0-.13s.06,0,0,0,0,0,0,0a.4.4,0,0,0-.14-.26c.05,0,.07,0,.07,0s0,0,.07,0,0,.11.14.2v-.34a.19.19,0,0,0,.13-.06.78.78,0,0,1-.07-.31c0-.11,0-.15.14-.1l.07.13h.27l-.14-.06a.77.77,0,0,0,.27-.34c.09-.09.14-.16.14-.21a.56.56,0,0,1,.1-.3,1.83,1.83,0,0,1,.24-.31h.13s0-.06,0-.06,0,0,0-.07a.88.88,0,0,0,0-.24.61.61,0,0,1,0-.24l.14-.07v-.2a1.16,1.16,0,0,0,.34-.13v-.07C3782.88,6814.09,3783,6814,3783,6813.94Zm-9.22,18.26c0,.09.09.11.13.06Zm.27-.14c-.09,0-.14,0-.14.07S3774,6832.11,3774,6832.06Zm.07-3.73c-.09.09-.12.18-.07.27A.23.23,0,0,0,3774.07,6828.33Zm.27.75q-.14.19,0,.27Zm0-2.51c0-.14,0-.21-.07-.21A.28.28,0,0,0,3774.34,6826.57Zm.2,4.47c0-.09-.11-.09-.2,0Zm0-.61a.3.3,0,0,0,.34-.34Zm.07.34a.17.17,0,0,1,.07-.13C3774.54,6830.64,3774.52,6830.68,3774.61,6830.77Zm.14-5.63c-.1.18-.14.25-.14.21l.14.13Zm.54,3.94a.28.28,0,0,0-.17.17c0,.06,0,.1,0,.1s.12.09.21,0A.68.68,0,0,0,3775.29,6829.08Zm0-4.41c0-.09,0-.14.13-.14h-.27Zm.2-.34c0-.14,0-.23-.07-.27a.28.28,0,0,0-.06.2A.17.17,0,0,0,3775.49,6824.33Zm.27-.54c0-.14,0-.16-.13-.07s-.14.23,0,.27,0,.07.07.07v-.21h.06Zm-.2,2.71v.13a.15.15,0,0,0,.1,0,.15.15,0,0,1,.1,0,1,1,0,0,1,.07-.41.15.15,0,0,1,0-.1s0-.08,0-.17a1.08,1.08,0,0,1-.17.34.23.23,0,0,0,0,.27Zm.2.41c0-.05.08-.07.1-.07s.06-.05.11-.14v-.13l-.14.13-.13.14Zm0-3.87a.79.79,0,0,0,.27.41A.55.55,0,0,0,3775.76,6823Zm0,5.09c0,.09,0,.11.14.06S3775.85,6828.13,3775.76,6828.13Zm.14-.41c0,.14,0,.2.07.2S3776,6827.77,3775.9,6827.72Zm.07-9.36c.09,0,.09-.11,0-.2Zm.06,9.29a.71.71,0,0,0,.34-.27.18.18,0,0,1,.07-.17s0-.05,0-.1a.17.17,0,0,0,.07-.14,1.16,1.16,0,0,1,.34-.54.22.22,0,0,0,0-.13.58.58,0,0,1,0-.21l-.2.21a.81.81,0,0,1-.07.33c-.23-.09-.34-.06-.34.07h.2a2.16,2.16,0,0,0-.13.55s0,.11-.14.2S3775.94,6827.52,3776,6827.65Zm.21-1.69c.09.13.18.16.27.06A.66.66,0,0,0,3776.24,6826Zm.47-3.94a.33.33,0,0,1,.07-.34.4.4,0,0,0,.14-.27h-.14a.28.28,0,0,1-.07.21.69.69,0,0,0-.13.2C3776.53,6821.87,3776.58,6821.93,3776.71,6822Zm.27,2.51a.21.21,0,0,0-.2.14l.27.13A.68.68,0,0,1,3777,6824.53Zm.28-3.66c0-.14,0-.2-.07-.2S3777.16,6820.87,3777.26,6820.87Zm.06-.47v.2h.21Zm.82,2.3a.25.25,0,0,0-.24,0l-.24.14c.09,0,.13.09.1.13s0,.12.11.21a.18.18,0,0,0,.1-.21C3777.94,6822.88,3778,6822.79,3778.14,6822.7Zm.06-8.68c.05,0,.07,0,.07,0s0,0,.07,0S3778.34,6813.93,3778.2,6814Zm.14,8c-.09.09-.07.16.07.21A.33.33,0,0,0,3778.34,6822Zm.88-6a.57.57,0,0,0-.4.21h.27c0-.05.06-.08.06-.1S3779.18,6816.1,3779.22,6816.05Zm.27.28a.56.56,0,0,1-.1.3.59.59,0,0,0-.1.31h.27a.54.54,0,0,1,.07-.27.28.28,0,0,1,.07-.21s-.08-.07-.1-.07S3779.54,6816.37,3779.49,6816.33Zm.27.06c0-.09,0-.13-.13-.13a.21.21,0,0,1,.07.13Zm-.06,2.92a.52.52,0,0,0,.54-.34h-.07l-.2.14A.94.94,0,0,1,3779.7,6819.31Zm.13-3.19a.23.23,0,0,0,.21-.13C3779.85,6816.08,3779.79,6816.12,3779.83,6816.12Zm.41-.34c-.09-.09-.15-.1-.17,0s-.08.08-.17,0a.27.27,0,0,0,.27.21.11.11,0,0,1,0-.1A.18.18,0,0,0,3780.24,6815.78Zm-.07,3.06c.09,0,.14,0,.14-.07A.23.23,0,0,1,3780.17,6818.84Zm.61-.68c-.18-.05-.34.11-.47.47l.06-.07.21-.2c0-.09.08-.13.1-.13A.22.22,0,0,0,3780.78,6818.16Zm-.13-3.46q-.14.06,0,.27c0-.09,0-.14,0-.14S3780.69,6814.79,3780.65,6814.7Zm.2,3h.2a1.53,1.53,0,0,1,.27-.4h-.13a.56.56,0,0,1-.17.2.42.42,0,0,0-.17.2.26.26,0,0,0,0,.27Zm.54-3.59a.54.54,0,0,0-.07-.27h-.27A.73.73,0,0,0,3781.39,6814.09Zm.07-.75c0,.14,0,.18.14.14S3781.55,6813.39,3781.46,6813.34Zm.2-.27a.06.06,0,0,0,.07.07h.07a.17.17,0,0,0,0-.27l-.14.13Zm.14,3.05c0,.09.11.09.2,0Zm.41-.4c-.23,0-.34.09-.34.27q.06,0,.06,0s0,0,.07,0a.93.93,0,0,1,.1-.16A.82.82,0,0,0,3782.21,6815.72Zm-.14-3.26.27-.14c-.13,0-.2,0-.2,0l-.07.14a.19.19,0,0,0-.07.14.22.22,0,0,0,.14.06A.26.26,0,0,0,3782.07,6812.46Zm.75-.41a.23.23,0,0,1-.07.14C3782.88,6812.19,3782.91,6812.14,3782.82,6812.05Zm.47-1a.18.18,0,0,1-.1.06.22.22,0,0,0-.1.07.24.24,0,0,0,.2.07Zm.2-.34-.2-.14a.19.19,0,0,1,.07.14Zm.21,2.91c-.14,0-.21.05-.21.14s.08-.07.11-.07S3783.65,6813.66,3783.7,6813.61Zm.34-1q-.21-.08-.21.06a.18.18,0,0,0,.11,0A.13.13,0,0,1,3784,6812.6Zm0,.34s0,.06,0,.06,0,.05.11.14v-.2Zm.47-3.6-.13-.14C3784.38,6809.3,3784.42,6809.34,3784.51,6809.34Zm.48,3.53a.33.33,0,0,1-.21.07v.2a.28.28,0,0,1-.06.2.59.59,0,0,1,.2-.07s.09,0,.13-.13a.66.66,0,0,0-.06-.27s.13-.07.27-.21a.66.66,0,0,0-.27-.06s0,.06,0,.06,0,0,0,.07v.07A.06.06,0,0,0,3785,6812.87Zm-.21-4.07c0,.09.07.13.21.13v-.13Zm.21-1.22-.14.13c.05.05.08.07.1.07s.06,0,.1.07a.29.29,0,0,0,0-.17A.15.15,0,0,1,3785,6807.58Zm-.07,4.34a.68.68,0,0,0,.07-.27C3784.9,6811.78,3784.87,6811.87,3784.92,6811.92Zm.41.27a.54.54,0,0,0-.07.27c.13.09.2.07.2-.07a.24.24,0,0,0,.07-.2l.14-.14a.19.19,0,0,1,.06-.13h-.2v.27Zm.4-4.68s0,.07,0,.07,0,0,0,.06h.2Zm.14,4.2a.13.13,0,0,0-.1,0,.17.17,0,0,1-.1,0,.36.36,0,0,0,.4-.07l.34-.33c0-.05,0-.08.07-.11s.11-.08.07-.17a.19.19,0,0,1-.14.07.59.59,0,0,1-.47-.07v.14a.24.24,0,0,0,.2.07c0,.09,0,.13-.07.13a.19.19,0,0,1-.13-.06A.81.81,0,0,1,3785.87,6811.71Zm1-1.08a.4.4,0,0,1,.27-.14.21.21,0,0,1-.14-.2c-.18.09-.25.16-.2.2-.18,0-.23.07-.14.21s-.11,0-.2.13a.12.12,0,0,1,.1,0,.15.15,0,0,0,.1,0Q3786.89,6810.77,3786.89,6810.63Zm.13-2c.09.05.16,0,.2-.13,0,0-.07.07-.1.07S3787.07,6808.55,3787,6808.59Zm.48.28c-.18-.09-.25-.14-.21-.14a.23.23,0,0,0,.07.14h.14Zm-.21,1.08v.07h.07V6810Zm.21-.07.23-.1c.07,0,.11-.1.11-.24a.18.18,0,0,1-.11,0,.13.13,0,0,0-.1,0v.2C3787.54,6809.68,3787.5,6809.75,3787.5,6809.88Zm.67-1a1.17,1.17,0,0,0-.2.27l-.13.27a.37.37,0,0,0,.2,0,.31.31,0,0,1,.13,0c.09-.09.14-.15.14-.17a.16.16,0,0,1,.07-.1v-.2Zm0-1.16a.66.66,0,0,0-.06.27h.27A1.25,1.25,0,0,1,3788.17,6807.71Zm.61.95a1.71,1.71,0,0,1,.31-.44l.31-.3a.39.39,0,0,1-.07-.28c-.14.14-.21.19-.21.14a2.75,2.75,0,0,1-.54.54c.05,0,.07,0,.07,0s0,0,.07,0a.58.58,0,0,1-.27.17.3.3,0,0,0-.21.17,1,1,0,0,0,.34.07v-.14Zm-.27-2.64c.09,0,.14-.07.14-.21A.24.24,0,0,0,3788.51,6806Zm0,1.56v.13c0-.09,0-.13.07-.13Zm.14-.88a.15.15,0,0,0,.1,0,.15.15,0,0,1,.1,0c0-.05,0-.07,0-.07s0,0,0-.07A1,1,0,0,1,3788.65,6806.7Zm.95,1a5.44,5.44,0,0,1,.61-.4l.07.06a.17.17,0,0,1,0-.1.13.13,0,0,0,0-.1l-.06-.07c-.05,0-.07,0-.07-.07s-.14.08-.14.11,0,0-.13,0v.2a.82.82,0,0,0-.34.07Zm1.08-.95a.57.57,0,0,0-.13-.1.41.41,0,0,1-.14-.1c0,.09,0,.15,0,.17s.07.08.07.17C3790.57,6806.81,3790.64,6806.76,3790.68,6806.76Zm0-2.51s.05-.11.14-.2c-.14,0-.23,0-.27.07a.21.21,0,0,1,.07.13Zm.41,2,.14-.27A.27.27,0,0,0,3791.09,6806.22Zm.95-.61a.68.68,0,0,0,.07-.2.46.46,0,0,1,.07-.21.76.76,0,0,0-.21.14.21.21,0,0,1-.13.07Zm.48-.68a2.14,2.14,0,0,0-.21.27c.05.05.08.07.1.07s.06,0,.11.07a.28.28,0,0,1,.06-.2Q3792.66,6805.07,3792.52,6804.93Zm.74-.4c-.23,0-.32,0-.27.13S3793.13,6804.66,3793.26,6804.53Zm.61-1.36a.94.94,0,0,0-.27-.2.81.81,0,0,1,.07.33.18.18,0,0,1,.1-.06A.22.22,0,0,0,3793.87,6803.17Zm.75.74s.11,0,.2-.13a.58.58,0,0,0-.41,0A.36.36,0,0,0,3794.62,6803.91Zm2.1.62c0-.05-.07-.08-.07-.11s0-.05-.07-.1C3796.58,6804.46,3796.63,6804.53,3796.72,6804.53Zm.34-.95c-.14-.14-.23-.18-.27-.14S3796.88,6803.58,3797.06,6803.58Zm.27,1a.28.28,0,0,0-.07.21C3797.35,6804.8,3797.37,6804.73,3797.33,6804.59Zm.81.21q.08-.21-.06-.27A.66.66,0,0,0,3798.14,6804.8Z" transform="translate(-3581.3 -6134.79)"/><path class="cls-1" d="M4359.74,6733l-45.7-45.7a4.51,4.51,0,0,0-2.42-1.26l-50.27-9.14a4.58,4.58,0,0,0-5.32,3.68,5.42,5.42,0,0,0-.07.81,26.21,26.21,0,0,1-.39,4.33l-31.6-7.9v-1.46a22.85,22.85,0,1,0-27.42-22.39h9.14a13.71,13.71,0,1,1,13.71,13.71,4.56,4.56,0,0,0-4.57,4.57v5.57l-31.61,7.9a28.56,28.56,0,0,1-.39-4.33,4.57,4.57,0,0,0-1.64-3.51,4.45,4.45,0,0,0-3.74-1l-50.28,9.14a4.52,4.52,0,0,0-2.41,1.26l-45.71,45.7a4.59,4.59,0,0,0,0,6.47l36.57,36.56a4.57,4.57,0,0,0,6.46,0l10.48-10.48v30.1h-32a45.88,45.88,0,0,0-13.57,77.7,22.78,22.78,0,0,0,13.57,41.13H4265.1a4.55,4.55,0,0,0,3.23-1.34l36.57-36.56a4.53,4.53,0,0,0,1.29-3.23h.05V6765.5l10.48,10.48a4.57,4.57,0,0,0,6.46,0l36.56-36.56A4.57,4.57,0,0,0,4359.74,6733Zm-140.34-46.9,33.23,8.31a39.22,39.22,0,0,1-66.47,0Zm-132.54,132.4a13.71,13.71,0,0,1,13.71-13.71h100.55a13.71,13.71,0,0,1,0,27.42H4100.57A13.71,13.71,0,0,1,4086.86,6818.45Zm0,36.57a13.71,13.71,0,0,1,13.71-13.72h100.55a13.72,13.72,0,0,1,0,27.43H4100.57A13.71,13.71,0,0,1,4086.86,6855Zm114.26,50.27H4100.57a13.71,13.71,0,1,1,0-27.42h100.55a13.71,13.71,0,1,1,0,27.42Zm68.55-6.46v-21h21ZM4320,6766.29l-28.76-28.77-6.47,6.47,12.37,12.37v112.37h-32a4.57,4.57,0,0,0-4.57,4.57v32h-41.25a22.55,22.55,0,0,0-4.07-31.62l-.5-.37a228.28,228.28,0,0,1,4.84-68.42,22.77,22.77,0,0,0-18.43-9.28H4141.7v-39.24l12.37-12.37-6.46-6.47-28.76,28.77-30.1-30.11,41.46-41.46,43.88-8c3,19.81,22.16,35.15,45.3,35.15s42.31-15.34,45.3-35.15l43.88,8,41.48,41.46Z" transform="translate(-3581.3 -6134.79)"/><rect class="cls-1" x="514.7" y="679.1" width="109.69" height="9.14"/><rect class="cls-1" x="514.7" y="715.66" width="105.12" height="9.14"/><rect class="cls-1" x="514.7" y="752.22" width="105.12" height="9.14"/><path class="cls-1" d="M4064.86,6217.93a12.43,12.43,0,0,0-3.81-13.93l-33.89-28.1a4.19,4.19,0,0,0-5.35,6.46l33.9,28.09a4.19,4.19,0,0,1-2.68,7.41h-30.41a4.2,4.2,0,0,0-4.19,4.19v22.19h-93.68v-22.19a4.19,4.19,0,0,0-4.19-4.19h-29.89a4.19,4.19,0,0,1-2.63-7.45l82.34-66.33a4.2,4.2,0,0,1,5.3,0l32.7,27.1a4.19,4.19,0,0,0,5.35-6.45l-32.71-27.1a12.59,12.59,0,0,0-15.9-.11l-82.34,66.33a12.57,12.57,0,0,0,7.89,22.35h25.7v18a8.39,8.39,0,0,0,8.38,8.38h93.68a8.39,8.39,0,0,0,8.38-8.38v-18H4053a12.44,12.44,0,0,0,11.83-8.31Z" transform="translate(-3581.3 -6134.79)"/><path class="cls-1" d="M3893.21,6297.47c0-5.09-6-6.72-14.22-9a64.83,64.83,0,0,1-6.86-2.13,97.63,97.63,0,0,1-2.3-10.13c-2.34-12-3.63-18.57-8.93-18.57s-6.58,6.6-8.92,18.57a97.63,97.63,0,0,1-2.3,10.13,64.83,64.83,0,0,1-6.86,2.13c-8.26,2.26-14.22,3.89-14.22,9s6,6.71,14.22,9a62.78,62.78,0,0,1,6.86,2.12,97.91,97.91,0,0,1,2.3,10.14c2.34,12,3.63,18.56,8.92,18.56s6.59-6.59,8.93-18.56a97.91,97.91,0,0,1,2.3-10.14,65.06,65.06,0,0,1,6.86-2.12C3887.25,6304.18,3893.21,6302.55,3893.21,6297.47Zm-27.17,5.19c-1.84,1.84-2.64,5.23-4.44,14.44-.2,1-.44,2.26-.7,3.53-.25-1.27-.49-2.48-.69-3.53-1.8-9.21-2.6-12.6-4.44-14.44s-4.9-2.69-10.74-4.29l-3.21-.9c1.15-.34,2.28-.65,3.21-.9,5.84-1.6,9-2.52,10.74-4.29s2.64-5.23,4.44-14.45c.2-1,.44-2.26.69-3.52.26,1.26.5,2.48.7,3.52,1.8,9.22,2.6,12.6,4.44,14.45s4.9,2.69,10.74,4.29c.93.25,2.06.56,3.21.9l-3.21.9c-5.84,1.6-9,2.51-10.74,4.29Z" transform="translate(-3581.3 -6134.79)"/><path class="cls-1" d="M4091.25,6322a65.06,65.06,0,0,1-6.86-2.12,100.23,100.23,0,0,1-2.31-10.14c-2.33-12-3.62-18.56-8.92-18.56s-6.58,6.59-8.92,18.56a97.91,97.91,0,0,1-2.3,10.14,65.06,65.06,0,0,1-6.86,2.12c-8.26,2.26-14.22,3.9-14.22,9s6,6.72,14.22,9a64.83,64.83,0,0,1,6.86,2.13,97,97,0,0,1,2.3,10.13c2.34,12,3.63,18.57,8.92,18.57s6.59-6.6,8.92-18.57a99.31,99.31,0,0,1,2.31-10.13,64.83,64.83,0,0,1,6.86-2.13c8.26-2.26,14.22-3.9,14.22-9s-6-6.72-14.22-9Zm-2.22,9.88c-5.83,1.6-9,2.52-10.73,4.29s-2.64,5.23-4.44,14.45c-.2,1-.44,2.26-.7,3.52-.25-1.26-.49-2.48-.7-3.52-1.79-9.22-2.59-12.61-4.43-14.45s-4.9-2.69-10.74-4.29c-.93-.26-2.07-.57-3.21-.9,1.14-.33,2.28-.64,3.21-.9,5.84-1.6,9-2.51,10.74-4.29s2.64-5.23,4.43-14.44l.7-3.53c.26,1.27.5,2.48.7,3.53,1.8,9.21,2.59,12.6,4.44,14.44s4.9,2.69,10.73,4.29l3.22.9c-1.15.33-2.28.65-3.22.9Z" transform="translate(-3581.3 -6134.79)"/><path class="cls-1" d="M3903.56,6339.23h-6.07v-8.8a4.19,4.19,0,1,0-8.38,0v8.8h-6.06a4.19,4.19,0,0,0,0,8.38h6.06v8.8a4.19,4.19,0,1,0,8.38,0v-8.8h6.07a4.19,4.19,0,1,0,0-8.38Z" transform="translate(-3581.3 -6134.79)"/><path class="cls-1" d="M4064.23,6248.43a4.19,4.19,0,0,0-8.38,0v8.8h-6.06a4.19,4.19,0,0,0,0,8.38h6.06v8.8a4.19,4.19,0,0,0,8.38,0v-8.8h6.07a4.19,4.19,0,0,0,0-8.38h-6.07Z" transform="translate(-3581.3 -6134.79)"/><path class="cls-1" d="M3889.87,6272.51a12.85,12.85,0,1,0-12.84-12.85A12.86,12.86,0,0,0,3889.87,6272.51Zm0-17.32a4.48,4.48,0,1,1-4.47,4.47A4.48,4.48,0,0,1,3889.87,6255.19Z" transform="translate(-3581.3 -6134.79)"/><path class="cls-1" d="M4098.55,6264.24a12.85,12.85,0,1,0,12.85,12.85,12.87,12.87,0,0,0-12.85-12.85Zm0,17.32a4.47,4.47,0,1,1,4.47-4.47A4.47,4.47,0,0,1,4098.55,6281.56Z" transform="translate(-3581.3 -6134.79)"/><path class="cls-1" d="M4018.43,6353.74h-66a4.19,4.19,0,1,0,0,8.37h66v46.09a4.2,4.2,0,0,1-4.19,4.19h-85.3a4.2,4.2,0,0,1-4.19-4.19v-46.09h10.94a4.19,4.19,0,1,0,0-8.37h-10.94a8.39,8.39,0,0,0-8.38,8.37v46.09a12.59,12.59,0,0,0,12.57,12.57h85.3a12.59,12.59,0,0,0,12.57-12.57v-46.09A8.39,8.39,0,0,0,4018.43,6353.74Z" transform="translate(-3581.3 -6134.79)"/><path class="cls-1" d="M3917.83,6336.21a4.18,4.18,0,0,0,5.84-1l18.91-26.85,18.89,26.85a4.19,4.19,0,0,0,3.43,1.78,4.24,4.24,0,0,0,2.41-.76,4.2,4.2,0,0,0,1-5.84l-20.61-29.3,17.68-25.1a4.19,4.19,0,1,0-6.85-4.82l-15.95,22.64-15.93-22.64a4.19,4.19,0,1,0-6.85,4.82l17.65,25.09-20.64,29.31a4.18,4.18,0,0,0,1,5.83Z" transform="translate(-3581.3 -6134.79)"/><path class="cls-1" d="M4005.58,6269.38h-16.49a4.2,4.2,0,0,0-4.19,4.19h0v59.22a4.19,4.19,0,0,0,8.38,0v-21.56c3.86,0,9.49,0,12.3,0a20.9,20.9,0,1,0,0-41.8Zm0,33.42c-2.8,0-8.34,0-12.21.05,0-4,0-9.71,0-12.57,0-2.4,0-8.4,0-12.52h12.28a12.52,12.52,0,1,1,0,25Z" transform="translate(-3581.3 -6134.79)"/><circle class="cls-1" cx="508.97" cy="100.14" r="4.19"/><circle class="cls-1" cx="273.67" cy="101.27" r="4.19"/><circle class="cls-1" cx="468.2" cy="234.49" r="4.19"/></svg>