<svg id="Horns" xmlns="http://www.w3.org/2000/svg" viewBox="0 0 413.07 100.68"><defs><style>.outline_color{fill:#394936;}</style></defs><path class="outline_color" d="M466.22,124c11.25,1.35,21.63-8.46,20.48-19.08a9.56,9.56,0,0,1,.58-4.9c1.53-3.59,4.8-4.71,8.12-2.7a11.83,11.83,0,0,1,4.5,5.28c4.3,9.12,1.3,20.82-7,26.32s-17.68,7.75-27.87,7.13c-15.91-1-31.68-3.64-47.65-3.9A15.8,15.8,0,0,0,403.51,139a91.43,91.43,0,0,0-7.88,14.07c-1,2.13-2,4.24-3.24,6.25-3.3,5.5-6,6.48-11.35,4.33A10.15,10.15,0,0,1,375,152a36.49,36.49,0,0,1,9.41-17.21c9.8-10.21,21.29-16.17,36-15.39a55.67,55.67,0,0,0,27.7-5.28c8.1-4,10.82-11.11,6.83-19.27-2.31-4.73-5.26-9.15-7.94-13.7-.69-1.18-1.51-2.29-2.14-3.5-3.86-7.4-.59-13.05,7.79-13.53,9.6-.54,20.51,7.42,23.23,16.63,4.64,15.66,2.34,29.78-8.81,42.09A10.09,10.09,0,0,0,466.22,124Zm-313.46.88a63.29,63.29,0,0,1-11.65-3C130.49,118.21,127,110,131.84,99.82c.79-1.68,1.82-3.25,2.7-4.88,2.23-4.13,4.67-8.17,6.6-12.44,2.35-5.2.32-9.22-5.09-11a12.5,12.5,0,0,0-8.06.16c-11.42,3.7-16,12.54-17.31,23.54-1.47,12.18,1.22,23.34,9.18,33,.41.5,1,1.3.88,1.68-.38.94-1.36.35-2.06.27a21.81,21.81,0,0,1-13-6.73c-3.38-3.4-4-7.56-3.22-12.23.59-3.48-.16-7-4-8.25-3.21-1-5.24,1.54-6.84,3.94-4.63,6.92-3.49,20.2,2.54,25.72a34.59,34.59,0,0,0,27,9.16c14.23-1.13,28.43-2.62,42.65-3.86,6.58-.58,11.59,2.12,14.84,7.88q2.38,4.22,4.49,8.59c.71,1.47,1-3,2.42-3.73,2.53-1.3,5.41.35,7.46-1.65,1-.94.28-3.54.86-4.85.77-1.73,2.6-2.17,1.87-3-8.28-9.51-17.84-16.5-31.31-15.7A47.83,47.83,0,0,1,152.76,124.9Z" transform="translate(-88.79 -64.07)"/></svg>