<svg id="Horns" xmlns="http://www.w3.org/2000/svg" viewBox="0 0 350.05 187.65"><defs><style>.outline_color{fill:#394936;}</style></defs><path class="outline_color" d="M441.47,88.6c-.11,9-3,16.46-6.18,23.77-1.29,3,0,3.33,2.27,2.86,4.89-1,7.16-5,8.4-9.07,3.2-10.47,3.35-20.94-2.18-30.91a16,16,0,0,1-2-9.38c.27-2.71,2.73-3.25,4.93-3.53,4.23-.54,7.27,1.81,9.51,4.92,9.58,13.24,13.35,27.74,6.93,43.33-4.39,10.68-12.46,17.81-24.44,19.5-7.51,1.06-15,2-22.54,3.1a31.18,31.18,0,0,0-11.8,4.43c-6.7,4.13-9.24,10.7-10.74,17.85-1.22,5.84-2.56,7.26-7.7,7.32-5.85.06-9.08-2.31-10.06-7.43s.16-9.58,2.15-14.29c5.46-12.93,15.66-19.67,28.7-22.92,3.06-.76,7.24-2.25,9-4.8,4.87-7.2,4.55-14.71,2.93-23.06-4-20.35-9.28-40.23-19.13-58.68-7.45-13.93-17.39-26-27.57-37.9-2.47-2.9-6-5.35-5.58-10,.31-3.34.77-6.82,4.28-8.14,3.22-1.21,6.28,0,8.94,2.32,25.93,22.28,44.06,50,56.39,81.56C439.64,69.05,440.92,79.23,441.47,88.6ZM186,150.49c.47-.24,4.23-.3,6.91-1.42,1.09-.45.41-4.6,1.19-5.29.61-.54,1.65-.05,1.85-.76.88-2.27-2-5.71-4-9.2-4.32-7.7-11.91-11.4-20-13.54-5.68-1.51-9-4.06-11.37-8.68-2.88-5.54-2.27-12.56-1.25-18.48.47-2.71,1-5.41,1.59-8.1,4.4-21.58,11.38-42.14,23.73-60.62,6-8.95,13-17.1,19.8-25.38,3-3.6,2.69-7.26,1-11-1.55-3.41-5.28-4.08-8.14-1.64q-3.81,3.27-7.46,6.73C170.5,11.45,156.26,33.3,146,57.85a102.22,102.22,0,0,0-7.35,32.35c-.6,8.49,2.32,16.29,5.55,23.92,1.2,2.82-.08,3.22-2.2,2.7-4.23-1-6.32-4.58-7.37-8.17-2.92-9.88-3.25-19.79,1.8-29.27a17.77,17.77,0,0,0,1.85-5.88c.7-4.76-1.72-7.12-6.48-6.41A7.4,7.4,0,0,0,127,69.77c-8.88,10.77-12.61,22.91-9.88,36.8,2.59,13.2,12.42,22.67,25.68,24.59,5.46.79,11,1.37,16.41,2.16a30.79,30.79,0,0,1,13.68,5.1c6.05,4.24,9.68,16.74,10.26,16.74C184.35,155.16,184.6,151.19,186,150.49Z" transform="translate(-116.26 24.86)"/></svg>