<svg id="Horns" xmlns="http://www.w3.org/2000/svg" viewBox="0 0 421.2 121.18"><defs><style>.outline_color{fill:#394936;}</style></defs><path class="outline_color" d="M446.21,133.52c-4.79-.34-9.59-.88-14.38-1-8.63-.16-16,3.47-22.72,8.41-5.54,4-10.19,8.9-12.65,15.51-.92,2.46-2.84,4.2-4.75,5.91-2.54,2.27-5.39,3.16-8.69,1.9s-4.77-4-5.28-7.23c-1.31-8.32,4-17.26,12.59-21.61,2.53-1.28,5-2.76,7.5-4.05,12.65-6.45,16.64-18,18.2-30.91.39-3.29-1.51-6-2.78-8.84-1.86-4.22.71-7.88,5.23-7.69a5.8,5.8,0,0,1,4.2,2.42c6.05,7.08,8.3,15.44,7.81,24.57-.27,4.91-.44,4.89,4.47,5.3,8.21.68,16.41,1,24.59-.23A45.47,45.47,0,0,0,482,106.38c9.53-7.86,8.8-13.73,3.52-24-6.1-11.85-15.75-20.62-28.08-26.22a20.28,20.28,0,0,1-4.84-3.31c-2.14-1.89-2.79-4.39-1.26-6.9,1.4-2.29,3.67-2.65,6.21-2,6.43,1.78,12,5.33,17.68,8.6,12.13,7,21.06,17,28.15,28.92,4.31,7.25,3.22,20.27-.87,26.92-5.74,9.33-14,14.88-23.56,19.14C469.08,132,458.25,133.89,446.21,133.52ZM108,109.48c-7-5.15-9-11.36-6.47-19.61,2.69-8.62,8.15-15.33,14.43-21.53,4.87-4.8,10.86-8,16.59-11.53,3.41-2.13,4.24-5.52,2.51-8.11-2-3.06-4.89-2.29-7.63-1.08-14.66,6.47-27.14,15.57-36.05,29.2-11.84,18.09-6.86,38.3,11.82,49.13,12.45,7.23,25.7,9.69,39.87,9,5-.24,10-1.56,15-.33a41.58,41.58,0,0,1,25.14,17.6c.67,1,1.23,1.76,2.56,1,2.58-1.42,5.27-2.73,7.29-4.94,3.9-4.25,3.12-8.74-1.88-11.41-.26-.14-.55-.24-.8-.39-7.85-4.55-15.79-8.94-18.85-18.43-2-6.09-4.61-12-3.4-18.66.38-2.08,1.67-3.75,2.32-5.69.89-2.65.81-5.19-1.9-6.7s-5.11-.79-7,1.69a33.26,33.26,0,0,0-6.28,13.17,48.73,48.73,0,0,0-.58,14.61c.09,1,.29,1.78-1.38,1.71-4.49-.17-9-.06-13.47-.06A45.2,45.2,0,0,1,108,109.48Z" transform="translate(-84.95 -43.68)"/></svg>