<svg id="Mask" xmlns="http://www.w3.org/2000/svg" viewBox="0 0 219.36 125.98"><defs><style>.mask_color{fill:#bc916f;}.mask_lines,.outline_color{fill:#394936;}.mask_lines{fill-opacity:0.55;}</style></defs><path class="mask_color" d="M194.56,220.65l-8.32-1.39c-4.68-.8-6.27-3-5.07-7.65,3-11.67,9.28-21,19.77-27.37,4.07-2.47,4-2.6,1.54-6.53a26.05,26.05,0,0,1-1.26-2.4c-2.44-5-1.12-8.39,4.31-9.46,7.05-1.39,14-3.28,21.19-4.06a64.7,64.7,0,0,0,27.54-9.13,2.85,2.85,0,0,1,3.37,0c.84.55,1.61,1.2,2.4,1.82,3.17,2.48,3.26,2.51,4.63-1.12a2.24,2.24,0,0,1,3-1.65c14.82,3.2,29-.88,43.19-4,2.69-.6,4.15.1,4.54,2.24,1.05,5.89,4.57,7.21,10.05,6.9,4.8-.27,9.65,0,14.44-.74a9.4,9.4,0,0,1,7.51,2,37.39,37.39,0,0,0,18.42,6.77c4.59.51,9.19.95,13.55,2.53,5,1.82,6.29,5.43,3.55,10a21,21,0,0,1-3.32,4.65c-1.93,1.81-1.1,2.54.61,3.76,5.59,3.95,11.27,7.9,14.56,14.18,2.76,5.25,5.34,10.58,5.41,16.73,0,3.23-1.45,5.11-4.62,5.67L386.31,224c.44,1.12,1.47,1.18,2.16,1.7,2.11,1.6,2.89,3.32,1.45,5.94a63,63,0,0,0-8,28.73c-.08,2.91-4,4.26-7.39,2.4-2.45-1.36-4.68-3.1-7.26-4.85-1.76,7.36-8.72,7.1-13.77,8.73a77.92,77.92,0,0,1-33.33,3.67c-7.63-.91-15.23-1-22.59,2-4.72,1.92-9.84,1-14.19-.53-8.87-3.09-17.74-3-26.79-2.25-15.7,1.24-30.44-1.9-43.91-10.11-3.44-2.1-6.27-2.54-9.34.26a6.84,6.84,0,0,1-3.85,1.61c-2.16.24-3.48-.56-3.46-3a70.86,70.86,0,0,0-6.27-30.15c-1-2.31-.22-3.89,1.41-5.31A32.56,32.56,0,0,1,194.56,220.65Z" transform="translate(-180.78 -147.45)"/><path class="mask_lines" d="M201.5,248.11l-.69-3.34c.74.57,1.78-.65,2.51.21C203.15,246.3,202,247,201.5,248.11Zm138.77-80.74c.26-1.76.53-3.51.79-5.27a4.71,4.71,0,0,0-2.73.12c-.83,1.64-.71,3.68-2.18,5C337.42,171,338.89,167.44,340.27,167.37Zm-49.93,93.68a171.15,171.15,0,0,1,.93-22.18,24.39,24.39,0,0,0-.19-8.49c-1.07,1.33-.75,2.46-.78,3.51a39.17,39.17,0,0,1-3.15,13.69c-.34.84-.65,1.86-1.84,1.88h0c2,5.9,4.32,11.69,5.77,17.76C291.66,265.08,290.4,263.13,290.34,261.05Zm-22-75.63c-3.62,5.23-7.52,10.27-8.38,16.92-.29,2.2-.53,6-3,5.66-2.86-.34-2.91-4-3.08-6.76-.56-9,4.19-16.44,7.33-24.36-.64-1.08-.69-1.92-1.75-2.38a8.19,8.19,0,0,0-.7,1.14c-.89,2.24-1.13,3.93-1.93,5.93-1.76,4.38-3.7,8.68-4.77,13.31a21.81,21.81,0,0,0,.4,10.71,3.4,3.4,0,0,0,.44,1.12c1.18,1.74,2.28,3.93,4.67,3.76,2.23-.15,2.72-2.44,3.33-4.21,1-2.85,1.53-5.83,2.35-8.73,1-3.41,3.08-6.05,5.39-8.58.4-.44.85-.88,1.55-.71l.07.09.08-.09A7.07,7.07,0,0,0,268.36,185.42Zm82.86-10.69c.38,2.39,1.55,3.15,3.4,1.78,2.84-2.11,6.32-2.85,9.24-4.72l.15,0v0l-4.37-.26c-1.13.65-2.56.54-3.63,1.33-1.54,1.14-2.31.36-2.86-1.06l-2.71,0a.66.66,0,0,1,0,.14C351.37,172.64,351.07,173.76,351.22,174.73Zm27.2,38.46c-5.9,0-10.64,2.51-15.39,5.37-.85.52-1.64,1.21-2.75,1l-.16-.09c-.48.83-.67,1.59.41,2.05a.59.59,0,0,0,0-.08c4.54-2.94,8.82-6.39,14.5-7,1.51-.16,3-.23,4.51-.28,3.64-.11,7.25-.33,10.4-2.49a2.7,2.7,0,0,1,2.29-.5s0,.05,0,.08l.11-.08-.48-1.55h-.16C387.92,213,383,213.17,378.42,213.19Zm-2.79-18.66a32.7,32.7,0,0,0-7.44,6,11.4,11.4,0,0,0-2.59,4.34c-.84,2.62.18,3.92,2.89,3.62,2.39-.27,4.75-.69,7.12-1.1a101.92,101.92,0,0,1,14.79-1.57l0,0,.13,0a2,2,0,0,0-1.14-1.69c-6.25.63-12.54.9-18.7,2.25-1,.21-2.23.6-2.86-.22-.8-1.06.3-2,.85-2.93a22.66,22.66,0,0,1,4.49-4.79c2.13-1.89,5.08-2.4,7-4.54a3.12,3.12,0,0,0-2.31-1.94,2,2,0,0,1-.14.25C377.77,193.61,376.56,194,375.63,194.53Zm-14-15.25c-1.62.49-3.33.79-3.39,2.83,4.46-2.34,9.79-3.73,11.49-9.4h.15c-.69-.79-1.61-.48-2.46-.51,0,.15-.08.27-.11.41C367.64,175.62,365.57,178.12,361.66,179.28ZM323.9,190c.42,1,.46,2.17,1.51,2.95-1.07-5.18-3.18-11.25-3.77-16.53a2.91,2.91,0,0,0-1.89,1.49c0,.13.65,1,.65,1.12C321.89,182.61,322.42,186.48,323.9,190ZM259.83,167.4c-.23-1.75.55-3.61.73-5.61-.48-1-.76-1.52-1.74-1.53-.23,1.64-1.16,3.83-1.39,5.48A3.62,3.62,0,0,0,259.83,167.4Zm-22.64,9.35c1.26-1.44.78-3.45,2.09-4.6l.14.06v-.06l-3-.62v.17C237.6,173.11,236.41,175,237.19,176.75Zm-38.82,23.31c-.68-1.64-2.77-1.6-3.22-3.1-.84.48-1.18,1.38-1.71,2.12C195.13,198.54,196.44,200.17,198.37,200.06Zm-.72,6a10.46,10.46,0,0,0,3.5.92,16.63,16.63,0,0,0-5.47-3c-1.35-.5-2.93-.69-3.69-2.18a2.54,2.54,0,0,0-1,2.2h0C193.42,204,195.44,205.32,197.65,206Zm67-34.63c-.34-2.9-.88-5.83,1-8.48L263,163c-2.1,1.7-1.44,4-1.3,6.14Zm51-3.94c1.09,2.45.41,4.75-1,6.84l-.11.38a8.36,8.36,0,0,0,3.46-3c.16-2.64,0-5.18-1.77-7.39a3.39,3.39,0,0,1-.54-2.86l-2.4-.25c0,.11,0,.22,0,.33C314.1,163.45,314.76,165.5,315.64,167.46Zm-8.31,4.26c-.47-2.13-.58-4.33-2-6.05-.64.1-.92.44-.92.83,0,7.18-3.72,13.7-3.71,20.89a22.63,22.63,0,0,1-.84,6.59c0,.16,0,.33,0,.5l3.56-6.09a49.28,49.28,0,0,1,1.49-10.06c.46,2.19-.41,4.19.92,5.83,1.42-.76,1.95-2.32,3.05-3.38v-.13l-.15.14C307.2,177.93,308,174.72,307.33,171.72Zm-25.77-.91c-.33,4-.36,8-.8,12-.3,2.67.7,5.2,1.91,7.52,3.51,6.7,4.06,13.77,3.07,21.11-.19,1.42-.92,3.59.7,4,1.42.38,1.76-1.88,2.17-3.13a54.29,54.29,0,0,0,2.87-16.25c.1-11.26,0-22.52,0-33.78,0-1.55-.34-3.23,1-4.52l-2.31.43c-1.12,1.26-.93,2.81-.93,4.3,0,9.65-.07,19.29,0,28.94,0,2.54-.56,5-.55,7.24-.36-3-1.9-6-3.15-9.06a22.45,22.45,0,0,1-1.46-11.5c.72-5.8.26-11.64.26-17.46a3.08,3.08,0,0,0-.74-2.24,3.16,3.16,0,0,0-2.32.16c0,.16,0,.31,0,.47C282.47,163,281.88,166.91,281.56,170.81Z" transform="translate(-180.78 -147.45)"/><path class="outline_color" d="M394.74,200c-3.29-6.28-9-10.23-14.56-14.18-1.71-1.22-2.54-1.95-.61-3.76a21,21,0,0,0,3.32-4.65c2.74-4.58,1.48-8.19-3.55-10-4.36-1.58-9-2-13.55-2.53a37.39,37.39,0,0,1-18.42-6.77,9.4,9.4,0,0,0-7.51-2c-4.79.7-9.64.47-14.44.74-5.48.31-9-1-10.05-6.9-.39-2.14-1.85-2.84-4.54-2.24-14.2,3.16-28.37,7.24-43.19,4a2.24,2.24,0,0,0-3,1.65c-1.37,3.63-1.46,3.6-4.63,1.12-.79-.62-1.56-1.27-2.4-1.82a2.85,2.85,0,0,0-3.37,0,64.7,64.7,0,0,1-27.54,9.13c-7.22.78-14.14,2.67-21.19,4.06-5.43,1.07-6.75,4.5-4.31,9.46a26.05,26.05,0,0,0,1.26,2.4c2.44,3.93,2.53,4.06-1.54,6.53-10.49,6.35-16.76,15.7-19.77,27.37-1.2,4.67.39,6.85,5.07,7.65l8.32,1.39a32.56,32.56,0,0,0-3.41,2.22c-1.63,1.42-2.45,3-1.41,5.31A70.86,70.86,0,0,1,196,258.33c0,2.44,1.3,3.24,3.46,3a6.84,6.84,0,0,0,3.85-1.61c3.07-2.8,5.9-2.36,9.34-.26,13.47,8.21,28.21,11.35,43.91,10.11,9.05-.71,17.92-.84,26.79,2.25,4.35,1.52,9.47,2.45,14.19.53,7.36-3,15-2.9,22.59-2a77.92,77.92,0,0,0,33.33-3.67c5-1.63,12-1.37,13.77-8.73,2.58,1.75,4.81,3.49,7.26,4.85,3.35,1.86,7.31.51,7.39-2.4a63,63,0,0,1,8-28.73c1.44-2.62.66-4.34-1.45-5.94-.69-.52-1.72-.58-2.16-1.7l9.22-1.68c3.17-.57,4.65-2.44,4.62-5.67C400.08,210.54,397.5,205.21,394.74,200Zm-56.41-37.74a4.71,4.71,0,0,1,2.73-.12c2.62-.18,3.85,2.05,6.53,3.47l-7.32,1.8h0c-1.38.07-2.85,3.58-4.12-.12h0a7,7,0,0,0-3.28-4.67Zm-54.2,104.66c-8.18-3.77-16.72-3.52-25.4-2.66A68.82,68.82,0,0,1,239,263a76.94,76.94,0,0,1-29.69-12.65c-2.3-1.58-4.09-1.46-5.15,1.44-.27.75-.63,1.7-1.57,1.56s-.52-1.14-.62-1.77c-.18-1.08-.27-2.17-.4-3.26h0c-.26-1.25-.52-2.51-.77-3.76a94.5,94.5,0,0,0-4.44-16.2c-.6-1.56-.48-2.35,1.22-2.86a24.42,24.42,0,0,0,4.14-1.79,4.45,4.45,0,0,0,2.6-4.69c-.26-2-1.82-2.54-3.69-2.84-3.55-.58-7-1.52-10.6-2.14-1.8-.31-2.54-1.16-2-2.84.82-2.47.74-5.32,3-7.21h0a2.51,2.51,0,0,1,1.11-2.28,4.67,4.67,0,0,1,1.31-2.57h0c.58-.79.9-1.79,1.87-2.26,3.3-4.49,8.13-7.13,12.63-10.11,1.78-1.18,3.41.32,4.55,1.87,3.32,4.54,6.6,9.12,10,13.63.51.69.78,2.37,2.05,1.58,1.09-.68.53-2-.06-3q-5.35-8.75-10.77-17.45c-2-3.16-4-6.28-6.06-9.38-.72-1.08-.93-1.64.7-2,9.34-1.91,18.7-2.65,28.11-.53l3,.62c5.89,2.3,6,2.32,4.37,8.58-1.3,5.15-2.8,10.24-4.22,15.35-.19.68-.43,1.35-.55,2a2.62,2.62,0,0,0,1.75,3.13c1.49.51,1.85-1,2.19-1.92,1.86-5.07,3.71-10.16,5.34-15.31,1.48-4.66,2.66-9.42,4.05-14.41,2.41,1.55,6.42,4.93,6.42,4.94.79.83,1.79,1.25,2.43,2.33,2.72,2.57,5.5,5.08,7.15,8.54h0a7.07,7.07,0,0,1,2,2.82h0a30.16,30.16,0,0,1,5.93,16.47c.39,9.83.22,19.66,1.12,29.48.64,6.94,1.46,13.7,4.59,20.09,2.05,4.2,3.51,8.7,5.24,13.09C286.13,267.94,285.06,267.31,284.13,266.88ZM388.24,218.1c-3.17.52-6.33,1.1-9.49,1.61-1.42.23-2.57.81-2.8,2.3s-.1,3.05,1.31,4.09c.4.29.86.52,1.29.77,5.45,3.07,5.43,3.07,3.05,9a75.74,75.74,0,0,0-5,17.3c-.37,2.56-1.33,2.76-3.26,1.25a61.24,61.24,0,0,0-6.63-4.71c-3.32-1.94-6.15-.72-6.12,3.06,0,4.71-2.52,6.4-6.34,7.76A89.36,89.36,0,0,1,312.38,265c-5.76-.71-11.15.73-16.5,2.6-1.52.53-3.17,1.57-4.73,0h0c-1.45-6.19-3.81-12.07-5.85-18.07-2.65-5.68-1.79-11.83-2.25-17.77-.71-9.31-.37-18.69-.94-28s-5.17-17.37-10.76-24.78a72.16,72.16,0,0,0-6.54-7.4l-2.88-2.43s-1.45-1.22-2.1-1.7c-.87-.65-1.65-1-2.4-1.66-.93-.77-1.58-1.19-2.34-1.78-3.24-2.52-6.2-2-7.64,1.87-.89,2.34-1.74,2.9-4,1.66a29.85,29.85,0,0,0-5-1.72c1.59-1.3,3.53-1.34,5.23-1.94,3.88-1.37,7.87-2.43,11.53-4.33a2.59,2.59,0,0,1,3.34.56,20.17,20.17,0,0,1,2,1.73L263,163c.77.4,2.52.31,2.84-.29,2.54-5.29,7.07-5,11.87-4.43,1.19.15,2.39.2,3.58.3h0a3.16,3.16,0,0,1,2.32-.16h0l6.54-.22,2.49-.46c5.59-1.39,11.4-1.77,16.9-3.61,1.09-.37,1.65-.08,1.95,1.05.52,2,1.14,4,1.72,5.95h0l2.4.25a76.15,76.15,0,0,0,14.24,1L318,171.66c-1.09.85-3.65,3.39-3.66,3.39-1.7,1.76-5.41,5.74-5.41,5.74a33.69,33.69,0,0,0-2.83,3.45c-.92,1.45-1.82,2.74-2.63,4.15l-3.56,6.09c-4.45,9.16-3.94,18.86-3.21,28.62.33,4.4.14,8.84.18,13.26,0,.4,0,.8,0,1.2,0,1.94,0,4.41,2.39,4.4,2,0,2.4-2.29,2.39-4.23,0-7.53.07-15.06,0-22.59-.17-14.91,7-26.2,17.48-35.92.33-.31.53-.52,1.06-1,.18-.15,1-.87,1.64-1.31s4.91-3.93,7.39-6c.87-.74,1.15-.07,1.46.66a28,28,0,0,1,2.39,6.78c1.12,7.56,3.38,14.83,5.72,22.08.33,1,.21,3,1.77,2.67s1.41-2.14,1.09-3.56c-1.62-7.23-3.34-14.44-4-21.87-.15-1.8.33-2.52,1.79-3.19a35.81,35.81,0,0,1,11.05-2.71h0l2.71,0h0c2.14-.58,4.32-.27,6.49-.27l4.37.26,3.44.41h0c.85,0,1.77-.28,2.46.51,2.45.06,5.51.16,6.75,1.79.9,1.18-1.94,3.27-3.1,5-5.45,8-11,15.88-16.46,23.82-.59.87-1.6,1.66-.55,3.13,3.13-2.46,5.16-5.85,7.78-8.68,1.84-2,3.6-4.06,5.49-6,3.33-3.43,4.68-3.36,8.06.25h0a3.12,3.12,0,0,1,2.31,1.94,20.92,20.92,0,0,1,9.22,10.23h0a2,2,0,0,1,1.14,1.69h0c.47,1.26.93,2.52,1.39,3.78h0l.48,1.54a1.74,1.74,0,0,1,.15.26C394.09,217.05,394,217.18,388.24,218.1Zm-28,1.11c0,.86-.2,1.77.59,2.44.09,4.63.09,9.19-1.59,13.66-2.3,6.09-6.91,9.1-12.94,9.83s-10.59-2.51-13-7.84c-3.67-8.09-4.25-16.53-.51-24.8,3.19-7.05,11.59-9.42,18.38-5.59C356.08,209.67,358.62,214.1,360.28,219.21Zm-108.83,6a26.32,26.32,0,0,1-1.82,10.7c-2.21,5.86-6.44,8.58-13.69,8.7-6.33.11-10.84-2.62-13-8.28-3-8-2.79-15.72,2-23,4-6.1,9.91-8.51,16.24-6.94s9.16,6.69,10.21,14.14A39.8,39.8,0,0,1,251.45,225.24Z" transform="translate(-180.78 -147.45)"/></svg>