<svg xmlns="http://www.w3.org/2000/svg" xmlns:xlink="http://www.w3.org/1999/xlink" viewBox="0 0 395.08 720.43"><defs><style>.cls-1{isolation:isolate;}.body_gradient{fill:url(#body_gradient_data);}.body_belly_behind{fill:#648f6c;}.body_belly_front{fill:#b1ad9e;mix-blend-mode:overlay;}.outline_color{fill:#394936;}</style><radialGradient id="body_gradient_data" cx="275.73" cy="123.82" r="442.73" gradientUnits="userSpaceOnUse"><stop offset="0.6" stop-color="#72a260"/><stop offset="1" stop-color="#648f6c"/></radialGradient></defs><g class="cls-1"><g id="Body"><path class="body_gradient" d="M503.22,585.59c-.93-18.21-5.8-35.05-13.53-51.23-8.87-18.57-19.31-36.2-32.59-52a4.33,4.33,0,0,1-1-3.51,18.77,18.77,0,0,0-1.4-9.13,46.55,46.55,0,0,0-22.59-25.28c-2.22-1.16-5.31-2.16-5.15-5.62.2-4.37.42-8.75,1-13.08,1.64-12.83,3.42-25.64,6.26-38.28,2.2-9.78,3.23-19.75,4.46-29.69s2.92-19.59,4.77-29.33c1.49-7.76,1.3-15.7,1.49-23.59,0-1.11-.29-2.28,1.25-2.9,6.31-2.58,8.91-8.05,9.91-14.17,2.17-13.23,0-26.17-3.61-38.91-3.38-11.89-9.82-22.38-15.45-33.24-.63-1.21-1.53-2.4-.61-3.79,4-5.91,3.28-12.13,1.39-18.48-2.72-9.13-8.91-16.11-14.53-23.42-3.37-4.39-7.85-8.1-10.48-12.86-6-10.93-14.27-20.07-23.21-28.28a101.7,101.7,0,0,0-31.95-19.59,169,169,0,0,0-17-5.39c-14.91-4.09-29.86-7.22-51.11-7.2-17.44-.37-38.9,6.24-59.57,16.09a79.48,79.48,0,0,0-12.5,6.81c-4.64,3.34-9.88,6.41-11.93,12.05-1.67,4.61-4.8,5.73-9,6-3.82.25-6,2.36-6.17,6.05-.11,2.64-1.05,3.56-3.71,3.37-3.09-.22-5.37,1.12-5.53,4.57-.32,7.25-3,13.44-7.46,19.16-7.83,10-15.91,20-21.38,31.6-2.9,6.17-5.85,12.45-5,19.5s2.47,13.6,10.47,15.91c1.45.42,1.18,1.34.82,2.26-1.91,5-3.53,10.06-5.4,15-3,7.94-6,15.85-7.45,24.21-2.52,14.82-.22,28.52,10.57,39.87a5.15,5.15,0,0,1,1.24,3.45c.57,6,.76,12.08,1.79,18,2.08,11.93,6.67,23.17,10.56,34.57,3.81,11.16,7.25,22.43,10.18,33.82,2.74,10.67,2.76,21.77,3,32.8.09,4.11-1.64,5.73-5.28,6.92-6.56,2.16-12.76,5.25-17.44,10.5s-6.1,9.53-2.44,14.28c1,1.24.21,2.15-.76,3-2.39,2-4.81,4-7.14,6-13.88,12.31-23.3,27.81-31.21,44.32-11.31,23.6-13.22,48.15-6.55,73.32,4.4,16.64,11.53,32.2,19.76,47.3,3.35,6.16,6.34,12.47,11,17.8a3.45,3.45,0,0,1,.86,2.08c-.18,4.31.87,8.5,1.06,12.76,1,22.85,4.46,45.39,8.41,67.88,3.18,18.15,9.59,35.24,17,52,1.51,3.43,2.76,7.54,6.18,9.34,12.82,6.78,26,9.22,39.7,2.08,13.18-6.89,24.18-16.48,34.12-27.36,7.12-7.8,12.74-16.88,21.06-23.68,9.85-8.06,16.92-9.64,27.12-3.65,16.36,9.59,31.59,20.8,47,31.81,11.55,8.27,24.24,14.71,37.18,20.46a101.75,101.75,0,0,0,30.59,7.91c8.21.9,14.43-.95,19.41-7.49a24.79,24.79,0,0,0,4.6-8.68c1.25-4.69,2.17-9.43,3-14.22a417.84,417.84,0,0,0,6-62.53c.27-11.08.15-22.16-1.56-33.17-.75-4.83-.48-4.81,4.12-3.09,3.22,1.21,6.43,2.52,10.14,1.41,11.24-3.38,19.53-9.7,25-20.54,6.78-13.34,12.81-27,15.87-41.5A160.69,160.69,0,0,0,503.22,585.59Z" transform="translate(-108.33 -96.58)"/><path class="body_belly_behind " d="M384.57,582.74c-4.13-20.27-10.35-39.88-20.32-58.14a106.62,106.62,0,0,0-22.91-28.88,126.79,126.79,0,0,0-27.16-18.47c-11.32-5.69-23.33-8.65-36.1-6.51-16.82,2.83-32.27,8.82-44.95,20.62-24,22.36-40.34,49.31-48.53,81.25a121.22,121.22,0,0,0-3.1,44.17,49.66,49.66,0,0,0,2.61,11c3.5,10,9.53,18.33,15.66,26.81a126,126,0,0,0,41.4,36.59c14.51,8.09,30.38,11.49,46.85,12.84,15.07,1.23,29.31-1.22,42.45-8.65,12.55-7.09,22-17.7,31.23-28.59,5.52-6.55,9-14.21,13-21.69,7.32-13.75,11.81-28.08,11.34-45.33C386.64,595,385.8,588.79,384.57,582.74Z" transform="translate(-108.33 -96.58)"/><path class="body_belly_front" d="M384.57,582.74c-4.13-20.27-10.35-39.88-20.32-58.14a106.62,106.62,0,0,0-22.91-28.88,126.79,126.79,0,0,0-27.16-18.47c-11.32-5.69-23.33-8.65-36.1-6.51-16.82,2.83-32.27,8.82-44.95,20.62-24,22.36-40.34,49.31-48.53,81.25a121.22,121.22,0,0,0-3.1,44.17,49.66,49.66,0,0,0,2.61,11c3.5,10,9.53,18.33,15.66,26.81a126,126,0,0,0,41.4,36.59c14.51,8.09,30.38,11.49,46.85,12.84,15.07,1.23,29.31-1.22,42.45-8.65,12.55-7.09,22-17.7,31.23-28.59,5.52-6.55,9-14.21,13-21.69,7.32-13.75,11.81-28.08,11.34-45.33C386.64,595,385.8,588.79,384.57,582.74Z" transform="translate(-108.33 -96.58)"/><path class="outline_color" d="M503.22,585.59c-.93-18.21-5.8-35.05-13.53-51.23-8.87-18.57-19.31-36.2-32.59-52a4.33,4.33,0,0,1-1-3.51,18.77,18.77,0,0,0-1.4-9.13,46.55,46.55,0,0,0-22.59-25.28c-2.22-1.16-5.31-2.16-5.15-5.62.2-4.37.42-8.75,1-13.08,1.64-12.83,3.42-25.64,6.26-38.28,2.2-9.78,3.23-19.75,4.46-29.69s2.92-19.59,4.77-29.33c1.49-7.76,1.3-15.7,1.49-23.59,0-1.11-.29-2.28,1.25-2.9,6.31-2.58,8.91-8.05,9.91-14.17,2.17-13.23,0-26.17-3.61-38.91-3.38-11.89-9.82-22.38-15.45-33.24-.63-1.21-1.53-2.4-.61-3.79,4-5.91,3.28-12.13,1.39-18.48-2.72-9.13-8.91-16.11-14.53-23.42-3.37-4.39-7.85-8.1-10.48-12.86-6-10.93-14.27-20.07-23.21-28.28a101.7,101.7,0,0,0-31.95-19.59,169,169,0,0,0-17-5.39c-14.91-4.09-29.86-7.22-51.11-7.2-17.44-.37-38.9,6.24-59.57,16.09a79.48,79.48,0,0,0-12.5,6.81c-4.64,3.34-9.88,6.41-11.93,12.05-1.67,4.61-4.8,5.73-9,6-3.82.25-6,2.36-6.17,6.05-.11,2.64-1.05,3.56-3.71,3.37-3.09-.22-5.37,1.12-5.53,4.57-.32,7.25-3,13.44-7.46,19.16-7.83,10-15.91,20-21.38,31.6-2.9,6.17-5.85,12.45-5,19.5s2.47,13.6,10.47,15.91c1.45.42,1.18,1.34.82,2.26-1.91,5-3.53,10.06-5.4,15-3,7.94-6,15.85-7.45,24.21-2.52,14.82-.22,28.52,10.57,39.87a5.15,5.15,0,0,1,1.24,3.45c.57,6,.76,12.08,1.79,18,2.08,11.93,6.67,23.17,10.56,34.57,3.81,11.16,7.25,22.43,10.18,33.82,2.74,10.67,2.76,21.77,3,32.8.09,4.11-1.64,5.73-5.28,6.92-6.56,2.16-12.76,5.25-17.44,10.5s-6.1,9.53-2.44,14.28c1,1.24.21,2.15-.76,3-2.39,2-4.81,4-7.14,6-13.88,12.31-23.3,27.81-31.21,44.32-11.31,23.6-13.22,48.15-6.55,73.32,4.4,16.64,11.53,32.2,19.76,47.3,3.35,6.16,6.34,12.47,11,17.8a3.45,3.45,0,0,1,.86,2.08c-.18,4.31.87,8.5,1.06,12.76,1,22.85,4.46,45.39,8.41,67.88,3.18,18.15,9.59,35.24,17,52,1.51,3.43,2.76,7.54,6.18,9.34,12.82,6.78,26,9.22,39.7,2.08,13.18-6.89,24.18-16.48,34.12-27.36,7.12-7.8,12.74-16.88,21.06-23.68,9.85-8.06,16.92-9.64,27.12-3.65,16.36,9.59,31.59,20.8,47,31.81,11.55,8.27,24.24,14.71,37.18,20.46a101.75,101.75,0,0,0,30.59,7.91c8.21.9,14.43-.95,19.41-7.49a24.79,24.79,0,0,0,4.6-8.68c1.25-4.69,2.17-9.43,3-14.22a417.84,417.84,0,0,0,6-62.53c.27-11.08.15-22.16-1.56-33.17-.75-4.83-.48-4.81,4.12-3.09,3.22,1.21,6.43,2.52,10.14,1.41,11.24-3.38,19.53-9.7,25-20.54,6.78-13.34,12.81-27,15.87-41.5A160.69,160.69,0,0,0,503.22,585.59Zm-13.9,51.11c-3.44,12.43-7.76,24.74-15.76,35.14-3.92,5.11-8.89,9.3-15.65,10.48-7.43,1.29-12.48-2.63-16.69-8-7.45-9.45-11.7-20.48-15.35-31.81a182,182,0,0,1-8-36.94c-.65-6.16-1.46-12.59,1.12-18.74a10.26,10.26,0,0,0,.17-5.18,4.15,4.15,0,0,0-3.34-3.32c-1.76-.47-2.72.88-3.56,2-1.89,2.54-2.06,5.63-2.16,8.62-.86,26,6.31,50.35,15.94,74.11a34,34,0,0,0,6.22,9.82c3.68,4.08,4.27,8.83,4.68,13.86,1.28,15.64,1,31.32.39,46.94-.67,16.35-1.35,32.76-5.32,48.82-1.29,5.25-1.9,10.69-3.68,15.84-1.54,4.46-4.7,6.93-9.28,7.87-12.41,2.56-23.92-.87-35.1-5.57a232.15,232.15,0,0,1-51.12-30c-12.91-9.87-27.12-17.85-41.47-25.43a57.35,57.35,0,0,0-25.24-6.36c-2.49-.07-4.07,1-4.4,3.25s1.59,3.16,3.47,3.55c2.85.59,5.73,1,8.59,1.47.72.13,1.67-.14,1.8,1,.1.85-.5,1.08-1.13,1.44-10,5.69-17.54,13.94-24.67,22.79-10.81,13.41-23.38,24.7-39.8,31a31.78,31.78,0,0,1-15.71,2.1c-9.11-1.22-14.88-6.59-19.22-14.74-8.15-15.33-12.3-31.77-15.07-48.67-2.32-14.16-4.75-28.34-6.19-42.6-1.82-18.15-3-36.35-1.08-54.66,1.9-17.75,3.33-35.56,6.05-53.22.46-3,1.21-5.88,1.88-8.81,3.06-13.46,8.12-26.34,11.74-39.62,2.59-9.51,4.77-19.19,5.28-29.12.14-2.63-1.12-4.44-3.68-4.75-3-.37-4.05,2-4.52,4.35-1,5.15-1.91,10.32-2.76,15.49-2,12.2-5.36,24.07-8.9,35.88a360.37,360.37,0,0,0-11.87,56.21c-1.05,7.88-1.65,15.77-2.4,23.66-.1,1.12-.27,2.49-1.67,2.79s-1.94-1-2.55-2c-10.83-17-19.06-35.16-22.33-55-4.2-25.47.06-49.68,13.43-72.12,7-11.68,14.66-22.76,24.36-32.28,4.71-4.62,10.15-8.5,13.85-14.11.4-.61,1.4-1,.9-1.93s-1.36-.23-2.09-.23c-1.48,0-3.36.92-4.3-.72-1-1.82.35-3.36,1.46-4.68a27.94,27.94,0,0,1,15.67-9.51c4.12-.9,6.56-3.61,8.53-6.78,3.55-5.73,3-12.15,2.34-18.47-2.57-25.6-11.51-49.5-19.82-73.54-3.92-11.32-6.47-23-6.26-34.78.1-5.69-2.94-7.89-5.67-11-6.59-7.61-7.44-16.79-6.72-26.1.79-10.26,4.28-19.86,8.43-29.29,2.43-5.54,3.6-11.6,5.81-17.3.67-1.71.21-4.07-.31-6-.6-2.17-2.5-3-4.66-2.25-3.07,1.07-4.47-.35-5.47-3-1.89-5.11-1.44-10.11.36-15.1,4.09-11.31,10.88-21,17.86-30.66,4.61-6.37,9.73-12.49,12.95-19.7,1.83-4.11,2.42-8.6,7.83-9.92,1.4-.34,2.33-2.51,2.49-4.1.29-2.76,2-3.24,4.2-3.67,5.22-1,9-3.24,10.74-9.09,1.59-5.36,6.77-8.68,11.4-11.22A135.71,135.71,0,0,1,260.61,109a144.14,144.14,0,0,1,47.46-2.13c16.19,1.89,32.08,4.52,47.26,10.66,12,4.85,23.17,11,32.53,20.15,1.53,1.5,8.76,9.69,9.9,11.62,3.06,5.18,7.55,11.18,11.87,17.16,5.79,8,12.81,15.16,17.56,24,2.25,4.14,3.61,8.54,2.89,13.42-.21,1.42-.49,2.16-2.06,2a3.76,3.76,0,0,0-4.3,2.73,3.66,3.66,0,0,0,2.12,4.39c2.19,1.1,2.27,3.25,3.17,5,4,7.7,8.34,15.23,11.74,23.17,6.05,14.15,8.8,29,6.67,44.43-1.06,7.72-3.74,9.43-11.31,8.14-1-.17-2-.09-2.9-.3-2.14-.48-3.38.74-4.19,2.35a2.62,2.62,0,0,0,1.34,3.73c7,2,4.85,7.65,4.62,12.1-.56,10.76-1.16,21.54-2.73,32.21s-3.29,21.09-4.91,31.64c-1.87,12.09-3.24,24.27-5.68,36.24-2,9.53-2.33,19.06-2.34,28.68,0,5.66,2.42,8.11,7.83,9.94,7.19,2.45,12.55,7.61,17.18,13.53a25.71,25.71,0,0,1,4.47,8.78c1.34,4.63-.82,7-5.37,5.85-1.81-.45-3.64-1.12-4.78,1.17s.53,3.66,2,4.91c2.47,2.17,5.53,2.18,8.58,1.88,1.53-.16,2.82,0,3.89,1.31a252.3,252.3,0,0,1,36.09,62.42c2.8,6.94,2.74,14.47,3.78,21.75s1.76,14.87,1.31,21C494.59,608.64,493.14,622.9,489.32,636.7Zm-104.75-54c-4.13-20.27-10.35-39.88-20.32-58.14a106.62,106.62,0,0,0-22.91-28.88,126.79,126.79,0,0,0-27.16-18.47c-11.32-5.69-23.33-8.65-36.1-6.51-16.82,2.83-32.27,8.82-44.95,20.62-24,22.36-40.34,49.31-48.53,81.25a121.22,121.22,0,0,0-3.1,44.17,49.66,49.66,0,0,0,2.61,11c3.5,10,9.53,18.33,15.66,26.81a126,126,0,0,0,41.4,36.59c14.51,8.09,30.38,11.49,46.85,12.84,15.07,1.23,29.31-1.22,42.45-8.65,12.55-7.09,22-17.7,31.23-28.59,5.52-6.55,9-14.21,13-21.69,7.32-13.75,11.81-28.08,11.34-45.33C386.64,595,385.8,588.79,384.57,582.74Zm-6.21,38.66c-1.15,8.09-5.75,14.79-8.92,22.07A107.16,107.16,0,0,1,344,679.37c-15.23,14.25-33.19,20.55-53.86,19.15-13.6-.92-27-2.82-39.77-8.15-17.09-7.14-31-18.24-43-32.17A93.76,93.76,0,0,1,189,624.75c-1.83-5.75-1.5-11.89-1.7-17.91-1.24-37.55,12.27-69.68,35.76-98.23,7.54-9.16,15.56-17.82,26.25-23.24,23-11.7,46-13.32,69.57-.42,17.86,9.78,31.73,23.26,41,41a181.92,181.92,0,0,1,19,58.81,88,88,0,0,1,.75,17.38A102.26,102.26,0,0,1,378.36,621.4Z" transform="translate(-108.33 -96.58)"/></g></g></svg>