<svg id="Mask" xmlns="http://www.w3.org/2000/svg" viewBox="0 0 199.95 137.22"><defs><style>.mask_color{fill:#bc916f;}.mask_lines,.outline_color{fill:#394936;}.mask_lines{fill-opacity:0.55;}</style></defs><path class="mask_color" d="M386.68,198c-5.1-8.37-10-16.74-11.45-26.68-.59-4-2.41-5-6.53-5a97.39,97.39,0,0,1-13-1.28c-6.53-.86-12.07-2.94-15.68-8.87-1.09-1.79-3-2.19-5.14-1.5a25,25,0,0,1-10.08.86c-7.26-.69-7.4-.79-8.48-7.84,0-.19,0-.39-.06-.58-.2-1.25-.7-1.72-2.16-1.44-3.61.68-7.27,1.11-10.91,1.63-10.86,1.56-21.88,3.33-32.66,1.16-5.31-1.06-7.48.83-10,4.3-.62.86-1.17,2.29-2.61,1.94-1.23-.31-1.11-1.71-1.44-2.65-1.1-3.1-1.89-3.43-4.81-2-6.42,3.11-12.29,7.4-19.44,9-4.81,1.06-9.56,2.41-14.37,3.47a3.26,3.26,0,0,0-2.75,2.53,39.15,39.15,0,0,1-3.94,8.07c-6.68,11.31-13.67,22.44-16.42,35.63-2.55,12.23-2.84,24,2.38,35.8,3,6.71,6.73,13,9.49,19.83.61,1.5,1.93,1.72,3.58,1.8,5.16.24,10.34,1.05,14.38,4.52,2.55,2.18,4.38,2.24,6.88.1s3.83-2,5.89.78a12.85,12.85,0,0,0,5,4.32,57.42,57.42,0,0,0,12.73,3.94c13.09,2.63,26.42,2.43,39.67,3,1.74,0,3.49.09,5.23,0,16.16-.91,32-3.11,46.85-10.19,2.15-1,4.31-2.47,6.55-2.87,2.71-.48,4.07-2.05,5.3-4a25.63,25.63,0,0,0,3.9-9.93c.11-.74-.24-1.89.9-2.21s1.79.42,2.52,1.1a20.74,20.74,0,0,1,3.71,4.42c2.2,3.61,5.55,3.9,8.36.83a15.07,15.07,0,0,0,1.76-2.3c5.78-9.52,11-19,12.62-30.52C394,216.35,392.13,207,386.68,198Z" transform="translate(-193.05 -145.63)"/><path class="mask_lines" d="M250.3,166.43a111.14,111.14,0,0,0-8,12.44c-2.45,4.62-2.35,9,.57,13.41a37.19,37.19,0,0,0,5.8,6.46,2.9,2.9,0,0,0,3.15,1c1.33-.51,1.38-1.73,1.44-2.91a130.07,130.07,0,0,1,2.53-21c1.31-6.07,2.87-12.05,6.44-17.28-1,.71-2.09,1.35-3,2.16-1.87,1.63-3.82,2.62-6.28,1.28C252.57,163.76,251.3,165,250.3,166.43Zm.18,30.34a22.58,22.58,0,0,1-6.74-8.41,6.35,6.35,0,0,1-.3-5.05c2.36-7.3,7.32-12.91,12-18.82C253,175,250.83,185.52,250.48,196.77Zm61-38.86c1,.69,1,2.4,2.56,2.46-1,.84-1,2.07-1.15,3.2-1.43,10.15-3.2,20.24-4.77,30.37-1.68,10.81-2.57,21.71,1.5,32.37a78.53,78.53,0,0,1,5.35,24c.06,1.21.26,2.8,1.72,3.05s1.88-1.36,2.45-2.43a16.07,16.07,0,0,0,.71-1.9c2.15-5.9,2.17-12.17,3-18.28,1.29-9.69.69-19.5,1.16-29.25.57-12,1.64-23.91,4.28-35.65.3-1.32.65-2.66-.34-3.88l4,0c-1.57,2.09-1.81,4.66-2.47,7.07-3.69,13.6-3.53,27.61-4,41.51-.3,8.13.05,16.27-1.26,24.34-.89,5.52-.57,11.26-3,16.5a9.75,9.75,0,0,1-3,4.18c-1.73,1.22-3.12.86-4-1.07a13.65,13.65,0,0,1-1.09-4.8,79.77,79.77,0,0,0-5-22.59,51,51,0,0,1-2.49-9.85c-1.32-8.53-.36-17,1.14-25.4,2-11.24,3.82-22.5,4.83-33.88ZM231.4,164l3.39-.86h0c-.08,1.94-1,3.83-.09,6.74.43-3.08,2.51-4.81,1.79-7.42l3.92-1.21a20,20,0,0,0-2.3,5c-2.75,10.6-7,20.84-8,31.88-.35,4-.75,8.07.36,12.07l.23.13a2.8,2.8,0,0,1-3,2.37,5.84,5.84,0,0,0,.2-.59,24.4,24.4,0,0,0,.16-4.91,59.24,59.24,0,0,1,1.68-16.36c1.86-7.56,1.63-15.32,2.38-23A4.83,4.83,0,0,0,231.4,164Zm114,5.26a86.66,86.66,0,0,0,1.18,14.47,49.13,49.13,0,0,0,1.78-13.65l3.49.71c-.88.81-.83,1.9-.91,3a97.31,97.31,0,0,1-5.91,27c-1.1,2.93-2.08,6-1.26,9.31a3.13,3.13,0,0,0,.22.36,2.84,2.84,0,0,1-3.66-.08,1.83,1.83,0,0,0,.3-.32,4.2,4.2,0,0,0,.66-1.59c1.33-8.75,3.41-17.46,2.54-26.39-.46-4.77-.32-9.64-1.8-14.29l3.37,1.53Zm19.16,3.83h3.57a3.91,3.91,0,0,0-.85,3.26c.48,9.94-1.19,19.65-3.13,29.33a49.25,49.25,0,0,0-.95,12.11A11.61,11.61,0,0,0,366,225c2,2.38,4.62,2.06,6.1-.67.55-1,1-2.11,1.43-3.17,1.93-4.51,4.91-7.85,9.91-9a2.28,2.28,0,0,0,1.22-.73c.32,1.16.63,2.32.95,3.48h0c-1.17-.94-2.38-.58-3.57-.09a11.52,11.52,0,0,0-5.33,4.74c-1.2,1.9-1.82,4.06-2.89,6-1.88,3.43-5.24,4.05-8.2,1.46a11.57,11.57,0,0,1-4.11-8.38,56.46,56.46,0,0,1,1-14.42c1.92-9.08,3.4-18.26,3-27.61C365.4,175.38,365.6,174.07,364.6,173.06Zm-4.55,72.49h0l-2.51,1.29h0a22.19,22.19,0,0,0-4-4.11c-.28-1.32.15-2.14,1.57-2.27A19.88,19.88,0,0,0,360.05,245.55Zm-65.91,31.56-4.71-.22a3,3,0,0,0,1.46-2.68c.3-5.6,1.06-11.19,1.16-16.78.17-10.16,0-20.32,1.25-30.44.8-6.5.38-13.15,2.55-19.5a34.33,34.33,0,0,0,1.37-7.71c.1-1,.28-2.52-.89-2.79s-1.52,1.21-1.81,2.17a63,63,0,0,0-1.73,7.05,57.94,57.94,0,0,1-12.25,26.95,24.21,24.21,0,0,0-5.27,13c-1,8.69-.38,17.4-.5,26.11A5.82,5.82,0,0,0,276,276l-3.84,0c.92-1.28.7-2.77.74-4.21.21-8.42-.39-16.84.54-25.25.6-5.32,1.86-10.2,5.44-14.41a56.69,56.69,0,0,0,7.46-11.74c3-6.18,4.32-12.83,5.95-19.4a20,20,0,0,1,3.27-7.7c.66-.85,1.46-1.72,2.68-1.28s1.37,1.53,1.41,2.64a7.73,7.73,0,0,1-.15,1.73c-1.55,8.18-2.94,16.38-3.68,24.69-.76,8.58-2,17.1-1.94,25.75.05,7.54.39,15.09-.43,22.64C293.19,272,292.71,274.66,294.14,277.11Zm-34.94-2.47c1.18-1.18.88-2.7.88-4.12,0-7.52-.73-15-.13-22.58,1.08-13.67,3.83-26.77,10.18-39A103.17,103.17,0,0,0,279,185.37c2.13-9,3-18.13,4.25-27.23a4,4,0,0,0-.58-3.33,8.53,8.53,0,0,1,4-.32h0a4.06,4.06,0,0,0-1.38,2.79c-.56,4.42-1.29,8.82-1.84,13.24-1.62,12.85-4.66,25.27-10.58,36.92a98.27,98.27,0,0,0-7.44,17.66c-4.42,15.7-4.67,31.7-3.46,47.81a3.53,3.53,0,0,0,.69,1.88Zm44.8,1.92-3.21.07c1.41-5.16,1.1-10.49,1.53-14.75-.07,2.18.27,5.35.5,8.51C303,272.45,302.87,274.64,304,276.56Zm-57.64-5.23c-2.32,0-2.66-2.35-4-3.48,1.49-.14,1.47-1.44,1.59-2.38,1.06-7.86,0-15.35-4.16-22.24l-.08,0a3,3,0,0,1,3.59,0c-.12.17-.21.36-.33.53a10.54,10.54,0,0,0,.94,4.18,38.77,38.77,0,0,1,1.88,17.84C245.53,267.6,245.23,269.56,246.36,271.33Zm-30.85-10.47c-1.12-.22-2.35.25-3.38-.54,1.36-1.91.77-3.92.17-5.84a146.87,146.87,0,0,1-6-27.45c-1.1-9.91-.48-19.51,5.85-28,2.62-3.5,4.14-7.64,5.66-11.73,2-5.28,2.92-10.83,4.5-16.22.51-1.73.94-3.58,0-5.37l3.15-.32c-1,1.21-1,2.7-1.31,4.11-2.29,10.62-4.54,21.41-10.72,30.48s-6.11,19.09-5.23,29.28a94.82,94.82,0,0,0,5.25,22.57C214.46,254.8,214.15,258,215.51,260.86Z" transform="translate(-193.05 -145.63)"/><path class="outline_color" d="M386.68,198c-5.1-8.37-10-16.74-11.45-26.68-.59-4-2.41-5-6.53-5a97.39,97.39,0,0,1-13-1.28c-6.53-.86-12.07-2.94-15.68-8.87-1.09-1.79-3-2.19-5.14-1.5a25,25,0,0,1-10.08.86c-7.26-.69-7.4-.79-8.48-7.84,0-.19,0-.39-.06-.58-.2-1.25-.7-1.72-2.16-1.44-3.61.68-7.27,1.11-10.91,1.63-10.86,1.56-21.88,3.33-32.66,1.16-5.31-1.06-7.48.83-10,4.3-.62.86-1.17,2.29-2.61,1.94-1.23-.31-1.11-1.71-1.44-2.65-1.1-3.1-1.89-3.43-4.81-2-6.42,3.11-12.29,7.4-19.44,9-4.81,1.06-9.56,2.41-14.37,3.47a3.26,3.26,0,0,0-2.75,2.53,39.15,39.15,0,0,1-3.94,8.07c-6.68,11.31-13.67,22.44-16.42,35.63-2.55,12.23-2.84,24,2.38,35.8,3,6.71,6.73,13,9.49,19.83.61,1.5,1.93,1.72,3.58,1.8,5.16.24,10.34,1.05,14.38,4.52,2.55,2.18,4.38,2.24,6.88.1s3.83-2,5.89.78a12.85,12.85,0,0,0,5,4.32,57.42,57.42,0,0,0,12.73,3.94c13.09,2.63,26.42,2.43,39.67,3,1.74,0,3.49.09,5.23,0,16.16-.91,32-3.11,46.85-10.19,2.15-1,4.31-2.47,6.55-2.87,2.71-.48,4.07-2.05,5.3-4a25.63,25.63,0,0,0,3.9-9.93c.11-.74-.24-1.89.9-2.21s1.79.42,2.52,1.1a20.74,20.74,0,0,1,3.71,4.42c2.2,3.61,5.55,3.9,8.36.83a15.07,15.07,0,0,0,1.76-2.3c5.78-9.52,11-19,12.62-30.52C394,216.35,392.13,207,386.68,198Zm-11.11,53.86c-.87,1.24-1.79,2.07-3,.86a24.24,24.24,0,0,0-12.54-7.2h0l-2.51,1.29h0c-1.14,2.31-1.22,4.85-1.46,7.31-.47,4.87-3,8-7.15,10.46-9.08,5.25-18.88,8.3-29.12,10.23A89.46,89.46,0,0,1,304,276.56h0l-3.21.07c-2.16.93-4.44.29-6.65.48h0l-4.71-.22c-4.46-.57-9,.15-13.42-.88h0l-3.84,0h0c-3.19-.21-6.4-.22-9.49-1.18h0l-3.48-.16c-4.35-.83-8.79-1.33-12.84-3.31h0c-2.32,0-2.66-2.35-4-3.48-1.71-1.4-3.47-2.74-5.11-4.21-2-1.82-4-2.15-6.08-.15s-3.93,2.42-6.48.54-6.27-1.6-9.16-3.17h0c-1.12-.22-2.35.25-3.38-.54-1.2-.07-1.58-1.1-2-1.91-4.56-9.06-9.44-18-11.06-28.21-1.05-6.6-.07-13.09,1.1-19.57,2-10.95,7-20.57,12.73-30,2.5-4.13,5.15-8.21,6.68-12.85a2.54,2.54,0,0,1,2.72-2.09h0l3.15-.32h0L231.4,164h0l3.39-.86h0l1.7-.68,3.92-1.21h0c3-1.67,6.11-3.31,9.13-5,1.9-1.08,2.63-.49,2.69,1.58,0,1.41-.3,2.92.68,4.19h0c2.46,1.34,4.41.35,6.28-1.28.94-.81,2-1.45,3-2.16.9-1.13,1.89-2.19,2.67-3.39a3,3,0,0,1,3.47-1.37c4.73,1.07,9.59.43,14.35,1h0a8.53,8.53,0,0,1,4-.32h0c7.63-.22,15.15-1.47,22.71-2.37,1.63-.19,2.67-.06,2.31,2a29.32,29.32,0,0,0-.18,3.76h0c1,.69,1,2.4,2.56,2.46,3.34-.8,6.38,1,9.62,1.11,1.43,0,2.85.31,4.27.47h0l4,0h0c4.71-1.57,4.82-1.53,7.72,2.59.77,1.09,1.59,2.14,2.39,3.21h0l3.37,1.53h0c1,.32,2.1.09,3,.82l3.49.71,12.71,2.3h3.57c2.5.49,2.69,2.38,2.14,4.2a6.36,6.36,0,0,0,.46,4.43c2.67,7.28,6.7,13.87,10.39,20.63a28.29,28.29,0,0,1,3.45,9.08h0c.32,1.16.63,2.32.95,3.48h0C386.21,228.3,383.36,240.75,375.57,251.89Zm-19.42-14.76c-.32,1.1-.64,2.24-.9,3.32a3.06,3.06,0,0,1-2.38,2.25c-5.25,0-12.34.41-18.57.82-2.49.17-3.9-1.75-4.34-4a81.89,81.89,0,0,1-2-15.18c0-3.81,1.61-7.13,3.82-10.14a10.16,10.16,0,0,1,8.31-4.12,22.71,22.71,0,0,1,4.12.19C355.66,212.18,359.31,226.31,356.15,237.13Zm-106.4-10.85c-.58,4.35-2.18,8.57-3.38,12.84-.49,1.73-1.32,3.51-3.08,4a12.89,12.89,0,0,1-3.88.25c-4.93,0-9.58-2.34-14.57-2.31-2.45,0-3.24-2-3.72-3.86-2.21-8.71-.93-16.69,5.3-23.53a12.43,12.43,0,0,1,1-1.07,17,17,0,0,1,3.33-2.38,12.79,12.79,0,0,1,13.59,1.07C249.61,215,250.5,220.57,249.75,226.28Z" transform="translate(-193.05 -145.63)"/></svg>