<svg xmlns="http://www.w3.org/2000/svg" viewBox="0 0 779.03 696.34"><defs><style>.a{fill:#fff;}.b{font-size:76px;fill:#f2f2f2;font-family:MyriadPro-Regular, Myriad Pro;}</style></defs><title>Icons 2</title><path class="a" d="M446,0H421a4.62,4.62,0,0,0,0,9.24h25A17.28,17.28,0,0,1,463.24,26.5v25a4.62,4.62,0,1,0,9.24,0v-25A26.53,26.53,0,0,0,446,0Z"/><path class="a" d="M357.1,0h-25a26.53,26.53,0,0,0-26.5,26.5v25a4.62,4.62,0,0,0,9.24,0v-25A17.28,17.28,0,0,1,332.08,9.24h25a4.62,4.62,0,1,0,0-9.24Z"/><path class="a" d="M467.86,240.36a4.62,4.62,0,0,0-4.62,4.62v25A17.28,17.28,0,0,1,446,287.27H421a4.62,4.62,0,1,0,0,9.23h25a26.53,26.53,0,0,0,26.5-26.5V245A4.62,4.62,0,0,0,467.86,240.36Z"/><path class="a" d="M357.1,287.27h-25A17.28,17.28,0,0,1,314.82,270V245a4.62,4.62,0,0,0-9.24,0v25a26.53,26.53,0,0,0,26.5,26.5h25a4.62,4.62,0,1,0,0-9.23Z"/><path class="a" d="M438.32,104.19A30.79,30.79,0,0,0,411.21,88H366.85a30.84,30.84,0,0,0-30.8,30.8V176.4A7.56,7.56,0,0,0,343.6,184h13.11v4.4a4.62,4.62,0,1,0,9.23,0v-9a5.55,5.55,0,0,0-.07-.82V126.26a4.62,4.62,0,1,0-9.24,0v48.46H345.28V118.81a21.59,21.59,0,0,1,21.57-21.56h44.36A21.5,21.5,0,0,1,428,105.31a20.9,20.9,0,0,1,2.18,3.27,21.66,21.66,0,0,1,2.58,10.23,4.62,4.62,0,1,0,9.23,0A30.75,30.75,0,0,0,438.32,104.19Z"/><path class="a" d="M437.39,131.32a4.61,4.61,0,0,0-4.61,4.62v38.78h-11.5V126.26a4.62,4.62,0,1,0-9.24,0v53.08a4.28,4.28,0,0,0,.08.81v74.27H365.94V206.47a4.62,4.62,0,1,0-9.23,0V259a4.61,4.61,0,0,0,4.61,4.62h55.42a4.61,4.61,0,0,0,4.61-4.62V184h13.11A7.56,7.56,0,0,0,442,176.4V135.94A4.62,4.62,0,0,0,437.39,131.32Z"/><path class="a" d="M390,32.84a26.54,26.54,0,1,0,26.54,26.54A26.58,26.58,0,0,0,390,32.84Zm0,43.84a17.3,17.3,0,1,1,17.3-17.3A17.32,17.32,0,0,1,390,76.68Z"/><path class="a" d="M778,575.56c-3.26-57.72-13.82-99.85-31.39-125.23l-.05-.06c-.09-.12-.18-.24-.28-.35a.12.12,0,0,0,0-.05,3,3,0,0,0-.36-.35l-.11-.09a3.62,3.62,0,0,0-.32-.22l-.11-.08a4.36,4.36,0,0,0-.85-.39l-10-3.29a51,51,0,0,0-3.34-16.22A26.8,26.8,0,0,0,711.35,413a27.18,27.18,0,0,0-24.82,7.73l-31.2,32.07-31.2-32.07A27.2,27.2,0,0,0,599.3,413a26.79,26.79,0,0,0-19.77,16.28,51.17,51.17,0,0,0-3.35,16.2l-10.07,3.31a4.36,4.36,0,0,0-.85.39l-.12.08-.31.22-.11.09a4,4,0,0,0-.37.35l0,.05a3.07,3.07,0,0,0-.28.35l0,.06c-15.92,23-26.12,60-30.32,109.88a4.17,4.17,0,0,0,8.31.7c3.66-43.55,11.88-76.73,24.46-98.82l2.6,7.07,11.32,30.73v79.49l-18.77,89.15H541.91a738.75,738.75,0,0,1-1.49-82.29,4.17,4.17,0,1,0-8.33-.33,749,749,0,0,0,1.61,84.58,7,7,0,0,0,6.92,6.38h22.09a7,7,0,0,0,6.79-5.52l10.85-51.52v50.09a7,7,0,0,0,6.95,7h7V689.4a6.94,6.94,0,0,0,6.94,6.94h108a7,7,0,0,0,7-6.94V676.87h7a7,7,0,0,0,6.94-7V619.83l10.85,51.52a7,7,0,0,0,6.8,5.52H770a7,7,0,0,0,6.92-6.38A738,738,0,0,0,778,575.56ZM692.5,426.5a18.87,18.87,0,0,1,13.55-5.74,18.57,18.57,0,0,1,3.7.37,18.23,18.23,0,0,1,13.65,11.22,39.4,39.4,0,0,1,2.46,10.16l-17.78-5.93a4.19,4.19,0,0,0-4.2.95c-.17.16-15.64,14.72-38.62,17Zm-105.25,5.85a18.26,18.26,0,0,1,13.66-11.22,18.87,18.87,0,0,1,17.24,5.37l27.23,28c-22.88-2.25-38.44-16.79-38.61-17a4.19,4.19,0,0,0-2.49-1.14l0-.19-.56.18a4.44,4.44,0,0,0-1.18.21l-17.78,5.92A39.82,39.82,0,0,1,587.25,432.35ZM707.91,688H602.67V677H707.92v11ZM722.16,497.7a4.17,4.17,0,0,0-.26,1.44V668.53H588.68V499.14a4.16,4.16,0,0,0-.25-1.44l-15.62-42.39,30.28-9.94a81,81,0,0,0,26.15,14.23v38.45a4.17,4.17,0,1,0,8.33,0V461.77c.07,2.6,35.44,1.54,35.44,0v36.29a4.17,4.17,0,0,0,8.34,0V459.62a81,81,0,0,0,26.19-14.23l30.24,9.92Zm46.52,170.83H749l-18.78-89.15V499.89l13.92-37.78c13.9,24.56,22.69,63.66,25.53,113.92A732,732,0,0,1,768.68,668.53Z"/><path class="a" d="M700,619.45c-14.61-8.65-17.76-20.39-18.44-25a7,7,0,0,0-6.87-5.93H635.93a7,7,0,0,0-6.86,5.93c-.68,4.65-3.84,16.39-18.44,25a7,7,0,0,0-3.39,6v20.06a7,7,0,0,0,7,6.94H630a4.17,4.17,0,1,0,0-8.33H615.57V626.2c16-9.78,20.36-23,21.54-29.39h36.36c1.18,6.37,5.53,19.61,21.54,29.39v17.89h-39.6a4.17,4.17,0,1,0,0,8.33h41a7,7,0,0,0,7-6.94V625.42A7,7,0,0,0,700,619.45Z"/><polygon class="a" points="410.84 556.86 406.54 561.17 425.69 580.32 340.71 580.32 340.71 586.41 425.69 586.41 406.54 605.57 410.84 609.87 437.35 583.37 410.84 556.86"/><polygon class="a" points="201.35 354.19 201.35 348.11 174.26 348.11 234.35 288.02 230.04 283.71 169.96 343.8 169.96 316.71 163.87 316.71 163.87 354.2 201.35 354.19"/><polygon class="a" points="581.19 285.87 581.19 291.95 554.1 291.95 614.19 352.04 609.89 356.35 549.8 296.26 549.8 323.35 543.71 323.35 543.71 285.87 581.19 285.87"/><path class="a" d="M235,571.38a67.67,67.67,0,0,0-27.69-24.51,5.2,5.2,0,1,0-4.51,9.38,57.3,57.3,0,0,1,25.8,78.47,5.21,5.21,0,0,0,9.19,4.89A67.73,67.73,0,0,0,235,571.38Z"/><path class="a" d="M186.14,540.22h-.35a5.21,5.21,0,1,0,0,10.41h.32a5.21,5.21,0,0,0,0-10.41Z"/><path class="a" d="M153.21,659.5A57.31,57.31,0,0,1,127.41,581a5.21,5.21,0,1,0-9.19-4.89,67.71,67.71,0,0,0,30.48,92.75,5.2,5.2,0,1,0,4.51-9.38Z"/><path class="a" d="M170.17,665.12h-.3a5.21,5.21,0,0,0,0,10.41h.34a5.2,5.2,0,1,0,0-10.4Z"/><path class="a" d="M201.61,522.61a23.84,23.84,0,0,0-2.31-4.25h13.55a23.94,23.94,0,0,0,0-47.88H171.17A23.92,23.92,0,0,0,151.44,433H23.94a23.94,23.94,0,0,0,0,47.88H65.61a23.89,23.89,0,0,0,0,27.06H52a23.93,23.93,0,0,0-14.88,42.68,23.89,23.89,0,0,0,0,37.46,23.9,23.9,0,0,0,0,37.47A23.93,23.93,0,0,0,52,668.24h61.33a88.45,88.45,0,1,0,88.24-145.63Zm11.24-41.72a13.53,13.53,0,0,1,0,27.06H85.35a13.53,13.53,0,0,1,0-27.06ZM23.94,470.48a13.53,13.53,0,0,1,0-27.06h127.5a13.53,13.53,0,0,1,0,27.06ZM52,518.36h127.5a13.52,13.52,0,0,1,5.9,1.36q-3.69-.32-7.46-.32a88.2,88.2,0,0,0-62.6,26H52a13.53,13.53,0,0,1,0-27.06Zm0,37.47h54.44a88.29,88.29,0,0,0-13.37,27.06H52a13.53,13.53,0,0,1,0-27.06Zm0,37.47H90.72a88.21,88.21,0,0,0-.32,27.06H52a13.53,13.53,0,1,1,0-27.06Zm0,64.53a13.53,13.53,0,1,1,0-27.06H92.52A88.13,88.13,0,0,0,105,657.83ZM178,685.93A78.06,78.06,0,1,1,256,607.87,78.15,78.15,0,0,1,178,685.93Z"/><text class="b" transform="translate(150.84 633.12)">ะก</text></svg>