<svg xmlns="http://www.w3.org/2000/svg" viewBox="0 0 779.78 779.64"><defs><style>.a{fill:#fff;}.b{font-size:76px;fill:#f2f2f2;font-family:MyriadPro-Regular, Myriad Pro;}</style></defs><title>Icons 3</title><rect class="a" x="340.54" y="655.4" width="96.32" height="6.09" transform="translate(-269.74 1047.14) rotate(-90)"/><rect class="a" x="340.54" y="655.4" width="96.32" height="6.09"/><polygon class="a" points="514.46 388.22 520.54 388.22 520.54 361.13 580.63 421.22 584.94 416.92 524.85 356.83 551.94 356.83 551.94 350.74 514.46 350.74 514.46 388.22"/><polygon class="a" points="362.2 363.09 366.5 367.39 385.66 348.24 385.66 433.22 391.74 433.22 391.74 348.24 410.9 367.39 415.2 363.09 388.7 336.59 362.2 363.09"/><polygon class="a" points="262.94 388.22 256.86 388.22 256.86 361.13 196.76 421.22 192.46 416.92 252.55 356.83 225.46 356.83 225.46 350.74 262.94 350.74 262.94 388.22"/><path class="a" d="M235,652.64a67.77,67.77,0,0,0-27.69-24.52,5.21,5.21,0,0,0-4.51,9.39A57.3,57.3,0,0,1,228.55,716a5.21,5.21,0,0,0,9.19,4.89A67.73,67.73,0,0,0,235,652.64Z"/><path class="a" d="M186.14,621.48h-.35a5.21,5.21,0,1,0,0,10.41h.32a5.21,5.21,0,0,0,0-10.41Z"/><path class="a" d="M153.21,740.75a57.3,57.3,0,0,1-25.8-78.47,5.21,5.21,0,1,0-9.19-4.89,67.71,67.71,0,0,0,30.48,92.75,5.21,5.21,0,1,0,4.51-9.39Z"/><path class="a" d="M170.17,746.37h-.3a5.21,5.21,0,0,0,0,10.41h.34a5.21,5.21,0,1,0,0-10.41Z"/><path class="a" d="M201.61,603.87a23.84,23.84,0,0,0-2.31-4.25h13.55a23.94,23.94,0,1,0,0-47.88H171.17a23.92,23.92,0,0,0-19.73-37.47H23.94a23.94,23.94,0,0,0,0,47.88H65.61a23.89,23.89,0,0,0,0,27.06H52a23.92,23.92,0,0,0-14.88,42.67,23.9,23.9,0,0,0,0,37.47,23.9,23.9,0,0,0,0,37.47A23.93,23.93,0,0,0,52,749.5h61.33a88.45,88.45,0,1,0,88.24-145.63Zm11.24-41.72a13.53,13.53,0,0,1,0,27.06H85.35a13.53,13.53,0,1,1,0-27.06ZM23.94,551.74a13.53,13.53,0,0,1,0-27.06h127.5a13.53,13.53,0,0,1,0,27.06ZM52,599.62h127.5a13.52,13.52,0,0,1,5.9,1.36q-3.69-.32-7.46-.32a88.2,88.2,0,0,0-62.6,26H52a13.53,13.53,0,0,1,0-27.06Zm0,37.47h54.44a88.29,88.29,0,0,0-13.37,27.06H52a13.53,13.53,0,0,1,0-27.06Zm0,37.47H90.72a88.21,88.21,0,0,0-.32,27.06H52a13.53,13.53,0,1,1,0-27.06Zm0,64.53A13.53,13.53,0,1,1,52,712H92.52A88.13,88.13,0,0,0,105,739.09ZM178,767.19A78.06,78.06,0,1,1,256,689.13,78.15,78.15,0,0,1,178,767.19Z"/><text class="b" transform="translate(150.84 714.38)">ะก</text><path class="a" d="M778.44,598.17l-45.7-45.71a4.65,4.65,0,0,0-2.42-1.26l-50.27-9.14a4.59,4.59,0,0,0-5.32,3.68,5.54,5.54,0,0,0-.07.81,26.33,26.33,0,0,1-.39,4.34l-31.6-7.9v-1.46a22.86,22.86,0,1,0-27.42-22.4h9.14a13.71,13.71,0,1,1,13.71,13.71,4.57,4.57,0,0,0-4.57,4.57V543l-31.61,7.91a28.69,28.69,0,0,1-.39-4.34,4.58,4.58,0,0,0-1.64-3.51,4.45,4.45,0,0,0-3.74-1l-50.28,9.14a4.66,4.66,0,0,0-2.41,1.26l-45.71,45.71a4.57,4.57,0,0,0,0,6.46l36.57,36.56a4.56,4.56,0,0,0,6.46,0l10.48-10.48v30.1h-32A22.79,22.79,0,0,0,505.7,702a22.62,22.62,0,0,0,0,36.56,22.78,22.78,0,0,0,13.57,41.13H683.8A4.55,4.55,0,0,0,687,778.3l36.57-36.56a4.52,4.52,0,0,0,1.29-3.23h.05V630.71l10.48,10.48a4.56,4.56,0,0,0,6.46,0l36.56-36.56A4.56,4.56,0,0,0,778.44,598.17ZM638.1,551.26l33.23,8.31a39.22,39.22,0,0,1-66.47,0ZM505.56,683.67A13.71,13.71,0,0,1,519.27,670H619.82a13.72,13.72,0,0,1,0,27.43H519.27A13.71,13.71,0,0,1,505.56,683.67Zm0,36.56a13.71,13.71,0,0,1,13.71-13.71H619.82a13.71,13.71,0,0,1,0,27.42H519.27A13.71,13.71,0,0,1,505.56,720.23ZM619.82,770.5H519.27a13.71,13.71,0,0,1,0-27.42H619.82a13.71,13.71,0,0,1,0,27.42ZM688.37,764v-21h21ZM738.65,631.5l-28.77-28.76-6.46,6.46,12.37,12.37V733.94h-32a4.58,4.58,0,0,0-4.57,4.57v32H638a22.53,22.53,0,0,0-4.07-31.61l-.5-.38a22.64,22.64,0,0,0,0-36.56,22.79,22.79,0,0,0-13.59-41.14H560.4V621.57l12.37-12.37-6.46-6.46L537.55,631.5l-30.1-30.1,41.46-41.46,43.88-8c3,19.82,22.16,35.16,45.3,35.16s42.31-15.34,45.3-35.16l43.88,8,41.48,41.46Z"/><rect class="a" x="514.7" y="679.1" width="109.69" height="9.14"/><rect class="a" x="514.7" y="715.66" width="105.12" height="9.14"/><rect class="a" x="514.7" y="752.22" width="105.12" height="9.14"/><path class="a" d="M483.56,83.15a12.46,12.46,0,0,0-3.81-13.94L445.86,41.12a4.19,4.19,0,1,0-5.35,6.45l33.9,28.09a4.19,4.19,0,0,1-2.68,7.41H441.32a4.2,4.2,0,0,0-4.19,4.19v22.2H343.45V87.26a4.19,4.19,0,0,0-4.19-4.19H309.37a4.19,4.19,0,0,1-2.63-7.45L389.08,9.29a4.2,4.2,0,0,1,5.3,0l32.7,27.11A4.19,4.19,0,0,0,432.43,30L399.72,2.88a12.6,12.6,0,0,0-15.9-.11L301.48,69.1a12.56,12.56,0,0,0,7.89,22.35h25.7v18a8.39,8.39,0,0,0,8.38,8.38h93.68a8.39,8.39,0,0,0,8.38-8.38v-18h26.22a12.45,12.45,0,0,0,11.83-8.3Z"/><path class="a" d="M311.91,162.68c0-5.08-6-6.72-14.22-9a67.52,67.52,0,0,1-6.86-2.12,100.23,100.23,0,0,1-2.31-10.14c-2.33-12-3.62-18.57-8.92-18.57s-6.58,6.6-8.92,18.57a97.91,97.91,0,0,1-2.3,10.14,67.52,67.52,0,0,1-6.86,2.12c-8.26,2.26-14.22,3.9-14.22,9s6,6.72,14.22,9a67.52,67.52,0,0,1,6.86,2.12,97.91,97.91,0,0,1,2.3,10.14c2.34,12,3.63,18.57,8.92,18.57s6.59-6.6,8.92-18.57a100.23,100.23,0,0,1,2.31-10.14,67.52,67.52,0,0,1,6.86-2.12C306,169.4,311.91,167.76,311.91,162.68Zm-27.17,5.19c-1.84,1.84-2.64,5.23-4.44,14.44-.2,1.05-.44,2.26-.7,3.53-.25-1.27-.49-2.48-.69-3.53-1.8-9.21-2.6-12.6-4.44-14.44s-4.9-2.69-10.74-4.29l-3.21-.9,3.21-.9c5.84-1.6,9-2.52,10.74-4.29s2.64-5.23,4.44-14.44c.2-1.05.44-2.26.69-3.53.26,1.26.5,2.48.7,3.53,1.8,9.21,2.6,12.6,4.44,14.44s4.9,2.69,10.73,4.29l3.22.9-3.22.9c-5.83,1.6-9,2.52-10.73,4.29Z"/><path class="a" d="M510,187.21a62.78,62.78,0,0,1-6.86-2.12A99.94,99.94,0,0,1,500.78,175c-2.33-12-3.62-18.57-8.92-18.57S485.28,163,482.94,175a97.63,97.63,0,0,1-2.3,10.13,62.78,62.78,0,0,1-6.86,2.12c-8.26,2.27-14.23,3.9-14.23,9s6,6.71,14.23,9a62.78,62.78,0,0,1,6.86,2.12,97.63,97.63,0,0,1,2.3,10.13c2.34,12,3.63,18.57,8.92,18.57s6.59-6.59,8.92-18.57a99.94,99.94,0,0,1,2.31-10.13,62.78,62.78,0,0,1,6.86-2.12c8.25-2.27,14.22-3.9,14.22-9s-6-6.72-14.22-9Zm-2.22,9.88c-5.83,1.6-9,2.52-10.73,4.29s-2.64,5.24-4.44,14.45c-.2,1-.44,2.26-.7,3.52-.25-1.26-.49-2.48-.7-3.52-1.8-9.22-2.59-12.6-4.43-14.45s-4.9-2.69-10.74-4.29c-.93-.25-2.07-.56-3.21-.9,1.14-.33,2.28-.64,3.21-.89,5.84-1.6,9-2.52,10.74-4.29s2.64-5.24,4.43-14.45c.21-1,.45-2.26.7-3.52.26,1.26.5,2.48.7,3.52,1.8,9.21,2.59,12.6,4.44,14.44s4.9,2.7,10.73,4.29l3.22.9c-1.15.34-2.28.65-3.22.9Z"/><path class="a" d="M322.26,204.44h-6.07v-8.8a4.19,4.19,0,0,0-8.38,0v8.8h-6.06a4.19,4.19,0,0,0,0,8.38h6.06v8.8a4.19,4.19,0,0,0,8.38,0v-8.8h6.07a4.19,4.19,0,0,0,0-8.38Z"/><path class="a" d="M482.93,113.65a4.19,4.19,0,0,0-8.38,0v8.8h-6.06a4.19,4.19,0,1,0,0,8.38h6.06v8.8a4.19,4.19,0,0,0,8.38,0v-8.8H489a4.19,4.19,0,0,0,0-8.38h-6.07Z"/><path class="a" d="M308.57,137.73a12.85,12.85,0,1,0-12.85-12.85A12.87,12.87,0,0,0,308.57,137.73Zm0-17.32a4.47,4.47,0,1,1-4.47,4.47A4.47,4.47,0,0,1,308.57,120.41Z"/><path class="a" d="M517.25,129.46a12.85,12.85,0,1,0,12.85,12.85,12.87,12.87,0,0,0-12.85-12.85Zm0,17.32a4.47,4.47,0,1,1,4.47-4.47A4.48,4.48,0,0,1,517.25,146.78Z"/><path class="a" d="M437.13,219h-66a4.19,4.19,0,1,0,0,8.38h66v46.08a4.2,4.2,0,0,1-4.19,4.19h-85.3a4.2,4.2,0,0,1-4.19-4.19V227.33h10.94a4.19,4.19,0,0,0,0-8.38H343.45a8.39,8.39,0,0,0-8.38,8.38v46.08A12.59,12.59,0,0,0,347.64,286h85.3a12.59,12.59,0,0,0,12.57-12.57V227.33A8.39,8.39,0,0,0,437.13,219Z"/><path class="a" d="M336.53,201.43a4.21,4.21,0,0,0,5.84-1l18.91-26.85,18.89,26.84a4.19,4.19,0,1,0,6.85-4.82l-20.61-29.3,17.68-25.09a4.19,4.19,0,1,0-6.85-4.83L361.29,159l-15.93-22.64a4.19,4.19,0,0,0-6.85,4.82l17.65,25.1-20.64,29.3a4.2,4.2,0,0,0,1,5.84Z"/><path class="a" d="M424.28,134.59H407.79a4.22,4.22,0,0,0-4.19,4.19h0V198a4.19,4.19,0,1,0,8.38,0V176.45c3.86,0,9.49,0,12.3,0a20.91,20.91,0,1,0,0-41.81Zm0,33.43c-2.8,0-8.34,0-12.21,0,0-4-.05-9.72-.05-12.58,0-2.4,0-8.4,0-12.52h12.28a12.53,12.53,0,1,1,0,25.05Z"/><circle class="a" cx="508.97" cy="100.14" r="4.19"/><circle class="a" cx="273.67" cy="101.27" r="4.19"/><circle class="a" cx="468.2" cy="234.49" r="4.19"/></svg>