<svg id="_2" data-name="2" xmlns="http://www.w3.org/2000/svg" xmlns:xlink="http://www.w3.org/1999/xlink" viewBox="0 0 1080 1920"><defs><style>.cls-1{fill:none;}.cls-2{opacity:0.1;}.cls-3{clip-path:url(#clip-path);}.cls-4{fill:#fff;}</style><clipPath id="clip-path"><rect class="cls-1" width="1080" height="1300"/></clipPath></defs><title>2</title><g class="cls-2"><g class="cls-3"><path class="cls-4" d="M-212.72,575.08H-437.53c-184.81,0-295,131.28-177.38,340.12,7.09,12.91,19.51,36.51,19.51,36.51l-94.84,135.45C-914.51,740.85-804.35,465-506.9,419.94c22-4.76,46.14-8.31,92.35-10.22H1549.73L547.86,1841.59C449.26,1982.05,328,2084.06,153.31,2109c-86.71,12.36-173.63,8.79-264.13-19.82l95-135.59s38.58,6.17,53.3,6.79c132,5.5,236.46-36.71,325.5-132.94,23.46-25.36,34.43-52.18,33.61-88.26V1364.45L563.8,1125.61v405.74l669.59-956.27-1210.12.11c-35.65-.14-61.51,13.72-81.91,41.13L-553.8,1323.48l-82.7-143.18Z"/><path class="cls-4" d="M-416.33,1558.77-499,1415.58-6.28,711.91c22.78-31.14,43.36-54.28,84.57-54.45h694L-164.4,1995.11l-82.7-143.22L438.36,873c18.87-27,12.54-45.94-13.68-49.3-33.59-4.3-57.75,14.79-82.5,50.14l-632.56,903.39L-373,1633.75,164.1,866.63c14.3-20.63,5.16-39.61-16.92-43-36.86-5.6-59.08,14.7-83.3,49.3Z"/><path class="cls-4" d="M1.71,327.12V35.56H72V235.48L212,35.56h82.5L90.34,327.12Z"/><path class="cls-4" d="M449.89,35.56h105.7l-44.75,63.9h-98.9c-30.85.39-55.57,0-55.57,18,0,34.05,105.54,68.06,65.36,145.77-27.74,53.64-61.22,63.9-171.26,63.9h-121l44.75-63.9H288.88c32.82,0,67.39,0,67.39-27.74,0-45.18-85.79-71.36-75.66-116.79C299.27,35.09,385.14,35.56,449.89,35.56Z"/><path class="cls-4" d="M870.14,35.56,825.4,99.46H732.8L573.86,327.12H487.09L646,99.46H553.42l44.75-63.9Z"/><path class="cls-4" d="M1206.89,35.56,1086,208.25c-61.46,87.87-157.46,118.87-230.14,118.87s-126.74-31-65.29-118.87L911.47,35.56h86.74l-118,168.52c-27.39,39.17-13.07,52.91,24,52.91s70.57-13.74,98-52.91l118-168.52Z"/></g></g></svg>