<svg id="_2" data-name="2" xmlns="http://www.w3.org/2000/svg" viewBox="0 0 780 376.32"><defs><style>.cls-1{fill:#fff;}</style></defs><title>4</title><path class="cls-1" d="M2780.59,2502.66l-16.41,37.41h-5.29l-16.46-37.41h5.78l13.46,30.73,13.58-30.73Z" transform="translate(-2422 -2404.46)"/><path class="cls-1" d="M2791.65,2538a18.4,18.4,0,0,1-7.13-6.87,19.76,19.76,0,0,1,0-19.56,18.3,18.3,0,0,1,7.13-6.86,22.05,22.05,0,0,1,20.36,0,18.14,18.14,0,0,1,7.11,6.84,20.06,20.06,0,0,1,0,19.61A18.28,18.28,0,0,1,2812,2538a22.13,22.13,0,0,1-20.36,0Zm17.61-4.14a13.72,13.72,0,0,0,5.18-5.16,15.15,15.15,0,0,0,0-14.69,13.72,13.72,0,0,0-5.18-5.16,14.67,14.67,0,0,0-7.4-1.87,15,15,0,0,0-7.46,1.87,13.65,13.65,0,0,0-5.23,5.16,15.15,15.15,0,0,0,0,14.69,13.65,13.65,0,0,0,5.23,5.16,15,15,0,0,0,7.46,1.87A14.67,14.67,0,0,0,2809.26,2533.87Z" transform="translate(-2422 -2404.46)"/><path class="cls-1" d="M2829.86,2502.66h5.34v32.76h20.26v4.65h-25.6Z" transform="translate(-2422 -2404.46)"/><path class="cls-1" d="M2886.82,2521.15H2892v14.59a20,20,0,0,1-6.47,3.53,24.43,24.43,0,0,1-7.7,1.22,20.87,20.87,0,0,1-10.2-2.48,18.49,18.49,0,0,1-7.14-6.84,19.91,19.91,0,0,1,0-19.64,18.2,18.2,0,0,1,7.16-6.84,21.38,21.38,0,0,1,10.29-2.46,21.7,21.7,0,0,1,8.15,1.47,16.75,16.75,0,0,1,6.23,4.3l-3.32,3.32a15,15,0,0,0-10.85-4.33,15.75,15.75,0,0,0-7.66,1.84,13.47,13.47,0,0,0-5.32,5.13,15.12,15.12,0,0,0,0,14.75,13.68,13.68,0,0,0,5.32,5.16,15.46,15.46,0,0,0,7.61,1.87,15.77,15.77,0,0,0,8.76-2.41Z" transform="translate(-2422 -2404.46)"/><path class="cls-1" d="M2908.84,2538a18.33,18.33,0,0,1-7.13-6.87,19.76,19.76,0,0,1,0-19.56,18.24,18.24,0,0,1,7.13-6.86,22.05,22.05,0,0,1,20.36,0,18.14,18.14,0,0,1,7.11,6.84,20.06,20.06,0,0,1,0,19.61,18.28,18.28,0,0,1-7.11,6.84,22.13,22.13,0,0,1-20.36,0Zm17.61-4.14a13.72,13.72,0,0,0,5.18-5.16,15.15,15.15,0,0,0,0-14.69,13.72,13.72,0,0,0-5.18-5.16,14.67,14.67,0,0,0-7.4-1.87,15,15,0,0,0-7.46,1.87,13.65,13.65,0,0,0-5.23,5.16,15.15,15.15,0,0,0,0,14.69,13.65,13.65,0,0,0,5.23,5.16,15,15,0,0,0,7.46,1.87A14.67,14.67,0,0,0,2926.45,2533.87Z" transform="translate(-2422 -2404.46)"/><path class="cls-1" d="M2973,2521.15h5.13v14.59a20,20,0,0,1-6.47,3.53,24.42,24.42,0,0,1-7.69,1.22,20.88,20.88,0,0,1-10.21-2.48,18.4,18.4,0,0,1-7.13-6.84,19.84,19.84,0,0,1,0-19.64,18.07,18.07,0,0,1,7.16-6.84,21.31,21.31,0,0,1,10.28-2.46,21.66,21.66,0,0,1,8.15,1.47,16.75,16.75,0,0,1,6.23,4.3l-3.32,3.32a15,15,0,0,0-10.84-4.33,15.79,15.79,0,0,0-7.67,1.84,13.53,13.53,0,0,0-5.32,5.13,15.12,15.12,0,0,0,0,14.75,13.75,13.75,0,0,0,5.32,5.16,15.46,15.46,0,0,0,7.61,1.87,15.83,15.83,0,0,0,8.77-2.41Z" transform="translate(-2422 -2404.46)"/><path class="cls-1" d="M3013.31,2540.07l-8.07-11.49c-1,.07-1.78.11-2.35.11h-9.24v11.38h-5.35v-37.41h14.59q7.28,0,11.44,3.47a11.79,11.79,0,0,1,4.17,9.57,12.52,12.52,0,0,1-2.14,7.37,12.15,12.15,0,0,1-6.09,4.44l8.87,12.56Zm-2.83-18.12a8.63,8.63,0,0,0,0-12.48q-2.67-2.16-7.75-2.16h-9.08v16.83h9.08Q3007.81,2524.14,3010.48,2522Z" transform="translate(-2422 -2404.46)"/><path class="cls-1" d="M3051,2530.72h-19.88l-4.12,9.35h-5.5l16.94-37.41h5.29l17,37.41h-5.61Zm-1.87-4.28-8.07-18.33-8.07,18.33Z" transform="translate(-2422 -2404.46)"/><path class="cls-1" d="M3066.27,2502.66H3082a22.74,22.74,0,0,1,10.53,2.35,17.31,17.31,0,0,1,7.13,6.6,20,20,0,0,1,0,19.51,17.31,17.31,0,0,1-7.13,6.6,22.87,22.87,0,0,1-10.53,2.35h-15.76Zm15.44,32.76a17.26,17.26,0,0,0,8-1.77,12.72,12.72,0,0,0,5.32-4.94,15.36,15.36,0,0,0,0-14.69,12.8,12.8,0,0,0-5.32-4.95,17.38,17.38,0,0,0-8-1.76h-10.1v28.11Z" transform="translate(-2422 -2404.46)"/><path class="cls-1" d="M2750.85,2584.35a16.69,16.69,0,0,1-6.17-3.39l2-4.17a16.37,16.37,0,0,0,5.47,3.13,20.2,20.2,0,0,0,6.87,1.2c3.1,0,5.42-.52,6.95-1.58a4.85,4.85,0,0,0,2.3-4.19,4.14,4.14,0,0,0-1.26-3.13,8.46,8.46,0,0,0-3.1-1.84q-1.84-.65-5.21-1.44a55.15,55.15,0,0,1-6.81-2,11.28,11.28,0,0,1-4.44-3.13,8.34,8.34,0,0,1-1.84-5.69,9.62,9.62,0,0,1,1.57-5.4,10.91,10.91,0,0,1,4.79-3.85,19.4,19.4,0,0,1,8-1.44,25.21,25.21,0,0,1,6.52.86,17.46,17.46,0,0,1,5.5,2.45l-1.76,4.28a19.08,19.08,0,0,0-5-2.27,18.7,18.7,0,0,0-5.24-.78c-3,0-5.3.56-6.81,1.66a5.07,5.07,0,0,0-2.28,4.28,4.07,4.07,0,0,0,1.29,3.12,8.76,8.76,0,0,0,3.18,1.87,48.39,48.39,0,0,0,5.15,1.42,50.53,50.53,0,0,1,6.79,2,11.46,11.46,0,0,1,4.41,3.1,8.16,8.16,0,0,1,1.84,5.61,9.53,9.53,0,0,1-1.6,5.37,10.8,10.8,0,0,1-4.86,3.85,20.24,20.24,0,0,1-8,1.41A25.43,25.43,0,0,1,2750.85,2584.35Z" transform="translate(-2422 -2404.46)"/><path class="cls-1" d="M2788.18,2552.48h-12.83v-4.65h30.94v4.65h-12.82v32.76h-5.29Z" transform="translate(-2422 -2404.46)"/><path class="cls-1" d="M2834.08,2575.88H2814.2l-4.11,9.36h-5.51l16.94-37.41h5.29l17,37.41h-5.61Zm-1.87-4.27-8.07-18.33-8.07,18.33Z" transform="translate(-2422 -2404.46)"/><path class="cls-1" d="M2854.92,2552.48H2842.1v-4.65H2873v4.65h-12.83v32.76h-5.29Z" transform="translate(-2422 -2404.46)"/><path class="cls-1" d="M2906,2580.59v4.65h-27.15v-37.41h26.4v4.65h-21.05V2564H2903v4.54h-18.75v12.08Z" transform="translate(-2422 -2404.46)"/><path class="cls-1" d="M2755.53,2597.65H2742.7V2593h30.94v4.65h-12.82v32.75h-5.29Z" transform="translate(-2422 -2404.46)"/><path class="cls-1" d="M2806.61,2625.75v4.65h-27.14V2593h26.4v4.65h-21.06v11.49h18.76v4.54h-18.76v12.07Z" transform="translate(-2422 -2404.46)"/><path class="cls-1" d="M2821.71,2628.35a18.33,18.33,0,0,1-7.08-6.84,20,20,0,0,1,0-19.62,18.28,18.28,0,0,1,7.11-6.84,20.84,20.84,0,0,1,10.15-2.48,21.24,21.24,0,0,1,8,1.47,16.46,16.46,0,0,1,6.2,4.35l-3.48,3.37a13.91,13.91,0,0,0-10.53-4.43,15.21,15.21,0,0,0-7.53,1.87,13.49,13.49,0,0,0-5.26,5.15,15.17,15.17,0,0,0,0,14.7,13.49,13.49,0,0,0,5.26,5.15,15.22,15.22,0,0,0,7.53,1.88,14,14,0,0,0,10.53-4.49l3.48,3.36a16.48,16.48,0,0,1-6.23,4.38,21,21,0,0,1-8,1.5A20.73,20.73,0,0,1,2821.71,2628.35Z" transform="translate(-2422 -2404.46)"/><path class="cls-1" d="M2885.92,2593v37.4h-5.35v-16.67h-21.48v16.67h-5.34V2593h5.34v16.08h21.48V2593Z" transform="translate(-2422 -2404.46)"/><path class="cls-1" d="M2929.31,2593v37.4h-4.38l-22.45-27.89v27.89h-5.34V2593h4.38l22.44,27.89V2593Z" transform="translate(-2422 -2404.46)"/><path class="cls-1" d="M2940.53,2593h5.34v37.4h-5.34Z" transform="translate(-2422 -2404.46)"/><path class="cls-1" d="M2963.7,2628.35a18.26,18.26,0,0,1-7.08-6.84,20,20,0,0,1,0-19.62,18.25,18.25,0,0,1,7.1-6.84,20.91,20.91,0,0,1,10.16-2.48,21.15,21.15,0,0,1,8,1.47,16.46,16.46,0,0,1,6.2,4.35l-3.47,3.37a13.94,13.94,0,0,0-10.53-4.43,15.18,15.18,0,0,0-7.53,1.87,13.52,13.52,0,0,0-5.27,5.15,15.17,15.17,0,0,0,0,14.7,13.52,13.52,0,0,0,5.27,5.15,15.19,15.19,0,0,0,7.53,1.88,14,14,0,0,0,10.53-4.49l3.47,3.36a16.48,16.48,0,0,1-6.23,4.38,21,21,0,0,1-8,1.5A20.7,20.7,0,0,1,2963.7,2628.35Z" transform="translate(-2422 -2404.46)"/><path class="cls-1" d="M3018.66,2621.05h-19.88l-4.12,9.35h-5.5l16.94-37.4h5.29l17,37.4h-5.61Zm-1.87-4.27-8.07-18.33-8.07,18.33Z" transform="translate(-2422 -2404.46)"/><path class="cls-1" d="M3033.94,2593h5.34v32.75h20.26v4.65h-25.6Z" transform="translate(-2422 -2404.46)"/><path class="cls-1" d="M2752,2671.72q-4.17-4.28-4.17-12.29v-21.27h5.34v21.06q0,12,10.53,12,5.13,0,7.86-3t2.72-9.06v-21.06h5.18v21.27q0,8.07-4.16,12.32T2763.6,2676Q2756.12,2676,2752,2671.72Z" transform="translate(-2422 -2404.46)"/><path class="cls-1" d="M2822.54,2638.16v37.41h-4.38l-22.45-27.89v27.89h-5.34v-37.41h4.38l22.44,27.9v-27.9Z" transform="translate(-2422 -2404.46)"/><path class="cls-1" d="M2833.76,2638.16h5.34v37.41h-5.34Z" transform="translate(-2422 -2404.46)"/><path class="cls-1" d="M2882.44,2638.16l-16.4,37.41h-5.29l-16.46-37.41h5.77l13.47,30.73,13.57-30.73Z" transform="translate(-2422 -2404.46)"/><path class="cls-1" d="M2914.35,2670.92v4.65H2887.2v-37.41h26.4v4.65h-21.06v11.49h18.76v4.55h-18.76v12.07Z" transform="translate(-2422 -2404.46)"/><path class="cls-1" d="M2948,2675.57l-8.07-11.49c-1,.07-1.78.11-2.35.11h-9.24v11.38H2923v-37.41h14.59q7.27,0,11.44,3.48a11.76,11.76,0,0,1,4.17,9.56,12.56,12.56,0,0,1-2.14,7.38A12.08,12.08,0,0,1,2945,2663l8.87,12.56Zm-2.83-18.11a7.64,7.64,0,0,0,2.67-6.26,7.54,7.54,0,0,0-2.67-6.22c-1.78-1.44-4.37-2.17-7.75-2.17h-9.08v16.84h9.08C2940.81,2659.65,2943.4,2658.92,2945.18,2657.46Z" transform="translate(-2422 -2404.46)"/><path class="cls-1" d="M2964.6,2674.69a16.77,16.77,0,0,1-6.17-3.39l2-4.17a16.31,16.31,0,0,0,5.48,3.12,19.87,19.87,0,0,0,6.86,1.21q4.65,0,6.95-1.58a4.86,4.86,0,0,0,2.3-4.19,4.12,4.12,0,0,0-1.26-3.13,8.33,8.33,0,0,0-3.1-1.84c-1.23-.43-3-.91-5.21-1.45a52.35,52.35,0,0,1-6.81-2,11.26,11.26,0,0,1-4.44-3.12,8.36,8.36,0,0,1-1.84-5.69,9.63,9.63,0,0,1,1.58-5.4,10.75,10.75,0,0,1,4.78-3.85,19.43,19.43,0,0,1,8-1.44,25.2,25.2,0,0,1,6.52.85,17.41,17.41,0,0,1,5.51,2.46l-1.77,4.28a19.44,19.44,0,0,0-5-2.28,19,19,0,0,0-5.24-.77q-4.54,0-6.81,1.66a5.05,5.05,0,0,0-2.27,4.27,4.11,4.11,0,0,0,1.28,3.13,8.9,8.9,0,0,0,3.18,1.87,48.35,48.35,0,0,0,5.16,1.41,54,54,0,0,1,6.78,2,11.46,11.46,0,0,1,4.41,3.1,8.16,8.16,0,0,1,1.84,5.61,9.59,9.59,0,0,1-1.6,5.38,10.72,10.72,0,0,1-4.86,3.84,20,20,0,0,1-8,1.42A25.71,25.71,0,0,1,2964.6,2674.69Z" transform="translate(-2422 -2404.46)"/><path class="cls-1" d="M2995,2638.16h5.34v37.41H2995Z" transform="translate(-2422 -2404.46)"/><path class="cls-1" d="M3019,2642.81h-12.82v-4.65h30.94v4.65h-12.83v32.76H3019Z" transform="translate(-2422 -2404.46)"/><path class="cls-1" d="M3056.86,2662.64v12.93h-5.29v-13l-14.85-24.37h5.72l12,19.72,12-19.72h5.29Z" transform="translate(-2422 -2404.46)"/><path class="cls-1" d="M2571.61,2547.31h-18.78c-15.44,0-24.65,11-14.82,28.41.59,1.08,1.63,3.05,1.63,3.05l-7.93,11.32c-18.73-28.93-9.53-52,15.32-55.74a42,42,0,0,1,7.72-.86h164.1l-83.7,119.63c-8.24,11.73-18.37,20.25-33,22.33a48.82,48.82,0,0,1-22.07-1.65l7.94-11.33s3.22.51,4.45.57c11,.46,19.75-3.07,27.19-11.11a9.78,9.78,0,0,0,2.81-7.37v-31.31l14-19.95v33.9l55.94-79.89h-101.1a7.91,7.91,0,0,0-6.84,3.43l-41.37,59.08-6.91-12Z" transform="translate(-2422 -2404.46)"/><path class="cls-1" d="M2554.6,2629.49l-6.91-12,41.17-58.79c1.9-2.6,3.62-4.54,7.06-4.55h58l-78.25,111.75-6.91-12,57.26-81.79c1.58-2.25,1.05-3.84-1.14-4.12-2.81-.35-4.83,1.24-6.89,4.19l-52.85,75.48-6.91-12,44.88-64.09c1.19-1.72.43-3.31-1.41-3.59-3.08-.46-4.94,1.23-7,4.12Z" transform="translate(-2422 -2404.46)"/><path class="cls-1" d="M2589.52,2526.59v-24.36h5.88v16.71l11.69-16.71H2614l-17.05,24.36Z" transform="translate(-2422 -2404.46)"/><path class="cls-1" d="M2627,2502.23h8.83l-3.74,5.34h-8.26c-2.58,0-4.65,0-4.65,1.5,0,2.85,8.82,5.69,5.46,12.18-2.31,4.48-5.11,5.34-14.3,5.34H2600.2l3.74-5.34h9.57c2.75,0,5.63,0,5.63-2.31,0-3.78-7.16-6-6.32-9.76C2614.38,2502.19,2621.56,2502.23,2627,2502.23Z" transform="translate(-2422 -2404.46)"/><path class="cls-1" d="M2662.08,2502.23l-3.74,5.34h-7.74l-13.28,19h-7.25l13.28-19h-7.73l3.73-5.34Z" transform="translate(-2422 -2404.46)"/><path class="cls-1" d="M2690.21,2502.23l-10.1,14.43a23.59,23.59,0,0,1-19.23,9.93c-6.07,0-10.58-2.59-5.45-9.93l10.1-14.43h7.24l-9.85,14.08c-2.29,3.27-1.09,4.42,2,4.42a9.43,9.43,0,0,0,8.19-4.42l9.85-14.08Z" transform="translate(-2422 -2404.46)"/><path class="cls-1" d="M3057,2414.46a135.43,135.43,0,0,1,135,135v86.32a135.44,135.44,0,0,1-135,135H2567a135.44,135.44,0,0,1-135-135v-86.32a135.43,135.43,0,0,1,135-135h490m0-10H2567c-79.75,0-145,65.25-145,145v86.32c0,79.75,65.25,145,145,145h490c79.75,0,145-65.25,145-145v-86.32c0-79.75-65.25-145-145-145Z" transform="translate(-2422 -2404.46)"/></svg>