<svg id="_4" data-name="4" xmlns="http://www.w3.org/2000/svg" viewBox="0 0 779.03 696.34"><defs><style>.cls-1{fill:#fff;}</style></defs><title>5</title><path class="cls-1" d="M4027,4168.57h-25a4.62,4.62,0,1,0,0,9.24h25a17.28,17.28,0,0,1,17.26,17.27v25a4.62,4.62,0,0,0,9.24,0v-25A26.53,26.53,0,0,0,4027,4168.57Z" transform="translate(-3580.97 -4168.57)"/><path class="cls-1" d="M3938.07,4168.57h-25a26.53,26.53,0,0,0-26.5,26.51v25a4.62,4.62,0,1,0,9.23,0v-25a17.29,17.29,0,0,1,17.27-17.27h25a4.62,4.62,0,1,0,0-9.24Z" transform="translate(-3580.97 -4168.57)"/><path class="cls-1" d="M4048.83,4408.94a4.61,4.61,0,0,0-4.62,4.61v25a17.28,17.28,0,0,1-17.26,17.27h-25a4.62,4.62,0,0,0,0,9.24h25a26.53,26.53,0,0,0,26.5-26.51v-25A4.61,4.61,0,0,0,4048.83,4408.94Z" transform="translate(-3580.97 -4168.57)"/><path class="cls-1" d="M3938.07,4455.84h-25a17.28,17.28,0,0,1-17.26-17.27v-25a4.62,4.62,0,0,0-9.24,0v25a26.53,26.53,0,0,0,26.5,26.51h25a4.62,4.62,0,0,0,0-9.24Z" transform="translate(-3580.97 -4168.57)"/><path class="cls-1" d="M4019.29,4272.76a30.82,30.82,0,0,0-27.11-16.18h-44.36a30.83,30.83,0,0,0-30.8,30.81V4345a7.56,7.56,0,0,0,7.55,7.56h13.11v4.4a4.62,4.62,0,1,0,9.23,0v-9a5.55,5.55,0,0,0-.07-.82v-52.26a4.62,4.62,0,0,0-9.24,0v48.46h-11.35v-55.9a21.59,21.59,0,0,1,21.57-21.57h44.36a21.5,21.5,0,0,1,16.81,8.06,20.9,20.9,0,0,1,2.18,3.27,21.66,21.66,0,0,1,2.57,10.24,4.62,4.62,0,0,0,9.24,0A30.79,30.79,0,0,0,4019.29,4272.76Z" transform="translate(-3580.97 -4168.57)"/><path class="cls-1" d="M4018.36,4299.9a4.6,4.6,0,0,0-4.61,4.61v38.78h-11.5v-48.46a4.62,4.62,0,0,0-9.24,0v53.08a4.28,4.28,0,0,0,.08.81V4423h-46.18v-48a4.62,4.62,0,0,0-9.23,0v52.57a4.61,4.61,0,0,0,4.61,4.62h55.42a4.61,4.61,0,0,0,4.61-4.62v-75.08h13.11A7.56,7.56,0,0,0,4023,4345v-40.47A4.61,4.61,0,0,0,4018.36,4299.9Z" transform="translate(-3580.97 -4168.57)"/><path class="cls-1" d="M3971,4201.41a26.54,26.54,0,1,0,26.54,26.54A26.58,26.58,0,0,0,3971,4201.41Zm0,43.84a17.3,17.3,0,1,1,17.3-17.3A17.32,17.32,0,0,1,3971,4245.25Z" transform="translate(-3580.97 -4168.57)"/><path class="cls-1" d="M4359,4744.13c-3.26-57.72-13.82-99.85-31.39-125.23l-.05-.06c-.09-.12-.18-.24-.28-.35a.12.12,0,0,0-.05-.05,3,3,0,0,0-.36-.35l-.11-.09a3.62,3.62,0,0,0-.32-.22.62.62,0,0,0-.12-.08,4,4,0,0,0-.84-.39l-10-3.29a51,51,0,0,0-3.34-16.22,26.8,26.8,0,0,0-19.78-16.28,27.19,27.19,0,0,0-24.82,7.74l-31.2,32.06-31.2-32.06a27.21,27.21,0,0,0-24.83-7.74,26.79,26.79,0,0,0-19.77,16.28,51.17,51.17,0,0,0-3.35,16.2l-10.08,3.31a4.56,4.56,0,0,0-.84.39l-.12.08-.31.22-.11.09a4,4,0,0,0-.37.35l0,.05c-.09.11-.19.23-.27.35l-.05.06c-15.92,23-26.12,60-30.32,109.88a4.17,4.17,0,0,0,8.31.7c3.65-43.55,11.88-76.73,24.46-98.82l2.6,7.07,11.32,30.73V4748l-18.77,89.16h-19.67a739,739,0,0,1-1.49-82.3,4.17,4.17,0,1,0-8.33-.33,746.5,746.5,0,0,0,1.61,84.58,7,7,0,0,0,6.92,6.38h22.09a7,7,0,0,0,6.79-5.51l10.85-51.53v50.09a7,7,0,0,0,7,6.95h7V4858a6.94,6.94,0,0,0,6.94,6.94h108a7,7,0,0,0,6.95-6.94v-12.53h7a7,7,0,0,0,6.94-6.95V4788.4l10.85,51.53a7,7,0,0,0,6.8,5.51h22.08a7,7,0,0,0,6.92-6.38A738,738,0,0,0,4359,4744.13Zm-85.5-149.06a18.86,18.86,0,0,1,13.55-5.73,18.63,18.63,0,0,1,3.7.36,18.23,18.23,0,0,1,13.65,11.22,39.4,39.4,0,0,1,2.46,10.16l-17.78-5.93a4.19,4.19,0,0,0-4.2,1c-.17.17-15.64,14.72-38.62,17Zm-105.25,5.85a18.26,18.26,0,0,1,13.66-11.22,18.87,18.87,0,0,1,17.24,5.37l27.23,28c-22.88-2.25-38.44-16.79-38.61-16.95a4.19,4.19,0,0,0-2.49-1.14l0-.19-.56.18a4.44,4.44,0,0,0-1.18.21l-17.78,5.92A39.82,39.82,0,0,1,4168.22,4600.92Zm120.66,255.66H4183.64v-11h105.24v11Zm14.25-190.31a4.21,4.21,0,0,0-.26,1.44v169.4H4169.65v-169.4a4.2,4.2,0,0,0-.25-1.44l-15.62-42.39,30.28-9.94a81,81,0,0,0,26.15,14.23v38.46a4.17,4.17,0,0,0,8.33,0v-36.29c.07,2.6,35.44,1.54,35.44,0v36.28a4.17,4.17,0,0,0,8.34,0v-38.44a81,81,0,0,0,26.19-14.23l30.24,9.92Zm46.52,170.84H4330L4311.2,4748v-79.49l13.92-37.78c13.9,24.56,22.69,63.66,25.53,113.92A732.22,732.22,0,0,1,4349.65,4837.11Z" transform="translate(-3580.97 -4168.57)"/><path class="cls-1" d="M4280.93,4788c-14.61-8.64-17.76-20.39-18.44-25a7,7,0,0,0-6.87-5.93H4216.9A7,7,0,0,0,4210,4763c-.68,4.65-3.84,16.4-18.44,25a7,7,0,0,0-3.39,6v20.06a7,7,0,0,0,6.94,6.94H4211a4.17,4.17,0,1,0,0-8.33h-14.44v-17.88c16-9.79,20.36-23,21.54-29.4h36.36c1.18,6.37,5.53,19.61,21.54,29.4v17.88h-39.6a4.17,4.17,0,1,0,0,8.33h41a7,7,0,0,0,6.95-6.94V4794A7,7,0,0,0,4280.93,4788Z" transform="translate(-3580.97 -4168.57)"/><polygon class="cls-1" points="410.84 556.86 406.54 561.17 425.69 580.32 340.71 580.32 340.71 586.41 425.69 586.41 406.54 605.57 410.84 609.87 437.35 583.37 410.84 556.86"/><polygon class="cls-1" points="201.35 354.19 201.35 348.11 174.26 348.11 234.35 288.02 230.04 283.71 169.96 343.8 169.96 316.71 163.87 316.71 163.87 354.2 201.35 354.19"/><polygon class="cls-1" points="581.19 285.87 581.19 291.95 554.1 291.95 614.19 352.04 609.89 356.35 549.8 296.26 549.8 323.35 543.71 323.35 543.71 285.87 581.19 285.87"/><path class="cls-1" d="M3815.92,4740a67.74,67.74,0,0,0-27.69-24.51,5.2,5.2,0,1,0-4.51,9.38,57.3,57.3,0,0,1,25.8,78.47,5.21,5.21,0,0,0,9.19,4.89,67.73,67.73,0,0,0-2.79-68.23Z" transform="translate(-3580.97 -4168.57)"/><path class="cls-1" d="M3767.11,4708.79h-.35a5.21,5.21,0,1,0,0,10.41h.32a5.21,5.21,0,0,0,0-10.41Z" transform="translate(-3580.97 -4168.57)"/><path class="cls-1" d="M3734.18,4828.07a57.31,57.31,0,0,1-25.8-78.48,5.21,5.21,0,1,0-9.19-4.89,67.67,67.67,0,0,0,30.48,92.75,5.2,5.2,0,1,0,4.51-9.38Z" transform="translate(-3580.97 -4168.57)"/><path class="cls-1" d="M3751.14,4833.69h-.3a5.2,5.2,0,1,0,0,10.4h.34a5.2,5.2,0,1,0,0-10.4Z" transform="translate(-3580.97 -4168.57)"/><path class="cls-1" d="M3782.58,4691.18a23.84,23.84,0,0,0-2.31-4.25h13.55a23.94,23.94,0,1,0,0-47.88h-41.68a23.92,23.92,0,0,0-19.73-37.47h-127.5a23.94,23.94,0,1,0,0,47.88h41.67a23.89,23.89,0,0,0,0,27.06H3633a287,287,0,0,1-23.94,61.41,23.9,23.9,0,0,1,0,37.47,23.9,23.9,0,0,1,0,37.47,24,24,0,0,0,23.94,23.94h61.33a88.45,88.45,0,1,0,88.24-145.63Zm11.24-41.72a13.53,13.53,0,1,1,0,27.06h-127.5a13.53,13.53,0,0,1,0-27.06Zm-188.91-10.41a13.53,13.53,0,0,1,0-27.06h127.5a13.53,13.53,0,1,1,0,27.06Zm28.1,47.88h127.5a13.52,13.52,0,0,1,5.9,1.36q-3.69-.31-7.46-.32a88.2,88.2,0,0,0-62.6,26H3633a13.53,13.53,0,0,1,0-27.06Zm0,37.47h54.44a88.29,88.29,0,0,0-13.37,27.06H3633a13.53,13.53,0,1,1,0-27.06Zm0,37.47h38.68a88.21,88.21,0,0,0-.32,27.06H3633a13.53,13.53,0,1,1,0-27.06Zm0,64.53a13.53,13.53,0,0,1,0-27.06h40.48A88.13,88.13,0,0,0,3686,4826.4ZM3759,4854.5a78.06,78.06,0,1,1,78.06-78.06A78.15,78.15,0,0,1,3759,4854.5Z" transform="translate(-3580.97 -4168.57)"/><path class="cls-1" d="M3751.7,4794.35a.38.38,0,0,1-.41-.13,6.41,6.41,0,0,0-.61-.21,3.91,3.91,0,0,1-.61-.2,2,2,0,0,0-.71-.14,4.2,4.2,0,0,1-.72-.06,1.42,1.42,0,0,0-.47-.17l-.54-.11h-2.78c-.23,0-.46,0-.68,0l-.68,0H3743a.28.28,0,0,1-.27-.13.05.05,0,0,1-.06.06v.07a2.27,2.27,0,0,0-.65.1,1.8,1.8,0,0,1-.58.11,5.7,5.7,0,0,1-.95.06h-.2l-.07-.06s-.06,0-.06,0,0,0-.07,0a.66.66,0,0,1-.27-.06c0,.13-.18.15-.41.06a.69.69,0,0,1-.34.07.84.84,0,0,0-.27,0,1.24,1.24,0,0,1-.27,0h-.21c-.09,0-.15.06-.2,0a.24.24,0,0,0-.2,0,3.91,3.91,0,0,1-.68.06,5.23,5.23,0,0,0-.75.07c-.22.09-.29,0-.2-.2a.24.24,0,0,0,.2-.07.13.13,0,0,0-.2.07c-.05,0-.07,0-.07.07a.31.31,0,0,1-.17.17.37.37,0,0,0-.17.1h-.47a.28.28,0,0,0-.21.07.28.28,0,0,1-.2.06h-.2a3.84,3.84,0,0,1-.82.14c-.36.09-.77.18-1.22.27a1.89,1.89,0,0,1-.44.1,1.29,1.29,0,0,0-.37.1,1.18,1.18,0,0,1-.41.07.71.71,0,0,0-.34.07,2.54,2.54,0,0,0-.51.14,3.14,3.14,0,0,1-.5.13l-.55.14-.54.13-.07.07a1.92,1.92,0,0,1-.64.27,4.05,4.05,0,0,0-.65.21c-.13,0-.43.15-.88.33a3,3,0,0,1-.54.21,4.28,4.28,0,0,0-.61.2,5,5,0,0,0-.81.34,6.1,6.1,0,0,0-1,.34,6.42,6.42,0,0,1-1,.34c.05-.09.08-.13.1-.1s0,0,0,0a.21.21,0,0,0-.07-.13.68.68,0,0,1-.27.07.66.66,0,0,0-.27.06.54.54,0,0,0,.27.07v.27a.11.11,0,0,0-.1,0,.18.18,0,0,1-.11,0h-.06a.47.47,0,0,1-.55.07l-.13-.14v.27l.13-.13a.21.21,0,0,0,.07.13,1.12,1.12,0,0,1-.24.1.53.53,0,0,1-.23,0v-.07c-.09,0-.15,0-.17.07a.16.16,0,0,1-.17.13c-.05,0-.21,0-.48.07a.54.54,0,0,0-.4.14v.13a.33.33,0,0,1-.21-.06s-.09,0-.13.06v.07l-.31,0a1.45,1.45,0,0,0-.37,0,.17.17,0,0,1-.07-.13l-.68-.68a4.38,4.38,0,0,1-.54-.61.59.59,0,0,1-.07-.34c-.13-.23-.29-.47-.47-.75a.4.4,0,0,1-.14-.27.38.38,0,0,0-.13-.27.63.63,0,0,1,.06-.81,1,1,0,0,1,.45-.51,2.24,2.24,0,0,0,.5-.37c.36-.23.73-.47,1.09-.72a10.18,10.18,0,0,1,1.08-.64,4.73,4.73,0,0,0,.64-.31c.21-.11.42-.21.64-.3a2.43,2.43,0,0,1,.51-.24,2.21,2.21,0,0,0,.51-.24,1.19,1.19,0,0,0,.34-.33c.18-.32.36-.63.54-.92s.36-.58.54-.85l.81-1.22c.23-.27.47-.55.71-.85s.49-.6.71-.91l.54-.68c.19-.23.39-.45.61-.68s.46-.55.68-.85.45-.57.68-.84.45-.56.67-.85a10,10,0,0,0,.68-1c.32-.36.63-.71,1-1.05l.95-1.05a4.27,4.27,0,0,1,.54-.57q.27-.24.54-.51a3.93,3.93,0,0,0,.47-.55l.48-.61.84-.81c.29-.27.58-.52.85-.75a2.77,2.77,0,0,1,.47-.5,3.82,3.82,0,0,0,.48-.51,3.3,3.3,0,0,0,.47-.44,2,2,0,0,1,.54-.44c.32-.28.62-.56.91-.85l.85-.85a5,5,0,0,0,.44-.37l.3-.31c.09-.09.21-.19.34-.3l.34-.31a7.65,7.65,0,0,1,1.29-1.15,5.82,5.82,0,0,1,.54-.48,2.1,2.1,0,0,0,.47-.47,6.35,6.35,0,0,0,.58-.51,2.61,2.61,0,0,1,.57-.44c.18-.14.35-.27.51-.41a2.84,2.84,0,0,0,.44-.47,6.45,6.45,0,0,0,.61-.41,3.05,3.05,0,0,0,.54-.54l.64-.51.65-.51.57-.47c.16-.14.35-.32.58-.55a4.12,4.12,0,0,1,.54-.4l.07-.07c-.09-.09-.17-.13-.24-.1a.31.31,0,0,1-.24,0h-.54c0-.13-.05-.18-.14-.13l-.13.13h-.31a.73.73,0,0,1-.3-.06h-.21a1,1,0,0,1-.4-.07.38.38,0,0,0-.27-.07c-.23.14-.39.11-.48-.07-.09.09-.17.13-.24.1a.75.75,0,0,0-.23,0,.58.58,0,0,1-.21,0,.35.35,0,0,0-.2,0,.24.24,0,0,1-.2-.07,1.16,1.16,0,0,1-.82,0h-.68a4.62,4.62,0,0,0-.81-.06,1.33,1.33,0,0,0-.47-.07.86.86,0,0,1-.28,0,1.24,1.24,0,0,0-.27,0,.54.54,0,0,0-.27.07h-.13a.48.48,0,0,0-.38-.1l-.3,0c-.14,0-.23,0-.27-.07a.7.7,0,0,1-.68-.07c-.23.14-.36.16-.41.07h-1c-.09,0-.14,0-.16,0a.3.3,0,0,0-.17,0c-.1-.09-.16-.06-.21.07l-.13-.13c-.09.13-.18.17-.27.1a1.75,1.75,0,0,0-.28-.17v.13h-.4a.14.14,0,0,1-.21-.06.45.45,0,0,1-.54.06h-.07a.44.44,0,0,1-.3,0,.53.53,0,0,0-.31,0h-.81a.29.29,0,0,1-.17,0,.15.15,0,0,0-.1,0,.51.51,0,0,1-.17.07.73.73,0,0,0-.17.07l-.14-.14a.46.46,0,0,1-.68-.06.24.24,0,0,1,.07.2h-.34s0-.07,0-.07,0,0,0-.07v-.13c-.09,0-.12,0-.1.07a.26.26,0,0,1,0,.2.32.32,0,0,0-.14,0,.37.37,0,0,1-.2,0,.86.86,0,0,1-.34.07l-.14-.14a.56.56,0,0,1-.41.14,3.62,3.62,0,0,0-.81.13,2.28,2.28,0,0,0-.68.14.71.71,0,0,0-.34.07,1.29,1.29,0,0,0-.47.06,3.79,3.79,0,0,1-.54.21,3.12,3.12,0,0,0-1.09.67,2.34,2.34,0,0,0-.24.31l-.23.44-.14.27a.15.15,0,0,0,0-.1.12.12,0,0,1,0-.1.8.8,0,0,1-.06-.41.28.28,0,0,0-.07.21,5.68,5.68,0,0,0-.48-.41c-.13-.14-.28-.31-.44-.51a1.21,1.21,0,0,1-.24-.78v-.68a.31.31,0,0,0,0-.24.53.53,0,0,1,0-.23,3.11,3.11,0,0,1-.06-1.9,2.24,2.24,0,0,1,.37-.85,2.2,2.2,0,0,1,.58-.51c.36-.22.72-.43,1.08-.61l1.09-.54.74-.27.82-.27a8.71,8.71,0,0,0,1.56-.34,6.87,6.87,0,0,1,.74-.11,8,8,0,0,0,.82-.1h.4a1.75,1.75,0,0,1,.48-.06,1.78,1.78,0,0,1,.47-.07,1.79,1.79,0,0,0,.48-.07h.61a2.85,2.85,0,0,0,.61-.07l.4,0a.84.84,0,0,1,.41,0,2.05,2.05,0,0,0,.37,0,2,2,0,0,1,.31,0h3.93c.23,0,.44,0,.65,0s.42,0,.64,0a3.27,3.27,0,0,1,.54,0,5.07,5.07,0,0,0,.55,0h.13a2.63,2.63,0,0,1,.68.07h.88a4.85,4.85,0,0,0,.95.07q.41,0,.78,0l.71,0a1.89,1.89,0,0,0,.51.07h.44a.41.41,0,0,0,.31,0,.44.44,0,0,1,.3,0,5.18,5.18,0,0,1,1,.07h.65a3.72,3.72,0,0,1,.64.06,3.51,3.51,0,0,1,.54,0,3.43,3.43,0,0,0,.48,0,3.23,3.23,0,0,0,.71.07h.71a3,3,0,0,0,.65.07,3,3,0,0,1,.64.07h.14c.09.22.15.4.2.54a1.61,1.61,0,0,1,.07.47.26.26,0,0,0,0,.27c0,.1.09.19.13.28a8.05,8.05,0,0,1,.41,1,.94.94,0,0,1,.2.27v.07c0,.09,0,.15,0,.17a.15.15,0,0,1,0,.1c-.27,0-.43.09-.47.27.13,0,.2,0,.2.07a1,1,0,0,0,.17-.2.61.61,0,0,1,.1-.14.68.68,0,0,1,.27.07c.05,0,.11.11.21.34a.92.92,0,0,0-.31.31.3.3,0,0,1-.24.17l-.06.13a1.45,1.45,0,0,0-.41.27c0,.05-.07.14-.2.27a1.81,1.81,0,0,0-.29.34,1.51,1.51,0,0,0-.35.14.43.43,0,0,1-.22.2,1.22,1.22,0,0,0-.28.2l-.29.28s-.07.06-.07.2.07,0,.21-.14a1.27,1.27,0,0,1,.38-.34,1.87,1.87,0,0,0,.39-.27s0-.07.07-.1a.43.43,0,0,0,.14-.17h.07a.88.88,0,0,0,.41-.4.2.2,0,0,1,.14.06v-.13a.68.68,0,0,0,.18-.24.31.31,0,0,1,.17-.17.19.19,0,0,0,.14-.07.75.75,0,0,1,.35-.27v.14a1.89,1.89,0,0,1-.44.51,3.78,3.78,0,0,0-.51.44,1.62,1.62,0,0,1-.37.37l-.51.37-1,.82c-.23.22-.45.43-.68.61a7.48,7.48,0,0,0-.68.61.65.65,0,0,1-.3.17.56.56,0,0,0-.31.17s-.09.16-.27.34-.46.36-.71.54a5.09,5.09,0,0,0-.71.61l-.82.68-.81.67a1.75,1.75,0,0,0-.48.38,3.38,3.38,0,0,1-.54.51s-.07,0-.07,0,0,0-.06,0l-.14.14H3748a2.53,2.53,0,0,0-.44.41,1.26,1.26,0,0,1-.51.34v-.28h.21v-.06a.3.3,0,0,0,.2-.07s-.07,0-.07,0,0,0-.07,0l.21-.2c-.18,0-.23.07-.14.2-.22,0-.34.07-.34.2a.28.28,0,0,0-.2.07h-.07v.14c.05,0,.07,0,.07-.14l.14.14c-.05,0-.07,0-.07,0s0,0-.07,0v.2s0,.07,0,.07,0,0,0,.07a1.64,1.64,0,0,1-.34.27.19.19,0,0,1-.13.06.06.06,0,0,0-.07.07,1.3,1.3,0,0,0-.27.34l-.07.07a.52.52,0,0,0-.3.2,1.22,1.22,0,0,1-.31.27l-.54.55a1.26,1.26,0,0,1-.24.2,1.8,1.8,0,0,0-.24.2.45.45,0,0,0-.27.27.17.17,0,0,1-.13.07.06.06,0,0,0-.07.07,1.55,1.55,0,0,1-.54.54,7.3,7.3,0,0,1-.68.61,2,2,0,0,1-.38.41,3.08,3.08,0,0,1-.44.34,3.31,3.31,0,0,1-.67.61,10,10,0,0,1-.75.81,2.86,2.86,0,0,1-.31.27l-.3.28-.54.54-.34.34a2.41,2.41,0,0,0-.34.4l-.17.17a.34.34,0,0,1-.24.11l-.07.06a1.93,1.93,0,0,1-.74.76,2.19,2.19,0,0,1-.68.76,1.41,1.41,0,0,1-.54.62,2,2,0,0,0-.21.24,2.6,2.6,0,0,0-.13.24,1.7,1.7,0,0,1-.31.34,2.68,2.68,0,0,0-.3.28l-.14.13a12.1,12.1,0,0,1-.81,1l-.41.55a.14.14,0,0,1-.1.06.18.18,0,0,0-.1.06c-.05.08-.08.12-.1.12s-.06,0-.11.12,0,.06,0,.06,0,0,0,.06l-.28.27-.27.27a1.75,1.75,0,0,1-.4.61,2,2,0,0,0-.41.55,3.18,3.18,0,0,0-.54.67,3.65,3.65,0,0,1-.55.68,4.16,4.16,0,0,1-.4.58,4.68,4.68,0,0,0-.41.57c-.14.18-.28.37-.44.55a3.53,3.53,0,0,0-.44.61l-.07.13h.14l.81-.2s.07,0,.07,0,0,0,.07,0a.2.2,0,0,1,.17-.14.36.36,0,0,0,.23-.13h.07a.65.65,0,0,0,.31-.11.76.76,0,0,1,.37-.1h.07v.34a1.22,1.22,0,0,0,.06-.34,1.27,1.27,0,0,1,.48-.07c-.05.05-.07.08-.07.11s0,.05-.07.1c.14,0,.21,0,.21-.07v-.2a.46.46,0,0,1,.34-.14.74.74,0,0,0,.34-.07h.06v.21c.05-.05.08-.07.1-.07s.06,0,.11-.07a.33.33,0,0,0-.21-.07l.27-.12a.58.58,0,0,0,.21,0,.31.31,0,0,1,.13,0l.58-.09.58-.1s0,0,.06,0l-.13.25a.66.66,0,0,1,.27-.06l.07-.06-.14-.13q.14-.18.54-.06a.19.19,0,0,0-.13.06H3735s0,.07,0,.07,0,0,0,.06l.07.06s.07,0,.2-.12,0-.05.07,0v-.19s0-.06.14-.06l.51-.09a3.21,3.21,0,0,1,.57,0,2.14,2.14,0,0,1,.75-.14l.54-.15a1.44,1.44,0,0,1,.41-.05l.34.06v.21c.09,0,.13-.05.13-.14h-.13c0-.1,0-.15.07-.15a1.61,1.61,0,0,0,.34,0,1.47,1.47,0,0,1,.33,0l.89-.12.95-.12h.5a3.6,3.6,0,0,0,.58-.07c.32,0,.62,0,.92,0a9.75,9.75,0,0,1,1,0h1.36a3.47,3.47,0,0,1,.84,0l.72,0a2.59,2.59,0,0,0,.57.07h.58c0,.05,0,.08.07.08s.06,0,.06,0,0,0,.07,0a.8.8,0,0,1,.68,0l.64.12a5.52,5.52,0,0,1,.65.11,2.4,2.4,0,0,0,.81.23.57.57,0,0,0,.21.06.47.47,0,0,1,.2.07,2.18,2.18,0,0,1,.61.19l.54.26a3,3,0,0,1,.88.44l.14.13c.18,0,.32.11.41.34s.13.13.13.1a1.61,1.61,0,0,1,.07.24.37.37,0,0,1,.27.41q.07.27.27.27a.49.49,0,0,1,.07.24.49.49,0,0,0,.07.23,1.89,1.89,0,0,1,.13.41c0,.05,0,.07,0,.07s0,0,0,.07a.22.22,0,0,0,0,.13.55.55,0,0,1,0,.21,4.31,4.31,0,0,0,.17.44,1.18,1.18,0,0,1,.1.5v2.38a.94.94,0,0,1-.2.27.68.68,0,0,1,.07.27.66.66,0,0,0,.06.27,1.28,1.28,0,0,0,.14.55,3.89,3.89,0,0,1,.07.81,1.13,1.13,0,0,1,0,.3,1.89,1.89,0,0,0,0,.31c0,.18-.05.29-.14.34s-.13-.09-.1-.14a.1.1,0,0,0,0-.13,1.32,1.32,0,0,0-.1.3c0,.11-.13.17-.31.17a.6.6,0,0,0-.35-.4,1.1,1.1,0,0,0-.28-.34c-.09-.05-.16-.05-.2,0s-.13-.11-.11-.17,0-.11-.1-.11a.69.69,0,0,0,.07.34h-.07a1.21,1.21,0,0,1-.14-.34,3.43,3.43,0,0,0-.28-.47c-.09-.05-.16-.18-.2-.41a1.41,1.41,0,0,0-.25-.57,2.67,2.67,0,0,0-.38-.44l-.13-.14V4795h.13a1.3,1.3,0,0,1-.34-.27.24.24,0,0,0,.07.2.18.18,0,0,1-.11,0,.13.13,0,0,0-.1,0v-.21l-.24-.13C3751.85,4794.35,3751.77,4794.31,3751.7,4794.35Zm-32.56,1.9c0,.09,0,.14-.13.14l-.14-.14v.34h.34l.13-.07c.1.09.17.11.24.07l.24-.14c0-.09.07-.13.2-.13s0-.14-.13-.14a.6.6,0,0,1,.47-.06.14.14,0,0,1,0-.11.13.13,0,0,0,0-.1c0-.23,0-.25-.14-.07,0,0-.06,0-.06.07H3720l-.13.14c0-.05-.07-.08-.07-.1s0-.06-.07-.11l-.13.07-.21.1-.2.11C3719.16,4796.12,3719.14,4796.16,3719.14,4796.25Zm.68-.88c.18-.09.18-.14,0-.14Zm0,2.85h.07l-.07-.07Zm.41.07c0-.1,0-.15,0-.17s0-.08,0-.17Zm.47-.21c.09,0,.14,0,.14-.13v-.07c-.05,0-.08.07-.1.07s-.06,0-.11.13Zm.54-2.64a.38.38,0,0,1-.13-.27.24.24,0,0,0-.07.2l-.07.13c-.13.05-.2.12-.2.21a.47.47,0,0,1,.2-.07.19.19,0,0,0,.14-.07Zm.07,2.17a.23.23,0,0,1-.07-.14l-.13.14H3721a.44.44,0,0,0,.07.27.25.25,0,0,0,.14,0,.49.49,0,0,1,.2,0,.66.66,0,0,1,.1-.17.66.66,0,0,0,.1-.17.17.17,0,0,1-.13-.07C3721.36,4797.49,3721.31,4797.56,3721.31,4797.61Zm1.09-2.44c0-.1.06-.19.2-.28h.2a.33.33,0,0,0,.21-.06.24.24,0,0,1,.2-.07.37.37,0,0,0-.27-.07.17.17,0,0,1,.07-.13.19.19,0,0,0-.14-.07.4.4,0,0,0-.1.17.35.35,0,0,1-.17.17c-.14-.09-.23-.12-.27-.07a.06.06,0,0,1,.07.07l-.07.06-.14.14a.43.43,0,0,0-.2-.07.47.47,0,0,1-.2-.07v.07l.06.07c0,.09-.07.14-.1.14s-.05,0-.1.06a1.25,1.25,0,0,0-.27.21.59.59,0,0,0,.34-.07c0-.14.13-.16.41-.07,0,0,0-.11.13-.2s.07,0,.07,0S3722.35,4795.17,3722.4,4795.17Zm-.41,2a.94.94,0,0,0,.27.2s.11,0,.2-.13v-.14c.1.05.15.09.17.14s.08,0,.17-.07a.35.35,0,0,1,0-.24c0-.06,0-.12-.1-.17a.19.19,0,0,1-.14.07.17.17,0,0,0-.13.07c0,.09-.07.13-.21.13s-.2,0-.2.14a.21.21,0,0,1-.14.07s-.06,0-.06,0,0,0-.07,0v.27a.19.19,0,0,0,.07.14.4.4,0,0,0,.27-.14.12.12,0,0,0,0-.1A.29.29,0,0,1,3722,4797.2Zm.2.88c0-.09,0-.13,0-.13s0,0,0-.07v-.07l-.13.14Zm.95-1.29a.17.17,0,0,0-.07-.13.32.32,0,0,1,0,.17.13.13,0,0,0,0,.1C3723.1,4797,3723.14,4796.93,3723.14,4796.79Zm.82-.06c-.05-.1-.09-.12-.14-.07s.07,0,.07,0S3723.91,4796.73,3724,4796.73Zm.2-.34a.17.17,0,0,0-.14-.07l.14.27c.05-.05.07-.08.07-.1s0-.06.07-.1h.06a.22.22,0,0,1-.06-.14A.13.13,0,0,0,3724.16,4796.39Zm.34-.27c0,.13.09.18.13.13Zm.41-.14c-.09.09-.14.16-.14.2l.14.14A.49.49,0,0,0,3724.91,4796Zm.47-.14a.63.63,0,0,1-.13.11.63.63,0,0,0-.21.17.56.56,0,0,0,.21,0,.49.49,0,0,1,.2,0A.28.28,0,0,0,3725.38,4795.84Zm1.49-3a.31.31,0,0,0-.13,0,.25.25,0,0,1-.14,0,.73.73,0,0,0-.07.17.67.67,0,0,1-.06.17,1.12,1.12,0,0,1,.4-.07,1.45,1.45,0,0,1,.55-.27.52.52,0,0,0-.34-.07s-.08-.07-.11-.07,0,0-.1-.07Zm.21-29.3a.32.32,0,0,0,.17,0s.07,0,.17,0v-.2a1.36,1.36,0,0,1,.61-.41c.09,0,.13-.09.13-.13s.05-.07.14-.07a.15.15,0,0,0,0,.1.15.15,0,0,1,0,.1c.09-.18.12-.31.07-.4s-.07,0-.07,0,0,0-.06,0a.17.17,0,0,1,.13-.07v-.07h-.2a.32.32,0,0,1-.2.34.44.44,0,0,1-.28.14.21.21,0,0,1-.13-.07.65.65,0,0,0-.48.47.81.81,0,0,0-.37.48,1.83,1.83,0,0,0-.1.95,5.08,5.08,0,0,0,.2-.58.68.68,0,0,1,.27-.37Zm-.14,31.94a.54.54,0,0,0,.07-.27.32.32,0,0,0-.34.07l.2.14v.06Zm12.2-19.6a.12.12,0,0,0,.14.14v-.27a1,1,0,0,0,.21-.14h.2l.07-.28.07.11a.24.24,0,0,1,.06-.17c.18,0,.28-.14.28-.44l.13.15c.09,0,.11,0,.07-.08s0-.09,0-.14h.2a.26.26,0,0,1-.07-.15c.1-.1.14-.17.14-.22a.19.19,0,0,0,.14.07.2.2,0,0,0,.06-.14.21.21,0,0,1,.07-.13v.2c.14,0,.21-.18.21-.4a.08.08,0,0,1,.13,0,.1.1,0,0,0,.14,0c0-.05,0-.07-.14-.07a.51.51,0,0,1,.2-.21.21.21,0,0,0,.14-.2h-.14s0-.07,0-.07,0,0,0-.06a.24.24,0,0,0-.07.2c-.14,0-.23,0-.27.13l.07.07-.21.21c0-.05,0-.07-.13-.07s-.16.14-.21.14h-.07a.44.44,0,0,0-.06.28v.14a1,1,0,0,0-.27.22H3740c.09-.1.16-.15.2-.15s.07,0,.07-.14-.13,0-.13,0,0,.1-.07.1-.12.1-.21.29h-.06s-.12.05-.21.14-.11.05-.2.14a.26.26,0,0,1,.07.14.07.07,0,0,1-.07.08s0-.08-.07-.08-.2.05-.2.15-.05.11,0,.2l.07-.06s0-.07.13-.07l-.2.4s-.05-.06-.14-.06c-.09.18-.2.27-.34.27l-.06-.14a.46.46,0,0,0-.07.21.68.68,0,0,1-.07.2h-.2v.13h-.07c-.18.1-.27.19-.27.28s0,.13-.07.13-.09.18-.27.27c0-.13-.05-.18-.14-.13a1,1,0,0,0-.06.4h-.21v.21a.17.17,0,0,1-.13-.07v.14l-.21.2-.13.13a.22.22,0,0,1-.14-.06v.06a.27.27,0,0,0,.07.21,1.17,1.17,0,0,1-.27.2s-.07.06-.07.19a1.69,1.69,0,0,0-.44.3l-.31.29h-.2s-.07.05-.07.13h.07l.14.07a1.68,1.68,0,0,0-.41.33v-.33a.61.61,0,0,0-.07.46h-.2a.59.59,0,0,1-.34.2.24.24,0,0,1-.07.19l.14.21a.18.18,0,0,0-.11,0,.13.13,0,0,1-.1,0l-.06-.06v.16s-.06.1-.16.18-.34,0-.39.13v.27a.12.12,0,0,0-.1,0,.15.15,0,0,1-.1,0l-.07-.14v.21c-.09,0-.15,0-.17,0a1,1,0,0,1-.17.2H3733c-.09.27-.16.5-.21.68h-.13l.07.27a.16.16,0,0,1-.11,0,.14.14,0,0,0-.11,0,.28.28,0,0,0,.07.21.5.5,0,0,0-.29.06v.21c-.1.09-.14.16-.14.2s-.15-.16-.15-.2a.71.71,0,0,1-.07.34c.05,0,.07,0,.07.06h-.21l-.15.07a.38.38,0,0,0-.1.21c0,.18,0,.29-.1.34a.45.45,0,0,0,0-.28v.28a.26.26,0,0,1-.08.2V4784a3.64,3.64,0,0,0-.51.41h.07v.14c-.05,0-.1,0-.14,0s-.1,0-.15.1.07,0,.07,0,0,0,.08,0-.09.13-.11.1-.07,0-.11,0l-.12.13.12.14a.18.18,0,0,0-.06.1.18.18,0,0,1-.06.1.24.24,0,0,0-.05-.13l-.17.2v.27l-.14-.13a.78.78,0,0,0-.14.54.45.45,0,0,0-.2-.21.83.83,0,0,0-.2.34l.13.07h-.2c0,.23,0,.36-.14.41s0,.07-.13.2a.11.11,0,0,1,0,.1.17.17,0,0,0,0,.1.26.26,0,0,0-.07-.2,1.48,1.48,0,0,0-.1.27,1.48,1.48,0,0,1-.1.27.19.19,0,0,1-.14.07.17.17,0,0,0-.13.07,1.17,1.17,0,0,0-.21.47h-.13v-.2h-.07a.24.24,0,0,1-.07.2.55.55,0,0,1,.07.28c-.09,0-.16.05-.2.17a.43.43,0,0,1-.21.23.48.48,0,0,1-.06.24,2.55,2.55,0,0,0-.14.24l-.27-.14a1,1,0,0,1,.07.17.51.51,0,0,0,.07.17.26.26,0,0,0-.14-.07.19.19,0,0,0-.07.14.47.47,0,0,1-.07.2.28.28,0,0,0-.2-.07.44.44,0,0,0,.14.28.92.92,0,0,0,.4-.41.19.19,0,0,0,.07-.14.17.17,0,0,1,.07-.13,2.07,2.07,0,0,1,.54-.61.13.13,0,0,1,.14-.14,1.39,1.39,0,0,1,.27-.54,2.86,2.86,0,0,0,.27-.31q.13-.17.27-.3l.14-.07v-.14a1.18,1.18,0,0,0,.27-.4.06.06,0,0,1,.07.07s0,.09.13.13c0-.32,0-.52.2-.61a.15.15,0,0,1,0-.1.15.15,0,0,0,0-.1h.14v-.21a1.16,1.16,0,0,0,.34-.13v-.07a.69.69,0,0,0,.2-.13.13.13,0,0,0,0-.1.13.13,0,0,1,0-.1l.14-.14.07.14a1.09,1.09,0,0,1,.13-.3,2.55,2.55,0,0,0,.14-.24c.18-.08.27-.11.27-.06v-.27a1.56,1.56,0,0,1,.58-.66s.06,0,.06.07v-.2c0-.05.07-.14.2-.27a1.81,1.81,0,0,0,.38-.53.29.29,0,0,0,0,.17.11.11,0,0,1,0,.1l.07-.27c0-.26.09-.4.27-.4q.14-.36.27-.36c0,.15,0,.22-.07.22s.07,0,.07.07a4,4,0,0,0,.21-.36.72.72,0,0,0,.07-.28,2.17,2.17,0,0,1,.2-.36.61.61,0,0,0,.17-.11,1.27,1.27,0,0,1,.18-.11l.06.07c0-.09.05-.13.14-.13s.11-.07.07-.21h-.14l.14-.13h.14a.45.45,0,0,0,.06-.27,8.94,8.94,0,0,1,.69-.75l.48-.47.14-.14a.22.22,0,0,0,.06.14v-.21h.07a.12.12,0,0,1,0-.1.15.15,0,0,0,0-.1,1.27,1.27,0,0,1,.31-.34c.11-.09.22-.18.31-.27a1.24,1.24,0,0,1,.27-.21V4778a2,2,0,0,0,.21-.24,1.26,1.26,0,0,1,.2-.24c.09,0,.14,0,.14.07a.24.24,0,0,1,.07-.2,1.51,1.51,0,0,0,.14-.21c.09,0,.15,0,.2,0a.24.24,0,0,0,.07-.2.12.12,0,0,1,.14-.14l.34.07a.17.17,0,0,1-.07-.13v-.14a2.91,2.91,0,0,1,.27-.24,1.17,1.17,0,0,0,.28-.3s0-.07.13-.07,0-.07,0-.07S3739.14,4776,3739.14,4775.9Zm-11.39-12.14c-.09.05-.13.08-.13.11s0,.05-.07.1l-.34.34-.13.27a.33.33,0,0,1,0,.13.58.58,0,0,0,0,.21.63.63,0,0,0,.07-.21,4.24,4.24,0,0,0,.47-.61.38.38,0,0,0,.1-.13.61.61,0,0,1,.1-.14c.09-.09.12-.16.07-.2s0,.07,0,.07S3727.75,4763.72,3727.75,4763.76Zm-.33,31.41a.18.18,0,0,1-.11,0,.29.29,0,0,0-.17,0,1.35,1.35,0,0,0,.14.34.17.17,0,0,1,.14-.07s.06,0,.06,0,0,0,.07,0l-.13-.13a.18.18,0,0,0,.1,0,.13.13,0,0,1,.1,0v.2a.06.06,0,0,1,.07-.07.66.66,0,0,1,.06-.27A1.15,1.15,0,0,0,3727.42,4795.17Zm.33-7.67c.09,0,.14,0,.14,0s0,0,.07,0A.28.28,0,0,1,3727.75,4787.5Zm.07,5.09a.38.38,0,0,0,.54-.07s0-.07,0-.07,0,0,0-.07A3.06,3.06,0,0,1,3727.82,4792.59Zm.48-5.16q-.14-.19-.21,0Zm.06-24c0-.05-.11,0-.2.06S3728.27,4763.52,3728.36,4763.43Zm.07,31.33a.38.38,0,0,0-.27.07c.09.09.14.15.14.2a.17.17,0,0,0,.13-.07Zm-.07-7.94s-.06,0-.06.07S3728.36,4786.91,3728.36,4786.82Zm.75-24.55c-.09-.09-.17-.11-.24-.07a.35.35,0,0,1-.23.07c-.09.09-.14.16-.14.21l.61-.21h.27l-.13.14s.06,0,.06,0,0,0,.07,0h.07v-.27A.32.32,0,0,0,3729.11,4762.27Zm0,26.45a.72.72,0,0,0-.27.61l.14-.3A3.24,3.24,0,0,1,3729.11,4788.72Zm-.27,6.11c.09,0,.14-.07.14-.21C3728.88,4794.71,3728.84,4794.78,3728.84,4794.83Zm.07-8.68.07.06c.09-.09.11-.16.06-.2Zm.13,9.15c.05.05.07.08.07.1s0,.06.07.1v-.2Zm.48-32.28c-.09-.05-.23,0-.41.07a.54.54,0,0,0,.07.27l.13-.27A.33.33,0,0,0,3729.52,4763Zm-.34,25.63a.91.91,0,0,0,.47-.67,1.14,1.14,0,0,1-.47.47Zm.07,5.91a.3.3,0,0,0,.06.2l.14-.14a.13.13,0,0,1-.1,0A.17.17,0,0,0,3729.25,4794.56Zm.27-32.69c0-.09,0-.15.07-.17s0-.08,0-.17a1.24,1.24,0,0,1-.21.27v.13A.22.22,0,0,1,3729.52,4761.87Zm.61-.21a.19.19,0,0,0-.07.14.23.23,0,0,1-.14.07h-.06a.25.25,0,0,0-.27.2.19.19,0,0,0,.23,0,.34.34,0,0,1,.24-.11A.4.4,0,0,0,3730.13,4761.66Zm-.27,30.39-.07-.07-.14.13Q3729.79,4792.25,3729.86,4792.05Zm0-5.09c.09,0,.13-.05.13-.14Zm.13.68a.17.17,0,0,0-.13.07v.2l.4-.54c-.09,0-.13,0-.13-.07s-.05.11-.14.2Zm.27,4.34a.17.17,0,0,0-.13-.07l-.27.14c.09,0,.15,0,.2,0A.24.24,0,0,1,3730.26,4792Zm-.2,2.58c0-.05,0-.07.07-.07s.07-.05.07-.14H3730c-.09,0-.13,0-.13.14a.15.15,0,0,1,.1,0A.13.13,0,0,0,3730.06,4794.56Zm0,.47a1,1,0,0,0,.34-.07A.32.32,0,0,0,3730.06,4795Zm.41-3.32c0-.09-.08-.14-.1-.14a.44.44,0,0,1-.17-.07Q3730.2,4791.71,3730.47,4791.71Zm.2-30a.71.71,0,0,0-.34.07A.32.32,0,0,0,3730.67,4761.73Zm.48,24.35a.21.21,0,0,0,.13-.07,3.3,3.3,0,0,1,.48-.54,1.77,1.77,0,0,0,.27-.48c.09-.09.13-.16.13-.2v-.14a2.52,2.52,0,0,0-.27.34l-.27.41h-.07a.21.21,0,0,0-.07.14c-.09.09-.13.15-.13.2a.38.38,0,0,0-.2.34.18.18,0,0,0-.11,0,.13.13,0,0,1-.1,0,.8.8,0,0,0-.17.2,1,1,0,0,1-.17.2l-.06.07a.22.22,0,0,1-.11.2c-.06.05,0,.12,0,.21a.77.77,0,0,0,.27-.34.35.35,0,0,1,.13-.17c.05,0,.09-.08.14-.17A.4.4,0,0,0,3731.15,4786.08Zm-.55,5.83a.22.22,0,0,0-.06-.14.23.23,0,0,1-.07.14Zm0,2.37c.09.05.16,0,.21-.13A.36.36,0,0,1,3730.6,4794.28Zm.14-2.64c-.09.09-.09.16,0,.2h.34a.22.22,0,0,1,.1-.07.18.18,0,0,0,.1-.06v-.07a.15.15,0,0,0-.1,0,.12.12,0,0,1-.1,0c0-.09,0-.14-.07-.14l-.07.07Zm0-29.84.13-.07C3730.78,4761.69,3730.74,4761.71,3730.74,4761.8Zm.34,23.67q-.27.06-.27.27Zm0-23.13c-.18,0-.18.05,0,.14Zm-.07,32.42c.09.09.16.07.2-.07a.15.15,0,0,0-.1,0A.12.12,0,0,1,3731,4794.76Zm.27-3.39c0-.14,0-.21-.13-.21S3731.15,4791.23,3731.28,4791.37Zm.07-.27c0,.13,0,.15.07.06S3731.39,4791.05,3731.35,4791.1Zm.13-29.57a.33.33,0,0,0,.21-.07A.14.14,0,0,0,3731.48,4761.53Zm.62,33a5.05,5.05,0,0,0-.62.13.46.46,0,0,0,.21.07h.13c0,.05.08.05.11,0s.05,0,.1,0v-.07A.17.17,0,0,1,3732.1,4794.49Zm-.41-3.05a.21.21,0,0,0,.13.2A.2.2,0,0,0,3731.69,4791.44Zm.07-8.62c0,.05.07.07.1.07s0,0,.1.14l.07-.28h-.27Zm.06,8.14c.09.09.11.16,0,.2a.15.15,0,0,0,0,.21.32.32,0,0,0,.17-.21.84.84,0,0,0,0-.27C3732,4790.85,3731.91,4790.87,3731.82,4791Zm0,3.05c.09.05.18,0,.28-.07S3732,4793.92,3731.82,4794Zm.28-32.62-.14.14C3732,4761.44,3732.05,4761.39,3732.1,4761.39Zm-.07,30.11v-.13A.09.09,0,0,1,3732,4791.5Zm.07-29.84a.13.13,0,0,0,.2.07.13.13,0,0,1-.1,0A.13.13,0,0,0,3732.1,4761.66Zm.33-.27a.19.19,0,0,1,.07.14C3732.59,4761.44,3732.57,4761.39,3732.43,4761.39Zm.82,29.3a.26.26,0,0,1-.07.14.34.34,0,0,1-.24-.11c-.07-.06-.14-.05-.23,0a.13.13,0,0,1-.14,0c-.05,0-.09,0-.14.1a4.42,4.42,0,0,1,.21.48h.07l.06-.34c0-.09,0-.14.06-.14a.66.66,0,0,1,.3.07s.07-.06.09,0,.07,0,.16-.1l-.13-.14h.2c0-.14,0-.23-.13-.27a.15.15,0,0,1,0,.1.15.15,0,0,0,0,.1Zm-.61-6.65a.54.54,0,0,0,.07.27Zm.13-21.56q.08.06.27,0Q3732.77,4762.35,3732.77,4762.48Zm.14,21.36a.77.77,0,0,0,.34-.27c-.14,0-.23,0-.27.07l-.21.2v.2h.07l.14-.06Zm.07,7.19a.27.27,0,0,0-.14.27C3732.93,4791.3,3733,4791.21,3733,4791Zm.06-8.48c-.09,0-.11.05-.06.14s0-.07,0-.07S3733,4782.6,3733,4782.55Zm.21,7.66c.09.05.16.05.2,0-.13-.13-.27-.11-.41.07.09.05.14.05.14,0A.06.06,0,0,1,3733.25,4790.21Zm-.14-29.29a.33.33,0,0,0,.07.34c.09.09.14.09.14,0A.52.52,0,0,0,3733.11,4760.92Zm.14,27.46a.23.23,0,0,1,.07.14.3.3,0,0,0,.06-.2s-.06,0-.06,0S3733.29,4788.38,3733.25,4788.38Zm.07-4.88h.06l.14-.27a.1.1,0,0,1,.07-.1s0-.08,0-.17a.69.69,0,0,1-.14.2.86.86,0,0,0-.13.2Zm.33,7.46a.15.15,0,0,0,0-.1.15.15,0,0,1,0-.1.54.54,0,0,0-.07.27Zm.07-28.55c-.09,0-.13,0-.13.07v.06Zm-.07,20.55a3.05,3.05,0,0,1,.28-.34.39.39,0,0,0-.28.07Zm.21-21.84c-.14,0-.18.07-.14.2,0,0,0-.06,0-.06s0,0,0-.07Zm-.14,27.2a1.19,1.19,0,0,1,.31,0c.07,0,.14,0,.24-.1A.47.47,0,0,0,3733.72,4788.32Zm.55,2.3q.2,0,.33.27v-.2l.14-.07a.15.15,0,0,0,0-.1.12.12,0,0,1,0-.1l-.07.07a.46.46,0,0,0-.06-.28.28.28,0,0,0-.07.21.72.72,0,0,1-.68.07.28.28,0,0,0-.07.2.36.36,0,0,1,.34,0,1.34,1.34,0,0,0,.27.17A.41.41,0,0,1,3734.27,4790.62Zm-.28.27.07-.06a.21.21,0,0,1-.13-.07s-.08.07-.11.07-.05,0-.1.06.07.08.07.1,0,.06.07.11a.28.28,0,0,1,.07-.21Zm0-8.34c.14-.09.18-.18.14-.27a.19.19,0,0,0-.07.14A.17.17,0,0,1,3734,4782.55Zm.21,7.6a.13.13,0,0,0-.14-.14A.13.13,0,0,0,3734.2,4790.15Zm-.07,3.86a.24.24,0,0,1,.14.21V4794Zm.2-11.87s.07-.11.21-.2a.26.26,0,0,0-.27.2Zm.14,11.87a.28.28,0,0,0,.07.21.22.22,0,0,1,.06-.14v-.14A.17.17,0,0,1,3734.47,4794Zm.13-12.27c.05-.05.08-.07.11-.07s.05,0,.1-.07a.41.41,0,0,0,.17-.13.41.41,0,0,1,.1-.14.21.21,0,0,1,.07-.14H3735l-.47.48Zm1.16,8.47a.13.13,0,0,0-.1,0,.18.18,0,0,1-.11,0,2,2,0,0,1-.54.07.36.36,0,0,0-.27.14l.14.27a.57.57,0,0,0,.06-.21.28.28,0,0,0,.21.07l-.14.27a1.45,1.45,0,0,1,.41-.06v-.28c.09-.09.2-.09.34,0v-.06h.47a.26.26,0,0,0,.07.2.24.24,0,0,0,.2-.07h-.06c-.05,0-.07,0-.07,0s0,0-.07,0a1.05,1.05,0,0,0,.31-.2.53.53,0,0,0,0-.2,1.07,1.07,0,0,0-.41.06.86.86,0,0,0-.24,0A.29.29,0,0,1,3735.76,4790.21Zm-1,3.73a.69.69,0,0,1,.2.14.26.26,0,0,0,.07-.2.15.15,0,0,0-.1,0A.29.29,0,0,1,3734.74,4793.94Zm.27-32.82s0,.07.14.07C3735.06,4761.1,3735,4761.07,3735,4761.12Zm.41,32.76v-.07a.86.86,0,0,1-.34.07.17.17,0,0,0,.07.13Zm0-4.07s.11-.05.2-.14v-.13a.31.31,0,0,0-.34.2s.07,0,.07,0,0,0,.07,0a.17.17,0,0,0-.07.13l-.14-.13c-.09,0-.09.11,0,.2h.14C3735.44,4789.92,3735.46,4789.85,3735.42,4789.81Zm-.14-9.9a1.32,1.32,0,0,0-.07.27A.38.38,0,0,0,3735.28,4779.91Zm.48.54a.28.28,0,0,0-.17.2.35.35,0,0,1-.17.21.06.06,0,0,1-.07-.07l-.07.07q.21.2.21.06a.75.75,0,0,0,.27-.47l.13.13C3735.89,4780.4,3735.85,4780.36,3735.76,4780.45Zm0-19.53s-.05.06-.14.06l.14.14Zm.13,27.19c0-.09,0-.13,0-.13s.05,0,.1-.14h-.2C3735.73,4787.93,3735.76,4788,3735.89,4788.11Zm-.06-9.42a.05.05,0,0,0,.06.06v-.06Zm.27,15.19a.24.24,0,0,0-.21-.14C3735.89,4793.83,3736,4793.88,3736.1,4793.88Zm-.14-32.56c.09.09.14.07.14-.06A.22.22,0,0,1,3736,4761.32Zm.27,18.79a.54.54,0,0,0-.2.14C3736,4780.15,3736.1,4780.11,3736.23,4780.11Zm.14-1.22c.09,0,.13-.05.13-.14l-.06-.06A.24.24,0,0,0,3736.37,4778.89Zm.2-16.62s.07.09.2.14a.35.35,0,0,0-.13-.17S3736.57,4762.23,3736.57,4762.27Zm.61,28.08c0-.14,0-.23-.13-.27a.66.66,0,0,0-.34.27.32.32,0,0,1,.17,0,.11.11,0,0,0,.1,0,.24.24,0,0,0,.07.2s0-.07.06-.07a.66.66,0,0,0-.06-.27A.17.17,0,0,1,3737.18,4790.35Zm0,3.26s0,.06.07.06h.2v.14h.07v-.2c-.23-.23-.34-.23-.34,0h-.2c-.05,0-.07,0-.07,0s0,0-.07,0A.59.59,0,0,0,3737.18,4793.61Zm.14-14.72c-.09-.09-.14-.09-.14,0s-.18.25-.13.34.13-.08.13-.1.05-.06.14-.11v-.13l.13-.14c.09-.09.12-.15.07-.2S3737.32,4778.66,3737.32,4778.89Zm0-17.63a.44.44,0,0,1-.14-.28v.28Zm.54,28.89a.18.18,0,0,0,.1.06.22.22,0,0,1,.1.07.54.54,0,0,0,.07-.27.39.39,0,0,0-.3,0,.39.39,0,0,1-.38-.07s-.06.07-.06.21h-.21a.24.24,0,0,1,.07.2h.41v.2a.15.15,0,1,0,.13-.27C3737.84,4790.28,3737.86,4790.24,3737.86,4790.15Zm-.27-.61a.23.23,0,0,1-.14-.07.28.28,0,0,0-.06.2C3737.48,4789.58,3737.54,4789.54,3737.59,4789.54Zm.68.06c-.05,0-.08-.06-.1-.06s-.06,0-.11-.07-.06,0-.06,0,0,0-.07,0a1,1,0,0,0-.21-.14.13.13,0,0,1,0,.1.29.29,0,0,0,0,.17l.27-.13a.38.38,0,0,0,.07.27.33.33,0,0,1,.06-.21h.21a.28.28,0,0,1,.2-.06.19.19,0,0,1-.07-.14C3738.31,4789.49,3738.27,4789.56,3738.27,4789.6Zm-.41-11.14c.27-.39.41-.56.41-.51s-.07,0-.07-.08a1.1,1.1,0,0,0-.34.44Zm0,14.94v.34a.74.74,0,0,0,.07-.41Zm.07-32.76c0,.14,0,.21.13.21S3738.06,4760.64,3737.93,4760.64Zm3.46,29.37s.06,0,.06,0,.05,0,.14,0-.07.08-.07.11,0,.05-.07.1c.14.09.25.11.34.06v-.2c.09.05.14.09.14.14s0,0,.13,0l-.13-.07c.09-.09.15-.11.17-.07a.41.41,0,0,0,.1.14l.14-.21.06.27h.14a.19.19,0,0,0,.06-.13.53.53,0,0,0,.74.07c-.09-.14-.18-.18-.27-.14v-.07l.13-.13a.71.71,0,0,1,.27.34l.57,0a1.32,1.32,0,0,0,.5,0,.94.94,0,0,1,.2-.27s.11,0,.2.13a.24.24,0,0,0-.2.07.28.28,0,0,0,.26.1,1.24,1.24,0,0,1,.27,0,.92.92,0,0,1,.2-.31c.05,0,.14,0,.27.1s0,0,.13.21c0-.14,0-.23.07-.27a.05.05,0,0,0,.06.06v-.13h.21a.15.15,0,0,0,0,.1s0,.08,0,.17v-.14c-.09.09-.16.14-.21.14s.25.16.47.07l.07-.14.27.14a.23.23,0,0,1-.07-.14s0-.07,0-.07,0,0,0-.06a.22.22,0,0,0,.14.06.68.68,0,0,1,.2.07v.14a.28.28,0,0,1,.2.06v-.2h.14a.37.37,0,0,1,.07-.27v-.07l-.14.14a.4.4,0,0,1-.27-.14.17.17,0,0,1-.13.07l-.21-.1a.35.35,0,0,0-.2,0v-.2a.13.13,0,0,0-.1,0,.13.13,0,0,1-.1,0,.49.49,0,0,1,0,.34c0-.23-.16-.3-.34-.21a.63.63,0,0,0-.21.07s-.11,0-.2-.13a.66.66,0,0,1,.1-.17.93.93,0,0,0,.1-.17c-.09-.09-.18-.12-.27-.07a.24.24,0,0,1,.07.2c0,.05-.07.08-.07.1s0,.06-.07.11l-.27.06a1.17,1.17,0,0,0-.27-.2.23.23,0,0,0-.07.14l-.06-.07a.21.21,0,0,1-.07.13h-.41l-.13-.06h-.14a2.59,2.59,0,0,0-.44,0,2.59,2.59,0,0,1-.44,0l-.21-.13-.13.13a.17.17,0,0,0-.07-.13v.13c-.09.14-.18.16-.27.07h-.2a.54.54,0,0,0-.27.07.21.21,0,0,1-.26-.07h-.07l-.06.06s0-.06,0-.06,0,0,0-.07v.2c0-.05-.13-.07-.26-.07s-.11.05-.2.13a.16.16,0,0,1-.07-.13.17.17,0,0,0-.13.07s-.07,0-.07-.07v-.13a.27.27,0,0,0-.19-.06c0,.13,0,.19-.07.19s-.07,0-.07,0,0,0-.06,0l-.07.06-.06-.06a.31.31,0,0,0-.1.13l-.1.12a.52.52,0,0,0-.2-.19.25.25,0,0,1-.13-.26c0-.05.07-.07.1-.07s.05,0,.09-.07h-.19a.37.37,0,0,0,0,.27.34.34,0,0,1,0,.26.48.48,0,0,0-.24.06q-.11.06-.24-.06a.15.15,0,0,0-.1,0,.13.13,0,0,1-.1,0c-.18-.08-.32-.08-.41,0h-.13a1.11,1.11,0,0,1-.27.19.33.33,0,0,1,.13.19.58.58,0,0,1-.2.06s-.07,0-.07.13h.2c.09-.05.13-.1.11-.14s0-.07.1-.07l.13.14h.41a.94.94,0,0,0-.2-.27c.09-.09.16-.1.2,0s.11.08.2,0,.16-.12.21-.07a.44.44,0,0,1-.07.27c.23,0,.36-.05.41-.14s0-.11.13-.2l.14.14s-.08.05-.1,0,0,0,0,.1a.55.55,0,0,0,.54-.13s-.06-.07-.06-.21c0,.05.13.07.27.07v.2a1.55,1.55,0,0,0,.68,0Zm-3.12-29.23a.26.26,0,0,0-.07.2h.13a.17.17,0,0,0,0-.1A.13.13,0,0,1,3738.27,4760.78Zm.4,16.68s0-.06.07-.06a.07.07,0,0,1-.07-.07,3.47,3.47,0,0,0-.4.47.21.21,0,0,1,.13.07.35.35,0,0,0,.17-.13.61.61,0,0,1,.1-.14Zm-.34,10c0,.14.05.18.14.14Zm.28-26.11a.14.14,0,0,0-.21-.06.13.13,0,0,1,.1,0A.18.18,0,0,0,3738.61,4761.32Zm.06-.47c0-.05-.06-.08-.06-.1s0-.06-.07-.11v.07a.19.19,0,0,0,.07.14Zm0,.2a.19.19,0,0,0-.06-.13A.19.19,0,0,1,3738.67,4761.05Zm.34,32.56c0-.19.12-.28.21-.28v-.06a2,2,0,0,0-.55.06.67.67,0,0,0,.14.11A.76.76,0,0,1,3739,4793.61Zm-.13-16.45c-.09,0-.14,0-.14.12l.14.12c.09-.08.11-.14.07-.18a.91.91,0,0,0,.23-.15l.24-.22-.14-.06c-.09.09-.13.15-.13.19l-.07-.06-.13.12Zm.07,12.24c-.1-.09-.16-.09-.21,0Zm-.07-2c.18.09.31.12.4.07a.21.21,0,0,0-.13-.07.13.13,0,0,1-.1,0S3739,4787.39,3738.88,4787.43Zm.54-26.45a.47.47,0,0,0,.2.07.19.19,0,0,1,.14.07.23.23,0,0,0-.07-.27s0,.07-.13.07l-.07-.14a.11.11,0,0,1,0,.1A.17.17,0,0,0,3739.42,4761Zm0,15.53a.33.33,0,0,1,.07.21.7.7,0,0,1,.23-.17.16.16,0,0,0,.11-.17A1,1,0,0,0,3739.42,4776.51Zm0,11.06a.3.3,0,0,0,.07-.2h-.07Zm.27,5.7a.17.17,0,0,0,.07.13v-.2Zm.2-17.09s0,.06,0,.06,0,0,0,.07a.94.94,0,0,0,.27-.2A.3.3,0,0,0,3739.89,4776.18Zm.07,11.25v-.13h-.07v.13Zm.14-26.24a.07.07,0,0,0,.07-.07c.09.09.13.16.13.2a.4.4,0,0,0,.14-.27c.13,0,.2,0,.2-.07h-.54v.21s-.07,0-.07,0,0,0-.07,0,.05.15.14.06Zm.13,32v.07l.14.13a.22.22,0,0,0,.07-.1.18.18,0,0,1,.06-.1Zm.61-3.8c-.09-.13-.18-.16-.27-.07A.68.68,0,0,1,3740.84,4789.4Zm.21-28.42c-.09,0-.14,0-.14,0s0,0-.13,0A.17.17,0,0,0,3741.05,4761Zm-.14,32.42a.28.28,0,0,0-.13-.27C3740.78,4793.31,3740.82,4793.4,3740.91,4793.4Zm0-18.17v.06c0,.05,0,.06,0,0a.29.29,0,0,0,0-.17Zm.62-14.11a2.44,2.44,0,0,1-.12-.54c-.16,0-.26,0-.29.13l.35.41Zm-.35-.07a.31.31,0,0,0-.06.21A.33.33,0,0,0,3741.18,4761.05Zm.07,13.84a.2.2,0,0,0-.13.2S3741.16,4775,3741.25,4774.89Zm.34-.41a1.46,1.46,0,0,0-.34.47.46.46,0,0,0,.17-.1l.17-.1Zm-.34,18.72a.24.24,0,0,0,.2-.07A.26.26,0,0,0,3741.25,4793.2Zm.68-20.14a1.47,1.47,0,0,0-.2-.28l.06.34a.57.57,0,0,0-.06.21.68.68,0,0,1-.07.2v.07c0-.05,0-.07.07-.07h.06c0,.05.05.07.14.07.22-.36.36-.6.42-.71a.28.28,0,0,1,.23-.17l-.06.06c.09,0,.13,0,.13,0s0,0,.07,0a1.62,1.62,0,0,0,.26-.55c.08-.09.15-.11.19-.06a.49.49,0,0,1,.07.23.36.36,0,0,0,.13.24,1.69,1.69,0,0,0,0-.3,2,2,0,0,1,0-.31,1.69,1.69,0,0,1,.23-.2c.07-.05.15,0,.23.07a.44.44,0,0,1,.14-.28h-.07a.57.57,0,0,0,.1-.13.61.61,0,0,1,.1-.14.42.42,0,0,1,.14-.17.35.35,0,0,0,.13-.17.69.69,0,0,0-.2-.13.31.31,0,0,1,0,.13.41.41,0,0,0,0,.21.24.24,0,0,0-.2-.07c0,.23-.09.32-.26.27a1.25,1.25,0,0,1-.23.2q-.11.07,0,.21a2.24,2.24,0,0,0-.29.23,2.22,2.22,0,0,1-.3.24v.14a2.24,2.24,0,0,0-.45.47l-.07-.27C3742.11,4772.63,3742,4772.78,3741.93,4773.06Zm-.2-10.65a.14.14,0,0,0,.2-.07.13.13,0,0,0-.1,0A.13.13,0,0,1,3741.73,4762.41Zm.33,12a.28.28,0,0,1,.07-.2c.18,0,.21-.07.07-.2a.78.78,0,0,0-.47.47v.14s.06,0,.06-.07.05-.09.14-.14Zm-.06-13.36-.07.14a1.21,1.21,0,0,1,.34-.14.24.24,0,0,1-.07-.2c.09-.05.09-.09,0-.14v.14Zm-.07,32.08c0,.05.07.08.07.1s0,.06.06.1.12-.18.07-.27a.12.12,0,0,0-.1,0A.15.15,0,0,1,3741.93,4793.13Zm.34.2h.13s-.06-.07-.06-.1,0,0-.07-.1Zm.37-19.46a2.91,2.91,0,0,1,.24-.27c.09-.09.11-.16.07-.2a.46.46,0,0,0-.17.1l-.17.1c0,.09-.07.16-.21.2v.21A.31.31,0,0,0,3742.64,4773.87Zm.24-11.39-.27-.14a.24.24,0,0,0,.07.2.17.17,0,0,0,.1,0A.13.13,0,0,1,3742.88,4762.48Zm.13-1.56a.28.28,0,0,1,0-.21s0-.07-.1-.07l-.2.21a.18.18,0,0,1,.06.1.22.22,0,0,0,.07.1c.09,0,.14,0,.14.1s0,.08.06,0Zm0,28.14s-.06,0-.06-.07-.07,0-.07,0,0,0-.07,0a.26.26,0,0,1-.07.2c.14,0,.23,0,.27.07Zm-.06-26,.06-.07c0-.14,0-.2-.06-.2l-.14.13Zm0,8.82c.09,0,.13,0,.13-.14Zm.34,1.28c-.14-.13-.23-.11-.28.07a.46.46,0,0,1,.07.21.53.53,0,0,0,.1-.14A.67.67,0,0,1,3743.29,4773.12Zm.06-11.8c.14,0,.21-.06.21-.2a.23.23,0,0,0-.07-.14.13.13,0,0,0-.1,0,.17.17,0,0,1-.1,0Zm0,28a.14.14,0,0,1,0-.11.13.13,0,0,0,0-.1.17.17,0,0,0-.13.07A.24.24,0,0,0,3743.35,4789.27Zm.27,3.79a.28.28,0,0,0-.2-.06.21.21,0,0,0-.07.13.29.29,0,0,0,.17,0A.13.13,0,0,1,3743.62,4793.06Zm-.2-21.09a.19.19,0,0,1,.14.07v-.2Zm.14-9.36c.09,0,.13,0,.13-.13s0,.06-.13.06Zm.06,26.72s.05-.11.14-.2c-.09-.09-.16-.05-.2.14A.05.05,0,0,0,3743.62,4789.33Zm.07-27.87s.07,0,.07,0-.05-.07-.14-.07Zm0,11.26c.09,0,.09-.05,0-.14Zm.55-11.8c0,.09,0,.13-.14.13a.19.19,0,0,1-.14-.07.16.16,0,0,1-.1.07.16.16,0,0,0-.1.07l.07.14a.16.16,0,0,1,.1-.07.22.22,0,0,0,.1-.07c0,.09,0,.14.07.14a.46.46,0,0,0,.2,0l.21-.1A1.17,1.17,0,0,1,3744.24,4760.92Zm-.41,28.48v.07l.13-.14A.21.21,0,0,0,3743.83,4789.4Zm.13-16.75.14-.14C3743.92,4772.42,3743.87,4772.47,3744,4772.65ZM3744,4787q.21.14.27.06S3744.21,4787,3744,4787Zm.07-15.6c.09,0,.16-.07.2-.21Zm.2-.75v-.2S3744.35,4770.59,3744.3,4770.68Zm.07,18.38s-.07,0-.07.14l.14-.14Zm0,4.14c.05-.05.08-.07.1-.07a.16.16,0,0,0,.1-.07h-.27S3744.37,4793.11,3744.37,4793.2Zm0-21.23.07.07c0-.05,0-.07.13-.07v-.2Zm4.68-5a.18.18,0,0,0-.17.07s-.08.09-.17.14a.19.19,0,0,0-.13.06.19.19,0,0,1,.06-.17c.05,0,0-.05-.06-.1a.37.37,0,0,0-.22.31.41.41,0,0,1-.16.3.26.26,0,0,0-.15-.07.24.24,0,0,1-.15-.06l.07.34a.28.28,0,0,0-.21-.07l-.13.13v.14c-.05,0-.07,0-.07-.1s0-.06-.07,0a.3.3,0,0,1,.07.2h-.07a.49.49,0,0,0-.34,0v.21c-.09-.09-.16-.08-.2,0s-.09.15-.14.1a.76.76,0,0,1-.13.21l-.21.2c0,.14-.06.2-.2.2s-.07.08-.07.11,0,.05-.07.1-.06,0-.06-.07a.68.68,0,0,1-.07.27c0-.09,0-.13,0-.13s0,0,0-.07a.3.3,0,0,1-.2.07,1.17,1.17,0,0,1-.27.2.15.15,0,0,0,0,.17c0,.07,0,.1-.1.1l-.07-.07-.07.07s-.06,0-.06.07v.07a1.84,1.84,0,0,1-.27.23,2.09,2.09,0,0,0-.28.24l.14.07a1.16,1.16,0,0,0-.27.34h.07s.06-.08.06-.1,0-.06.07-.11h.27v-.13h.14v-.14a.17.17,0,0,0,.13.07c.09,0,.14,0,.14-.13a.22.22,0,0,1,.14-.21c0,.05,0,.07,0,.07s0,0,0,.07l.07-.07-.07-.27c0-.09.05-.09.14,0s.13,0,.27,0c0-.05-.07-.08-.07-.1s0-.06-.07-.11a.16.16,0,0,0,.11,0,.18.18,0,0,1,.11,0c.1,0,.21-.12.36-.34,0-.09,0-.11.14-.07v.14a1.32,1.32,0,0,0,.29-.21.21.21,0,0,1-.15-.07c.15-.13.22-.18.22-.13a.5.5,0,0,0,.11-.17,1.12,1.12,0,0,1,.1-.24h.12s.06,0,.06.07l.24-.14a.17.17,0,0,1-.12-.06l.12-.28h.13a.28.28,0,0,0-.07.21.19.19,0,0,0,.22-.21.26.26,0,0,1,.07-.2l.15.14a.83.83,0,0,0,.18-.24,1.22,1.22,0,0,1,.11-.24c.05,0,.12,0,.22.14v-.27a.63.63,0,0,1,.24-.17.3.3,0,0,0,.16-.17v.07c.05-.05.07-.08.07-.11s0-.05.07-.1.11-.07.2-.2a.17.17,0,0,1-.13-.07A.38.38,0,0,0,3749.05,4767Zm-4.27,26.18q-.14-.2-.21,0Zm-.14-4s.07-.05.21-.27C3744.75,4789,3744.69,4789.13,3744.64,4789.13Zm.14-26.59a.18.18,0,0,0,0,.11.13.13,0,0,1,0,.1c.09,0,.13-.07.13-.21Zm.27-1.28c-.05-.1-.11-.1-.2,0Zm.07,10.17-.14-.14a.13.13,0,0,1,0,.1.14.14,0,0,0,0,.11h.07Zm.2-10.24c-.14,0-.16.07-.07.2.05,0,.07-.13.07-.27a.79.79,0,0,0,.27.41.35.35,0,0,0-.13-.41C3745.36,4761.12,3745.32,4761.14,3745.32,4761.19Zm.27,31.87c-.13,0-.23,0-.27,0Zm-.2-30.45.07.14.13-.14a.17.17,0,0,1-.13-.07Zm.07,27.4a.23.23,0,0,0,.27.07l-.14-.14-.07.07Zm.33-28.82v.13h.28l.06.07c.09,0,.14,0,.14,0s0,0,.07,0a.28.28,0,0,0,.27-.13Zm.07,9.49a.2.2,0,0,0,0,.21Q3745.93,4770.68,3745.86,4770.68Zm.07-.2a.17.17,0,0,1,.07.13c.13,0,.2-.09.2-.27a.35.35,0,0,0,.14,0,.49.49,0,0,1,.2,0c0-.05.05-.12.14-.21a.36.36,0,0,0-.21-.13Zm.27-1.56v.07a.24.24,0,0,0,.14-.21Zm.61,20.21a.17.17,0,0,0-.13-.07.07.07,0,0,0-.07-.07v.07c0,.09,0,.14.13.14Zm.27-2c-.09-.13-.18-.16-.27-.07a.13.13,0,0,1,.1,0A.32.32,0,0,0,3747.08,4787.16Zm-.13,1.9s0,.11.07.21l.06-.07Zm.07-27.8a.19.19,0,0,1,.06.13h.27l.14-.13Zm.54.13a1.24,1.24,0,0,1,.27,0,.32.32,0,0,0,.27,0Q3747.76,4761,3747.56,4761.39Zm.74,6.78c-.09,0-.13.05-.13.14Zm-.13,22.11a.25.25,0,0,0,0-.34Zm.07-27.33c.13.14.24.16.34.07s0-.07,0-.07,0,0,0-.07l-.14-.13a.15.15,0,0,1,0,.1.12.12,0,0,0,0,.1Zm0,5.63c0,.09.11.09.2,0s.11-.07.07-.2A.94.94,0,0,0,3748.24,4768.58Zm.27-7.39s0-.07.07-.07.06-.05.06-.14l-.27.14a.23.23,0,0,0,.14.07.24.24,0,0,0-.07.2.49.49,0,0,0,.24.07.46.46,0,0,1,.23.07q.08-.07,0-.21h-.27C3748.55,4761.32,3748.51,4761.28,3748.51,4761.19Zm-.07,29a.46.46,0,0,0,.34-.14.43.43,0,0,0-.27-.27l-.14.14a.13.13,0,0,0,0,.1A.29.29,0,0,1,3748.44,4790.15Zm.41-27.2-.14-.07-.07.27.21-.13Zm.13,26.52a.32.32,0,0,0-.34.27.54.54,0,0,1,.27-.07.15.15,0,0,1,0-.1A.15.15,0,0,0,3749,4789.47Zm-.13-21.5a.21.21,0,0,1-.07.13l.07.07Zm.4,21.91a.86.86,0,0,0-.34.06c0,.14,0,.22,0,.24s.1.08.1.17a.66.66,0,0,1,.1-.17.66.66,0,0,0,.1-.17h.21c-.05,0-.08-.07-.1-.07S3749.3,4789.92,3749.25,4789.88Zm-.06-28.15a.13.13,0,0,0,.06.2.15.15,0,0,0,0-.1A.13.13,0,0,1,3749.19,4761.73Zm0,1.36c.13,0,.2,0,.2-.07S3749.23,4763,3749.19,4763.09Zm.54,3.52v-.13a.88.88,0,0,0,.41-.48v.07l.13-.14h.2a.17.17,0,0,0,.07-.13.19.19,0,0,1,.07-.14.3.3,0,0,0-.2-.06v.13c0,.05,0,.11-.14.2a.19.19,0,0,1-.13-.06c-.1,0-.14,0-.14.06a.54.54,0,0,1-.2.34.44.44,0,0,0-.34.34h-.07c0,.09,0,.14-.07.14l.07.07a.33.33,0,0,0,.07-.21Zm-.27,1.09v-.14h-.07a.28.28,0,0,0,.07.21Zm.13-6.24a.45.45,0,0,0,0,.17.88.88,0,0,1,0,.24h.14a.18.18,0,0,0,.1,0,.13.13,0,0,1,.1,0v-.27c0-.05,0-.07.14-.07a.24.24,0,0,0-.21-.14.51.51,0,0,1-.17.07A.51.51,0,0,0,3749.59,4761.46Zm.14,5.83a.3.3,0,0,1,.07.2c0-.09,0-.13.06-.13A.17.17,0,0,0,3749.73,4767.29Zm.68-5.83c0-.14-.07-.2-.21-.2a.17.17,0,0,1,0,.1.13.13,0,0,0,0,.1Zm0,5.49c-.14,0-.21,0-.21.14C3750.29,4767,3750.36,4767,3750.41,4767Zm.13-5.42c.09-.05.15-.06.17,0s.06,0,.1-.1h-.27Zm.07,5.22v-.07s0,0-.07,0v.07Zm.95-2c0,.05-.08.07-.1.07s-.06,0-.1.07h-.14v.2c-.32,0-.52.18-.61.55h.07a.26.26,0,0,1,.27-.21s.07,0,.07,0,0,0,.06,0l.34-.33c.14-.14.21-.23.21-.28l.07.07a.22.22,0,0,1,.06.14c.09-.05.14-.09.14-.14a.17.17,0,0,1,.07-.13.36.36,0,0,1,.13-.21h.21c0-.22.05-.34.17-.34s.16,0,.16-.13a.19.19,0,0,1,.14.07.28.28,0,0,0,.07-.21h.13c.18-.18.3-.25.34-.2l.07-.14c-.09,0-.15-.05-.17,0a.29.29,0,0,1-.17,0,.49.49,0,0,0-.47.34.41.41,0,0,1-.27.27l-.14-.06v.13c-.09.09-.15.14-.17.14a.18.18,0,0,0-.1.06l-.07.14-.27.14Zm-.81,2s.06,0,.06-.13h-.06Zm.4-5.15a1.92,1.92,0,0,1,.61-.07c.14.09.25,0,.34-.14a.86.86,0,0,0-.68,0,.66.66,0,0,1-.27-.06l-.13.13C3751,4761.48,3751.06,4761.53,3751.15,4761.53Zm.14,4.54v.14a.19.19,0,0,1,.07-.14Zm1.15-1v.21h.07a.21.21,0,0,0,.13-.07l-.13-.14Zm.27,26.79v.21a.28.28,0,0,0,.07-.21Zm.27-27.13a.3.3,0,0,0,.34-.34.26.26,0,0,1-.17.17A.39.39,0,0,0,3753,4764.71Zm.21,27.81a.17.17,0,0,0,.13.07A.17.17,0,0,1,3753.19,4792.52Zm.27-28.35c0,.14.11.18.2.14a.38.38,0,0,0-.13-.27s0,.06,0,.06S3753.46,4764.13,3753.46,4764.17Zm.41-.2.13.13.1-.17a.38.38,0,0,0,.1-.17c-.09,0-.14,0-.16.07A.17.17,0,0,1,3753.87,4764Zm.47,31.67c-.09-.23-.2-.34-.34-.34A1.1,1.1,0,0,0,3754.34,4795.64Zm-.14.48a.44.44,0,0,0-.2-.41A1,1,0,0,0,3754.2,4796.12Zm.14-32.36c0-.09,0-.13-.07-.13A.17.17,0,0,0,3754.34,4763.76Zm.41-.2a.16.16,0,0,1-.07-.1.16.16,0,0,0-.07-.1h-.07C3754.59,4763.49,3754.66,4763.56,3754.75,4763.56Zm.68-2.24a.41.41,0,0,0-.14.31.42.42,0,0,1-.14.3h.28a1.13,1.13,0,0,0,.1-.13.41.41,0,0,1,.1-.14h.13a.47.47,0,0,0,.07-.2.43.43,0,0,1,.07-.2c-.05-.05-.16,0-.34.2Zm1,.07s0-.11.14-.2a.54.54,0,0,0-.27.07C3756.4,4761.26,3756.44,4761.3,3756.44,4761.39Z" transform="translate(-3580.97 -4168.57)"/><path class="cls-1" d="M3760.31,4783.23a.68.68,0,0,0-.14.3.49.49,0,0,1-.07.24c-.09.23-.16.42-.23.58l-.24.57c-.14.37-.28.72-.44,1.06a11,11,0,0,0-.44,1.05,4.26,4.26,0,0,1-.48.95c-.09.22-.19.46-.3.71s-.22.48-.31.71a7,7,0,0,0-.34.81,4,4,0,0,1-.33.75,1.55,1.55,0,0,1-.28.54c0,.05,0,.07-.06.07a.42.42,0,0,0-.07-.27c-.09.09-.14.16-.14.2v.21s.11-.05.21-.14a.93.93,0,0,0-.14.41l-.14.27a.18.18,0,0,0-.06.1.22.22,0,0,1-.07.1,1.73,1.73,0,0,0-.48.07s0,0-.13-.07v-.13a1.58,1.58,0,0,0,.2-.44,1.38,1.38,0,0,1,.21-.44.31.31,0,0,1-.21-.07,1.24,1.24,0,0,0,.21-.27,1.39,1.39,0,0,1,.47-.75v-.07l-.07-.13.14-.14a.52.52,0,0,1,.07-.34c0,.05,0,.07.06.07s.11-.1,0-.17-.06-.12,0-.17v.07a1.33,1.33,0,0,0,.27-.61c.09,0,.14-.07.14-.21l-.14-.13.14-.27c.09-.09.16-.14.2-.14a.17.17,0,0,1,.07-.13.78.78,0,0,1,0-.48l.14-.27a.48.48,0,0,0-.24.34.65.65,0,0,1-.17.34h-.07c-.09,0-.11.09-.07.13s0,.12,0,.21l-.06.13h-.07c-.09.09-.14.15-.14.17s0,.06-.07.1a4,4,0,0,0-.2.62,6.1,6.1,0,0,1-.2.61,1.08,1.08,0,0,0-.14.61.28.28,0,0,0-.07.2.45.45,0,0,0-.13.34.48.48,0,0,1-.14.34.15.15,0,0,1,0,.1.15.15,0,0,0,0,.1,1.24,1.24,0,0,0-.06.31.65.65,0,0,1-.07.23v.21a.35.35,0,0,0-.17.13.61.61,0,0,1-.1.14c-.05,0-.06.08,0,.1s0,.06,0,.1a.19.19,0,0,1-.14-.07.26.26,0,0,0-.2,0,.53.53,0,0,1-.2,0,.06.06,0,0,1-.07.07,2.26,2.26,0,0,0-.61-.07.37.37,0,0,1-.41-.27,2,2,0,0,0-.34.27l-.13-.13h-.27c-.1.09-.14.11-.14.07a.88.88,0,0,0-.24,0,.75.75,0,0,1-.23,0h-.14a1.24,1.24,0,0,1-.27,0,.42.42,0,0,0-.27,0,.58.58,0,0,1-.21,0,.26.26,0,0,0-.2,0h-.81v-.27a.63.63,0,0,0-.21.07,1.65,1.65,0,0,0,.07-.54l.41-2a3.63,3.63,0,0,1,.07-.71c0-.25.09-.49.13-.71l.14-.27a.4.4,0,0,0-.07-.27,2.41,2.41,0,0,0,.17-.65,5.27,5.27,0,0,1,.1-.64,2.54,2.54,0,0,0,.17-.71,4.4,4.4,0,0,1,.17-.85c.09-.36.18-.75.27-1.15l.27-1.23c.14-.54.26-1.07.38-1.59s.23-1.05.37-1.59q.14-.48.24-1a10,10,0,0,1,.23-1c.09-.41.17-.79.24-1.15s.15-.73.24-1.09a11.58,11.58,0,0,0,.27-1.29,36.38,36.38,0,0,0,.81-4.34c.09-.49.18-1,.27-1.52s.18-1.05.28-1.6a10.46,10.46,0,0,0,.16-1.42,10.53,10.53,0,0,1,.17-1.36,11.31,11.31,0,0,0,.14-1.73c0-.56,0-1.14.07-1.73a3.3,3.3,0,0,1-.07-.81v-.2a3,3,0,0,1,.78,0,1.37,1.37,0,0,1,.71.31c.14-.09.25-.12.34-.07a2.35,2.35,0,0,0,.34.14.31.31,0,0,1,.34-.17,1,1,0,0,1,.34.1.93.93,0,0,0,.1.17.66.66,0,0,1,.1.17.19.19,0,0,1,.14-.07,1.62,1.62,0,0,0,.34.47.35.35,0,0,0,0,.14.49.49,0,0,1,0,.2c.09.27.18.64.28,1.09s.15.9.2,1.35.09.93.13,1.43a2.6,2.6,0,0,1,0,.88,3.24,3.24,0,0,0,0,.88v.88a.35.35,0,0,0,0,.24.35.35,0,0,1,0,.24v.27a1.23,1.23,0,0,1,0,.54,3,3,0,0,0-.07.65v.64a1.08,1.08,0,0,0-.14.41v.2a8.16,8.16,0,0,0-.13,1.46,7.12,7.12,0,0,1-.14,1.39c-.09.5-.17,1-.23,1.53s-.15,1.05-.24,1.59a1.77,1.77,0,0,0-.14.64,1.75,1.75,0,0,1-.13.65c-.09.63-.18,1.13-.27,1.49a.22.22,0,0,0,.06.14.23.23,0,0,1,.07-.14,5.59,5.59,0,0,1,.34-.81c.14-.28.27-.57.41-.89l1.22-2.64a2.24,2.24,0,0,1,.34-.68.94.94,0,0,1,.2-.27,1,1,0,0,1,.14-.47l1-2.24c.09-.09.14-.16.14-.21s.07,0,.07-.06a7.61,7.61,0,0,1,.47-1,13.58,13.58,0,0,1,1-1.9l.88-1.77c.14-.22.26-.44.37-.64s.24-.42.38-.64.44-.74.64-1.12.42-.78.64-1.19c.14-.23.28-.44.41-.64a2.66,2.66,0,0,1,.54-.58l.14-.07.07-.13c.13,0,.2-.05.2-.14a1.25,1.25,0,0,1,.61,0,4.65,4.65,0,0,1,1.29.47.37.37,0,0,0,.27.07v.14h.07a1.18,1.18,0,0,1,.41-.07,1.41,1.41,0,0,1,.74.14l.24.1a1.12,1.12,0,0,1,.24.1.89.89,0,0,0-.07.41.22.22,0,0,0-.14.06.32.32,0,0,0-.34.21v.21c0,.41-.09.8-.15,1.16s-.11.74-.15,1.1-.07.55-.09.83a3.94,3.94,0,0,1-.15.82,4.28,4.28,0,0,1,0,.52,3.22,3.22,0,0,0,0,.58.53.53,0,0,0-.06.24.48.48,0,0,1-.07.23v.21l-.07.27c0,.36-.08.7-.1,1a5.76,5.76,0,0,1-.17,1q0,.61,0,1.26c0,.43-.06.87-.11,1.32s-.08.81-.1,1.22,0,.82,0,1.22a9.84,9.84,0,0,0-.07,1.19v1.19a.15.15,0,0,1,0,.1.11.11,0,0,0,0,.1v2.92a.53.53,0,0,0,0,.23.88.88,0,0,1,0,.24.61.61,0,0,0,.18-.27,1.48,1.48,0,0,1,.1-.27,1.53,1.53,0,0,0,.11-.27,1.07,1.07,0,0,1,.17-.34,1.09,1.09,0,0,1,.21-.54,4.73,4.73,0,0,0,.21-.55,1.54,1.54,0,0,1,.14-.23,2.55,2.55,0,0,0,.14-.24.69.69,0,0,1,.07-.34l.14-.27.14-.27a.55.55,0,0,0,.07-.28.71.71,0,0,0,.18-.27.58.58,0,0,1,.17-.27c0,.05,0,.05.07,0s.07,0,.07-.07a.23.23,0,0,1-.07-.27,4.23,4.23,0,0,0,.24-.4,2.68,2.68,0,0,0,.17-.48c.09-.18.18-.37.27-.58a2.77,2.77,0,0,1,.34-.57c.27-.68.58-1.38.94-2.1.09-.14.17-.28.24-.41a3.56,3.56,0,0,0,.17-.41,4.23,4.23,0,0,0,.23-.37,1.56,1.56,0,0,0,.17-.37,13.24,13.24,0,0,0,.88-1.84c.23-.36.44-.73.64-1.11s.42-.76.65-1.12l.47-.85a4.16,4.16,0,0,1,.47-.71c.18-.32.36-.62.54-.92s.36-.62.54-1a4.38,4.38,0,0,0,.37-.58c.12-.2.24-.39.38-.58l1.08-1.62a17.92,17.92,0,0,1,1.15-1.56,6.35,6.35,0,0,0,.64-.78c.2-.3.42-.58.64-.85a6.89,6.89,0,0,0,.47-.51q.21-.24.48-.51a4.94,4.94,0,0,0,.33-.37c.09-.11.21-.24.34-.37l.54-.51q.27-.24.54-.51a2.58,2.58,0,0,1,.65-.58,5.22,5.22,0,0,0,.71-.57l.3-.17a2.43,2.43,0,0,1,.3-.17.93.93,0,0,1,.61-.34.63.63,0,0,1,.41-.34,3.93,3.93,0,0,1,.88-.34h.06a.33.33,0,0,1,.31-.1.44.44,0,0,0,.3,0s0-.06,0-.06,0,0,0-.07l.13.13.25-.13.12.13a.58.58,0,0,1,.06-.2.21.21,0,0,1,.18.07l-.06.13c.09-.09.17-.11.23-.06s.13,0,.17-.07a2,2,0,0,0,.55.07.26.26,0,0,0,.2,0s.11,0,.2.1a.22.22,0,0,0,.17.07.21.21,0,0,1,.17.07,3.15,3.15,0,0,1,.85.51,8.54,8.54,0,0,1,.71.64l.21.2a1,1,0,0,0,.67.55,1.16,1.16,0,0,1,.27.34.59.59,0,0,0,.41.33,2.43,2.43,0,0,1,.48.34,3.94,3.94,0,0,0,.47.41,1,1,0,0,1,.17.2.31.31,0,0,0,.17.14,1.69,1.69,0,0,1,.41.75,1.47,1.47,0,0,1-.21,1.15c-.09.09-.16.13-.2.13a.4.4,0,0,1-.14.28v-.48a.21.21,0,0,0-.06-.27l-.41.41c0-.05-.05-.12-.14-.21a1.3,1.3,0,0,0,.07-.54.22.22,0,0,0-.1-.07.16.16,0,0,1-.1-.07c-.05.1-.06.15,0,.17s0,.06,0,.11h-.14q-.14-.14-.06-.21a.28.28,0,0,0,.06-.2,1.08,1.08,0,0,1,.14-.41l-.2-.13a.6.6,0,0,0-.06.23q0,.1-.18.24a1.85,1.85,0,0,0-.24-.41v.14a.22.22,0,0,0-.1-.07.16.16,0,0,1-.1-.07h-.14a.63.63,0,0,0-.44-.1l-.45.1a.19.19,0,0,1-.06-.13c0-.05-.05-.07-.14-.07v.27a1.76,1.76,0,0,0-.75.41,2.37,2.37,0,0,0-.41.17,4.36,4.36,0,0,0-.41.24,1.51,1.51,0,0,1-.75.47,1.3,1.3,0,0,1-.34.27c-.09.05-.15.09-.17.14a1,1,0,0,1-.17.2l-.27.14-.14.1s-.09.08-.14.17a4.28,4.28,0,0,1-.54.47l-.38.27-.31.28a3.19,3.19,0,0,0-.51.47c-.16.18-.3.36-.44.54a.38.38,0,0,1-.27.07v.07a1.13,1.13,0,0,1-.38.51,2.61,2.61,0,0,0-.44.37l-.07.07a2,2,0,0,1-.17.27,2.91,2.91,0,0,1-.24.27,2.46,2.46,0,0,1-.34.41,1.62,1.62,0,0,0-.34.47l-.41.41-.51.64a5.7,5.7,0,0,0-.44.65,4.29,4.29,0,0,0-.55.64c-.14.21-.3.42-.48.65,0,0,0,.06-.07.06a1.17,1.17,0,0,0-.23.38,1.18,1.18,0,0,1-.24.37c0,.09-.09.15-.14.17a1,1,0,0,0-.2.17c.14.13.07.2-.2.2,0,.14,0,.21-.07.21a.75.75,0,0,1-.27.47,1,1,0,0,0-.34.41v.07c-.14.27-.25.47-.34.61a.38.38,0,0,0-.1.13l-.1.14-.14.13-.27.55-.14.13a.76.76,0,0,1-.09.17.76.76,0,0,0-.09.17l-.11.07v.07a3.49,3.49,0,0,1-.39.54l-.06-.14a.56.56,0,0,0,.06-.17,1.5,1.5,0,0,1,.07-.17h.14a.49.49,0,0,0,0-.34.24.24,0,0,0,.2.07l-.13-.27h.27a1.18,1.18,0,0,1,.39-.81v-.14a1.45,1.45,0,0,1,.26-.34c.05,0,.07,0,.07-.07v-.13a2.76,2.76,0,0,0,.23-.27,1.1,1.1,0,0,1,.29-.27c0-.05,0-.07-.06-.07a1.06,1.06,0,0,1,.13-.34.24.24,0,0,0,.2.07c-.05-.23.06-.41.32-.55a.28.28,0,0,1-.06-.2h.19c0-.09,0-.14,0-.17a.29.29,0,0,0,0-.17.13.13,0,0,0,.1,0,.18.18,0,0,1,.11,0,1,1,0,0,1,.54-.88v-.13l.13-.07a1.06,1.06,0,0,1-.13-.34.19.19,0,0,1-.14.07.36.36,0,0,0-.13.24.65.65,0,0,1-.07.23l-.14.14v.2a.22.22,0,0,0-.1-.07.18.18,0,0,1-.1-.06.42.42,0,0,0-.14.3.64.64,0,0,1-.13.37,1.08,1.08,0,0,0-.54.95h-.2l-.07.14h-.13a.66.66,0,0,1,.06.27,1.91,1.91,0,0,1-.16.27.9.9,0,0,1-.23.21c-.09,0-.13.09-.1.13a.12.12,0,0,1,0,.14.11.11,0,0,0,0,.13c0,.05,0,.12-.1.21l-.13-.07a.16.16,0,0,0-.07.1.18.18,0,0,1-.06.1l-.14.14a.38.38,0,0,0-.13.27.54.54,0,0,1-.07.27s-.06,0-.06.07a.06.06,0,0,1-.07.07l-.2.37a.62.62,0,0,1-.13.19l-.2.18a.25.25,0,0,0-.2.1v.11a.17.17,0,0,0,.07.13l-.2.21c.09,0,.11.07.07.07s-.07,0-.07.07a.94.94,0,0,0-.2.27l-.13-.07a1.64,1.64,0,0,1-.27.34h.2q.08.15,0,.21a1,1,0,0,0-.13.21,2.11,2.11,0,0,1-.48.2l.2.21a1.07,1.07,0,0,0-.06.41h-.14a.94.94,0,0,0-.2.27.75.75,0,0,0-.07.35,1.39,1.39,0,0,1-.47.41v.41l-.34.34.13.14a1.24,1.24,0,0,0-.27.21.24.24,0,0,0,.07.2,1.08,1.08,0,0,0-.54.76h-.14a.21.21,0,0,1,.07.13,1.86,1.86,0,0,1-.14.25,1.57,1.57,0,0,0-.13.23.4.4,0,0,0-.14.27.31.31,0,0,1-.27.34c0,.05.07.08.07.11s0,0,.07.1.13-.05.13-.14a.63.63,0,0,0,.17-.24c0-.06.06-.14.1-.23a.46.46,0,0,1,.14-.34l.13.13a.16.16,0,0,0,.07-.1.51.51,0,0,1,.07-.17l-.14-.12.14-.12h.2l-.13-.23h.2v-.27l.34-.44a2.54,2.54,0,0,0,.27-.45,1.7,1.7,0,0,1,.2-.4l.07-.07a.89.89,0,0,0,.07-.41.22.22,0,0,1,.1-.07.18.18,0,0,0,.1-.06s.06,0,0-.1,0-.11.1-.11a.59.59,0,0,1,.2-.4.23.23,0,0,0,.14-.07c0-.05,0-.07,0-.07s0,0,0-.07V4774a.69.69,0,0,0,.2.13,4.36,4.36,0,0,0-.24.41,1.22,1.22,0,0,1-.24.34.19.19,0,0,1-.06.13.43.43,0,0,1-.21.27l-.2.41c0,.05,0,.07,0,.07s0,0,0,.07v.06a.66.66,0,0,1-.27.34.64.64,0,0,0-.07.24.36.36,0,0,1-.13.24H3778a1.32,1.32,0,0,1-.27.53.22.22,0,0,1-.07.19,2.36,2.36,0,0,1-.13.23,1.18,1.18,0,0,0-.14.22.5.5,0,0,1-.2.32l-.07.07a1.68,1.68,0,0,1-.17.44,1.56,1.56,0,0,0-.17.37c-.09.14-.18.28-.27.44a4.6,4.6,0,0,0-.27.58c0,.09-.07.16-.21.2a.94.94,0,0,1-.06.31l-.14.3a.8.8,0,0,0-.27.55,3.85,3.85,0,0,1-.34.61,4.23,4.23,0,0,0-.24.4l-.24.48c0,.09-.09.19-.13.3s-.09.24-.14.38l-.4.81a2.35,2.35,0,0,1-.14.34,1.17,1.17,0,0,1-.2.27.25.25,0,0,1,0,.14.31.31,0,0,0,0,.13c-.09.23-.18.44-.27.65s-.18.39-.27.57-.05.11-.14.21a.24.24,0,0,1-.27.27.44.44,0,0,1,0,.47,2.55,2.55,0,0,0-.2.51,1.63,1.63,0,0,1-.21.44,1.87,1.87,0,0,1-.2.51,4.6,4.6,0,0,0-.27.58,1,1,0,0,1-.07.4,7.16,7.16,0,0,1-.34.85,6.7,6.7,0,0,0-.34.92.32.32,0,0,1-.2.34.1.1,0,0,1,0-.14c.05-.05,0-.07-.07-.07s-.06,0-.06,0,0,0-.07,0v.14a.26.26,0,0,1-.07-.14c0-.05-.13-.07-.26-.07s-.08.14-.11.14,0,0,0,.13a.68.68,0,0,1-.07-.2.24.24,0,0,0-.2-.07.67.67,0,0,1-.33.07.19.19,0,0,0-.14.07,1.34,1.34,0,0,1-.4.07,1.39,1.39,0,0,0-.4.06h-1.34a.28.28,0,0,0-.2-.06.38.38,0,0,1-.07.27,1.11,1.11,0,0,1-.4-.61,5.81,5.81,0,0,1-.27-1.05,6.43,6.43,0,0,0-.2-1l-.13-1.22c-.05-.41-.11-.81-.2-1.22s-.08-1-.1-1.39,0-.87,0-1.32a2.1,2.1,0,0,0-.06-.51,1.7,1.7,0,0,1-.07-.51,10,10,0,0,1,.07-1.22c0-.41.06-.81.06-1.22s0-.74,0-1.12,0-.76,0-1.12.09-1,.14-1.46.07-1,.07-1.46.14-1.18.2-1.79.12-1.23.2-1.87a2.67,2.67,0,0,1,.07-.64c0-.21.09-.42.14-.65v-.27a.31.31,0,0,0-.21.07.54.54,0,0,1-.07.27l-.13.27-.27.55a4,4,0,0,1-.34.54,3.92,3.92,0,0,1-.27.4c-.09.19-.16.34-.21.48a2.85,2.85,0,0,1-.2.47c-.09.19-.17.34-.24.48a3.46,3.46,0,0,1-.23.41,2.06,2.06,0,0,0-.24.44q-.11.24-.24.51a4.91,4.91,0,0,1-.27.47,3.11,3.11,0,0,0-.14.31,2,2,0,0,1-.2.37c-.05.09-.09.19-.14.3a3.24,3.24,0,0,1-.13.31,4,4,0,0,1-.37.78,3.51,3.51,0,0,0-.38.78,1.61,1.61,0,0,1-.27.41,2.73,2.73,0,0,1-.41.88,1.08,1.08,0,0,1-.13.47l-.27.54c-.09.19-.21.39-.34.61s-.17.45-.24.65-.15.42-.24.64a.36.36,0,0,0-.13.21.45.45,0,0,1,.13-.55v-.2a.4.4,0,0,1,.14-.27v-.2l-.34.34a1.33,1.33,0,0,0-.07.37,1,1,0,0,1-.07.37H3760C3760.13,4783.3,3760.22,4783.32,3760.31,4783.23Zm-6.65,4.48a.25.25,0,0,0,.07-.28A.55.55,0,0,0,3753.66,4787.71Zm0,4.27c.18,0,.23-.18.14-.41A1.08,1.08,0,0,0,3753.66,4792Zm.21-1.9c.18,0,.27,0,.27.07a1.37,1.37,0,0,1-.14.61.73.73,0,0,0-.07.17.67.67,0,0,1-.06.17h-.07a.21.21,0,0,1,.07.13.62.62,0,0,0,.06.21.67.67,0,0,0,.17-.38,1.73,1.73,0,0,1,.1-.37,1.16,1.16,0,0,0,.14-.51,1,1,0,0,1,.14-.51,1.29,1.29,0,0,1,.06-.47.68.68,0,0,1,.07-.27.61.61,0,0,0,.07-.28,1,1,0,0,0,.13-.47,1.09,1.09,0,0,0,.07-.37.62.62,0,0,1,.07-.31,3.52,3.52,0,0,0,.1-.51,1.61,1.61,0,0,1,.17-.51c.05,0,.07,0,.07-.06a1.36,1.36,0,0,1,.14-.82l-.07-.06a.38.38,0,0,0-.27-.07.15.15,0,0,0,0,.1.15.15,0,0,1,0,.1c0,.05,0,.07,0,.07s0,0,0,.07v.27a1.26,1.26,0,0,1,0,.27,1.24,1.24,0,0,0,0,.27.12.12,0,0,1,0,.1.15.15,0,0,0,0,.1h-.2a.7.7,0,0,1,.13.55,1.64,1.64,0,0,0-.2.67.46.46,0,0,1-.07.21,1.24,1.24,0,0,0,0-.27.84.84,0,0,1,0-.27l-.06-.14c-.1.09-.12.16-.07.2a.34.34,0,0,1,.1.31.32.32,0,0,0,.1.3.23.23,0,0,0-.07.14.19.19,0,0,1-.06.13.37.37,0,0,1,0,.14.32.32,0,0,0,0,.14c-.09.09-.13.17-.1.23a.88.88,0,0,1,0,.24q.06.27-.27.54a.22.22,0,0,1-.14-.06A.28.28,0,0,0,3753.87,4790.08Zm.33-3.05.07-.14-.13.14Zm.48-.88c.18,0,.29,0,.34-.14a.26.26,0,0,1-.1-.27.37.37,0,0,0,0-.27c-.18.31-.22.52-.13.61A.07.07,0,0,1,3754.68,4786.15Zm.41-1.84c.18.1.24.14.2.14s0-.2-.14-.34A.28.28,0,0,1,3755.09,4784.31Zm.2.28h-.2l.13.13Zm0,.74a.61.61,0,0,0,.2-.81c.05,0,0,0-.06.13A4.33,4.33,0,0,1,3755.29,4785.33Zm.14-1.15c0,.09,0,.13,0,.13s.06,0,.1.14a.17.17,0,0,0,.07-.14.59.59,0,0,0,.07-.2s0-.11.13-.2v-.07a1.43,1.43,0,0,1,.07-.48,1.61,1.61,0,0,0,.07-.47.28.28,0,0,0-.07-.2c-.05,0-.07.13-.07.27v.07l-.13.27-.14.27a.06.06,0,0,0,.07.07.84.84,0,0,1-.07.4Zm.67-2a1.05,1.05,0,0,0,.14-.4.88.88,0,0,1,0-.24.61.61,0,0,0,0-.24l-.07-.13c-.14,0-.16.06-.07.2a4.7,4.7,0,0,0-.07.81s-.06.08-.06.11,0,.05-.07.1a.09.09,0,0,0,.13,0Zm.14-5.83c.09-.09.11-.14.07-.17s-.07-.08-.07-.17l-.14.27A.23.23,0,0,1,3756.24,4776.31Zm.07,15.6a.59.59,0,0,0-.21.41Zm1.83-23.26-.14.27a.24.24,0,0,0,.07.2h.2v.27h-.06v-.13h-.14c0-.05,0-.06,0,0s0,0,0,0a.3.3,0,0,0-.07.2c0,.18.05.27.14.27a1.15,1.15,0,0,0-.14.48c.09.09.16.11.21.07a1,1,0,0,0-.07.34.94.94,0,0,1-.2-.27.72.72,0,0,1-.07.4.69.69,0,0,0,.34.07,1,1,0,0,0-.07.34.4.4,0,0,1-.14.27.37.37,0,0,0,0,.14.31.31,0,0,1,0,.13l-.17.1a.61.61,0,0,1-.17.11.22.22,0,0,0,.14.06h.13a.5.5,0,0,0-.06.44.43.43,0,0,1-.14.44.4.4,0,0,1,0,.28.84.84,0,0,0,0,.27.28.28,0,0,1-.1-.27.31.31,0,0,0-.1-.28.19.19,0,0,1-.14.07l.14.14a.24.24,0,0,0,0,.2.25.25,0,0,1,0,.14l.13.27-.13.13c0,.1,0,.15,0,.17a.3.3,0,0,1,0,.17,1,1,0,0,0-.21.27v.07a.24.24,0,0,1-.2.07v.27a.4.4,0,0,1,.27.14c-.18.09-.27.16-.27.2a.24.24,0,0,0,.2.07v.07a.28.28,0,0,0-.2.06h-.2c-.1.14-.1.25,0,.34l.13.14a.15.15,0,0,1,0,.1.12.12,0,0,0,0,.1h.14c0,.14,0,.23-.07.27s-.13,0-.13,0,0,0-.14,0,0,.11-.14.2h.07a.13.13,0,0,0,.14-.14.45.45,0,0,1,.27.27.3.3,0,0,0-.2-.06c0,.09-.08.17-.11.23a.63.63,0,0,1-.17.24c.09,0,.15-.05.17,0a.32.32,0,0,0,.17,0c-.13.14-.18.21-.13.21a1.35,1.35,0,0,1-.14.33h.21c0,.1,0,.21-.14.34v.27a.76.76,0,0,1-.2.17.49.49,0,0,0-.14.11.32.32,0,0,0,0,.17s0,.08,0,.17h-.14v.06h.14c.13.14.18.23.13.27s-.09.26-.13.38a.87.87,0,0,0-.07.37v.14a1,1,0,0,0-.1.27,1.48,1.48,0,0,1-.1.27.17.17,0,0,1,0,.27,1.21,1.21,0,0,1-.14.34c.18-.09.27-.19.27-.31a.6.6,0,0,1,.07-.3c0-.27.09-.54.14-.82a7.19,7.19,0,0,1,.2-.88h.07v-.27a1.09,1.09,0,0,0,.07-.61s.06,0,.06,0,0,0,.07,0,.05.12.14.21v-.21h-.14s-.07,0-.07-.06l.07-.07a1.08,1.08,0,0,1,.14-.41.58.58,0,0,1,0-.41.56.56,0,0,1,.1-.3.4.4,0,0,0,0-.37v-.07a.79.79,0,0,0,.07-.54.55.55,0,0,1,0-.17.45.45,0,0,0,0-.17h.2c.09-.09.11-.15.07-.17a.42.42,0,0,1-.14-.17.33.33,0,0,0-.06-.21.38.38,0,0,0,.13-.27.61.61,0,0,1,0-.24.75.75,0,0,0,0-.23.88.88,0,0,1,0-.24.61.61,0,0,0,0-.24,1.24,1.24,0,0,1,0-.27,1.24,1.24,0,0,0,0-.27c.05.05.08.07.11.07s.05,0,.1.07l.07-.14c-.05,0-.12,0-.21-.14a1.44,1.44,0,0,1,.27-1q-.14-.14,0-.21c.07,0,.08-.11,0-.2a.49.49,0,0,1,.21-.61,1,1,0,0,1-.14-.54.41.41,0,0,1,0-.21.49.49,0,0,0,0-.2s0-.08.1-.1.08-.08,0-.17-.05.07-.14.07a2.62,2.62,0,0,0,.14-.82,4.18,4.18,0,0,1,.06-.74,1.24,1.24,0,0,0,.21-.27c0-.14-.05-.18-.14-.14a.54.54,0,0,1-.07.27.75.75,0,0,0,0-.47.66.66,0,0,1,.07-.48v-.07a.39.39,0,0,0,0-.3,1.8,1.8,0,0,1,0-.31.73.73,0,0,0,0-.4.91.91,0,0,1,0-.41,1.89,1.89,0,0,1,0-.31.5.5,0,0,0,0-.3v-.27a2.59,2.59,0,0,0,0-.68c0-.23,0-.45,0-.68v-.13l.41-.21c-.1-.09-.16-.1-.21,0s-.11.08-.2,0a1.12,1.12,0,0,0-.07-.4.47.47,0,0,1,.07-.41.11.11,0,0,0,0-.1.17.17,0,0,1,0-.1c0-.14-.09-.26-.13-.38a.52.52,0,0,1,.06-.44c0-.09,0-.13-.13-.13a.33.33,0,0,0-.07-.21,1.12,1.12,0,0,0-.14-.61l-.13-.13v.27a.11.11,0,0,0-.07-.1.12.12,0,0,1-.07-.11.23.23,0,0,0,.14.21.64.64,0,0,1,.07.24.6.6,0,0,0,.06.23h-.13c-.09.23-.07.34.07.34a.19.19,0,0,0,.06-.13.17.17,0,0,1,.07.13.23.23,0,0,0-.07.27v.21c0,.09,0,.2.14.34a.24.24,0,0,1,0,.4v-.13a.38.38,0,0,0-.27.13.4.4,0,0,1,.2.31v.37l.14-.27v.13a1.11,1.11,0,0,1-.14.48c0,.23.07.36.21.41v.4c-.1,0-.14-.09-.14-.13s0-.05-.14,0a.28.28,0,0,0,.07.2.54.54,0,0,1,.27.07.15.15,0,0,0-.1,0,.12.12,0,0,1-.1,0,1.65,1.65,0,0,1-.07.54h.21v.2a.21.21,0,0,0-.14.07.68.68,0,0,1,.07.27.54.54,0,0,0,.07.27c-.1,0-.16,0-.21,0s.08.07.1.07.06,0,.11.07,0,.27-.07.27a.12.12,0,0,0,0-.1.15.15,0,0,1,0-.1.3.3,0,0,0,.07.34.33.33,0,0,1-.21.4.46.46,0,0,1,.07.21.47.47,0,0,0,.07.2c.09.09.09.23,0,.41a.29.29,0,0,0,0-.17.12.12,0,0,1,0-.1.44.44,0,0,0-.13.33c0,.05.06.08.06.11s0,0,.07.1a.15.15,0,0,1,0,.1.12.12,0,0,0,0,.1.17.17,0,0,1-.13-.07s-.09,0-.14.07a.19.19,0,0,0,.14.07.12.12,0,0,1,0,.1s0,.08,0,.17q-.21.21,0,.27v-.27h.07s.05,0,0,0,0,0,0,0,.12.15.07.17-.07.06-.07.1v.21Zm-1.77,6.71a2.55,2.55,0,0,1,.14-.24.42.42,0,0,0,.07-.23C3756.4,4774.93,3756.33,4775.09,3756.37,4775.36Zm.07-.74a.26.26,0,0,0,.07.2.13.13,0,0,1,0-.1.12.12,0,0,0,0-.1Zm.27.81a.69.69,0,0,1-.13.2h.2A.28.28,0,0,1,3756.71,4775.43Zm-.13,15.73a.21.21,0,0,0,.27-.06A.21.21,0,0,0,3756.58,4791.16Zm.13-14a.41.41,0,0,0-.06.27A.21.21,0,0,0,3756.71,4777.13Zm.34,13.15-.2.27C3757,4790.51,3757.1,4790.42,3757.05,4790.28Zm-.13-18.11c.13,0,.16,0,.07-.13h-.07Zm.07,1.77a.59.59,0,0,0,.2.07,1,1,0,0,1-.14-.21c0-.09-.09-.11-.13-.07v.21Zm.06,1.15c.09-.14.09-.2,0-.2Zm.14-4.41a.4.4,0,0,0,.07-.27A.38.38,0,0,0,3757.19,4770.68Zm.13-1.29s0,.07,0,.07,0,0,0,.07l.07-.07c-.05,0-.07,0-.07-.07Zm.48,19.2c-.18.09-.27.2-.27.34a.72.72,0,0,1-.14.4h.21A1.75,1.75,0,0,0,3757.8,4788.59Zm-.27-12.62a.68.68,0,0,1-.07.27C3757.55,4776.2,3757.57,4776.11,3757.53,4776Zm.95,8.95.07-.06c.09-.18.16-.35.23-.51s.15-.33.24-.51a1.21,1.21,0,0,0,.14-.34.69.69,0,0,0,.2.14,2.21,2.21,0,0,0,.13-.61.38.38,0,0,0,.14-.24.34.34,0,0,1,.14-.24,1,1,0,0,0,.13-.41c0-.22,0-.36.07-.4a.07.07,0,0,0,.07-.07,2.37,2.37,0,0,1,.17-.41.9.9,0,0,0,.1-.34h.2c-.09-.09-.16-.13-.2-.13a5.15,5.15,0,0,0,.27-.48h.07a.49.49,0,0,1,0-.2.5.5,0,0,0,0-.2c.09,0,.15,0,.2,0a1.26,1.26,0,0,1,.13-.17.42.42,0,0,0,.14-.3.64.64,0,0,1,.14-.38V4779l-.07-.14s.07,0,.07,0,0,0,.06,0l.07.07a1.07,1.07,0,0,0,.07-.47h-.07c.32-.09.43-.25.34-.48v-.13a.18.18,0,0,1,0-.11.11.11,0,0,0,0-.1c.09,0,.13-.11.13-.34a.19.19,0,0,0,.14.07.77.77,0,0,0,.2-.37,1,1,0,0,1,.21-.38c-.05-.09-.09-.13-.14-.13a.47.47,0,0,0,.07-.2h.27v-.07a.19.19,0,0,1-.14-.07.89.89,0,0,1,.41-.68V4775h.2a1.05,1.05,0,0,0,.14-.4h-.07a.25.25,0,0,1,.07-.28l.14.14a1.55,1.55,0,0,1,.2-.34c.09-.09.12-.13.1-.13a.22.22,0,0,1-.1-.07c0-.09,0-.14.07-.14a.17.17,0,0,0,.13-.07c0-.09,0-.13,0-.13a.16.16,0,0,1-.1-.07.69.69,0,0,0,.13-.2.07.07,0,0,0,.07.07c.09-.1.14-.16.14-.21h.2a.66.66,0,0,0-.14-.47c.18,0,.28-.06.28-.18s0-.32.13-.5a1,1,0,0,1,.07-.34,1.21,1.21,0,0,1,.34-.14.17.17,0,0,1,0-.1.13.13,0,0,0,0-.1.17.17,0,0,1-.07-.14v-.13a.24.24,0,0,1,.2.07,2.07,2.07,0,0,1-.13-.55.18.18,0,0,1-.11,0,.13.13,0,0,0-.1,0,.32.32,0,0,1,0,.17.27.27,0,0,0,0,.17.4.4,0,0,0,.14.27l-.24.23a.66.66,0,0,1-.23.17v.34a.32.32,0,0,0-.21.34q0,.21-.27.21v.21a.24.24,0,0,0-.07.17.21.21,0,0,1-.13.18h-.07a.44.44,0,0,1-.14.28c.05,0,.07,0,.07,0s0,0,.07,0a.23.23,0,0,1-.14.07v.14h-.13c0,.05-.07.08-.07.1s0,.06-.07.11-.09.2-.13.31a3.37,3.37,0,0,1-.14.32c0,.05.05.07.14.07v.2a.38.38,0,0,0-.27-.13.24.24,0,0,0,0,.2.5.5,0,0,1,0,.2.12.12,0,0,0-.14.14c0,.05,0,.07.07.07a.33.33,0,0,1-.21.07l.14.27c-.05-.05-.08-.07-.1-.07s-.06,0-.1-.07l-.11.21s-.05.11-.1.2l-.06-.07a.46.46,0,0,1,0,.2.58.58,0,0,0,0,.21l.07.07c-.1,0-.13,0-.11,0s0,.08-.1.17a.21.21,0,0,0-.07.13.2.2,0,0,1-.06.14c-.1.05-.14.09-.14.14a.17.17,0,0,1-.07.13.28.28,0,0,1-.07.21s0,.06,0,.06,0,0,0,.07v.07l-.21.61s0,.11-.13.2-.07,0-.07.14-.08.07-.1.07a.18.18,0,0,0-.1.06.49.49,0,0,0-.07.24.49.49,0,0,1-.07.24l-.13.27h-.14a.52.52,0,0,1-.07.34s0,.07,0,.07,0,0,0,.06,0,.07.07.07a1.4,1.4,0,0,1-.21.41.21.21,0,0,1-.13.07v.07a.19.19,0,0,0,.13.06c-.09.14-.2.34-.34.61l-.06-.06h-.14l.14.27a1.35,1.35,0,0,1-.14.34h-.13a.54.54,0,0,1-.14.4v-.27l-.14.27c0,.05,0,.08,0,.1s0,.06,0,.11a.49.49,0,0,0-.07.23.38.38,0,0,1-.14.24.46.46,0,0,0,0,.48.75.75,0,0,1-.27.47s-.07,0-.07,0,0,0-.06,0a.35.35,0,0,0,0,.14.31.31,0,0,1,0,.13s.06-.07,0-.1,0-.05,0-.1v.07a1.89,1.89,0,0,1-.13.41s-.05.11-.14.2l-.13.07c0,.22,0,.36,0,.4a.27.27,0,0,1,0,.17.17.17,0,0,0,0,.1h-.14a.3.3,0,0,1-.07.34l-.2.61a.46.46,0,0,0-.07.21s0,.11-.13.2l-.14.14a.64.64,0,0,1-.2.61h.34a.4.4,0,0,1,0-.34c.09-.23.15-.42.2-.58a1.46,1.46,0,0,1,.2-.44.4.4,0,0,0,.14-.27.54.54,0,0,1,.07-.27Zm-.88-8.27c.09,0,.13-.07.13-.2C3757.64,4776.54,3757.6,4776.61,3757.6,4776.65Zm.13-15.06c0-.09,0-.13-.07-.13S3757.78,4761.5,3757.73,4761.59Zm.14,10c-.14,0-.21,0-.21.14C3757.75,4771.61,3757.82,4771.56,3757.87,4771.56Zm-.14-.27a.19.19,0,0,0,.14-.07c.09,0,.09,0,0-.13C3757.78,4771.18,3757.73,4771.25,3757.73,4771.29Zm.2,9.29c0-.09-.06-.15-.2-.2.05.05.07.08.07.1s0,.06.07.1Zm-.13.34v-.2a.13.13,0,0,1,0,.1.12.12,0,0,0,0,.1Zm.2-5.42c-.13,0-.18,0-.13.07S3758,4775.63,3758,4775.5Zm0,12.95a.61.61,0,0,1,0-.24.75.75,0,0,0,0-.23C3757.84,4788.07,3757.82,4788.22,3758,4788.45Zm.21-24.21c-.19-.05-.28,0-.28.13Zm0,14.78.06-.13c.05,0,0-.05-.06-.14h-.14l.07.07a.24.24,0,0,0,.07.2h-.14l-.07.07c.05,0,.07,0,.07,0s0,0,.07,0A.21.21,0,0,1,3758.21,4779Zm.06,8.75s0-.16.07-.34c0,0-.07,0-.07,0s0,0-.06,0A.28.28,0,0,0,3758.27,4787.77Zm.07-9.83a.79.79,0,0,0,.07-.54.26.26,0,0,0-.1.27,1.24,1.24,0,0,1,0,.27c-.09.09-.11.16-.07.2h.14A.24.24,0,0,0,3758.34,4777.94Zm.41-2.78c-.05,0-.07,0-.07.07v.2a1,1,0,0,1-.07.47.42.42,0,0,0-.13.28.26.26,0,0,0,.07.2h-.14c0,.13,0,.2,0,.2s.11.05.11.14.13-.05.13-.14a1.88,1.88,0,0,0,.07-.61,1.25,1.25,0,0,0,.07-.47c-.05,0-.07,0-.07,0s0,0-.07,0,.14-.16.14-.2.12-.09.1-.14a.23.23,0,0,1,0-.14l.14-.27v-.4h-.2v.61C3758.77,4774.93,3758.75,4775,3758.75,4775.16Zm-.27,11.93a.81.81,0,0,0,.07-.33A.27.27,0,0,0,3758.48,4787.09Zm.2-26.31c.05-.14,0-.23-.07-.27C3758.61,4760.69,3758.64,4760.78,3758.68,4760.78Zm.07,25.77a.71.71,0,0,1,.07-.34C3758.68,4786.35,3758.66,4786.46,3758.75,4786.55Zm.13-16.21a.12.12,0,0,0-.1,0s0,.05.1.1Zm0-9.08c0-.1,0-.15,0-.17a.18.18,0,0,1,0-.11C3758.77,4761.12,3758.79,4761.21,3758.88,4761.26Zm.14.47a.26.26,0,0,1-.2.07c.09.22.15.34.2.34Zm-.14,8.34a3.35,3.35,0,0,0,.14-.47c0-.05-.05-.12-.14-.21a.58.58,0,0,1,0,.21.49.49,0,0,0,0,.2A.66.66,0,0,0,3758.88,4770.07Zm.07,15.74c-.09,0-.11,0-.07.13S3759,4785.9,3759,4785.81Zm.14-12.28c-.18.14-.21.27-.07.41-.05,0-.07,0-.07,0s0,0-.07,0q.21.14.21.06a.42.42,0,0,0,0-.27,1.24,1.24,0,0,1,0-.27.17.17,0,0,1,.07-.13.49.49,0,0,0,0-.34,1,1,0,0,0-.14.34s0,.06,0,.06S3759.09,4773.49,3759.09,4773.53Zm.2-1.36a.17.17,0,0,1-.13.07,1.26,1.26,0,0,1,0,.27,1.24,1.24,0,0,0,0,.27.38.38,0,0,0,.13.28,1.31,1.31,0,0,0,.07-.44v-.45a.22.22,0,0,1,0-.13.53.53,0,0,0,0-.2v-.14l.07-.14a3.62,3.62,0,0,1,.13-.81.32.32,0,0,1,0-.27.4.4,0,0,0,0-.34.65.65,0,0,0,.1-.48,1.88,1.88,0,0,1,0-.61v-.33a.58.58,0,0,1,0-.21.46.46,0,0,0,0-.2,3.43,3.43,0,0,1,0-.48,3.18,3.18,0,0,0,0-.47,1.9,1.9,0,0,1,0-.41.8.8,0,0,0-.1-.47v-.07a2,2,0,0,0,.06-.88v-.41a2.15,2.15,0,0,1,0-.61,2.17,2.17,0,0,0,0-.61v-.54a.54.54,0,0,1-.07-.27,1.1,1.1,0,0,0,0-.51,1.7,1.7,0,0,1-.07-.51.69.69,0,0,0-.07-.34c-.09-.09-.12-.15-.1-.17a.29.29,0,0,0,0-.17c0-.09-.07-.18-.1-.27a.58.58,0,0,0-.17-.27.54.54,0,0,1,.07.27,1.57,1.57,0,0,0,.07.54,5.43,5.43,0,0,1,.13.54.32.32,0,0,1,0,.14.26.26,0,0,0,0,.2.52.52,0,0,1,.07.34,3.39,3.39,0,0,0,0,.55,4.89,4.89,0,0,1,0,.54.49.49,0,0,0,0,.2c0,.05,0,.11-.1.2l.14.14v.41a.89.89,0,0,0,0,.51,1.06,1.06,0,0,1,0,.5s0,0,0,.07a1.09,1.09,0,0,0-.07.48l.07.13a1.9,1.9,0,0,1,0,.41,2.83,2.83,0,0,0,0,.41l-.14.13c.09,0,.14,0,.14.07s-.08.14-.1.14a.18.18,0,0,0-.1.06,1,1,0,0,1,.13.55.87.87,0,0,0,0,.67.45.45,0,0,1-.13.34v.34a.72.72,0,0,1,0,.41.53.53,0,0,0-.1.41,2.69,2.69,0,0,1,0,.4l-.07.14a1.09,1.09,0,0,0,.07.61c-.05,0-.07,0-.07.07a.56.56,0,0,0-.07.34S3759.25,4772.17,3759.29,4772.17Zm-.07-7.05a.12.12,0,0,1,0-.1.15.15,0,0,0,0-.1.17.17,0,0,1-.13-.07c0,.09.05.15,0,.17a.15.15,0,0,0,0,.1Zm.55,19-.07-.07c0,.05-.08.07-.1.07s-.06.05-.11.14l.14.13A.36.36,0,0,1,3759.77,4784.11Zm.13-.27a.47.47,0,0,0,.07-.2.46.46,0,0,1,.07-.21q-.27.07-.27.27Zm.75-2,.13-.27A.28.28,0,0,0,3760.65,4781.87Zm.13-.4a.33.33,0,0,0,.21-.07h-.21Zm.27-.41a.13.13,0,0,1,0-.1.17.17,0,0,0,0-.1c.09-.09.14-.16.14-.21v-.13A.58.58,0,0,0,3761.05,4781.06Zm1.09-2.44s-.07,0-.07,0,0,0-.07,0a.45.45,0,0,1-.06.27h-.07a3.42,3.42,0,0,1-.17.4,1.06,1.06,0,0,0-.1.48.16.16,0,0,1,.1-.07s.05,0,.1-.07a1,1,0,0,0,.17-.4,1,1,0,0,1,.17-.41s.07,0,.2-.14c-.09-.09-.16-.13-.2-.13a.28.28,0,0,0,.14-.34.17.17,0,0,0-.07.13l-.14.14S3762.14,4778.57,3762.14,4778.62Zm.34-.68c-.09,0-.13.09-.1.13a.11.11,0,0,1,0,.14A.19.19,0,0,0,3762.48,4777.94Zm.27-.41a.54.54,0,0,0-.07-.27l-.13.27c0,.05,0,.07,0,.07s0,0,0,.07Zm-.07-1.05a.51.51,0,0,1-.07.17h.07l.21-.2-.14-.14A.51.51,0,0,0,3762.68,4776.48Zm.34.44c-.09-.18-.13-.16-.13.07,0,0-.07.05-.07.14a.2.2,0,0,0,.07.27A2.46,2.46,0,0,0,3763,4776.92Zm.48-.68-.28-.13a1.19,1.19,0,0,1-.13.54l.27-.14A.36.36,0,0,1,3763.5,4776.24Zm.06-.34a.68.68,0,0,1,.07-.27.19.19,0,0,1-.13-.06.43.43,0,0,0-.07.2.21.21,0,0,1-.07.13Zm.41-1.22a.28.28,0,0,1-.07.21s0,.06.07.06a.94.94,0,0,0,.2-.27Zm.2-.4a.28.28,0,0,0-.06.2s.06-.07.2-.07Zm.41-.55-.2.21a.15.15,0,0,1,.1,0,.15.15,0,0,0,.1,0Zm.34-.74a1.31,1.31,0,0,0-.2.27l.13.14a.39.39,0,0,1,0-.21.49.49,0,0,0,0-.2.12.12,0,0,0,.1,0,.15.15,0,0,1,.1,0,.15.15,0,0,0,0-.1.15.15,0,0,1,0-.1C3765,4772.76,3764.92,4772.85,3764.92,4773Zm.35-2.66q-.15,0-.15.06a.55.55,0,0,1-.06.19.49.49,0,0,1,.06.31.32.32,0,0,1,.22.06s0-.06.08-.06l-.15-.13.11-.18a1.44,1.44,0,0,1,.11-.19.22.22,0,0,1,.07.19c.1-.09.08-.15-.07-.19l.44-.19a.34.34,0,0,0-.22-.06.37.37,0,0,0,.3-.41q-.15.14-.15.21h-.08a.71.71,0,0,0,.08-.34.61.61,0,0,0,.42-.21c-.05,0-.07,0-.07-.06a.26.26,0,0,1,.27-.21.24.24,0,0,1,.07-.2c-.09.09-.17.12-.24.1a.88.88,0,0,0-.24,0c-.09.09-.14.16-.14.2s0,.07,0,.07,0,0,0,.07-.1.13-.15.13-.05.05,0,.14,0,.06-.08.06-.07-.07-.07-.1,0-.05-.07-.1v.2h-.22v.14a.21.21,0,0,1-.15.07h-.07c.09.18.17.27.22.27a.17.17,0,0,0-.08.12C3765.34,4770.31,3765.32,4770.33,3765.27,4770.33Zm.24,1.51-.09.2a3.05,3.05,0,0,0-.36.61l.27-.14v-.27a.53.53,0,0,0,.27-.13.27.27,0,0,0,0-.14.22.22,0,0,1,0-.13q.15,0,.09-.21c0,.09,0,.14,0,.14S3765.51,4771.79,3765.51,4771.84Zm1.24-3.4.14-.27q-.34-.14-.48,0v.27c-.18.1-.22.21-.13.34a.27.27,0,0,0,.13-.34Zm-.41,1.84a.44.44,0,0,0,0,.47Zm1.56,9.22a1.24,1.24,0,0,0,.21-.27,1,1,0,0,0-.41.13A.69.69,0,0,1,3767.9,4779.5Zm-.2,2a.19.19,0,0,0,.07.14h.07l-.07-.14Zm.14-3.18q.13-.14,0-.21Q3767.71,4778.27,3767.84,4778.35Zm.61.74a.17.17,0,0,0,0,.27v.27a.62.62,0,0,0-.07.48c-.05,0-.07,0-.07.07a.53.53,0,0,0,0,.23.74.74,0,0,0,0,.48.61.61,0,0,0,0,.24c.09-.09.18-.12.27-.07l.07.41a.21.21,0,0,1-.15,0,.27.27,0,0,0-.12,0v.13s0,.05-.07.14l.24.2a1.35,1.35,0,0,1,.1.75.21.21,0,0,0-.1-.2.24.24,0,0,1-.1-.21c0-.18,0-.29-.14-.34a.54.54,0,0,1-.07.27v.21c.05.09.08.13.11.13s.05,0,.1.07l-.14.14a.22.22,0,0,1,.14.06,1.15,1.15,0,0,0-.14.48c.09-.09.2-.09.34,0h-.14a.49.49,0,0,1,0,.2.35.35,0,0,0,0,.14.38.38,0,0,0,.13.27v.2l-.13-.13a.66.66,0,0,0,.06.27.18.18,0,0,1,.11,0,.11.11,0,0,0,.1,0l.07.54a.54.54,0,0,0-.14.2.61.61,0,0,1,.1.14.57.57,0,0,0,.1.13.17.17,0,0,1-.13.07.21.21,0,0,0-.14-.2c-.09.09-.11.15-.07.17s.07.08.07.17l.14-.14a.45.45,0,0,0,.13.34.17.17,0,0,1-.13.07l.13.27a1,1,0,0,0,.14-.54,1.24,1.24,0,0,0,0-.27.35.35,0,0,1,0-.28,1.52,1.52,0,0,1-.1-.94v-.07a4.24,4.24,0,0,1-.1-.92v-.85a.3.3,0,0,1,.06-.2.59.59,0,0,1-.06-.34,1.61,1.61,0,0,0-.07-.47l.07-.14a.46.46,0,0,0,0-.2c0-.05,0-.11,0-.21a.28.28,0,0,1,.13-.27.54.54,0,0,0-.13-.4l.06-.28a3.13,3.13,0,0,0-.06-.67,2.51,2.51,0,0,0,.06-.55,2.5,2.5,0,0,1,.07-.54l-.07-.54a1.19,1.19,0,0,1,.11-.68s0-.07-.06-.07,0,0,.06-.13.05-.12.17-.21a1.13,1.13,0,0,1-.23-.34c0-.09,0-.2.16-.33l-.07-.41a1,1,0,0,0,.14-.68v-.07l-.07-.47a1.54,1.54,0,0,0,.09-.48,1.54,1.54,0,0,1,.09-.47.48.48,0,0,0-.09-.27q-.09-.14.09-.27c0-.05,0-.07.09-.07l-.07-.88a.62.62,0,0,0,.09-.34.59.59,0,0,1,.09-.34.6.6,0,0,1,0-.24.61.61,0,0,0,0-.24,2.62,2.62,0,0,1,0-.61v-.07a1.11,1.11,0,0,0,0-.81s0-.07,0-.07,0,0,0-.06,0-.07,0-.07,0,0,0-.07a.42.42,0,0,1,0-.48.68.68,0,0,0,0-.4.75.75,0,0,0,.06-.31.42.42,0,0,1,.14-.3c-.14-.18-.09-.32.13-.41a1.53,1.53,0,0,1,0-.85c.07-.29.12-.55.17-.78l.14-.13c0-.05,0-.11-.14-.21l-.14.28a1.2,1.2,0,0,0-.2.47.4.4,0,0,0,.14.27c-.09,0-.15,0-.17,0a.17.17,0,0,1-.1,0c0,.09,0,.13.06.13a.63.63,0,0,0-.2.41,4.4,4.4,0,0,1,0,.48h.23l-.2.13a.17.17,0,0,0,.14.07.24.24,0,0,0,0,.2c0,.05,0,.12-.1.21v-.27l-.18.4a.48.48,0,0,0,.06.24.48.48,0,0,1,.06.24l-.12.13a1.2,1.2,0,0,0-.06.61,2.35,2.35,0,0,0-.06.51,2.35,2.35,0,0,1-.06.51l-.11.07.08.13a.42.42,0,0,0,.09.14v.2h-.12a.52.52,0,0,0,0,.21.21.21,0,0,1-.07.13c.12.14.16.25.12.34a.12.12,0,0,1-.09,0,.15.15,0,0,0-.1,0,.3.3,0,0,1,0,.24.31.31,0,0,0,0,.24.56.56,0,0,1,.07.34c-.1,0-.14,0-.14.07l.2.2a2.29,2.29,0,0,0-.06.61.33.33,0,0,1-.28.34c.05,0,.08.07.11.07s.05,0,.1.06l-.07.55a.66.66,0,0,0-.17.1.66.66,0,0,1-.17.1c.09.09.14.16.14.2a.19.19,0,0,0-.07.14v.07l.13.27c-.09,0-.13,0-.13-.07l.07.34a.12.12,0,0,1-.05.1.15.15,0,0,0,0,.1.53.53,0,0,0,.15.17c.05,0,.07.08.07.17h-.22a.89.89,0,0,1,.12.24q0,.1-.12.24s0,.06.09.06l.13.07a1,1,0,0,0-.13.41,2.14,2.14,0,0,1-.41.27l.19.34c0,.05,0,.11-.12.2a1,1,0,0,1,.17.41.3.3,0,0,0-.24.07v.2c.1.09.15.16.15.2h-.15c0,.05.08.14.24.28a1.34,1.34,0,0,1-.17.34.19.19,0,0,1,.08.13l-.15.27Zm.06,7.12c0,.05.07.08.07.11s0,.05.07.1C3768.69,4786.28,3768.65,4786.21,3768.51,4786.21Zm.34-13.56c.05,0,0,0-.06-.14v.14Zm.07,6.58s.07-.07.07-.21h-.07C3768.83,4779.12,3768.83,4779.18,3768.92,4779.23Zm0-11.74a.67.67,0,0,0,.07-.33A.31.31,0,0,1,3768.92,4767.49Zm.34,10.79.07-.14c0-.09,0-.13-.14-.13Zm.14-1.36a.44.44,0,0,0-.07-.27s-.06,0,0,0,0,0,0,0a.24.24,0,0,1,.07.2Zm.34.61v.34h-.07a1.08,1.08,0,0,0-.14.41.52.52,0,0,1,.21.47c-.1,0-.1.05,0,.14a1.24,1.24,0,0,0,0,.27.28.28,0,0,1-.1.27l.13.14-.13.13a.28.28,0,0,0,.07.21.28.28,0,0,1,.06.2c0,.14-.08.26-.1.37a.73.73,0,0,0,0,.38.24.24,0,0,0-.07.2.37.37,0,0,1,.1.34,2.35,2.35,0,0,0,0,.34v.13a4.83,4.83,0,0,0,.06.82l-.06.06a.36.36,0,0,0,.13.21.11.11,0,0,1,0-.1.18.18,0,0,0,0-.11.84.84,0,0,0-.07-.4,1.25,1.25,0,0,1,0-.31,1.69,1.69,0,0,0,0-.3c0-.05,0-.12-.07-.21v-.88a2,2,0,0,0,0-.64,1.8,1.8,0,0,1,0-.65,2.6,2.6,0,0,1,0-.88v-1.83s0-.07,0-.07,0,0,0-.07a.07.07,0,0,0-.07.07v.68s-.06,0-.06.07Zm.13-1.29q-.13.14,0,.21Zm-.07-.47a.13.13,0,0,0,.14-.14,1.61,1.61,0,0,0,.07-.47c0-.23,0-.44,0-.65a6.4,6.4,0,0,0,0-.64.27.27,0,0,1,0-.17s0-.08,0-.17l-.13.27v.34a1.24,1.24,0,0,1,0,.27.84.84,0,0,0,0,.27v.21a1.69,1.69,0,0,1,0,.3.31.31,0,0,0,.1.31Zm.14.13a.25.25,0,0,0,0,.34.53.53,0,0,1,0-.2.23.23,0,0,0,0-.14Zm.07-6.51a.54.54,0,0,1-.07-.27C3769.85,4769.21,3769.87,4769.3,3770,4769.39Zm.06,3.87a.49.49,0,0,0,.07-.24.53.53,0,0,1,.07-.24,4.6,4.6,0,0,1,.07-.94,5.63,5.63,0,0,0,.07-.78,5.32,5.32,0,0,1,.06-.78,1.53,1.53,0,0,1,0-.38,2.13,2.13,0,0,0,0-.37,1.84,1.84,0,0,1,.14-.68,1.79,1.79,0,0,0,.13-.68,3.18,3.18,0,0,1,0-.57,3.52,3.52,0,0,1,.1-.51,2.83,2.83,0,0,1,0-.41c0-.13.06-.29.1-.47a2.15,2.15,0,0,1,.07-.61.14.14,0,0,1,0-.11s0-.07-.11-.17a.55.55,0,0,1,0,.21.49.49,0,0,0,0,.2.47.47,0,0,0-.07.2,3.75,3.75,0,0,1-.14.82s0,0,0,.07v.37a.41.41,0,0,1-.13.3,3.74,3.74,0,0,0-.09.78,4.3,4.3,0,0,1-.08.78.35.35,0,0,1-.09.28c.06,0,.06.09,0,.13a1.4,1.4,0,0,1,0,.37,1.92,1.92,0,0,0,0,.45l-.07.13c0,.09,0,.14.07.14a25.44,25.44,0,0,0-.14,1.42,5.59,5.59,0,0,0-.07.95c0,.05-.06.08-.06.1s0,.06-.07.1v.07C3770,4773.19,3770.07,4773.21,3770.07,4773.26Zm0-5.09c0,.05-.06.08-.06.1s0,.06-.07.11a.15.15,0,0,1,.1,0,.15.15,0,0,0,.1,0C3770.19,4768.35,3770.16,4768.26,3770.07,4768.17Zm.55,18.72c.13-.09.16-.18.07-.27Zm.26,1.29s-.11,0-.19.14v.06a1.32,1.32,0,0,1,.06.48.59.59,0,0,0,.07.34,3.79,3.79,0,0,1,.28-1.05,6.27,6.27,0,0,0,.35-1.06q.18.14.18.21V4787a.4.4,0,0,1-.31.13v.21a.22.22,0,0,1-.06-.14s-.05-.09-.13-.13a.41.41,0,0,0,.06.23.4.4,0,0,1,.07.24,2.86,2.86,0,0,0-.32.41v-.2a.38.38,0,0,0-.25.27c.08,0,.13.08.13.1S3770.84,4788.13,3770.88,4788.18Zm.14-22.92q.14-.54.21-1c0-.32.09-.66.13-1v-.07a.76.76,0,0,1-.13.21.24.24,0,0,0-.07.2.72.72,0,0,1,0,.41c0,.13-.09.27-.14.4a.4.4,0,0,1,0,.34A1.28,1.28,0,0,0,3771,4765.26Zm.55,21.16a.22.22,0,0,1-.07-.17c0-.07-.05-.08-.14,0a.25.25,0,0,1,0,.21.35.35,0,0,0,0,.2l.07.07a.94.94,0,0,0-.27.2.24.24,0,0,0,.2-.07.19.19,0,0,0,.14.07l.27-.41.14-.06-.14-.14a.24.24,0,0,1,.07-.2.69.69,0,0,0,.2-.48l.14-.13.13.13v-.06l-.07-.07c0-.05,0-.18.14-.41a.15.15,0,0,1,0-.1.12.12,0,0,0,0-.1,5.34,5.34,0,0,1,.27-.68.58.58,0,0,0,.17-.34,1,1,0,0,1,.17-.41v-.13a1.84,1.84,0,0,1-.27.23,2.91,2.91,0,0,0-.27.24.86.86,0,0,1,.2.14s0,.08-.1.1-.06,0,0,0a.36.36,0,0,1-.13.21s-.07.06-.21.06l-.07-.06a.15.15,0,0,1,0,.1.15.15,0,0,0,0,.1l.13.14a.15.15,0,0,0-.1,0,.29.29,0,0,1-.17,0,.77.77,0,0,1,.27.34.68.68,0,0,0-.27.07.21.21,0,0,0-.13-.07h-.07a.38.38,0,0,1,.13.27.15.15,0,0,1-.1,0,.15.15,0,0,0-.1,0s0,.06,0,.06,0,0,0,.07a.19.19,0,0,0-.14.07c0,.18-.11.41-.2.68a.21.21,0,0,0,.13.07A.45.45,0,0,1,3771.57,4786.42Zm-.14,3.25a2.92,2.92,0,0,0-.2.48c-.09.09-.07.13.07.13l.13-.13v-.48c.14,0,.23,0,.27.07a.24.24,0,0,0-.07-.2.22.22,0,0,1-.06-.14A.4.4,0,0,0,3771.43,4789.67Zm.34-.4a.4.4,0,0,0-.14-.28.22.22,0,0,1-.06.14.18.18,0,0,1,.06.1.22.22,0,0,0,.07.1Zm.14-.89s0-.06-.07-.06a.53.53,0,0,1,0,.23.88.88,0,0,0,0,.24h.07s0,0,.07,0,0-.11,0-.2Zm.33-.81c-.13.23-.18.36-.13.41s.13.09.27,0a.23.23,0,0,1-.07-.14c0-.09,0-.15,0-.17a.15.15,0,0,0,0-.1h.21a.26.26,0,0,1-.07-.2l.07-.07v-.07c-.05.05-.08.07-.11.07s0,0-.1.07a.3.3,0,0,0,.07.2Zm.14-.48.14.07.06-.13a.11.11,0,0,1,0-.1s0-.08,0-.17a.93.93,0,0,1-.1.17A.93.93,0,0,0,3772.38,4787.09Zm.34-.94a.29.29,0,0,1,.17,0,.15.15,0,0,0,.1,0,.24.24,0,0,0,.07-.2.29.29,0,0,0-.17,0s-.08,0-.17,0Zm0,.47a.3.3,0,0,0,.07-.41.41.41,0,0,1,0,.21A.49.49,0,0,0,3772.72,4786.62Zm.54-3.93a.45.45,0,0,0-.2.4.4.4,0,0,0,.1-.17C3773.18,4782.86,3773.22,4782.78,3773.26,4782.69Zm-.13,3a.26.26,0,0,0,.2-.07.26.26,0,0,1,0-.27.68.68,0,0,0,.07-.27h-.07a2.82,2.82,0,0,0-.1.34A1.48,1.48,0,0,1,3773.13,4785.67Zm9.49-19.21.07-.05a.13.13,0,0,0-.14-.14v.07a.17.17,0,0,1-.13-.07c.09-.1.16-.14.2-.14a.29.29,0,0,0,.07-.22c.09.05.14.11.14.18s0,.08.13,0a.62.62,0,0,0,.14-.43.74.74,0,0,1,.06-.53.94.94,0,0,1,.39-.46.08.08,0,1,0,.06-.06s0-.09.07-.14,0,0,.13.2a.19.19,0,0,1,.06-.13.21.21,0,0,0,.07.14s.06,0,.06,0l-.19-.35a.18.18,0,0,1,.13-.06v-.13l.26-.41a.57.57,0,0,1,0,.24.88.88,0,0,0,0,.24,1.85,1.85,0,0,0,.2-.27,1.23,1.23,0,0,1,.19-.27v-.14a.78.78,0,0,1,.14-.54c.1-.09.14-.16.14-.21l.08-.06.14.13c0,.09,0,.14-.11.14s-.08.07,0,.2a.55.55,0,0,0,.42-.52h-.21c0-.09.09-.14.14-.14s.09-.05.14-.15l.07-.14h.22l-.22-.2a.41.41,0,0,0,.21-.2c0-.09.15-.12.29-.07s.06,0,0,.1,0,.12.11.17v-.54a.7.7,0,0,1,.14-.21l.2-.2h.07l.13-.07v-.2a1,1,0,0,0,.27-.21.3.3,0,0,1,.21-.33s-.07.13-.07.27.11,0,.2.13a.33.33,0,0,1,0-.23.88.88,0,0,0,0-.24c.05,0,.07.13.07.27.18-.05.28-.12.31-.24a.51.51,0,0,1,.17-.3v-.27s.11,0,.2.13v-.13c-.05-.05-.07-.08-.07-.11s0-.05-.07-.1l.14-.13.14.13a1.72,1.72,0,0,0,.16-.44c0-.11.13-.19.31-.24a.94.94,0,0,1,.2-.27.66.66,0,0,0,.17-.1.93.93,0,0,1,.17-.1,1.18,1.18,0,0,1,.34-.41.25.25,0,0,0,.2-.27.17.17,0,0,1,.14.07.8.8,0,0,0,.17-.21.35.35,0,0,1,.17-.13,2,2,0,0,1,.34-.27.45.45,0,0,0,.27-.27.4.4,0,0,0,.27-.14.94.94,0,0,1,.27-.2l.14-.14a.42.42,0,0,0,.34-.2h.07a.38.38,0,0,1,.13-.1.67.67,0,0,0,.14-.11c.09.1.15.11.2,0s.09-.08.14,0l-.07-.27q.2.07.27,0l.2-.2a.35.35,0,0,1-.17-.14s-.08,0-.17,0a.14.14,0,0,0,0,.11.13.13,0,0,1,0,.1h-.2c0-.14,0-.21-.14-.21s-.12.15-.1.17,0,.06-.1.11c.14,0,.2,0,.2.06l-.1.14a.38.38,0,0,1-.1.13l-.26-.13a.51.51,0,0,0-.07.17.51.51,0,0,1-.07.17l-.13-.27c-.09.09-.11.14-.07.17s.05.08,0,.17l-.07.13a.32.32,0,0,0-.2.07l-.13.07a.57.57,0,0,0-.33.34.23.23,0,0,1-.14-.07,1.8,1.8,0,0,0-.2.24c0,.06-.16,0-.33,0a.25.25,0,0,1,0,.24,2.55,2.55,0,0,0-.14.24c-.09,0-.14,0-.17,0a.13.13,0,0,0-.1,0s0,.07,0,.07,0,0,0,.06a.24.24,0,0,1,.06.14.27.27,0,0,0-.2.07h-.2l-.26.27a.22.22,0,0,1,.06.14.63.63,0,0,0-.13-.11.31.31,0,0,1-.13-.1c-.05.09,0,.15,0,.17s.08.06,0,.1a.27.27,0,0,0-.27.21,1.45,1.45,0,0,1-.26.34.11.11,0,0,1-.1,0,.17.17,0,0,0-.1,0,.33.33,0,0,0-.07-.21.16.16,0,0,1-.17-.13.16.16,0,0,0-.17-.14.27.27,0,0,0,0,.17.32.32,0,0,1,0,.17c.05,0,.11.05.2.14l.27.13c-.09,0-.13.09-.13.14s-.05.09-.14.13,0-.13-.13-.13-.07,0-.07.07,0,.09-.13.13a.83.83,0,0,0,.06-.34h-.06a.61.61,0,0,1-.2.41v-.07l-.41.21a.53.53,0,0,1,0,.2s0,.11,0,.2a.28.28,0,0,0-.2.07c0,.05,0,.07.13.07a.22.22,0,0,0-.07.1.18.18,0,0,1-.06.1.28.28,0,0,1-.21.07.43.43,0,0,1-.06-.27c-.1.09-.13.17-.11.24a.33.33,0,0,1,0,.25.13.13,0,0,1-.1,0,.18.18,0,0,0-.1,0v.08l.13.14a.06.06,0,0,1-.07.07v.42a.31.31,0,0,0-.22.07.23.23,0,0,0,0-.25.4.4,0,0,1-.07-.24.12.12,0,0,1,0,.1.18.18,0,0,0,0,.11v.21c0-.05,0-.07-.08-.07a.39.39,0,0,0-.07.28.31.31,0,0,1-.18,0s-.09,0-.19,0v.28s.08-.07.1-.07.06,0,.11-.07a.36.36,0,0,0,.13.21c0,.1-.13.12-.27.08l-.2-.22-.14.14a.42.42,0,0,1,.07.29.28.28,0,0,1,.2.06c-.09.09-.17.12-.24.07a.23.23,0,0,0-.23,0c0,.09,0,.13,0,.13s.1,0,.1.14-.1.12-.17.1a.15.15,0,0,0-.17,0,.39.39,0,0,0-.06.26,1.24,1.24,0,0,0-.21.27.54.54,0,0,0-.07-.27.17.17,0,0,1-.13.07,1.57,1.57,0,0,0,.13.23q.07.1-.06.24a.28.28,0,0,0-.07-.2c0-.18-.05-.18-.14,0l.07.13h-.2a.17.17,0,0,1-.1.17c-.07,0-.06.07,0,.16h-.2a1.4,1.4,0,0,1-.07.4c0-.09,0-.13,0-.13s0,0,0-.07-.12.1-.1.17a.15.15,0,0,1,0,.16c-.1,0-.14,0-.14-.06a.35.35,0,0,0,0,.13.22.22,0,0,1,0,.13s.11.05.2.14a.51.51,0,0,1-.13.09.71.71,0,0,0-.14.1v.14a1.12,1.12,0,0,1-.1-.24.17.17,0,0,0-.17-.09.34.34,0,0,1,0,.19.53.53,0,0,0,0,.2.4.4,0,0,1-.27.14.21.21,0,0,1,.14.2c-.1.09-.16.13-.21.13h-.2a.17.17,0,0,0,.07.24q.14.11,0,.24l-.13-.14-.26.14a1.18,1.18,0,0,1-.13.4l-.26.14a.31.31,0,0,0,0,.13.35.35,0,0,1,0,.14h-.19a.28.28,0,0,1-.06.2,2.34,2.34,0,0,0-.2.27h.2a.49.49,0,0,0-.46.55.28.28,0,0,1-.2.06c-.05,0-.07-.07-.07-.1s0-.05-.07-.1c-.09.14-.1.25,0,.34s0,.18,0,.27h-.06v.27h.13l-.17.1a.61.61,0,0,1-.17.11l.21.2v-.14a.32.32,0,0,1-.07.34c-.05-.09-.06-.15,0-.2s0-.07-.11-.07-.1.16,0,.21.08.11,0,.2,0-.07-.13-.07-.07,0-.07.14l.14.13-.07.14a1.24,1.24,0,0,0-.1-.17.61.61,0,0,1-.11-.17,1.72,1.72,0,0,0-.2.34.94.94,0,0,0-.2.27l-.07.13c0,.05,0,.07,0,.07s0,0,0,.07l-.13.14h-.07a1.55,1.55,0,0,1-.21.61.28.28,0,0,1,0-.21.26.26,0,0,0,0-.2.59.59,0,0,0-.27.47c.09-.09.13-.15.13-.2s.08.07.1.07.06,0,.1.07h-.2a.52.52,0,0,1,.2.34l-.27-.14v.14a.84.84,0,0,0-.4-.07c0-.14.09-.26.13-.38a2.09,2.09,0,0,1,.21-.37h.13v-.41h-.07v.21a.17.17,0,0,1-.13-.07h-.07s-.07,0-.07.07a.26.26,0,0,1,0,.3.7.7,0,0,0-.17.31,4.92,4.92,0,0,1-.31.41c-.11.13-.21.27-.3.4v.07l.13.14-.2.2.14.07a.28.28,0,0,0-.21.07l-.2-.21-.07.07c.05.05.07.08.07.1a.16.16,0,0,0,.07.1.76.76,0,0,0-.07.55l.07.06a.29.29,0,0,1-.17,0,.32.32,0,0,0-.17,0,.26.26,0,0,0,.07.2.28.28,0,0,1,.06.2h.14a.19.19,0,0,1-.07.14.09.09,0,0,0,0,.13c.09,0,.14,0,.14-.06s0-.07.13-.07a.65.65,0,0,0-.17.34.61.61,0,0,1-.17.34s-.06,0-.06.13-.06.08,0,.1,0,.08,0,.17a1,1,0,0,0-.21.34.77.77,0,0,1-.2.34h-.07a.18.18,0,0,1-.06-.1.22.22,0,0,0-.07-.1c-.05.13,0,.2.13.2s.09.15.14.17,0,.08,0,.17h-.2a.43.43,0,0,1-.14.17.61.61,0,0,0-.14.1v.34a.16.16,0,0,1-.1.07s-.05,0-.1.13a.77.77,0,0,0-.07.28h-.2a.5.5,0,0,1-.07.44,1.41,1.41,0,0,0-.2.3v.27c-.09,0-.14,0-.14.07s0,.09-.13.14l-.21-.14v.27s.08-.07.11-.07.05,0,.1-.06l.06.06a.86.86,0,0,1-.2.28.16.16,0,0,0-.1-.07.16.16,0,0,1-.1-.07c0,.14,0,.23.13.27s.12.11.21.34a.06.06,0,0,1-.07.07h-.07v-.14a.16.16,0,0,0-.17.1.4.4,0,0,1-.1.17.06.06,0,0,0-.07.07s.07,0,.07,0,0,0,.07,0a.28.28,0,0,1-.21.07,1,1,0,0,0-.13.4.28.28,0,0,1,.2.07.54.54,0,0,1-.4.14.24.24,0,0,0-.07.2.12.12,0,0,1,.1,0,.15.15,0,0,0,.1,0,.54.54,0,0,0,.07.27.42.42,0,0,1-.2-.17q-.08-.11-.21,0l.14.27c-.18-.05-.27,0-.27.2.13,0,.2.05.2.14l-.14.07.07.13v.07h-.27c-.09.18-.14.25-.14.2l.14.14s.07,0,.07-.07a.21.21,0,0,1,.07-.14,2,2,0,0,1-.17.51,1.63,1.63,0,0,0-.17.38c0-.05-.08-.07-.1-.07s-.06,0-.11-.07,0,0,0,.07v.54l-.13-.14h-.07a1.44,1.44,0,0,1-.14.82h.21v-.14a.65.65,0,0,0,.17-.3,1.12,1.12,0,0,1,.17-.38,2.85,2.85,0,0,0,.13-.33c.05-.14.09-.28.14-.41a.4.4,0,0,1,.27-.14s0-.06,0-.06,0,0,0-.07.14-.16.14-.21,0-.27.2-.43a.53.53,0,0,0,.2-.06q-.2,0,0-.18a.18.18,0,0,1,.11,0,.13.13,0,0,0,.1,0,.17.17,0,0,1-.07-.13c0-.05,0-.1-.14-.14a.92.92,0,0,1,.21-.42.36.36,0,0,1,.13.21l.07-.07a.23.23,0,0,1-.07-.14.24.24,0,0,0-.06-.14.36.36,0,0,0,.13-.24.49.49,0,0,1,.07-.24.63.63,0,0,0,.17-.24.73.73,0,0,1,.17-.25c.09.1.16.14.2.14a.4.4,0,0,0,.14-.27.33.33,0,0,1-.21-.07.19.19,0,0,0,.07-.14.19.19,0,0,1,.07-.14v-.21a.26.26,0,0,1,.14.07v.21q.2-.21,0-.21v-.34a.3.3,0,0,0,.2-.07.17.17,0,0,1,.13-.07c.05,0,.07-.08.07-.11s0-.05.07-.1-.14-.16-.14-.21a.32.32,0,0,1,.21-.34.68.68,0,0,1,.07.27h.13c0,.14.05.21.14.21a.33.33,0,0,0,.06-.21h-.2a.24.24,0,0,0-.07-.2h.21a.94.94,0,0,1,.27.2.26.26,0,0,0,0-.2.23.23,0,0,1,0-.2H3777s-.11,0-.2-.14c-.09.09-.14.16-.14.2a.21.21,0,0,0-.13.07,1.16,1.16,0,0,1,.13-.34h.27a.88.88,0,0,0,.21-.54.31.31,0,0,0,.17-.2.32.32,0,0,1,.17-.21l-.07-.07.07-.06v-.14c.18,0,.25-.18.2-.41l.27-.13a.26.26,0,0,0,.1-.27,1.24,1.24,0,0,1,0-.27c0-.14.11-.22.2-.24a.58.58,0,0,0,.27-.17.28.28,0,0,0-.06-.2c.18,0,.29-.12.34-.34a.37.37,0,0,0,0-.14.49.49,0,0,1,0-.2l.13.13c.18-.09.25-.13.21-.13v-.07s0-.08,0-.1,0-.06,0-.1h.07a.84.84,0,0,1-.07.4.35.35,0,0,1-.13.17c-.05,0-.05.08,0,.17h.2l.07.14a2.29,2.29,0,0,0,.07-.44.38.38,0,0,1,.2-.3v-.19c-.09-.09-.16-.14-.2-.14a.59.59,0,0,0,.07-.2.19.19,0,0,1,.06-.13.4.4,0,0,0,.14-.27.24.24,0,0,1,.07-.19,1.16,1.16,0,0,0,.13-.2l.14-.14a.28.28,0,0,0,.07-.2.38.38,0,0,1,.13-.26.12.12,0,0,0,0,.1.13.13,0,0,1,0,.1l.14-.4a.24.24,0,0,1,.2-.07.31.31,0,0,0,0-.13.22.22,0,0,1,0-.13c.05,0,.06,0,0,0s0,0,0,0a.4.4,0,0,0-.14-.27s.07,0,.07,0,0,0,.07,0a.36.36,0,0,0,.13.21v-.34a.19.19,0,0,0,.14-.07.62.62,0,0,1-.07-.31c0-.11.05-.14.14-.1l.07.14h.27l-.14-.07a.71.71,0,0,0,.27-.34c.09-.09.14-.16.14-.2a.62.62,0,0,1,.1-.31,1.76,1.76,0,0,1,.24-.3h.13c0-.05,0-.07,0-.07s0,0,0-.07a.88.88,0,0,0,0-.24.53.53,0,0,1,0-.23l.14-.07v-.2a1.35,1.35,0,0,0,.34-.14v-.07C3782.55,4766.61,3782.62,4766.56,3782.62,4766.46Zm-9.22,18.26c0,.09.09.11.13.07Zm.27-.13c-.09,0-.14,0-.14.06S3773.67,4784.63,3773.67,4784.59Zm.07-3.73c-.09.09-.12.18-.07.27A.23.23,0,0,0,3773.74,4780.86Zm.27.74q-.14.21,0,.27Zm0-2.51c0-.13,0-.2-.07-.2A.24.24,0,0,0,3774,4779.09Zm.2,4.48c0-.09-.11-.09-.2,0Zm0-.61a.3.3,0,0,0,.34-.34Zm.07.34a.19.19,0,0,1,.07-.14C3774.21,4783.16,3774.19,4783.21,3774.28,4783.3Zm.14-5.63c-.1.18-.14.25-.14.2l.14.14Zm.54,3.93a.31.31,0,0,0-.17.17c0,.07,0,.1,0,.1s.11.09.21,0A.68.68,0,0,0,3775,4781.6Zm0-4.41c0-.09,0-.13.13-.13h-.27Zm.2-.34a.38.38,0,0,0-.07-.27.33.33,0,0,0-.06.21A.19.19,0,0,0,3775.16,4776.85Zm.27-.54c0-.13,0-.16-.13-.07s-.14.23,0,.27,0,.07.06.07v-.2h.07Zm-.2,2.71v.14a.15.15,0,0,0,.1,0,.12.12,0,0,1,.1,0,.84.84,0,0,1,.07-.4.18.18,0,0,1,0-.11s0-.08,0-.17a1.2,1.2,0,0,1-.17.34.23.23,0,0,0,0,.27Zm.2.41c.05,0,.08-.07.1-.07s.06,0,.11-.13v-.14l-.14.14-.14.13Zm0-3.86c.09.22.18.36.27.4A.54.54,0,0,0,3775.43,4775.57Zm0,5.08c0,.09.05.12.14.07S3775.52,4780.65,3775.43,4780.65Zm.14-.4c0,.13,0,.2.07.2S3775.7,4780.29,3775.57,4780.25Zm.07-9.36q.14-.07,0-.21Zm.06,9.29a.71.71,0,0,0,.34-.27.18.18,0,0,1,.07-.17s0-.06,0-.11a.17.17,0,0,0,.07-.13,1.16,1.16,0,0,1,.34-.54.25.25,0,0,0,0-.14.49.49,0,0,1,0-.2l-.2.2a.82.82,0,0,1-.07.34c-.23-.09-.34-.07-.34.07h.2a2.12,2.12,0,0,0-.13.54s0,.11-.14.2S3775.61,4780,3775.7,4780.18Zm.21-1.7c.09.14.18.16.27.07A.54.54,0,0,0,3775.91,4778.48Zm.47-3.93a.32.32,0,0,1,.07-.34.4.4,0,0,0,.14-.27h-.14a.24.24,0,0,1-.07.2.86.86,0,0,0-.13.2C3776.2,4774.39,3776.25,4774.46,3776.38,4774.55Zm.27,2.51a.2.2,0,0,0-.2.13l.27.14A.68.68,0,0,1,3776.65,4777.06Zm.27-3.66q0-.21-.06-.21Q3776.79,4773.4,3776.92,4773.4Zm.07-.48v.2h.21Zm.82,2.31a.21.21,0,0,0-.24,0l-.24.13c.09.05.13.09.1.14s0,.11.11.2a.16.16,0,0,0,.1-.2C3777.61,4775.41,3777.67,4775.32,3777.81,4775.23Zm.06-8.68c.05,0,.07,0,.07,0s0,0,.07,0S3778,4766.46,3777.87,4766.55Zm.14,8c-.09.09-.07.16.07.2A.28.28,0,0,0,3778,4774.55Zm.88-6a.63.63,0,0,0-.41.2h.28a.18.18,0,0,0,.06-.1S3778.85,4768.63,3778.89,4768.58Zm.27.27a.62.62,0,0,1-.1.31.56.56,0,0,0-.1.3h.27a.54.54,0,0,1,.07-.27.24.24,0,0,1,.07-.2c0-.05-.08-.07-.11-.07S3779.21,4768.9,3779.16,4768.85Zm.27.07c.05-.09,0-.14-.13-.14a.23.23,0,0,1,.07.14Zm-.06,2.92a.53.53,0,0,0,.54-.34h-.07l-.2.13A1.24,1.24,0,0,1,3779.37,4771.84Zm.13-3.19a.24.24,0,0,0,.21-.14C3779.52,4768.6,3779.46,4768.65,3779.5,4768.65Zm.41-.34c-.09-.09-.15-.1-.17,0s-.08.08-.17,0a.27.27,0,0,0,.27.2.15.15,0,0,1,0-.1A.12.12,0,0,0,3779.91,4768.31Zm-.07,3c.09.05.14,0,.14-.07A.19.19,0,0,1,3779.84,4771.36Zm.61-.68c-.18,0-.34.12-.47.48l.06-.07.21-.2c0-.09.08-.14.1-.14A.16.16,0,0,0,3780.45,4770.68Zm-.13-3.46q-.15.07,0,.27c0-.09,0-.13,0-.13S3780.36,4767.31,3780.32,4767.22Zm.2,3h.2a1.61,1.61,0,0,1,.27-.41h-.13a.49.49,0,0,1-.17.2.51.51,0,0,0-.17.21.26.26,0,0,0,0,.27Zm.54-3.6a.54.54,0,0,0-.07-.27h-.27A.63.63,0,0,0,3781.06,4766.61Zm.07-.74c0,.13,0,.18.14.13S3781.22,4765.91,3781.13,4765.87Zm.2-.27s0,.06.07.06h.07a.17.17,0,0,0,0-.27l-.14.14Zm.14,3c0,.09.11.09.2,0Zm.41-.41c-.23,0-.34.09-.34.27,0,0,.06,0,.06,0s0,0,.07,0a1.24,1.24,0,0,1,.1-.17A.61.61,0,0,0,3781.88,4768.24Zm-.14-3.25.27-.14c-.13,0-.2,0-.2,0l-.07.14a.17.17,0,0,0-.07.13.19.19,0,0,0,.14.07A.28.28,0,0,0,3781.74,4765Zm.75-.41a.21.21,0,0,1-.07.13C3782.55,4764.71,3782.58,4764.67,3782.49,4764.58Zm.47-1a.16.16,0,0,1-.1.07.16.16,0,0,0-.1.07.28.28,0,0,0,.2.06Zm.2-.34-.2-.13a.17.17,0,0,1,.07.13Zm.21,2.92c-.14,0-.21,0-.21.13s.08-.06.11-.06S3783.32,4766.18,3783.37,4766.14Zm.34-1c-.14,0-.21,0-.21.07a.14.14,0,0,0,.11,0A.13.13,0,0,1,3783.71,4765.12Zm0,.34c0,.05,0,.07,0,.07s0,0,.1.13v-.2Zm.47-3.59-.13-.14C3784.05,4761.82,3784.09,4761.87,3784.18,4761.87Zm.48,3.52a.28.28,0,0,1-.21.07v.2a.28.28,0,0,1-.07.21.46.46,0,0,1,.21-.07s.09-.05.13-.14a.66.66,0,0,0-.06-.27s.13-.07.27-.2a.54.54,0,0,0-.27-.07c0,.05,0,.07,0,.07s0,0,0,.07v.06C3784.59,4765.37,3784.61,4765.39,3784.66,4765.39Zm-.21-4.07c0,.09.07.14.21.14v-.14Zm.21-1.22-.14.14c.05,0,.08.07.1.07a.18.18,0,0,1,.1.06.32.32,0,0,0,0-.17A.13.13,0,0,1,3784.66,4760.1Zm-.07,4.34a.68.68,0,0,0,.07-.27C3784.57,4764.31,3784.54,4764.4,3784.59,4764.44Zm.41.27a.61.61,0,0,0-.07.28c.13.09.2.06.2-.07a.27.27,0,0,0,.07-.21l.13-.13a.23.23,0,0,1,.07-.14h-.2v.27Zm.4-4.68c0,.05,0,.07,0,.07s0,0,0,.07h.21Zm.14,4.21a.13.13,0,0,0-.1,0,.14.14,0,0,1-.11,0,.42.42,0,0,0,.41-.07l.34-.34s0-.08.07-.1.11-.08.07-.17a.26.26,0,0,1-.14.07.63.63,0,0,1-.47-.07v.13a.24.24,0,0,0,.2.07c0,.09,0,.14-.07.14a.17.17,0,0,1-.13-.07A.82.82,0,0,1,3785.54,4764.24Zm1-1.09a.38.38,0,0,1,.27-.13.23.23,0,0,1-.14-.21c-.18.1-.25.16-.2.21-.18,0-.23.07-.14.2s-.11.05-.2.14a.15.15,0,0,1,.1,0,.15.15,0,0,0,.1,0C3786.49,4763.34,3786.56,4763.25,3786.56,4763.15Zm.13-2c.09,0,.16,0,.2-.14a.16.16,0,0,1-.1.07S3786.74,4761.07,3786.69,4761.12Zm.48.27c-.19-.09-.25-.13-.21-.13a.17.17,0,0,0,.07.13h.14Zm-.21,1.09v.06h.07v-.06Zm.21-.07a1.33,1.33,0,0,1,.23-.1c.07,0,.1-.11.1-.24a.17.17,0,0,1-.1,0,.11.11,0,0,0-.1,0v.2C3787.21,4762.2,3787.17,4762.27,3787.17,4762.41Zm.67-1a.94.94,0,0,0-.2.27l-.14.27a.58.58,0,0,0,.21,0,.31.31,0,0,1,.13,0c.09-.09.14-.15.14-.17s0-.06.07-.11v-.2Zm0-1.15a.66.66,0,0,0-.06.27h.27A2.14,2.14,0,0,1,3787.84,4760.24Zm.61.95a1.71,1.71,0,0,1,.31-.44l.3-.31a.41.41,0,0,1-.06-.27c-.14.14-.21.18-.21.14a2.75,2.75,0,0,1-.54.54c.05,0,.07,0,.07,0s0,0,.07,0a.67.67,0,0,1-.27.17.28.28,0,0,0-.21.17,1.28,1.28,0,0,0,.34.06v-.13Zm-.27-2.65c.09,0,.14-.07.14-.2A.21.21,0,0,0,3788.18,4758.54Zm0,1.56v.14c0-.09,0-.14.07-.14Zm.14-.88a.15.15,0,0,0,.1,0,.12.12,0,0,1,.1,0s0-.07,0-.07,0,0,0-.06A.69.69,0,0,1,3788.32,4759.22Zm.95,1a6.2,6.2,0,0,1,.61-.41l.07.07a.13.13,0,0,1,0-.1.17.17,0,0,0,0-.1l-.06-.07s-.07,0-.07-.07-.14.08-.14.1,0,0-.13,0v.2a.69.69,0,0,0-.34.07Zm1.08-.95a.38.38,0,0,0-.13-.1.67.67,0,0,1-.14-.11c0,.1,0,.15,0,.17s.07.08.07.17C3790.24,4759.33,3790.31,4759.29,3790.35,4759.29Zm0-2.51c0-.05.05-.11.14-.2q-.21-.08-.27.06a.23.23,0,0,1,.07.14Zm.41,2,.14-.28A.27.27,0,0,0,3790.76,4758.75Zm.95-.61a.63.63,0,0,0,.07-.21.47.47,0,0,1,.07-.2.76.76,0,0,0-.21.13.17.17,0,0,1-.13.07Zm.47-.68a1.83,1.83,0,0,0-.2.27c.05,0,.08.07.1.07a.18.18,0,0,1,.1.06.3.3,0,0,1,.07-.2C3792.3,4757.62,3792.27,4757.55,3792.18,4757.46Zm.75-.41c-.23,0-.32.05-.27.14S3792.79,4757.19,3792.93,4757.05Zm.61-1.36a1.17,1.17,0,0,0-.27-.2.82.82,0,0,1,.07.34.16.16,0,0,1,.1-.07A.16.16,0,0,0,3793.54,4755.69Zm.75.75s.11,0,.2-.14a.72.72,0,0,0-.41,0C3794.17,4756.4,3794.24,4756.44,3794.29,4756.44Zm2.1.61a.16.16,0,0,1-.07-.1.16.16,0,0,0-.07-.1C3796.25,4757,3796.3,4757.05,3796.39,4757.05Zm.34-.95c-.14-.14-.23-.18-.27-.14S3796.55,4756.1,3796.73,4756.1Zm.27,1a.24.24,0,0,0-.07.2C3797,4757.32,3797,4757.25,3797,4757.12Zm.81.2q.08-.19-.06-.27A.66.66,0,0,0,3797.81,4757.32Z" transform="translate(-3580.97 -4168.57)"/></svg>